<?xml version="1.0" encoding="UTF-8" standalone="no"?>
<!-- Created with Inkscape (http://www.inkscape.org/) -->

<svg
   xmlns:dc="http://purl.org/dc/elements/1.1/"
   xmlns:cc="http://creativecommons.org/ns#"
   xmlns:rdf="http://www.w3.org/1999/02/22-rdf-syntax-ns#"
   xmlns:svg="http://www.w3.org/2000/svg"
   xmlns="http://www.w3.org/2000/svg"
   xmlns:sodipodi="http://sodipodi.sourceforge.net/DTD/sodipodi-0.dtd"
   xmlns:inkscape="http://www.inkscape.org/namespaces/inkscape"
   width="166.04167mm"
   height="55.672619mm"
   viewBox="0 0 166.04167 55.672619"
   version="1.1"
   id="svg8"
   inkscape:version="0.92.2 2405546, 2018-03-11"
   sodipodi:docname="boton.svg">
  <defs
     id="defs2" />
  <sodipodi:namedview
     id="base"
     pagecolor="#ffffff"
     bordercolor="#666666"
     borderopacity="1.0"
     inkscape:pageopacity="0.0"
     inkscape:pageshadow="2"
     inkscape:zoom="0.98994949"
     inkscape:cx="371.39465"
     inkscape:cy="231.11872"
     inkscape:document-units="mm"
     inkscape:current-layer="layer1"
     showgrid="false"
     inkscape:window-width="1366"
     inkscape:window-height="768"
     inkscape:window-x="0"
     inkscape:window-y="0"
     inkscape:window-maximized="0"
     fit-margin-top="0"
     fit-margin-left="0"
     fit-margin-right="0"
     fit-margin-bottom="0" />
  <metadata
     id="metadata5">
    <rdf:RDF>
      <cc:Work
         rdf:about="">
        <dc:format>image/svg+xml</dc:format>
        <dc:type
           rdf:resource="http://purl.org/dc/dcmitype/StillImage" />
        <dc:title />
      </cc:Work>
    </rdf:RDF>
  </metadata>
  <g
     inkscape:label="Layer 1"
     inkscape:groupmode="layer"
     id="layer1"
     transform="translate(-21.979164,-120.66369)">
    <path
       style="fill:#ffff00;stroke:#8800aa;stroke-width:2;stroke-linecap:round;stroke-linejoin:round;stroke-miterlimit:4;stroke-dasharray:none;stroke-opacity:1"
       d="m 27.062331,139.17713 c -0.115481,6.58317 0.309444,12.84209 0.613938,19.17327 6.420783,-0.0325 12.909185,0.0477 19.595713,0.45809 -0.05055,-6.93195 1.185086,-13.71352 0.899659,-20.56598 -6.749508,-0.26232 -14.04246,0.56226 -21.10931,0.93462 z"
       id="path828"
       inkscape:connector-curvature="0"
       sodipodi:nodetypes="ccccc" />
    <g
       id="g842"
       transform="translate(21.903721,-0.52855089)">
      <path
         sodipodi:nodetypes="cccc"
         inkscape:connector-curvature="0"
         id="path830"
         d="m 19.022745,143.53014 c -2.376035,0.0364 -5.861837,-0.011 -7.825248,0.17376 0.512649,1.26899 0.498893,7.66115 0.241475,10.76759 2.62264,0.0531 5.216803,-0.14472 7.784749,-0.17744"
         style="fill:none;stroke:#8800aa;stroke-width:2;stroke-linecap:round;stroke-linejoin:round;stroke-miterlimit:4;stroke-dasharray:none;stroke-opacity:1" />
      <path
         sodipodi:nodetypes="cc"
         inkscape:connector-curvature="0"
         id="path832"
         d="M 16.721937,148.81732 H 11.777452"
         style="fill:none;stroke:#8800aa;stroke-width:2;stroke-linecap:round;stroke-linejoin:round;stroke-miterlimit:4;stroke-dasharray:none;stroke-opacity:1" />
    </g>
    <g
       id="g869"
       style="stroke:#8800aa;fill:#ffff00"
       transform="translate(23.241705,47.857367)">
      <path
         sodipodi:nodetypes="ccccc"
         inkscape:connector-curvature="0"
         id="path863"
         d="m 28.642793,108.08887 18.003571,2.35159 c 0.635416,-6.99009 3.227629,-12.68485 4.323421,-19.206522 -6.594231,-0.866616 -13.339364,-0.978715 -20.013168,-1.447461 -0.694495,6.228765 -1.361428,12.503463 -2.313824,18.302393 z"
         style="fill:#ffff00;stroke:#8800aa;stroke-width:2;stroke-linecap:round;stroke-linejoin:round;stroke-miterlimit:4;stroke-dasharray:none;stroke-opacity:1" />
      <path
         sodipodi:nodetypes="cccc"
         inkscape:connector-curvature="0"
         id="path865"
         d="m 35.256096,103.20463 c 0.04725,-0.11812 1.086682,-5.953123 1.086682,-5.953123 3.198192,4.529703 3.225396,4.862933 4.204984,5.953113 l 2.031622,-7.417771"
         style="fill:#ffff00;stroke:#8800aa;stroke-width:2;stroke-linecap:round;stroke-linejoin:round;stroke-miterlimit:4;stroke-dasharray:none;stroke-opacity:1" />
    </g>
    <g
       id="g886"
       style="stroke:#8800aa;fill:#ffff00"
       transform="translate(-2.112689,46.742146)">
      <path
         sodipodi:nodetypes="ccccc"
         inkscape:connector-curvature="0"
         id="path877"
         d="m 78.440847,93.728628 c 0.904797,6.987162 2.572492,14.410272 2.67338,20.938062 7.277863,-0.81602 14.930909,-1.1318 21.522233,-2.86321 l -1.27083,-20.837795 c -7.652634,0.950424 -15.610185,2.713953 -22.924783,2.762943 z"
         style="fill:#ffff00;stroke:#8800aa;stroke-width:2;stroke-linecap:round;stroke-linejoin:round;stroke-miterlimit:4;stroke-dasharray:none;stroke-opacity:1" />
      <path
         sodipodi:nodetypes="cc"
         inkscape:connector-curvature="0"
         id="path879"
         d="m 85.21034,100.3707 c 2.940629,-0.31422 5.876932,-0.658719 8.786455,-1.190677"
         style="fill:#ffff00;stroke:#8800aa;stroke-width:2;stroke-linecap:round;stroke-linejoin:round;stroke-miterlimit:4;stroke-dasharray:none;stroke-opacity:1" />
      <path
         sodipodi:nodetypes="cc"
         inkscape:connector-curvature="0"
         id="path881"
         d="m 89.830016,99.906764 c 0.08949,0.593416 0.888865,5.031376 0.690185,8.407006"
         style="fill:#ffff00;stroke:#8800aa;stroke-width:2;stroke-linecap:round;stroke-linejoin:round;stroke-miterlimit:4;stroke-dasharray:none;stroke-opacity:1" />
    </g>
    <path
       style="fill:#ffff00;stroke:#8800aa;stroke-width:2;stroke-linecap:round;stroke-linejoin:round;stroke-miterlimit:4;stroke-dasharray:none;stroke-opacity:1"
       d="m 104.17379,139.06631 c 0.79465,-0.49665 2.36032,19.43666 2.67523,19.60009 2.41982,0.73689 19.98726,-0.43015 21.69358,-2.65133 0.97543,-5.88914 -0.10464,-12.6207 -0.3682,-18.96038 z"
       id="path895"
       inkscape:connector-curvature="0"
       sodipodi:nodetypes="ccccc" />
    <path
       style="fill:none;stroke:#8800aa;stroke-width:2;stroke-linecap:round;stroke-linejoin:round;stroke-miterlimit:4;stroke-dasharray:none;stroke-opacity:1"
       d="m 114.14868,153.61097 c -0.0637,-3.17219 -0.2246,-6.33051 -1.15755,-9.37853"
       id="path897"
       inkscape:connector-curvature="0"
       sodipodi:nodetypes="cc" />
    <path
       style="fill:none;stroke:#8800aa;stroke-width:2;stroke-linecap:round;stroke-linejoin:round;stroke-miterlimit:4;stroke-dasharray:none;stroke-opacity:1"
       d="m 110.62878,144.58679 c 2.06357,-0.46284 3.50295,-0.96927 5.19718,-1.08668 4.3536,-0.42517 5.45202,4.84648 -0.99219,5.14992 2.38234,0.98548 5.08398,1.92183 6.70907,3.02381"
       id="path899"
       inkscape:connector-curvature="0"
       sodipodi:nodetypes="cccc" />
    <path
       sodipodi:nodetypes="ccccc"
       inkscape:connector-curvature="0"
       id="path925"
       d="m 160.85048,137.42643 c 0.85552,-0.3824 -0.34097,19.57648 -0.0516,19.78175 2.29517,1.06336 20.41115,1.73128 23.20662,1.29436 0.34312,-7.0105 0.16501,-13.55142 0.89379,-19.76076 z"
       style="fill:#ffff00;stroke:#8800aa;stroke-width:2;stroke-linecap:round;stroke-linejoin:round;stroke-miterlimit:4;stroke-dasharray:none;stroke-opacity:1" />
    <path
       sodipodi:nodetypes="cc"
       inkscape:connector-curvature="0"
       id="path927"
       d="m 168.72563,153.20704 c 0.3741,-3.1507 0.65002,-6.30106 0.14605,-9.44857"
       style="fill:none;stroke:#8800aa;stroke-width:2;stroke-linecap:round;stroke-linejoin:round;stroke-miterlimit:4;stroke-dasharray:none;stroke-opacity:1" />
    <path
       sodipodi:nodetypes="cccc"
       inkscape:connector-curvature="0"
       id="path929"
       d="m 166.48304,143.78386 c 2.10766,-0.17403 3.6031,-0.47725 5.29735,-0.36004 4.37065,0.17891 4.73205,5.55164 -1.69249,4.96404 2.22379,1.30441 4.7706,2.60416 6.2283,3.9196"
       style="fill:none;stroke:#8800aa;stroke-width:2;stroke-linecap:round;stroke-linejoin:round;stroke-miterlimit:4;stroke-dasharray:none;stroke-opacity:1" />
    <g
       id="g955"
       style="stroke:#8800aa;fill:#ffff00"
       transform="rotate(6.9279111,-198.38242,73.924278)">
      <path
         sodipodi:nodetypes="ccccc"
         inkscape:connector-curvature="0"
         id="path946"
         d="m 140.33269,117.89927 c -0.56602,-6.90293 1.12129,-12.77827 0.47274,-20.134762 6.84654,-1.044988 14.3495,-0.995955 21.53671,-1.473158 -0.10623,7.0776 -0.54575,14.2663 -0.3047,21.22815 z"
         style="fill:#ffff00;stroke:#8800aa;stroke-width:2;stroke-linecap:round;stroke-linejoin:round;stroke-miterlimit:4;stroke-dasharray:none;stroke-opacity:1" />
      <path
         sodipodi:nodetypes="ccc"
         inkscape:connector-curvature="0"
         id="path948"
         d="m 147.93972,112.88356 3.02382,-9.75651 5.10724,8.9288"
         style="fill:#ffff00;stroke:#8800aa;stroke-width:2;stroke-linecap:round;stroke-linejoin:round;stroke-miterlimit:4;stroke-dasharray:none;stroke-opacity:1" />
      <path
         sodipodi:nodetypes="cc"
         inkscape:connector-curvature="0"
         id="path950"
         d="m 149.09728,110.11961 c 1.40428,-0.75598 3.22732,-0.89351 4.74833,-1.2993"
         style="fill:#ffff00;stroke:#8800aa;stroke-width:2;stroke-linecap:round;stroke-linejoin:round;stroke-miterlimit:4;stroke-dasharray:none;stroke-opacity:1" />
    </g>
  </g>
</svg>
