<?xml version="1.0" encoding="UTF-8" standalone="no"?>
<!-- Created with Inkscape (http://www.inkscape.org/) -->

<svg
   xmlns:dc="http://purl.org/dc/elements/1.1/"
   xmlns:cc="http://creativecommons.org/ns#"
   xmlns:rdf="http://www.w3.org/1999/02/22-rdf-syntax-ns#"
   xmlns:svg="http://www.w3.org/2000/svg"
   xmlns="http://www.w3.org/2000/svg"
   xmlns:sodipodi="http://sodipodi.sourceforge.net/DTD/sodipodi-0.dtd"
   xmlns:inkscape="http://www.inkscape.org/namespaces/inkscape"
   width="166.04167mm"
   height="55.672619mm"
   viewBox="0 0 166.04167 55.672619"
   version="1.1"
   id="svg8"
   inkscape:version="0.92.2 2405546, 2018-03-11"
   sodipodi:docname="boton.svg">
  <defs
     id="defs2" />
  <sodipodi:namedview
     id="base"
     pagecolor="#ffffff"
     bordercolor="#666666"
     borderopacity="1.0"
     inkscape:pageopacity="0.0"
     inkscape:pageshadow="2"
     inkscape:zoom="0.98994949"
     inkscape:cx="364.54534"
     inkscape:cy="54.477889"
     inkscape:document-units="mm"
     inkscape:current-layer="layer1"
     showgrid="false"
     inkscape:window-width="1366"
     inkscape:window-height="768"
     inkscape:window-x="0"
     inkscape:window-y="0"
     inkscape:window-maximized="0"
     fit-margin-top="0"
     fit-margin-left="0"
     fit-margin-right="0"
     fit-margin-bottom="0" />
  <metadata
     id="metadata5">
    <rdf:RDF>
      <cc:Work
         rdf:about="">
        <dc:format>image/svg+xml</dc:format>
        <dc:type
           rdf:resource="http://purl.org/dc/dcmitype/StillImage" />
        <dc:title />
      </cc:Work>
    </rdf:RDF>
  </metadata>
  <g
     inkscape:label="Layer 1"
     inkscape:groupmode="layer"
     id="layer1"
     transform="translate(-21.979164,-120.66369)">
    <path
       style="fill:#ffff00;stroke:#000000;stroke-width:0.26458332px;stroke-linecap:butt;stroke-linejoin:miter;stroke-opacity:1"
       d="m 131.8496,157.99307 0.71116,-20.34762 20.77718,-0.76407 -0.32235,20.96098 z"
       id="path849"
       inkscape:connector-curvature="0"
       sodipodi:nodetypes="ccccc" />
    <path
       sodipodi:nodetypes="ccccc"
       inkscape:connector-curvature="0"
       id="path851"
       d="m 159.46053,159.6301 -2.97141,-20.25649 23.35538,-2.33023 1.53065,20.04373 z"
       style="fill:#ffff00;stroke:#000000;stroke-width:0.26458332px;stroke-linecap:butt;stroke-linejoin:miter;stroke-opacity:1" />
    <path
       sodipodi:nodetypes="ccccc"
       inkscape:connector-curvature="0"
       id="path847"
       d="m 107.10911,159.35902 -2.88207,-20.03282 23.16315,-2.06336 1.92189,19.68531 c -6.98896,1.95733 -14.59993,2.17299 -22.20297,2.41087 z"
       style="fill:#ffff00;stroke:#000000;stroke-width:0.26458332px;stroke-linecap:butt;stroke-linejoin:miter;stroke-opacity:1" />
    <path
       style="fill:#ffff00;stroke:#000000;stroke-width:0.26458332px;stroke-linecap:butt;stroke-linejoin:miter;stroke-opacity:1"
       d="m 79.862466,159.04465 -2.622213,-20.55254 22.572567,-3.15005 1.6384,21.10273 z"
       id="path845"
       inkscape:connector-curvature="0"
       sodipodi:nodetypes="ccccc" />
    <path
       sodipodi:nodetypes="ccccc"
       inkscape:connector-curvature="0"
       id="path843"
       d="m 52.251969,155.7354 2.841811,-18.47144 19.123534,1.8109 -3.795008,19.11835 z"
       style="fill:#ffff00;stroke:#000000;stroke-width:0.26458332px;stroke-linecap:butt;stroke-linejoin:miter;stroke-opacity:1" />
    <path
       style="fill:#ffff00;stroke:#000000;stroke-width:0.26458332px;stroke-linecap:butt;stroke-linejoin:miter;stroke-opacity:1"
       d="m 29.937514,157.16008 -1.133932,-18.68628 20.682686,-0.6932 -0.440469,20.11054 z"
       id="path840"
       inkscape:connector-curvature="0"
       sodipodi:nodetypes="ccccc" />
    <path
       inkscape:connector-curvature="0"
       id="path842"
       style="font-style:normal;font-variant:normal;font-weight:normal;font-stretch:normal;font-size:medium;line-height:1.25;font-family:'Cute Notes';-inkscape-font-specification:'Cute Notes';letter-spacing:0px;word-spacing:0px;fill:#8800aa;fill-opacity:1;stroke:#8800aa;stroke-width:0.7;stroke-miterlimit:4;stroke-dasharray:none"
       d="m 50.240129,136.59858 q 0.666212,0.82906 0.666212,0.99191 l -0.340508,1.64333 q 0.177656,2.96094 0.177656,4.97438 v 1.34722 q -0.829063,5.15204 -0.829063,12.43595 -0.236875,0.68102 -0.829063,0.99192 -11.162745,-0.32571 -16.581266,-0.66621 h -0.340508 q -1.080744,0 -3.316253,0.16285 l -0.325704,-0.48856 0.325704,-1.65812 q -0.666212,-5.84786 -0.666212,-10.94068 0,-0.17765 0.177656,-0.50336 l -0.177656,-0.99191 v -1.33243 q 0,-1.5841 -0.325703,-4.32297 0.325703,-0.74023 0.666211,-0.82906 11.444035,-0.48856 12.598801,-0.48856 h 3.982465 q 1.139962,0 5.137231,-0.3257 z m -3.153401,1.80617 h -4.97438 q -1.376837,0 -12.273097,0.50336 0,0.32571 -0.325704,0.32571 l 0.325704,5.81824 q -0.162852,1.13997 -0.162852,1.82098 0.340508,6.97302 0.829063,9.78591 0.325703,0.16285 0.50336,0.16285 15.530131,0.35531 17.069821,0.66621 0.340508,-0.41453 0.340508,-0.66621 0,-8.46829 0.829064,-11.76974 -0.162852,-5.59617 -0.162852,-6.46965 -0.340509,0 -0.340509,-0.34051 z m -10.940674,4.32298 q 4.574652,0.17765 5.803442,0.17765 l 0.829064,-0.17765 0.50336,0.66621 v 0.3257 q 0,0.26648 -0.666212,0.66621 h -4.145317 l -1.998634,-0.17765 q 0,0.35531 -0.325703,0.35531 0,3.4791 1.154767,3.4791 0.69582,0 1.835783,0.14805 0.858672,-0.14805 1.658126,-0.14805 l 0.488555,0.65141 v 0.34051 q 0,0.26648 -0.666212,0.6514 h -3.804808 q -0.236875,0 -0.503359,0.50337 v 1.16957 l -0.162852,1.65812 0.503359,0.32571 h 6.129147 q 0.266484,0 0.666212,0.66621 v 0.3257 q 0,0.25168 -0.666212,0.66621 -0.592188,0 -1.495275,-0.16285 l -1.154767,0.16285 q -0.281289,0 -1.998634,-0.16285 -1.806174,0.16285 -3.138597,0.16285 -0.50336,-0.54777 -0.50336,-0.84387 l 0.50336,-6.11434 q -0.340509,-2.94613 -0.829063,-4.32297 v -0.16285 q 0,-0.65141 1.98383,-0.82906 z" />
    <path
       inkscape:connector-curvature="0"
       id="path844"
       style="font-style:normal;font-variant:normal;font-weight:normal;font-stretch:normal;font-size:medium;line-height:1.25;font-family:'Cute Notes';-inkscape-font-specification:'Cute Notes';letter-spacing:0px;word-spacing:0px;fill:#8800aa;fill-opacity:1;stroke:#8800aa;stroke-width:0.7;stroke-miterlimit:4;stroke-dasharray:none"
       d="m 54.651931,136.42092 q 5.048402,0.68102 20.223224,1.49528 0.503359,0.60699 0.503359,1.16957 v 0.65141 q 0,1.62851 -2.990549,11.44403 -0.547775,7.80208 -1.820978,7.80208 l -12.939312,-1.65813 -4.47102,-0.66621 q -0.281288,0.16285 -0.829063,0.16285 -0.666211,-0.3257 -0.666211,-0.99191 1.820978,-12.31752 1.820978,-16.74412 0.562578,-2.66485 1.169572,-2.66485 z m -1.169572,18.41705 q 0,0.53297 8.453485,1.49528 5.137232,0.48855 7.802079,0.99191 0.562579,0 1.154767,-6.95821 2.827698,-8.88282 2.827698,-10.12642 v -0.3257 q 0,-1.00672 -8.793993,-1.00672 l -9.282549,-0.66621 q -0.666213,0 -1.169572,9.29735 -0.325704,0 -0.991915,7.29872 z m 12.776459,-12.11024 h 0.162852 q 0.25168,0 0.666211,0.66621 v 0.3257 q -1.998635,7.71325 -1.998635,8.12778 l -0.325703,0.17766 h -0.50336 q -0.932698,-0.68102 -2.487191,-3.83442 -0.784649,-0.99191 -1.317619,-0.99191 -0.296093,0.87347 -0.666211,3.98246 l -0.666212,0.48855 h -0.162852 q -0.162851,0 -0.666211,-0.6514 0.562578,-6.83977 1.658127,-7.12106 h 0.503359 q 0.296094,0 1.658127,2.48719 0.207265,0.0296 1.82098,2.14668 0.429336,0 1.658127,-5.31489 z" />
    <path
       inkscape:connector-curvature="0"
       id="path846"
       style="font-style:normal;font-variant:normal;font-weight:normal;font-stretch:normal;font-size:medium;line-height:1.25;font-family:'Cute Notes';-inkscape-font-specification:'Cute Notes';letter-spacing:0px;word-spacing:0px;fill:#8800aa;fill-opacity:1;stroke:#8800aa;stroke-width:0.7;stroke-miterlimit:4;stroke-dasharray:none"
       d="m 100.66494,134.61475 0.48856,0.65141 v 1.65812 l -0.14805,0.99192 q 0.3109,0.78465 0.99192,13.10216 0.14804,1.05113 0.14804,5.64059 -1.88019,1.52488 -13.590711,2.65004 l -9.4454,0.66621 -0.340508,-0.48855 v -1.65813 q 0,-1.95422 -1.317619,-9.1345 -1.332422,-7.35794 -1.332422,-10.60017 0.384921,-0.99191 2.324337,-0.99191 h 2.812894 q 16.492437,-2.48719 19.408959,-2.48719 z m -18.742748,3.96766 h -3.316253 q -0.606992,0 -0.991915,0.50336 0,0.6218 1.317618,8.95684 1.332424,7.18028 1.332424,9.4454 v 0.16285 q 0.325704,0.66622 0.991915,0.66622 19.408959,-1.45087 19.408959,-2.97575 -0.16285,-0.90309 -0.16285,-1.49527 0,-0.50336 0.16285,-0.50336 l -0.16285,-1.16958 v -2.14668 Q 99.510177,137.931 99.510177,136.92428 v -0.3257 q 0,-0.34051 -0.503359,-0.34051 -1.465666,0 -17.084626,2.32434 z m 9.785908,4.48582 h 0.666212 q 0.236875,0 0.488554,0.48856 v 0.50336 q 0,0.50336 -3.316252,0.82906 -0.162852,0.32571 -0.162852,0.50336 0.50336,2.93133 0.50336,4.97438 v 2.48719 q 0,0.23688 -0.666212,0.65141 h -0.162851 q -0.666212,-0.34051 -0.666212,-0.82907 0,-0.29609 -0.162852,-2.99055 l 0.162852,-0.3257 q -0.50336,-4.14531 -1.169571,-4.14531 -0.651408,0 -3.138597,0.3405 l -0.503361,-0.66621 v -0.3257 q 0.266485,-1.00672 4.811529,-1.00672 2.087463,-0.48856 3.316253,-0.48856 z" />
    <path
       inkscape:connector-curvature="0"
       id="path848"
       style="font-style:normal;font-variant:normal;font-weight:normal;font-stretch:normal;font-size:medium;line-height:1.25;font-family:'Cute Notes';-inkscape-font-specification:'Cute Notes';letter-spacing:0px;word-spacing:0px;fill:#8800aa;fill-opacity:1;stroke:#8800aa;stroke-width:0.7;stroke-miterlimit:4;stroke-dasharray:none"
       d="m 128.42376,136.09522 0.34051,0.50336 v 1.15477 q 1.15477,12.24348 1.15477,15.26364 l -0.16285,0.82907 q 0.16285,1.5841 0.16285,3.1534 v 0.16285 q 0,0.9475 -5.80345,1.65812 -3.47911,1.15477 -6.46965,1.15477 h -4.14532 q -0.69582,0 -1.33242,-0.16285 -0.82907,0.11844 -5.30009,0.3257 -1.22879,0 -1.82097,-11.26637 -0.9475,-6.292 -2.16149,-9.28255 v -0.17766 q 0,-1.02152 1.49527,-1.31762 2.85731,0.14805 3.31626,0.14805 l 12.76165,-1.13996 q 1.27321,-0.35531 7.96493,-1.00672 z m -21.55565,3.64196 h -1.82097 q -0.34051,0 -0.34051,0.50335 1.22879,1.48048 1.99863,11.60689 l 0.82907,6.3068 q 0.39972,0.32571 0.6514,0.32571 2.78329,0 4.14532,-0.16285 2.08746,0.16285 5.15204,0.16285 h 0.16285 q 10.61497,-1.74696 10.61497,-2.30954 h 0.16285 l -0.16285,-2.01344 v -3.62715 q 0,-2.65004 -1.16957,-12.43595 l -0.3109,-0.17765 q -9.7415,1.16957 -15.44131,1.49527 0,0.32571 -4.47102,0.32571 z m 9.28255,3.1682 q 3.81962,0 3.81962,2.65004 v 1.13996 q -0.23688,0.65141 -2.32434,2.33915 0.51816,0.6218 3.64195,1.64332 0.99192,0.85867 0.99192,0.99191 v 0.50336 q -0.34051,0.68102 -0.82906,0.68102 -1.42126,-1.00672 -6.63251,-2.99055 0,0.16285 -0.16285,0.16285 0.16285,1.93942 0.16285,2.8277 v 0.81426 q 0,0.25168 -0.48856,0.48855 h -0.50336 q -0.23687,0 -0.48855,-0.48855 0,-7.20989 -1.33242,-8.61634 h -0.16286 q -0.60699,0.34051 -1.33242,0.34051 -0.23687,0 -0.48855,-0.50336 v -0.50336 q 0,-0.93269 6.12914,-1.48047 z m -1.98383,2.14668 q 0.16285,2.48719 0.99192,2.48719 3.31625,0 3.31625,-1.98383 -0.34051,-0.99191 -1.33242,-0.99191 h -0.32571 q -2.65004,0 -2.65004,0.48855 z" />
    <path
       inkscape:connector-curvature="0"
       id="path850"
       style="font-style:normal;font-variant:normal;font-weight:normal;font-stretch:normal;font-size:medium;line-height:1.25;font-family:'Cute Notes';-inkscape-font-specification:'Cute Notes';letter-spacing:0px;word-spacing:0px;fill:#8800aa;fill-opacity:1;stroke:#8800aa;stroke-width:0.7;stroke-miterlimit:4;stroke-dasharray:none"
       d="m 153.87304,135.91756 q 0,0.25168 0.50336,0.50336 l -0.3257,7.78728 q 0.3257,7.99453 0.3257,12.45075 0,1.40645 -1.33242,2.32434 -1.51008,0 -5.47775,0.16285 -1.64331,0 -6.79535,-0.16285 -4.16012,0.16285 -6.6325,0.16285 -3.15341,0 -3.15341,-1.49528 -0.3257,-2.96094 -0.3257,-4.48582 0.82906,-7.92052 0.82906,-8.95684 -0.16285,-2.72407 -0.16285,-4.13052 0.2961,-3.33105 0.99191,-3.33105 9.29736,-0.48856 21.55565,-0.82907 z m -21.05228,5.15204 q 0.16285,1.13996 0.16285,1.83578 v 2.14668 q 0,1.93942 -0.82907,7.96493 0,4.47102 1.15477,4.47102 l 0.82907,0.16285 q 5.31488,-0.16285 6.97301,-0.16285 2.38355,0 5.46293,0.16285 1.71735,-0.16285 5.80344,-0.16285 l 0.34051,-0.48855 q 0,-1.36203 0.16286,-2.16149 -0.34052,-8.37946 -0.34052,-13.11696 l 0.17766,-0.65141 q -0.17766,-0.28129 -0.17766,-0.82907 0,-0.25167 0.17766,-2.65004 -0.17766,0 -0.17766,-0.17765 -5.59617,0.29609 -17.06981,0.68101 -2.48719,0 -2.48719,0.99192 0,1.98383 -0.16285,1.98383 z m 9.11969,1.65813 h 0.65141 q 2.16149,1.95422 4.81153,7.95012 0.45894,0 0.66621,1.67293 l -0.66621,0.50336 h -0.48856 q -0.20727,0 -1.65813,-2.8277 h -0.17765 q -4.47102,0.41453 -4.47102,1.64332 -0.3257,2.1763 -0.99192,2.1763 h -0.34051 q -0.25168,0 -0.6514,-0.68102 l 0.48856,-1.98383 q -0.16285,-0.90309 -0.16285,-1.31762 0.82906,0 1.82097,-4.81153 0.68101,-2.05785 1.16957,-2.32433 z m -0.34051,5.80344 v 0.16285 l 0.16285,0.34051 q 2.48719,-0.44414 2.48719,-0.84387 0,-0.84387 -1.65812,-2.63524 -0.45894,0 -0.99192,2.97575 z" />
    <path
       inkscape:connector-curvature="0"
       id="path852"
       style="font-style:normal;font-variant:normal;font-weight:normal;font-stretch:normal;font-size:medium;line-height:1.25;font-family:'Cute Notes';-inkscape-font-specification:'Cute Notes';letter-spacing:0px;word-spacing:0px;fill:#8800aa;fill-opacity:1;stroke:#8800aa;stroke-width:0.7;stroke-miterlimit:4;stroke-dasharray:none"
       d="m 180.65474,136.09522 0.34051,0.50336 v 1.15477 q 1.15477,12.24348 1.15477,15.26364 l -0.16285,0.82907 q 0.16285,1.5841 0.16285,3.1534 v 0.16285 q 0,0.9475 -5.80344,1.65812 -3.47911,1.15477 -6.46966,1.15477 h -4.14531 q -0.69582,0 -1.33243,-0.16285 -0.82906,0.11844 -5.30008,0.3257 -1.22879,0 -1.82098,-11.26637 -0.9475,-6.292 -2.16148,-9.28255 v -0.17766 q 0,-1.02152 1.49527,-1.31762 2.85731,0.14805 3.31626,0.14805 l 12.76165,-1.13996 q 1.2732,-0.35531 7.96492,-1.00672 z m -21.55564,3.64196 h -1.82098 q -0.34051,0 -0.34051,0.50335 1.2288,1.48048 1.99863,11.60689 l 0.82907,6.3068 q 0.39973,0.32571 0.65141,0.32571 2.78328,0 4.14532,-0.16285 2.08746,0.16285 5.15204,0.16285 h 0.16284 q 10.61498,-1.74696 10.61498,-2.30954 h 0.16284 l -0.16284,-2.01344 v -3.62715 q 0,-2.65004 -1.16957,-12.43595 l -0.3109,-0.17765 q -9.74149,1.16957 -15.44131,1.49527 0,0.32571 -4.47102,0.32571 z m 9.28255,3.1682 q 3.81961,0 3.81961,2.65004 v 1.13996 q -0.23687,0.65141 -2.32434,2.33915 0.51817,0.6218 3.64196,1.64332 0.99192,0.85867 0.99192,0.99191 v 0.50336 q -0.34051,0.68102 -0.82907,0.68102 -1.42125,-1.00672 -6.6325,-2.99055 0,0.16285 -0.16286,0.16285 0.16286,1.93942 0.16286,2.8277 v 0.81426 q 0,0.25168 -0.48856,0.48855 h -0.50336 q -0.23688,0 -0.48855,-0.48855 0,-7.20989 -1.33243,-8.61634 h -0.16285 q -0.607,0.34051 -1.33243,0.34051 -0.23687,0 -0.48854,-0.50336 v -0.50336 q 0,-0.93269 6.12914,-1.48047 z m -1.98383,2.14668 q 0.16285,2.48719 0.99191,2.48719 3.31626,0 3.31626,-1.98383 -0.34051,-0.99191 -1.33242,-0.99191 h -0.32571 q -2.65004,0 -2.65004,0.48855 z" />
  </g>
</svg>
