<?xml version="1.0" encoding="UTF-8" standalone="no"?>
<!-- Created with Inkscape (http://www.inkscape.org/) -->

<svg
   xmlns:dc="http://purl.org/dc/elements/1.1/"
   xmlns:cc="http://creativecommons.org/ns#"
   xmlns:rdf="http://www.w3.org/1999/02/22-rdf-syntax-ns#"
   xmlns:svg="http://www.w3.org/2000/svg"
   xmlns="http://www.w3.org/2000/svg"
   xmlns:sodipodi="http://sodipodi.sourceforge.net/DTD/sodipodi-0.dtd"
   xmlns:inkscape="http://www.inkscape.org/namespaces/inkscape"
   width="210mm"
   height="297mm"
   viewBox="0 0 210 297"
   version="1.1"
   id="svg16596"
   inkscape:version="0.92.2 2405546, 2018-03-11"
   sodipodi:docname="boton1.svg">
  <defs
     id="defs16590" />
  <sodipodi:namedview
     id="base"
     pagecolor="#ffffff"
     bordercolor="#666666"
     borderopacity="1.0"
     inkscape:pageopacity="0.0"
     inkscape:pageshadow="2"
     inkscape:zoom="1.979899"
     inkscape:cx="289.63629"
     inkscape:cy="565.27068"
     inkscape:document-units="mm"
     inkscape:current-layer="layer1"
     showgrid="false"
     inkscape:window-width="1366"
     inkscape:window-height="768"
     inkscape:window-x="0"
     inkscape:window-y="0"
     inkscape:window-maximized="0"
     showborder="false" />
  <metadata
     id="metadata16593">
    <rdf:RDF>
      <cc:Work
         rdf:about="">
        <dc:format>image/svg+xml</dc:format>
        <dc:type
           rdf:resource="http://purl.org/dc/dcmitype/StillImage" />
        <dc:title />
      </cc:Work>
    </rdf:RDF>
  </metadata>
  <g
     inkscape:label="Layer 1"
     inkscape:groupmode="layer"
     id="layer1">
    <g
       id="g916"
       transform="translate(3.090638e-6)"
       inkscape:export-xdpi="200"
       inkscape:export-ydpi="200"
       inkscape:export-filename="/home/kona/mySite/AbraKdabra/graphics/site/boton1.png">
      <g
         id="g1479"
         transform="matrix(0.43635214,0,0,0.43635214,117.20487,83.88612)">
        <circle
           r="224.1727"
           cy="148.07738"
           cx="-27.970238"
           id="circle1389"
           style="opacity:1;fill:#ffff00;fill-opacity:1;fill-rule:nonzero;stroke:#cc00ff;stroke-width:10;stroke-linecap:round;stroke-linejoin:round;stroke-miterlimit:4;stroke-dasharray:10.00000039, 20.00000078;stroke-dashoffset:0;stroke-opacity:1" />
        <path
           style="fill:#ffcc00;stroke:none;stroke-width:1.56327391px;stroke-linecap:butt;stroke-linejoin:miter;stroke-opacity:1"
           d="m -8.0470471,-19.303804 c -8.4826999,-5.106101 -5.1178999,-17.4943 5.5272,-27.832402 0.8439,10.5059 7.81,24.661201 -5.5272,27.832402 z"
           id="path1391"
           inkscape:connector-curvature="0"
           sodipodi:nodetypes="ccc" />
        <path
           sodipodi:nodetypes="ccccc"
           inkscape:connector-curvature="0"
           id="path1393"
           d="m -5.5436371,23.804692 c -5.6868099,2.32501 -6.1317099,0.88161 -9.2402099,-0.9188 l 2.1648,-43.793897 c 4.8002999,3.995701 9.5875999,1.000901 9.5875999,1.000901 z"
           style="fill:#2aff2a;stroke:none;stroke-width:1.56327391px;stroke-linecap:butt;stroke-linejoin:miter;stroke-opacity:1" />
        <path
           sodipodi:nodetypes="ccc"
           inkscape:connector-curvature="0"
           id="path1395"
           d="m -44.566647,-20.519403 c 8.4826,-5.106101 5.1179,-17.4943 -5.5273,-27.832402 -0.8439,10.5059 -7.8099,24.661201 5.5273,27.832402 z"
           style="fill:#ffcc00;stroke:none;stroke-width:1.56327391px;stroke-linecap:butt;stroke-linejoin:miter;stroke-opacity:1" />
        <path
           style="fill:#ff5599;stroke:none;stroke-width:1.56327391px;stroke-linecap:butt;stroke-linejoin:miter;stroke-opacity:1"
           d="m -47.070047,22.589092 c 5.6868,2.325 6.1317,0.8816 9.2401,-0.9188 l -2.1647,-43.793896 c -4.8004,3.995701 -9.5877,1.000901 -9.5877,1.000901 z"
           id="path1397"
           inkscape:connector-curvature="0"
           sodipodi:nodetypes="ccccc" />
        <path
           style="fill:#7fff2a;stroke:none;stroke-width:1.56327391px;stroke-linecap:butt;stroke-linejoin:miter;stroke-opacity:1"
           d="m -85.999647,84.757692 c -1.9138,-17.11559 -13.1013,-62.5213 42.8008,-62.7647 l 33.4251999,0.3722 c 31.3613101,0.6416 42.7564201,15.7803 47.0938101,36.04211 4.0649,18.75039 2.5364,36.3942 -0.084,50.670698 z"
           id="path1399"
           inkscape:connector-curvature="0"
           sodipodi:nodetypes="cccccc" />
        <path
           style="fill:#d35fbc;stroke:none;stroke-width:1.56327391px;stroke-linecap:butt;stroke-linejoin:miter;stroke-opacity:1"
           d="m -109.74385,189.7684 c -15.0588,-29.4619 -18.6854,-59.97951 -22.4828,-91.488708 -5.4085,-48.8285 44.047403,-24.25529 57.821803,-20.52879 22.2794,8.2989 99.3042,33.166388 148.44,17.9627 4.0999,11.533898 8.67301,28.868788 -7.69859,56.651298 z"
           id="path1401"
           inkscape:connector-curvature="0"
           sodipodi:nodetypes="cccccc" />
        <path
           style="fill:#ff0000;stroke:none;stroke-width:1.56327391px;stroke-linecap:butt;stroke-linejoin:miter;stroke-opacity:1"
           d="m -159.35045,256.6933 c -63.5535,15.51321 -43.9074,27.12019 4.0147,37.39981 59.158803,10.8336 152.9647029,13.95619 235.489703,0.78988 44.305587,-7.37319 83.921597,-26.1017 -0.53189,-39.7089 -56.23221,-9.42269 -161.02361,-16.83898 -238.970113,1.51921 z"
           id="path1403"
           inkscape:connector-curvature="0"
           sodipodi:nodetypes="ccccc" />
        <path
           style="opacity:1;fill:#de87cd;stroke:none;stroke-width:1.56327391px;stroke-linecap:butt;stroke-linejoin:miter;stroke-opacity:1"
           d="m 41.546963,108.71809 c 14.142,-1.20169 22.25659,8.3044 13.3514,18.0946 -14.839,13.996 -20.88459,15.69701 -49.9157101,18.20931 -16.5010999,0.4727 -32.1335999,2.03259 -49.9687999,0.83829 -36.939,-1.57399 -46.3482,-20.1725 -50.5272,-36.0118 -4.911103,-24.172598 1.2579,-35.117498 30.149,-21.773198 32.9897,15.312908 72.3031999,22.595698 106.91131,20.642798 z"
           id="path1405"
           inkscape:connector-curvature="0"
           sodipodi:nodetypes="ccccccc" />
        <path
           style="fill:none;stroke:#7fff2a;stroke-width:11.25555229;stroke-linecap:butt;stroke-linejoin:miter;stroke-miterlimit:4;stroke-dasharray:none;stroke-opacity:1"
           d="m 50.902253,100.00249 c 1.27741,16.7576 3.3913,38.2734 -1.33059,52.7036"
           id="path1407"
           inkscape:connector-curvature="0"
           sodipodi:nodetypes="cc" />
        <path
           style="fill:none;stroke:#7fff2a;stroke-width:11.25555229;stroke-linecap:butt;stroke-linejoin:miter;stroke-miterlimit:4;stroke-dasharray:none;stroke-opacity:1"
           d="m 8.4349629,98.634892 c -1.84191,14.036398 -0.14322,44.477508 1.00068,57.209808"
           id="path1409"
           inkscape:connector-curvature="0"
           sodipodi:nodetypes="cc" />
        <path
           style="opacity:1;fill:#b3ff80;stroke:none;stroke-width:1.56327391px;stroke-linecap:butt;stroke-linejoin:miter;stroke-opacity:1"
           d="m 13.435243,26.626392 c -7.1361901,2.29001 -11.8658901,3.2177 -38.09699,0.1949 -21.226,-3.3541 -55.5754,22.5561 -17.9629,43.22901 15.7514,7.6664 31.8754,8.99269 56.652,4.9354 5.9734,-1.22781 18.07509,-3.7944 24.08219,-11.44931 -2.13069,-16.152 -8.45388,-29.65629 -24.6743,-36.91 z"
           id="path1411"
           inkscape:connector-curvature="0"
           sodipodi:nodetypes="cccccc" />
        <path
           style="opacity:1;fill:#ff2a2a;stroke:none;stroke-width:1.56327391px;stroke-linecap:butt;stroke-linejoin:miter;stroke-opacity:1"
           d="m 93.754573,292.41739 c 5.10069,-2.95068 9.945077,-5.50248 14.039687,-9.68808 10.37698,-13.03812 -1.25849,-15.85942 -18.077497,-12.85672 -30.99861,7.10121 -62.04802,14.08272 -95.6209001,15.00791 -33.0336099,0.58499 -63.3374099,0.82201 -96.9291129,-2.43131 -11.775,-0.91509 -38.0965,1.5086 -6.6376,11.92221 7.2413,2.4254 35.854703,8.2995 56.947803,8.0963 48.3588099,3.0576 97.17561,-1.2124 146.27762,-10.05031 z"
           id="path1413"
           inkscape:connector-curvature="0"
           sodipodi:nodetypes="cccccccc" />
        <path
           style="fill:#ff6600;stroke:none;stroke-width:0.86290932px;stroke-linecap:butt;stroke-linejoin:miter;stroke-opacity:1"
           d="m -45.148147,-21.756005 c 0,0 6.0509,-5.6687 -2.1937,-14.335799 -1.0588,6.391298 -4.6093,11.2185 2.1937,14.335799 z"
           id="path1415"
           inkscape:connector-curvature="0"
           sodipodi:nodetypes="ccc" />
        <path
           style="fill:none;stroke:#7fff2a;stroke-width:11.25555229;stroke-linecap:butt;stroke-linejoin:miter;stroke-miterlimit:4;stroke-dasharray:none;stroke-opacity:1"
           d="m -100.20235,69.842292 c -6.8252,31.020108 -4.6375,82.543398 16.203103,108.561408"
           id="path1417"
           inkscape:connector-curvature="0"
           sodipodi:nodetypes="cc" />
        <path
           style="fill:none;stroke:#7fff2a;stroke-width:11.25555229;stroke-linecap:butt;stroke-linejoin:miter;stroke-miterlimit:4;stroke-dasharray:none;stroke-opacity:1"
           d="m -49.395647,85.950292 c -6.6097,22.368008 3.6341,78.339608 9.2424,81.913008"
           id="path1419"
           inkscape:connector-curvature="0"
           sodipodi:nodetypes="cc" />
        <path
           style="fill:#00ffcc;stroke:none;stroke-width:1.56327391px;stroke-linecap:butt;stroke-linejoin:miter;stroke-opacity:1"
           d="m -143.39055,267.36321 c -2.5401,-19.33411 -7.4459,-39.14101 -13.7017,-59.21791 86.513703,-42.37231 173.651303,-71.6314 263.11862,-51.9681 -15.098427,36.4432 -31.146907,73.32961 -35.447107,104.73351 -41.099,20.38929 -111.81191,22.90878 -213.969813,6.4525 z"
           id="path1421"
           inkscape:connector-curvature="0"
           sodipodi:nodetypes="ccccc" />
        <path
           style="fill:#80ffe6;stroke:none;stroke-width:1.56327391px;stroke-linecap:butt;stroke-linejoin:miter;stroke-opacity:1"
           d="m -57.268547,240.77229 c 45.635,12.39012 97.163,30.07511 130.9237,-33.49728 14.1224,-32.83251 24.61821,-52.57371 -31.26499,-47.45711 -37.8654101,3.467 -59.71001,6.6552 -98.26321,20.37879 -70.913003,27.77901 -27.0784,50.62941 -1.3955,60.5756 z"
           id="path1423"
           inkscape:connector-curvature="0"
           sodipodi:nodetypes="ccscc" />
        <path
           sodipodi:nodetypes="ccc"
           inkscape:connector-curvature="0"
           id="path1425"
           d="m -7.4656471,-20.540403 c 0,0 -6.0507999,-5.668701 2.1937,-14.335802 1.0588,6.391301 4.60930003,11.2185 -2.1937,14.335802 z"
           style="fill:#ff6600;stroke:none;stroke-width:0.86290932px;stroke-linecap:butt;stroke-linejoin:miter;stroke-opacity:1" />
        <path
           inkscape:transform-center-y="-0.54983643"
           inkscape:transform-center-x="0.24350036"
           d="m -1573.533,-1308.9192 c -0.367,0.4368 -4.6152,-0.566 -5.1688,-0.4283 -0.5537,0.1378 -3.8369,3.0141 -4.3658,2.8001 -0.5289,-0.214 -0.8879,-4.5642 -1.19,-5.0481 -0.3021,-0.484 -4.0522,-2.7177 -4.0122,-3.2868 0.04,-0.5691 4.0665,-2.2549 4.4334,-2.6918 0.367,-0.4368 1.3325,-4.6937 1.8861,-4.8314 0.5537,-0.1378 3.4012,3.1706 3.93,3.3846 0.5289,0.214 4.8758,-0.1832 5.1778,0.3008 0.3021,0.4839 -1.9644,4.2144 -2.0045,4.7835 -0.04,0.5691 1.6809,4.5805 1.314,5.0174 z"
           inkscape:randomized="0"
           inkscape:rounded="0.11"
           inkscape:flatsided="false"
           sodipodi:arg2="1.3269784"
           sodipodi:arg1="0.69865982"
           sodipodi:r2="5.0982599"
           sodipodi:r1="8.3578024"
           sodipodi:cy="-1314.2949"
           sodipodi:cx="-1579.9326"
           sodipodi:sides="5"
           id="path1427"
           style="opacity:1;fill:#ffff00;fill-opacity:1;fill-rule:nonzero;stroke:none;stroke-width:0.67725015;stroke-linecap:round;stroke-linejoin:round;stroke-miterlimit:4;stroke-dasharray:none;stroke-dashoffset:0;stroke-opacity:1"
           sodipodi:type="star"
           transform="matrix(1.5902104,0.23809387,-0.23809387,1.5902104,2085.5596,2716.325)" />
        <path
           sodipodi:type="star"
           style="opacity:1;fill:#ffff00;fill-opacity:1;fill-rule:nonzero;stroke:none;stroke-width:1.08897483;stroke-linecap:round;stroke-linejoin:round;stroke-miterlimit:4;stroke-dasharray:none;stroke-dashoffset:0;stroke-opacity:1"
           id="path1429"
           sodipodi:sides="5"
           sodipodi:cx="-40.770531"
           sodipodi:cy="208.90892"
           sodipodi:r1="13.438811"
           sodipodi:r2="8.1976748"
           sodipodi:arg1="0.69865982"
           sodipodi:arg2="1.3269784"
           inkscape:flatsided="false"
           inkscape:rounded="0.11"
           inkscape:randomized="0"
           d="m -30.480367,217.55266 c -0.590039,0.70242 -7.42094,-0.90998 -8.311168,-0.68852 -0.890228,0.22145 -6.169463,4.84647 -7.019843,4.50237 -0.85038,-0.3441 -1.427753,-7.33893 -1.913469,-8.11716 -0.485716,-0.77822 -6.515737,-4.36986 -6.451262,-5.28495 0.06447,-0.9151 6.53854,-3.62573 7.128579,-4.32816 0.590039,-0.70243 2.142516,-7.5472 3.032744,-7.76866 0.890227,-0.22146 5.468792,5.09811 6.319172,5.44221 0.85038,0.3441 7.839885,-0.29456 8.325601,0.48367 0.485716,0.77822 -3.15864,6.77653 -3.223115,7.69162 -0.06448,0.91509 2.702799,7.36515 2.112761,8.06758 z"
           inkscape:transform-center-x="0.61279204"
           inkscape:transform-center-y="-0.17836537" />
        <path
           inkscape:transform-center-y="0.09614406"
           inkscape:transform-center-x="-0.68411404"
           d="m -1503.2992,-1309.9776 c -0.367,0.4369 -4.6152,-0.5659 -5.1689,-0.4282 -0.5536,0.1377 -3.8369,3.0141 -4.3657,2.8001 -0.5289,-0.214 -0.888,-4.5642 -1.19,-5.0482 -0.3021,-0.484 -4.0523,-2.7177 -4.0122,-3.2868 0.04,-0.5691 4.0664,-2.2549 4.4334,-2.6917 0.3669,-0.4369 1.3324,-4.6937 1.8861,-4.8315 0.5536,-0.1377 3.4011,3.1706 3.93,3.3846 0.5288,0.214 4.8757,-0.1832 5.1778,0.3008 0.3021,0.484 -1.9644,4.2144 -2.0045,4.7836 -0.04,0.5691 1.6809,4.5805 1.314,5.0173 z"
           inkscape:randomized="0"
           inkscape:rounded="0.11"
           inkscape:flatsided="false"
           sodipodi:arg2="1.3269784"
           sodipodi:arg1="0.69865982"
           sodipodi:r2="5.0982599"
           sodipodi:r1="8.3578024"
           sodipodi:cy="-1315.3533"
           sodipodi:cx="-1509.6989"
           sodipodi:sides="5"
           id="path1431"
           style="opacity:1;fill:#ffff00;fill-opacity:1;fill-rule:nonzero;stroke:none;stroke-width:0.67725015;stroke-linecap:round;stroke-linejoin:round;stroke-miterlimit:4;stroke-dasharray:none;stroke-dashoffset:0;stroke-opacity:1"
           sodipodi:type="star"
           transform="matrix(1.330025,0.90359915,-0.90359915,1.330025,818.37736,3362.0588)" />
        <path
           sodipodi:type="star"
           style="opacity:1;fill:#ffff00;fill-opacity:1;fill-rule:nonzero;stroke:none;stroke-width:0.67725015;stroke-linecap:round;stroke-linejoin:round;stroke-miterlimit:4;stroke-dasharray:none;stroke-dashoffset:0;stroke-opacity:1"
           id="path1433"
           sodipodi:sides="5"
           sodipodi:cx="-1463.9377"
           sodipodi:cy="-1360.7998"
           sodipodi:r1="8.3578024"
           sodipodi:r2="5.0982599"
           sodipodi:arg1="0.69865982"
           sodipodi:arg2="1.3269784"
           inkscape:flatsided="false"
           inkscape:rounded="0.11"
           inkscape:randomized="0"
           d="m -1457.5381,-1355.4241 c -0.367,0.4368 -4.6152,-0.566 -5.1689,-0.4282 -0.5536,0.1377 -3.8369,3.0141 -4.3657,2.8001 -0.5289,-0.214 -0.888,-4.5642 -1.19,-5.0482 -0.3021,-0.484 -4.0523,-2.7177 -4.0122,-3.2868 0.04,-0.5691 4.0664,-2.2549 4.4334,-2.6918 0.3669,-0.4368 1.3325,-4.6937 1.8861,-4.8314 0.5536,-0.1377 3.4011,3.1706 3.93,3.3846 0.5289,0.214 4.8757,-0.1832 5.1778,0.3008 0.3021,0.484 -1.9644,4.2144 -2.0045,4.7835 -0.04,0.5691 1.6809,4.5805 1.314,5.0174 z"
           inkscape:transform-center-x="-0.20824476"
           inkscape:transform-center-y="-0.57920727"
           transform="matrix(1.522603,0.51685383,-0.51685383,1.522603,1602.4881,2998.0131)" />
        <path
           sodipodi:type="star"
           style="opacity:1;fill:#ffff00;fill-opacity:1;fill-rule:nonzero;stroke:none;stroke-width:0.41959238;stroke-linecap:round;stroke-linejoin:round;stroke-miterlimit:4;stroke-dasharray:none;stroke-dashoffset:0;stroke-opacity:1"
           id="path1435"
           sodipodi:sides="5"
           sodipodi:cx="-1546.157"
           sodipodi:cy="-1309.3641"
           sodipodi:r1="5.1781015"
           sodipodi:r2="3.1586423"
           sodipodi:arg1="0.69865982"
           sodipodi:arg2="1.3269784"
           inkscape:flatsided="false"
           inkscape:rounded="0.11"
           inkscape:randomized="0"
           d="m -1542.1921,-1306.0336 c -0.2273,0.2706 -2.8593,-0.3506 -3.2024,-0.2653 -0.343,0.085 -2.3771,1.8674 -2.7048,1.7348 -0.3276,-0.1326 -0.5501,-2.8278 -0.7372,-3.1276 -0.1872,-0.2999 -2.5106,-1.6838 -2.4858,-2.0364 0.025,-0.3526 2.5194,-1.397 2.7467,-1.6676 0.2274,-0.2707 0.8256,-2.9081 1.1686,-2.9934 0.343,-0.085 2.1072,1.9644 2.4348,2.0969 0.3277,0.1326 3.0208,-0.1134 3.2079,0.1864 0.1872,0.2999 -1.217,2.6111 -1.2419,2.9637 -0.025,0.3526 1.0415,2.8378 0.8141,3.1085 z"
           inkscape:transform-center-x="-0.28283425"
           inkscape:transform-center-y="0.20629413"
           transform="matrix(1.3561978,-0.86382029,0.86382029,1.3561978,3168.3188,698.23288)" />
        <path
           inkscape:transform-center-y="0.25989085"
           inkscape:transform-center-x="0.22937121"
           d="m -1480.8435,-1334.4178 c -0.2273,0.2707 -2.8593,-0.3506 -3.2023,-0.2653 -0.343,0.085 -2.3772,1.8674 -2.7048,1.7348 -0.3277,-0.1325 -0.5502,-2.8277 -0.7373,-3.1276 -0.1872,-0.2998 -2.5106,-1.6837 -2.4857,-2.0363 0.025,-0.3526 2.5193,-1.3971 2.7467,-1.6677 0.2273,-0.2707 0.8255,-2.908 1.1685,-2.9933 0.343,-0.085 2.1072,1.9643 2.4348,2.0969 0.3277,0.1326 3.0208,-0.1135 3.208,0.1864 0.1871,0.2998 -1.2171,2.611 -1.2419,2.9636 -0.025,0.3526 1.0414,2.8379 0.814,3.1085 z"
           inkscape:randomized="0"
           inkscape:rounded="0.11"
           inkscape:flatsided="false"
           sodipodi:arg2="1.3269784"
           sodipodi:arg1="0.69865982"
           sodipodi:r2="3.1586423"
           sodipodi:r1="5.1781015"
           sodipodi:cy="-1337.7483"
           sodipodi:cx="-1484.8083"
           sodipodi:sides="5"
           id="path1437"
           style="opacity:1;fill:#ffff00;fill-opacity:1;fill-rule:nonzero;stroke:none;stroke-width:0.41959238;stroke-linecap:round;stroke-linejoin:round;stroke-miterlimit:4;stroke-dasharray:none;stroke-dashoffset:0;stroke-opacity:1"
           sodipodi:type="star"
           transform="matrix(0.843524,1.3689138,-1.3689138,0.843524,-539.77567,3373.4314)" />
        <path
           sodipodi:type="star"
           style="opacity:1;fill:#ffff00;fill-opacity:1;fill-rule:nonzero;stroke:none;stroke-width:0.41959238;stroke-linecap:round;stroke-linejoin:round;stroke-miterlimit:4;stroke-dasharray:none;stroke-dashoffset:0;stroke-opacity:1"
           id="path1439"
           sodipodi:sides="5"
           sodipodi:cx="-1511.5514"
           sodipodi:cy="-1362.818"
           sodipodi:r1="5.1781015"
           sodipodi:r2="3.1586423"
           sodipodi:arg1="0.69865982"
           sodipodi:arg2="1.3269784"
           inkscape:flatsided="false"
           inkscape:rounded="0.11"
           inkscape:randomized="0"
           d="m -1507.5865,-1359.4875 c -0.2273,0.2707 -2.8594,-0.3506 -3.2024,-0.2653 -0.343,0.085 -2.3771,1.8674 -2.7048,1.7348 -0.3276,-0.1326 -0.5501,-2.8277 -0.7373,-3.1276 -0.1871,-0.2998 -2.5105,-1.6837 -2.4857,-2.0363 0.025,-0.3526 2.5194,-1.3971 2.7467,-1.6677 0.2274,-0.2707 0.8256,-2.908 1.1686,-2.9933 0.343,-0.085 2.1071,1.9643 2.4348,2.0969 0.3277,0.1326 3.0208,-0.1135 3.2079,0.1864 0.1872,0.2998 -1.217,2.611 -1.2419,2.9636 -0.025,0.3526 1.0415,2.8379 0.8141,3.1085 z"
           inkscape:transform-center-x="-0.10263567"
           inkscape:transform-center-y="-0.3843841"
           transform="matrix(1.5311183,0.4910545,-0.4910545,1.5311183,1641.1586,3001.0148)" />
        <path
           inkscape:transform-center-y="-0.36225464"
           inkscape:transform-center-x="-0.12558815"
           d="m -1570.0526,-1339.7095 c -0.2273,0.2706 -2.8593,-0.3506 -3.2023,-0.2653 -0.343,0.085 -2.3772,1.8674 -2.7048,1.7348 -0.3277,-0.1326 -0.5502,-2.8278 -0.7373,-3.1276 -0.1872,-0.2999 -2.5106,-1.6838 -2.4858,-2.0364 0.025,-0.3526 2.5194,-1.397 2.7468,-1.6677 0.2273,-0.2706 0.8255,-2.908 1.1685,-2.9933 0.343,-0.085 2.1072,1.9644 2.4348,2.0969 0.3277,0.1326 3.0208,-0.1135 3.208,0.1864 0.1871,0.2999 -1.2171,2.6111 -1.2419,2.9637 -0.025,0.3526 1.0414,2.8378 0.814,3.1085 z"
           inkscape:randomized="0"
           inkscape:rounded="0.11"
           inkscape:flatsided="false"
           sodipodi:arg2="1.3269784"
           sodipodi:arg1="0.69865982"
           sodipodi:r2="3.1586423"
           sodipodi:r1="5.1781015"
           sodipodi:cy="-1343.04"
           sodipodi:cx="-1574.0175"
           sodipodi:sides="5"
           id="path1441"
           style="opacity:1;fill:#ffff00;fill-opacity:1;fill-rule:nonzero;stroke:none;stroke-width:0.41959238;stroke-linecap:round;stroke-linejoin:round;stroke-miterlimit:4;stroke-dasharray:none;stroke-dashoffset:0;stroke-opacity:1"
           sodipodi:type="star"
           transform="matrix(1.5237547,0.51344864,-0.51344864,1.5237547,1604.4056,3058.5675)" />
        <path
           sodipodi:type="star"
           style="opacity:1;fill:#ffff00;fill-opacity:1;fill-rule:nonzero;stroke:none;stroke-width:0.67467767;stroke-linecap:round;stroke-linejoin:round;stroke-miterlimit:4;stroke-dasharray:none;stroke-dashoffset:0;stroke-opacity:1"
           id="path1443"
           sodipodi:sides="5"
           sodipodi:cx="59.949684"
           sodipodi:cy="251.30104"
           sodipodi:r1="8.3260555"
           sodipodi:r2="5.0788946"
           sodipodi:arg1="0.69865982"
           sodipodi:arg2="1.3269784"
           inkscape:flatsided="false"
           inkscape:rounded="0.11"
           inkscape:randomized="0"
           d="m 66.324985,256.65629 c -0.36556,0.43519 -4.597665,-0.56378 -5.149208,-0.42657 -0.551543,0.1372 -3.822309,3.00264 -4.349165,2.78946 -0.526855,-0.21319 -0.884569,-4.54686 -1.185496,-5.02901 -0.300926,-0.48215 -4.036843,-2.70736 -3.996898,-3.27431 0.03995,-0.56695 4.050972,-2.24633 4.416532,-2.68152 0.36556,-0.4352 1.327403,-4.67589 1.878946,-4.8131 0.551543,-0.1372 3.388207,3.15855 3.915062,3.37174 0.526856,0.21318 4.857224,-0.1825 5.158151,0.29965 0.300927,0.48215 -1.956944,4.19842 -1.99689,4.76537 -0.03995,0.56695 1.674527,4.5631 1.308966,4.99829 z"
           inkscape:transform-center-x="0.37961992"
           inkscape:transform-center-y="-0.1105401" />
        <circle
           r="5.1570272"
           cy="64.80687"
           cx="-73.809105"
           id="circle1445"
           style="opacity:1;fill:#ff8080;fill-opacity:1;fill-rule:nonzero;stroke:none;stroke-width:3.21587181;stroke-linecap:round;stroke-linejoin:round;stroke-miterlimit:4;stroke-dasharray:none;stroke-dashoffset:0;stroke-opacity:1" />
        <circle
           style="opacity:1;fill:#ff8080;fill-opacity:1;fill-rule:nonzero;stroke:none;stroke-width:3.21587181;stroke-linecap:round;stroke-linejoin:round;stroke-miterlimit:4;stroke-dasharray:none;stroke-dashoffset:0;stroke-opacity:1"
           id="circle1447"
           cx="-62.635262"
           cy="33.864979"
           r="5.1570272" />
        <circle
           r="5.1570272"
           cy="82.830795"
           cx="-19.660179"
           id="circle1449"
           style="opacity:1;fill:#ff8080;fill-opacity:1;fill-rule:nonzero;stroke:none;stroke-width:3.21587181;stroke-linecap:round;stroke-linejoin:round;stroke-miterlimit:4;stroke-dasharray:none;stroke-dashoffset:0;stroke-opacity:1" />
        <circle
           style="opacity:1;fill:#ff8080;fill-opacity:1;fill-rule:nonzero;stroke:none;stroke-width:3.21587181;stroke-linecap:round;stroke-linejoin:round;stroke-miterlimit:4;stroke-dasharray:none;stroke-dashoffset:0;stroke-opacity:1"
           id="circle1451"
           cx="-12.671898"
           cy="37.363026"
           r="5.1570272" />
        <circle
           r="5.1570272"
           cy="55.326405"
           cx="-38.595238"
           id="circle1453"
           style="opacity:1;fill:#ff8080;fill-opacity:1;fill-rule:nonzero;stroke:none;stroke-width:3.21587181;stroke-linecap:round;stroke-linejoin:round;stroke-miterlimit:4;stroke-dasharray:none;stroke-dashoffset:0;stroke-opacity:1" />
        <circle
           style="opacity:1;fill:#ff8080;fill-opacity:1;fill-rule:nonzero;stroke:none;stroke-width:3.21587181;stroke-linecap:round;stroke-linejoin:round;stroke-miterlimit:4;stroke-dasharray:none;stroke-dashoffset:0;stroke-opacity:1"
           id="circle1455"
           cx="25.893532"
           cy="88.013412"
           r="5.1570272" />
        <circle
           r="5.1570272"
           cy="56.246326"
           cx="17.281715"
           id="circle1457"
           style="opacity:1;fill:#ff8080;fill-opacity:1;fill-rule:nonzero;stroke:none;stroke-width:3.21587181;stroke-linecap:round;stroke-linejoin:round;stroke-miterlimit:4;stroke-dasharray:none;stroke-dashoffset:0;stroke-opacity:1" />
        <path
           sodipodi:nodetypes="ccccccc"
           inkscape:connector-curvature="0"
           id="path1459"
           d="m 41.546963,108.71809 c 14.142,-1.20169 22.25659,8.3044 13.3514,18.0946 -14.839,13.996 -20.88459,15.69701 -49.9157101,18.20931 -16.5010999,0.4727 -32.1335999,2.03259 -49.9687999,0.83829 -36.939,-1.57399 -46.3482,-20.1725 -50.5272,-36.0118 -4.911103,-24.172598 1.2579,-35.117498 30.149,-21.773198 32.9897,15.312908 72.3031999,22.595698 106.91131,20.642798 z"
           style="opacity:0.3;fill:#de87cd;stroke:none;stroke-width:1.56327391px;stroke-linecap:butt;stroke-linejoin:miter;stroke-opacity:1" />
        <path
           sodipodi:nodetypes="cccccc"
           inkscape:connector-curvature="0"
           id="path1461"
           d="m 13.435243,26.626392 c -7.1361901,2.29001 -11.8658901,3.2177 -38.09699,0.1949 -21.226,-3.3541 -55.5754,22.5561 -17.9629,43.22901 15.7514,7.6664 31.8754,8.99269 56.652,4.9354 5.9734,-1.22781 18.07509,-3.7944 24.08219,-11.44931 -2.13069,-16.152 -8.45388,-29.65629 -24.6743,-36.91 z"
           style="opacity:0.3;fill:#99ff55;stroke:none;stroke-width:1.56327391px;stroke-linecap:butt;stroke-linejoin:miter;stroke-opacity:1" />
        <path
           sodipodi:nodetypes="ccscc"
           inkscape:connector-curvature="0"
           id="path1463"
           d="m -57.268547,240.77229 c 45.635,12.39012 97.163,30.07511 130.9237,-33.49728 14.1224,-32.83251 24.61821,-52.57371 -31.26499,-47.45711 -37.8654101,3.467 -59.71001,6.6552 -98.26321,20.37879 -70.913003,27.77901 -27.0784,50.62941 -1.3955,60.5756 z"
           style="opacity:0.3;fill:#80ffe6;stroke:none;stroke-width:1.56327391px;stroke-linecap:butt;stroke-linejoin:miter;stroke-opacity:1" />
        <path
           style="fill:#ff80b2;stroke:#ff80b2;stroke-width:4.82380772;stroke-linecap:round;stroke-linejoin:round;stroke-miterlimit:4;stroke-dasharray:none;stroke-opacity:1"
           d="m -41.933347,12.484796 -1.1844,-26.971001"
           id="path1465"
           inkscape:connector-curvature="0"
           sodipodi:nodetypes="cc" />
        <path
           sodipodi:nodetypes="cc"
           inkscape:connector-curvature="0"
           id="path1467"
           d="m -8.4333471,15.051096 1.6501,-26.946299"
           style="fill:#00ff00;stroke:#80ff80;stroke-width:4.82380772;stroke-linecap:round;stroke-linejoin:round;stroke-miterlimit:4;stroke-dasharray:none;stroke-opacity:1" />
        <path
           inkscape:transform-center-y="0.66071427"
           inkscape:transform-center-x="1.4931684"
           d="m 158.5842,226.68116 c -0.79003,1.34066 -12.6701,0.55964 -14.09727,1.17988 -1.42717,0.62025 -8.96145,9.83875 -10.48062,9.50167 -1.51918,-0.33708 -4.44753,-11.87705 -5.47844,-13.0427 -1.03091,-1.16565 -12.12644,-5.4825 -12.27531,-7.03148 -0.14887,-1.54899 9.92138,-7.90006 10.71141,-9.24072 0.79003,-1.34066 1.4669,-13.22712 2.89407,-13.84736 1.42716,-0.62025 10.57927,6.99454 12.09844,7.33162 1.51918,0.33708 13.03304,-2.69231 14.06395,-1.52666 1.0309,1.16565 -3.38303,12.22292 -3.23416,13.77191 0.14887,1.54898 6.58796,11.56318 5.79793,12.90384 z"
           inkscape:randomized="0"
           inkscape:rounded="0.11"
           inkscape:flatsided="false"
           sodipodi:arg2="1.1608226"
           sodipodi:arg1="0.5325041"
           sodipodi:r2="13.905743"
           sodipodi:r1="22.796303"
           sodipodi:cy="215.10765"
           sodipodi:cx="138.94431"
           sodipodi:sides="5"
           id="path1469"
           style="opacity:1;fill:#ff00cc;fill-opacity:1;fill-rule:nonzero;stroke:none;stroke-width:0.199955;stroke-linecap:round;stroke-linejoin:round;stroke-miterlimit:4;stroke-dasharray:none;stroke-dashoffset:0;stroke-opacity:1"
           sodipodi:type="star" />
        <path
           transform="matrix(0.73582104,0.16695614,-0.16695614,0.73582104,1155.3304,3569.9068)"
           inkscape:transform-center-y="-0.66103904"
           inkscape:transform-center-x="0.9667538"
           d="m -2271.5925,-4121.9519 c -0.7901,1.3407 -12.6701,0.5597 -14.0973,1.1799 -1.4272,0.6202 -8.9614,9.8387 -10.4806,9.5017 -1.5192,-0.3371 -4.4475,-11.8771 -5.4785,-13.0427 -1.0309,-1.1657 -12.1264,-5.4825 -12.2753,-7.0315 -0.1488,-1.549 9.9214,-7.9001 10.7114,-9.2407 0.7901,-1.3407 1.4669,-13.2271 2.8941,-13.8474 1.4272,-0.6202 10.5793,6.9945 12.0985,7.3316 1.5191,0.3371 13.033,-2.6923 14.0639,-1.5266 1.0309,1.1656 -3.383,12.2229 -3.2342,13.7719 0.1489,1.549 6.588,11.5632 5.798,12.9038 z"
           inkscape:randomized="0"
           inkscape:rounded="0.11"
           inkscape:flatsided="false"
           sodipodi:arg2="1.1608226"
           sodipodi:arg1="0.5325041"
           sodipodi:r2="13.905744"
           sodipodi:r1="22.796303"
           sodipodi:cy="-4133.5254"
           sodipodi:cx="-2291.2324"
           sodipodi:sides="5"
           id="path1471"
           style="opacity:1;fill:#ff2a7f;fill-opacity:1;fill-rule:nonzero;stroke:none;stroke-width:2.65067673;stroke-linecap:round;stroke-linejoin:round;stroke-miterlimit:4;stroke-dasharray:none;stroke-dashoffset:0;stroke-opacity:1"
           sodipodi:type="star" />
        <path
           sodipodi:type="star"
           style="opacity:1;fill:#00ff00;fill-opacity:1;fill-rule:nonzero;stroke:none;stroke-width:0.13958764;stroke-linecap:round;stroke-linejoin:round;stroke-miterlimit:4;stroke-dasharray:none;stroke-dashoffset:0;stroke-opacity:1"
           id="path1473"
           sodipodi:sides="5"
           sodipodi:cx="-196.47562"
           sodipodi:cy="141.10669"
           sodipodi:r1="15.913992"
           sodipodi:r2="9.7075338"
           sodipodi:arg1="0.5325041"
           sodipodi:arg2="1.1608226"
           inkscape:flatsided="false"
           inkscape:rounded="0.11"
           inkscape:randomized="0"
           d="m -182.7651,149.1861 c -0.55152,0.93591 -8.84494,0.39068 -9.84124,0.82367 -0.9963,0.43299 -6.25594,6.86838 -7.31647,6.63307 -1.06053,-0.23531 -3.1048,-8.29131 -3.82447,-9.10504 -0.71967,-0.81374 -8.46541,-3.82731 -8.56934,-4.90865 -0.10392,-1.08134 6.92607,-5.51499 7.47759,-6.4509 0.55152,-0.93591 1.02403,-9.23379 2.02033,-9.66678 0.9963,-0.43299 7.38534,4.88286 8.44587,5.11817 1.06053,0.23531 9.0983,-1.87949 9.81797,-1.06575 0.71968,0.81373 -2.36167,8.53276 -2.25775,9.6141 0.10393,1.08134 4.59903,8.0722 4.04751,9.00811 z"
           inkscape:transform-center-x="1.0422639"
           inkscape:transform-center-y="0.46111601" />
        <path
           inkscape:transform-center-y="0.84219562"
           inkscape:transform-center-x="1.9028597"
           d="m -160.42486,76.670602 c -1.00686,1.708614 -16.14752,0.713235 -17.96639,1.503715 -1.81886,0.790479 -11.42099,12.539073 -13.35712,12.109481 -1.93613,-0.429592 -5.66819,-15.136804 -6.98204,-16.622377 -1.31385,-1.485573 -15.45465,-6.987227 -15.64438,-8.961344 -0.18973,-1.974116 12.64439,-10.068294 13.65126,-11.776908 1.00686,-1.708614 1.86949,-16.857417 3.68836,-17.647896 1.81887,-0.790479 13.48285,8.914255 15.41897,9.343847 1.93613,0.429592 16.61007,-3.431229 17.92392,-1.945656 1.31385,1.485573 -4.31153,15.577607 -4.1218,17.551723 0.18973,1.974117 8.39608,14.736801 7.38922,16.445415 z"
           inkscape:randomized="0"
           inkscape:rounded="0.11"
           inkscape:flatsided="false"
           sodipodi:arg2="1.1608226"
           sodipodi:arg1="0.5325041"
           sodipodi:r2="17.722298"
           sodipodi:r1="29.05295"
           sodipodi:cy="61.920643"
           sodipodi:cx="-185.45509"
           sodipodi:sides="5"
           id="path1475"
           style="opacity:1;fill:#ff0000;fill-opacity:1;fill-rule:nonzero;stroke:none;stroke-width:0.25483441;stroke-linecap:round;stroke-linejoin:round;stroke-miterlimit:4;stroke-dasharray:none;stroke-dashoffset:0;stroke-opacity:1"
           sodipodi:type="star" />
        <path
           transform="rotate(51.240172,-5782.5585,397.71682)"
           sodipodi:type="star"
           style="opacity:1;fill:#2ad4ff;fill-opacity:1;fill-rule:nonzero;stroke:none;stroke-width:0.1407101;stroke-linecap:round;stroke-linejoin:round;stroke-miterlimit:4;stroke-dasharray:none;stroke-dashoffset:0;stroke-opacity:1"
           id="path1477"
           sodipodi:sides="5"
           sodipodi:cx="-2550.0078"
           sodipodi:cy="-4260.4956"
           sodipodi:r1="16.04196"
           sodipodi:r2="9.7855949"
           sodipodi:arg1="0.5325041"
           sodipodi:arg2="1.1608226"
           inkscape:flatsided="false"
           inkscape:rounded="0.11"
           inkscape:randomized="0"
           d="m -2536.187,-4252.3512 c -0.556,0.9434 -8.9161,0.3938 -9.9204,0.8303 -1.0043,0.4364 -6.3063,6.9236 -7.3753,6.6864 -1.0691,-0.2372 -3.1298,-8.358 -3.8552,-9.1783 -0.7255,-0.8203 -8.5335,-3.8581 -8.6383,-4.9481 -0.1048,-1.09 6.9818,-5.5593 7.5377,-6.5028 0.556,-0.9434 1.0323,-9.308 2.0366,-9.7445 1.0043,-0.4365 7.4447,4.9221 8.5138,5.1593 1.069,0.2372 9.1714,-1.8946 9.8969,-1.0743 0.7255,0.8203 -2.3807,8.6014 -2.2759,9.6914 0.1048,1.0901 4.636,8.1371 4.0801,9.0806 z"
           inkscape:transform-center-x="-0.6967091"
           inkscape:transform-center-y="0.82216919" />
      </g>
      <g
         transform="matrix(1.0479932,0,0,1.0479932,-5.0515105,-7.1273643)"
         id="text1483"
         style="font-style:normal;font-variant:normal;font-weight:normal;font-stretch:normal;font-size:105.38558197px;line-height:1.25;font-family:'DK Lemon Yellow Sun';-inkscape-font-specification:'DK Lemon Yellow Sun';letter-spacing:0px;word-spacing:0px;fill:#e580ff;fill-opacity:1;stroke:#22002b;stroke-width:1.90840936;stroke-miterlimit:4;stroke-dasharray:none"
         aria-label="SALÓN">
        <path
           id="path967"
           style="font-style:normal;font-variant:normal;font-weight:normal;font-stretch:normal;font-size:105.38558197px;font-family:'DK Lemon Yellow Sun';-inkscape-font-specification:'DK Lemon Yellow Sun';fill:#e580ff;stroke:#22002b;stroke-width:1.90840936;stroke-miterlimit:4;stroke-dasharray:none"
           d="m 17.511042,186.02625 c 0,0.21077 -0.105386,0.52692 -0.105386,0.7377 0,4.3208 6.428521,7.90391 10.117016,8.53623 0.843085,0.10538 1.68617,0.10538 2.529254,0.10538 8.536232,0 12.119342,-5.05851 13.59474,-13.70012 1.896941,-11.38165 -2.950796,-20.02326 -8.536232,-29.71874 -3.58311,-6.11236 -6.323135,-8.85239 -5.163893,-15.59706 2.423868,-14.75398 13.59474,-6.00698 14.54321,-11.17087 0.526928,-2.9508 -1.475398,-3.58311 -4.320809,-3.89927 -0.843085,-0.10539 -1.580784,-0.10539 -2.318483,-0.10539 -8.747003,0 -12.751655,5.69082 -14.227053,14.01629 -0.94847,5.90159 0.632313,9.90624 3.58311,14.54321 6.323134,9.90624 12.119341,18.86402 10.222401,30.77259 -0.94847,5.69082 -2.529254,10.53855 -9.379317,9.37931 -4.215423,-0.63231 -3.477724,-5.7962 -7.376991,-6.42852 -1.475398,0 -3.056181,1.26463 -3.161567,2.52926 z"
           inkscape:connector-curvature="0" />
        <path
           id="path969"
           style="font-style:normal;font-variant:normal;font-weight:normal;font-stretch:normal;font-size:105.38558197px;font-family:'DK Lemon Yellow Sun';-inkscape-font-specification:'DK Lemon Yellow Sun';fill:#e580ff;stroke:#22002b;stroke-width:1.90840936;stroke-miterlimit:4;stroke-dasharray:none"
           d="m 55.178152,198.46174 c -0.105385,1.89695 4.426195,2.52926 4.636966,0 0.210771,-4.42619 0.94847,-13.80551 1.791555,-18.75863 l 14.227054,-2.10771 3.79388,18.9694 c 1.896941,3.37234 5.058508,1.58079 5.058508,-0.73769 -11.487028,-55.85436 -13.489354,-65.44445 -16.123994,-75.98301 -1.791555,-7.16622 -8.114689,-9.69547 -8.747003,0 z m 9.273932,-72.61066 10.327787,46.89658 -13.173198,1.89694 c 0,-0.84308 0.105386,-4.95312 0.210771,-5.69082 0.316157,-6.5339 2.213097,-36.67418 2.63464,-43.1027 z"
           inkscape:connector-curvature="0" />
        <path
           id="path971"
           style="font-style:normal;font-variant:normal;font-weight:normal;font-stretch:normal;font-size:105.38558197px;font-family:'DK Lemon Yellow Sun';-inkscape-font-specification:'DK Lemon Yellow Sun';fill:#e580ff;stroke:#22002b;stroke-width:1.90840936;stroke-miterlimit:4;stroke-dasharray:none"
           d="m 91.093233,114.89098 v 13.38397 l 1.370012,26.03024 c 0.632314,12.43549 0.105386,26.03023 1.370013,38.6765 0.210771,1.37002 2.002326,2.84542 3.266953,2.84542 1.686169,0 3.161569,-1.05386 4.531579,-1.37002 3.6885,-1.05385 8.43085,-0.84308 12.01396,-2.10771 1.79155,-0.63231 2.10771,-1.68617 2.10771,-3.05618 0,-2.10771 -1.68617,-2.63464 -3.58311,-2.63464 -4.11004,0 -9.4847,1.37001 -12.646271,2.2131 -2.107711,-23.92253 -2.002326,-48.05583 -2.84541,-71.87297 -0.421543,-1.58078 -1.791555,-3.6885 -3.477725,-3.6885 -0.94847,0 -1.580783,0.42155 -2.107711,1.58079 z"
           inkscape:connector-curvature="0" />
        <path
           id="path973"
           style="font-style:normal;font-variant:normal;font-weight:normal;font-stretch:normal;font-size:105.38558197px;font-family:'DK Lemon Yellow Sun';-inkscape-font-specification:'DK Lemon Yellow Sun';fill:#e580ff;stroke:#22002b;stroke-width:1.90840936;stroke-miterlimit:4;stroke-dasharray:none"
           d="m 117.41822,178.43848 c 2.52925,9.69548 7.37699,14.96476 16.22938,14.96476 0.42154,0 0.84308,-0.10539 1.26462,-0.10539 23.18483,-2.00232 20.02326,-76.93147 -3.37234,-76.93147 -26.45178,0 -15.49168,55.74897 -14.12166,62.0721 z m 13.48935,-56.2759 h 0.84309 c 14.96475,0 13.59474,39.09805 11.90857,47.5289 -0.94847,4.95312 -3.26696,17.28324 -10.32779,17.91555 -0.31616,0 -0.7377,0.10539 -1.26463,0 -5.26928,-0.52693 -8.747,-10.53856 -9.59009,-14.01628 -2.00232,-7.69315 -7.48237,-49.95277 8.43085,-51.42817 z m -5.48005,-16.96708 c 0,1.37002 1.15924,2.42387 2.52925,2.42387 0.63232,0 0.84309,0 1.4754,-0.52692 l 3.89927,-2.9508 5.37466,-3.37234 c 0.63232,-0.42154 0.52693,-0.52693 0.52693,-1.264627 0,-1.370012 -1.58078,-2.634639 -2.95079,-2.634639 0,0 -0.7377,0.316156 -0.94847,0.421542 l -6.85007,4.426194 c -1.26462,0.84309 -3.05618,1.79156 -3.05618,3.47772 z"
           inkscape:connector-curvature="0" />
        <path
           id="path975"
           style="font-style:normal;font-variant:normal;font-weight:normal;font-stretch:normal;font-size:105.38558197px;font-family:'DK Lemon Yellow Sun';-inkscape-font-specification:'DK Lemon Yellow Sun';fill:#e580ff;stroke:#22002b;stroke-width:1.90840936;stroke-miterlimit:4;stroke-dasharray:none"
           d="m 156.34172,195.61633 c 0.10539,3.16157 3.79388,6.00698 6.21775,0.52693 l 0.7377,-60.06978 c 6.32314,19.81249 13.70013,39.09805 20.23403,58.80515 0.42154,0.7377 2.00233,2.00233 2.9508,2.00233 0.94847,0 2.31848,-1.4754 2.52925,-2.00233 l 0.10539,-1.37001 c 0.7377,-24.23868 1.58078,-48.47737 3.47772,-71.24065 -0.63231,-1.05386 -1.68617,-1.37001 -2.95079,-1.37001 -1.68617,0 -3.58311,0.84308 -4.00466,2.63464 0.10539,13.27858 0,24.76561 -1.15924,38.04419 l -1.05385,14.75398 c -7.69315,-18.86402 -12.01396,-37.30649 -18.33709,-55.43281 -1.05386,-1.4754 -4.11004,-4.84774 -6.11237,-1.05386 z"
           inkscape:connector-curvature="0" />
      </g>
    </g>
  </g>
</svg>
