<?xml version="1.0" encoding="UTF-8" standalone="no"?>
<!-- Created with Inkscape (http://www.inkscape.org/) -->

<svg
   xmlns:dc="http://purl.org/dc/elements/1.1/"
   xmlns:cc="http://creativecommons.org/ns#"
   xmlns:rdf="http://www.w3.org/1999/02/22-rdf-syntax-ns#"
   xmlns:svg="http://www.w3.org/2000/svg"
   xmlns="http://www.w3.org/2000/svg"
   xmlns:sodipodi="http://sodipodi.sourceforge.net/DTD/sodipodi-0.dtd"
   xmlns:inkscape="http://www.inkscape.org/namespaces/inkscape"
   width="210mm"
   height="297mm"
   viewBox="0 0 210 297"
   version="1.1"
   id="svg19391"
   inkscape:version="0.92.2 2405546, 2018-03-11"
   sodipodi:docname="boton4.svg">
  <defs
     id="defs19385" />
  <sodipodi:namedview
     id="base"
     pagecolor="#ffffff"
     bordercolor="#666666"
     borderopacity="1.0"
     inkscape:pageopacity="0.0"
     inkscape:pageshadow="2"
     inkscape:zoom="0.49497475"
     inkscape:cx="39.285671"
     inkscape:cy="554.29067"
     inkscape:document-units="mm"
     inkscape:current-layer="layer1"
     showgrid="false"
     inkscape:window-width="1366"
     inkscape:window-height="768"
     inkscape:window-x="0"
     inkscape:window-y="0"
     inkscape:window-maximized="0"
     showborder="false" />
  <metadata
     id="metadata19388">
    <rdf:RDF>
      <cc:Work
         rdf:about="">
        <dc:format>image/svg+xml</dc:format>
        <dc:type
           rdf:resource="http://purl.org/dc/dcmitype/StillImage" />
        <dc:title />
      </cc:Work>
    </rdf:RDF>
  </metadata>
  <g
     inkscape:label="Layer 1"
     inkscape:groupmode="layer"
     id="layer1">
    <g
       id="g4955"
       transform="matrix(0.43635215,0,0,0.43635215,105.65972,73.990274)"
       inkscape:export-xdpi="200"
       inkscape:export-ydpi="200"
       inkscape:export-filename="/home/kona/mySite/AbraKdabra/graphics/site/boton4.png">
      <circle
         style="opacity:1;fill:#ffff00;fill-opacity:1;fill-rule:nonzero;stroke:#cc00ff;stroke-width:10;stroke-linecap:round;stroke-linejoin:round;stroke-miterlimit:4;stroke-dasharray:10.00000039, 20.00000078;stroke-dashoffset:0;stroke-opacity:1"
         id="circle14343"
         cx="-1.5119047"
         cy="170.75595"
         r="224.1727" />
      <g
         id="g13400"
         transform="matrix(1.155036,0,0,1.155036,1057.4189,148.17959)"
         style="opacity:1">
        <path
           sodipodi:nodetypes="cccc"
           inkscape:connector-curvature="0"
           id="path13294"
           d="m -837.92264,38.467198 c 0.1994,-1.661004 0.024,-3.228996 -0.017,-4.833526 l -1.3045,3.3407 z"
           style="fill:#262a43;fill-opacity:1;stroke:#262a43;stroke-width:0.26499999;stroke-linecap:round;stroke-linejoin:round;stroke-miterlimit:4;stroke-dasharray:none;stroke-opacity:1" />
        <path
           sodipodi:nodetypes="ccccc"
           inkscape:connector-curvature="0"
           id="path13302"
           d="m -981.41913,51.43014 c 6.89699,34.05408 7.3111,66.53124 -4.39873,96.05934 16.54989,39.82679 118.33696,30.82996 127.62482,0.56392 -5.66097,-27.33513 -14.98277,-50.09422 -5.33939,-96.5598 -41.40994,8.82077 -80.39144,7.48626 -117.8867,-0.0635 z"
           style="fill:#252942;fill-opacity:1;stroke:none;stroke-width:0.26458332px;stroke-linecap:butt;stroke-linejoin:miter;stroke-opacity:1" />
        <path
           sodipodi:nodetypes="ccccc"
           inkscape:connector-curvature="0"
           id="path13306"
           d="m -952.75038,55.8927 c 27.61739,1.85212 55.10395,3.2111 80.66407,-2.69087 0.0545,26.20924 -10.6322,28.2508 10.22304,101.26173 -22.33146,23.34668 -71.18995,22.89175 -97.08564,14.43255 8.93947,-35.5199 8.54642,-73.95621 6.19853,-113.00341 z"
           style="fill:#363c5e;fill-opacity:1;stroke:none;stroke-width:0.26458332px;stroke-linecap:butt;stroke-linejoin:miter;stroke-opacity:1" />
        <path
           sodipodi:nodetypes="ccccc"
           inkscape:connector-curvature="0"
           id="path13310"
           d="m -967.53493,53.97023 c 7.00348,42.98244 0.80752,75.69864 -5.47903,108.34439 4.54116,2.78912 9.1677,4.94997 14.06505,6.58149 8.63611,-35.75157 9.63796,-73.7298 6.19851,-113.00341 -5.2459,-0.41388 -9.95389,-1.21197 -14.78453,-1.92247 z"
           style="fill:#516472;fill-opacity:1;stroke:none;stroke-width:0.26458332px;stroke-linecap:butt;stroke-linejoin:miter;stroke-opacity:1" />
        <path
           sodipodi:nodetypes="ccccc"
           inkscape:connector-curvature="0"
           id="path13318"
           d="m -911.70903,58.71427 c -3.98081,38.78395 -5.29619,77.32558 6.24169,114.69874 9.3444,-1.42908 18.206,-4.08709 26.57041,-8.01067 -10.49081,-35.63014 -11.02343,-72.20868 -6.58626,-109.26054 -8.74195,1.58339 -17.48389,2.02002 -26.22584,2.57247 z"
           style="fill:#252942;fill-opacity:1;stroke:none;stroke-width:0.26458332px;stroke-linecap:butt;stroke-linejoin:miter;stroke-opacity:1" />
        <path
           sodipodi:nodetypes="cccccc"
           inkscape:connector-curvature="0"
           id="path13378"
           d="m -981.41913,50.37184 c 0.69186,5.009506 1.64304,10.162208 2.51104,15.227479 18.05714,14.012893 101.1476,9.202279 113.00168,-0.866424 l 2.42123,-14.26216 c -43.67062,13.7516 -91.25745,11.018325 -117.93395,-0.09889 z"
           style="opacity:0.80100002;fill:#c71e57;fill-opacity:1;stroke:none;stroke-width:0.26458332px;stroke-linecap:butt;stroke-linejoin:miter;stroke-opacity:1" />
        <ellipse
           style="opacity:1;fill:#262a43;fill-opacity:1;fill-rule:nonzero;stroke:none;stroke-width:0.7471776;stroke-linecap:square;stroke-linejoin:miter;stroke-miterlimit:4;stroke-dasharray:none;stroke-dashoffset:0;stroke-opacity:1"
           id="ellipse13380"
           cx="-922.73578"
           cy="38.308144"
           rx="84.979034"
           ry="19.849115" />
        <path
           sodipodi:nodetypes="cccc"
           inkscape:connector-curvature="0"
           id="path13382"
           d="m -1007.5647,38.563329 c -0.1994,-1.661005 -0.024,-3.228996 0.017,-4.833526 l 1.3045,3.3407 z"
           style="fill:#262a43;fill-opacity:1;stroke:#262a43;stroke-width:0.26499999;stroke-linecap:round;stroke-linejoin:round;stroke-miterlimit:4;stroke-dasharray:none;stroke-opacity:1" />
        <ellipse
           ry="18.846651"
           rx="84.983574"
           cy="34.131538"
           cx="-922.73578"
           id="ellipse13384"
           style="opacity:1;fill:#848d8a;fill-opacity:1;fill-rule:nonzero;stroke:none;stroke-width:0.73809105;stroke-linecap:square;stroke-linejoin:miter;stroke-miterlimit:4;stroke-dasharray:none;stroke-dashoffset:0;stroke-opacity:1" />
        <path
           sodipodi:nodetypes="ccccc"
           inkscape:connector-curvature="0"
           id="path13386"
           d="m -993.95975,44.15412 105.96696,-27.1704 c 7.37069,0.6206 14.64858,1.4732 21.66483,2.97993 l -102.84195,29.78183 c -9.40041,-1.05155 -17.88001,-2.76083 -24.78984,-5.59136 z"
           style="fill:#b4bebf;fill-opacity:1;stroke:none;stroke-width:0.26458332px;stroke-linecap:butt;stroke-linejoin:miter;stroke-opacity:1" />
        <path
           sodipodi:nodetypes="ccccc"
           inkscape:connector-curvature="0"
           id="path13394"
           d="m -954.32761,51.75753 95.49531,-30.17029 6.74722,2.01107 -86.60377,29.10416 z"
           style="fill:#b4bebf;fill-opacity:1;stroke:none;stroke-width:0.26458332px;stroke-linecap:butt;stroke-linejoin:miter;stroke-opacity:1" />
        <ellipse
           style="opacity:1;fill:#591347;fill-opacity:1;fill-rule:nonzero;stroke:none;stroke-width:0.51116765;stroke-linecap:square;stroke-linejoin:miter;stroke-miterlimit:4;stroke-dasharray:none;stroke-dashoffset:0;stroke-opacity:1"
           id="ellipse13396"
           cx="-922.07434"
           cy="32.266212"
           rx="58.855679"
           ry="13.052316" />
        <path
           style="opacity:1;fill:#5d102a;fill-opacity:1;stroke:none;stroke-width:0.26458332px;stroke-linecap:butt;stroke-linejoin:miter;stroke-opacity:1"
           d="m -980.71155,54.964978 c 34.48068,11.091749 99.61221,6.798558 116.6019,-0.703309 l 0.36508,-1.649093 c -39.54153,8.599509 -88.80437,5.992734 -117.40619,0.107368 0.37338,1.879908 0.14098,0.745376 0.43921,2.245032 z"
           id="path13398"
           inkscape:connector-curvature="0"
           sodipodi:nodetypes="cccccc" />
      </g>
      <g
         style="fill:#ff0000"
         transform="matrix(2.5247875,0,0,-2.5247875,-3.6559137,57.806663)"
         id="g13408">
        <path
           inkscape:connector-curvature="0"
           id="path13406"
           style="fill:#ff0000;fill-opacity:1;fill-rule:nonzero;stroke:none"
           d="M 0,0 C -0.178,0.909 -0.27,1.818 -0.333,2.727 -0.402,3.636 -0.42,4.545 -0.429,5.454 -0.421,6.363 -0.403,7.272 -0.335,8.181 -0.272,9.09 -0.179,9.999 0,10.908 0.179,9.999 0.272,9.09 0.335,8.181 0.403,7.272 0.421,6.363 0.429,5.454 0.42,4.545 0.402,3.636 0.333,2.727 0.271,1.818 0.178,0.909 0,0" />
      </g>
      <g
         style="fill:#ff0000"
         transform="matrix(2.4172171,0.72911851,0.72911851,-2.4172171,67.179926,114.70504)"
         id="g13412">
        <path
           inkscape:connector-curvature="0"
           id="path13410"
           style="fill:#ff0000;fill-opacity:1;fill-rule:nonzero;stroke:none"
           d="M 0,0 C 0.517,0.768 1.094,1.477 1.692,2.164 2.287,2.855 2.917,3.511 3.553,4.16 4.202,4.797 4.857,5.427 5.548,6.021 6.235,6.62 6.944,7.197 7.713,7.713 7.197,6.944 6.62,6.235 6.021,5.548 5.427,4.857 4.797,4.201 4.16,3.553 3.511,2.917 2.855,2.287 2.164,1.692 1.477,1.094 0.768,0.517 0,0" />
      </g>
      <g
         style="fill:#ff0000"
         transform="matrix(2.5247875,0,0,-2.5247875,91.396176,168.69274)"
         id="g13416">
        <path
           inkscape:connector-curvature="0"
           id="path13414"
           style="fill:#ff0000;fill-opacity:1;fill-rule:nonzero;stroke:none"
           d="M 0,0 C 0.909,0.177 1.818,0.271 2.727,0.333 3.636,0.402 4.545,0.42 5.455,0.429 6.363,0.421 7.272,0.403 8.182,0.334 9.09,0.272 10,0.179 10.909,0 10,-0.179 9.09,-0.272 8.182,-0.335 7.272,-0.403 6.363,-0.421 5.455,-0.429 4.545,-0.42 3.636,-0.402 2.727,-0.333 1.818,-0.271 0.909,-0.178 0,0" />
      </g>
      <g
         style="fill:#ff0000"
         transform="matrix(2.5247875,0,0,-2.5247875,-84.057504,161.22964)"
         id="g13420">
        <path
           inkscape:connector-curvature="0"
           id="path13418"
           style="fill:#ff0000;fill-opacity:1;fill-rule:nonzero;stroke:none"
           d="M 0,0 C -0.909,-0.178 -1.818,-0.271 -2.727,-0.333 -3.636,-0.402 -4.545,-0.42 -5.454,-0.429 -6.363,-0.421 -7.272,-0.403 -8.181,-0.335 -9.09,-0.272 -10,-0.179 -10.908,0 -10,0.179 -9.09,0.272 -8.181,0.334 -7.272,0.403 -6.363,0.421 -5.454,0.429 -4.545,0.42 -3.636,0.402 -2.727,0.333 -1.818,0.271 -0.909,0.177 0,0" />
      </g>
      <g
         style="fill:#ff0000"
         transform="matrix(2.2696952,-1.1059095,-1.1059095,-2.2696952,-79.099474,108.38705)"
         id="g13428">
        <path
           inkscape:connector-curvature="0"
           id="path13426"
           style="fill:#ff0000;fill-opacity:1;fill-rule:nonzero;stroke:none"
           d="M 0,0 C -0.768,0.517 -1.477,1.094 -2.164,1.692 -2.855,2.287 -3.511,2.917 -4.16,3.553 -4.797,4.201 -5.427,4.857 -6.021,5.548 -6.62,6.235 -7.197,6.944 -7.713,7.713 -6.944,7.197 -6.235,6.62 -5.548,6.021 -4.857,5.427 -4.201,4.797 -3.553,4.16 -2.917,3.511 -2.287,2.855 -1.692,2.164 -1.094,1.477 -0.517,0.768 0,0" />
      </g>
      <g
         style="fill:#ff0000"
         transform="matrix(2.5247875,0,0,-2.5247875,49.903696,61.435153)"
         id="g13432">
        <path
           inkscape:connector-curvature="0"
           id="path13430"
           style="fill:#ff0000;fill-opacity:1;fill-rule:nonzero;stroke:none"
           d="M 0,0 C 0.165,1.293 0.486,2.52 0.855,3.726 1.23,4.929 1.668,6.106 2.158,7.26 2.648,8.415 3.194,9.546 3.8,10.651 4.413,11.753 5.075,12.834 5.895,13.848 5.732,12.555 5.411,11.328 5.042,10.122 4.667,8.919 4.229,7.742 3.737,6.588 3.245,5.435 2.7,4.304 2.093,3.199 1.479,2.097 0.818,1.015 0,0" />
      </g>
      <g
         style="fill:#ff0000"
         transform="matrix(2.5054954,0.31152031,0.31152031,-2.5054954,72.752576,140.98716)"
         id="g13440">
        <path
           inkscape:connector-curvature="0"
           id="path13438"
           style="fill:#ff0000;fill-opacity:1;fill-rule:nonzero;stroke:none"
           d="m 0,0 c 1.03,0.798 2.125,1.437 3.239,2.029 1.116,0.586 2.258,1.109 3.42,1.578 1.163,0.47 2.348,0.885 3.559,1.236 1.213,0.346 2.445,0.643 3.742,0.781 C 12.93,4.824 11.836,4.183 10.722,3.592 9.606,3.007 8.464,2.483 7.3,2.016 6.137,1.548 4.951,1.134 3.741,0.782 2.528,0.437 1.296,0.139 0,0" />
      </g>
      <g
         style="fill:#ff0000"
         transform="matrix(2.4975328,-0.36997508,-0.36997508,-2.4975328,-85.938684,134.25722)"
         id="g13448">
        <path
           inkscape:connector-curvature="0"
           id="path13446"
           style="fill:#ff0000;fill-opacity:1;fill-rule:nonzero;stroke:none"
           d="m 0,0 c -1.293,0.165 -2.52,0.486 -3.726,0.855 -1.203,0.375 -2.38,0.812 -3.534,1.303 -1.155,0.49 -2.286,1.035 -3.39,1.642 -1.103,0.613 -2.184,1.275 -3.198,2.095 1.294,-0.163 2.52,-0.484 3.726,-0.853 1.203,-0.376 2.38,-0.813 3.534,-1.306 C -5.435,3.244 -4.304,2.699 -3.199,2.092 -2.097,1.479 -1.015,0.818 0,0" />
      </g>
      <g
         style="fill:#ff0000"
         transform="matrix(2.5247875,0,0,-2.5247875,-63.226854,61.007593)"
         id="g13452">
        <path
           inkscape:connector-curvature="0"
           id="path13450"
           style="fill:#ff0000;fill-opacity:1;fill-rule:nonzero;stroke:none"
           d="m 0,0 c -0.798,1.031 -1.438,2.125 -2.03,3.239 -0.585,1.116 -1.108,2.258 -1.578,3.421 -0.47,1.162 -0.884,2.348 -1.236,3.558 -0.346,1.213 -0.643,2.446 -0.78,3.742 0.8,-1.029 1.44,-2.124 2.032,-3.238 0.585,-1.116 1.108,-2.258 1.576,-3.421 0.467,-1.164 0.882,-2.349 1.234,-3.56 C -0.437,2.528 -0.14,1.296 0,0" />
      </g>
      <g
         style="fill:#ff0066"
         transform="matrix(2.1985872,0,0,-2.1985872,-47.327244,20.232652)"
         id="g13456">
        <path
           inkscape:connector-curvature="0"
           id="path13454"
           style="fill:#ff0066;fill-opacity:1;fill-rule:evenodd;stroke:none"
           d="m 0,0 c -1.187,0.426 -2.106,0.76 -3.029,1.086 -0.335,0.119 -0.696,0.183 -1.01,0.342 -0.897,0.451 -1.007,1.739 -0.131,2.17 0.7,0.348 1.509,0.489 2.281,0.674 0.676,0.16 1.367,0.252 1.959,0.357 0.958,1.853 0.498,3.859 1.309,5.644 C 2.629,10.206 3.221,9.542 3.533,8.523 3.825,7.572 4.176,6.706 5.158,6.183 5.924,5.774 6.612,5.587 7.438,5.939 8.012,6.183 8.619,6.38 9.229,6.484 9.615,6.548 10.038,6.402 10.583,6.333 10.135,4.35 8.436,3.292 7.89,1.611 7.917,0.697 8.629,0.217 9.095,-0.419 9.403,-0.841 9.697,-1.325 9.815,-1.822 10.038,-2.761 9.102,-3.639 8.19,-3.401 7.762,-3.287 7.357,-3.08 6.94,-2.919 6.526,-2.758 6.111,-2.604 5.751,-2.468 4.821,-2.83 4.672,-3.708 4.224,-4.348 3.764,-5.005 3.365,-5.71 2.855,-6.325 2.352,-6.93 1.635,-7.076 0.903,-6.793 c -0.654,0.254 -0.911,0.829 -0.923,1.5 -0.014,0.716 0.017,1.431 0.019,2.147 C 0.003,-2.172 0,-1.196 0,0" />
      </g>
      <g
         id="g14394"
         transform="matrix(-3.1314914,0,0,-3.1314914,135.29903,90.257803)"
         style="fill:#ff0000">
        <path
           d="m 0,0 c -1.187,0.426 -2.106,0.76 -3.029,1.086 -0.335,0.119 -0.696,0.183 -1.01,0.342 -0.897,0.451 -1.007,1.739 -0.131,2.17 0.7,0.348 1.509,0.489 2.281,0.674 0.676,0.16 1.367,0.252 1.959,0.357 0.958,1.853 0.498,3.859 1.309,5.644 C 2.629,10.206 3.221,9.542 3.533,8.523 3.825,7.572 4.176,6.706 5.158,6.183 5.924,5.774 6.612,5.587 7.438,5.939 8.012,6.183 8.619,6.38 9.229,6.484 9.615,6.548 10.038,6.402 10.583,6.333 10.135,4.35 8.436,3.292 7.89,1.611 7.917,0.697 8.629,0.217 9.095,-0.419 9.403,-0.841 9.697,-1.325 9.815,-1.822 10.038,-2.761 9.102,-3.639 8.19,-3.401 7.762,-3.287 7.357,-3.08 6.94,-2.919 6.526,-2.758 6.111,-2.604 5.751,-2.468 4.821,-2.83 4.672,-3.708 4.224,-4.348 3.764,-5.005 3.365,-5.71 2.855,-6.325 2.352,-6.93 1.635,-7.076 0.903,-6.793 c -0.654,0.254 -0.911,0.829 -0.923,1.5 -0.014,0.716 0.017,1.431 0.019,2.147 C 0.003,-2.172 0,-1.196 0,0"
           style="fill:#ff0000;fill-opacity:1;fill-rule:evenodd;stroke:none"
           id="path14392"
           inkscape:connector-curvature="0" />
      </g>
      <g
         style="fill:#2ad4ff"
         id="g14540"
         transform="matrix(1.2660851,0,0,-1.2660851,-155.21428,114.86114)">
        <path
           d="m 0,0 c -0.312,1.503 -0.687,2.89 -0.874,4.302 -0.292,2.204 -0.467,4.425 -0.664,6.639 -0.03,0.332 0.094,0.679 0.174,1.187 0.757,-0.303 1.426,-0.52 2.047,-0.831 C 1.827,10.721 3.007,10.444 4.298,10.486 5.184,10.515 6.091,10.443 6.959,10.27 7.974,10.069 8.448,9.202 8.096,8.228 7.857,7.568 7.502,6.919 7.074,6.363 5.766,4.663 4.41,3.009 3.41,1.087 2.746,-0.187 1.652,-0.613 0,0"
           style="fill:#2ad4ff;fill-opacity:1;fill-rule:evenodd;stroke:none"
           id="path14538"
           inkscape:connector-curvature="0" />
      </g>
      <g
         style="fill:#2ad4ff"
         id="g14548"
         transform="matrix(1.2660851,0,0,-1.2660851,146.09932,190.45419)">
        <path
           d="m 0,0 c -0.775,-2.05 -2.429,-3.211 -3.699,-4.66 -0.386,-0.441 -0.518,-0.407 -2.099,-0.636 -1.217,3.278 -2.542,6.548 -3.506,9.92 0.36,0.166 0.552,0.334 0.658,0.291 C -5.571,3.678 -2.907,1.743 0,0"
           style="fill:#2ad4ff;fill-opacity:1;fill-rule:evenodd;stroke:none"
           id="path14546"
           inkscape:connector-curvature="0" />
      </g>
      <g
         style="fill:#00ff00"
         id="g14552"
         transform="matrix(1.2660851,0,0,-1.2660851,30.610266,34.534968)">
        <path
           d="m 0,0 c -0.444,-0.16 -0.636,-0.307 -0.759,-0.263 -2.6,0.931 -5.193,1.885 -7.92,2.882 0.263,0.423 0.41,0.737 0.627,0.992 1.465,1.733 2.584,3.648 3.142,5.868 0.177,0.706 0.428,1.373 1.423,1.572 C -2.099,7.48 -1.48,3.675 0,0"
           style="fill:#00ff00;fill-opacity:1;fill-rule:evenodd;stroke:none"
           id="path14550"
           inkscape:connector-curvature="0" />
      </g>
      <g
         style="fill:#ff6600"
         id="g14556"
         transform="matrix(1.2660851,0,0,-1.2660851,76.572896,154.35735)">
        <path
           d="M 0,0 C 0,0.819 -0.016,1.087 0.003,1.354 0.158,3.647 1.929,4.845 4.102,4.13 4.817,3.895 5.348,3.444 5.66,2.76 6.741,0.396 5.135,-2.589 2.591,-2.955 1.571,-3.103 0.42,-2.371 0.147,-1.305 -0.005,-0.709 0.007,-0.072 0,0"
           style="fill:#ff6600;fill-opacity:1;fill-rule:evenodd;stroke:none"
           id="path14554"
           inkscape:connector-curvature="0" />
      </g>
      <g
         style="fill:#ff6600"
         id="g14560"
         transform="matrix(1.2660851,0,0,-1.2660851,-141.75069,187.47313)">
        <path
           d="m 0,0 c 0.04,-2.845 1.209,-5.547 0.635,-8.56 -0.482,0.06 -0.977,-0.015 -1.303,0.186 -1.598,0.978 -3.164,2.008 -4.707,3.069 -0.405,0.279 -0.688,0.737 -1.025,1.11 3.525,2.999 4.437,3.602 6.4,4.195"
           style="fill:#ff6600;fill-opacity:1;fill-rule:evenodd;stroke:none"
           id="path14558"
           inkscape:connector-curvature="0" />
      </g>
      <g
         style="fill:#ff6600"
         id="g14564"
         transform="matrix(1.2660851,0,0,-1.2660851,50.460906,-0.04210459)">
        <path
           d="M 0,0 C -0.295,0.062 -0.842,0.114 -1.343,0.292 -3.448,1.038 -3.914,3.246 -2.318,4.792 -1.139,5.934 0.234,6.431 1.87,6.083 2.741,5.897 3.317,5.354 3.581,4.53 4.214,2.556 2.292,-0.031 0,0"
           style="fill:#ff6600;fill-opacity:1;fill-rule:evenodd;stroke:none"
           id="path14562"
           inkscape:connector-curvature="0" />
      </g>
      <g
         id="g14572"
         transform="matrix(1.2660851,0,0,-1.2660851,-76.962694,118.98864)">
        <path
           d="M 0,0 C -0.646,1.126 -1.918,1.691 -3.167,1.438 -3.688,1.333 -4.201,1.179 -4.71,1.021 -5.728,0.708 -6.396,0.073 -6.576,-1.018 c -0.183,-1.1 0.352,-1.875 1.038,-2.489 1.869,-1.528 3.8,-1.29 5.17,0.538 C 0.331,-2.038 0.608,-1.062 0,0"
           style="fill:#f85b68;fill-opacity:1;fill-rule:evenodd;stroke:none"
           id="path14570"
           inkscape:connector-curvature="0" />
      </g>
      <g
         style="fill:#00ccff"
         id="g14607"
         transform="matrix(2.4220982,0,0,-2.4220982,59.740896,89.637623)">
        <path
           d="M 0,0 C 0.35,1.588 0.718,3.369 1.708,4.698 2.645,5.957 5.709,7.711 5.775,4.523 5.776,4.893 5.777,5.263 5.778,5.632 4.37,4.251 3.231,5.354 2.975,6.959 V 5.77 c 0.213,2.121 0.807,4.458 1.998,6.251 1.136,1.713 3.599,3.061 4.55,0.363 v 1.19 C 9.418,12.623 8.602,11.499 7.552,12.106 6.396,12.774 7.255,14.928 7.7,15.804 c 1.605,3.16 5.506,4.776 8.809,5.204 0.058,0.008 -0.042,1.184 0,1.19 -4.398,-0.57 -11.29,-4.566 -9.53,-10.036 0.691,-2.144 2.552,-1.353 2.55,0.659 -0.003,1.912 -1.62,2.896 -3.354,1.82 C 4.951,13.881 0.494,4.333 4.341,3.754 5.675,3.553 6.269,5.391 5.763,6.453 3.585,11.022 0.308,2.589 0,1.189 -0.083,0.81 0.083,0.376 0,0"
           style="fill:#00ccff;fill-opacity:1;fill-rule:nonzero;stroke:none"
           id="path14605"
           inkscape:connector-curvature="0" />
      </g>
      <g
         style="fill:#66ff00"
         id="g14615"
         transform="matrix(2.7541289,-1.304874,-1.304874,-2.7541289,-74.770094,88.277133)">
        <path
           d="m 0,0 c -0.238,2.068 -0.482,4.373 -1.705,6.129 -1.001,1.438 -2.38,2.308 -2.712,-0.074 -0.115,-0.826 -0.031,-1.73 0.961,-1.78 1.805,-0.09 2.139,2.966 1.982,4.194 -0.285,2.254 -1.758,3.742 -3.709,4.737 -1.228,0.626 -3.073,1.741 -3.617,0.165 -0.503,-1.457 1.127,-3.086 2.564,-2.612 1.269,0.418 1.418,1.75 1.357,2.879 -0.204,3.834 -4.136,5.687 -7.556,5.181 -0.065,-0.009 0.049,-1.181 0,-1.189 3.467,0.513 7.064,-1.286 7.552,-5.007 v 1.19 c -0.562,-2.26 -3.392,-2.729 -3.912,-0.147 v -1.189 c 0.373,1.356 2.884,-0.089 3.612,-0.46 1.879,-0.958 3.144,-2.277 3.704,-4.372 0,0.37 -10e-4,0.739 -0.002,1.108 C -1.5,7.675 -3.039,3.894 -4.414,6.136 V 4.946 C -3.672,7.715 -2.068,5.732 -1.238,4.112 -0.408,2.494 -0.205,0.59 0,-1.189 -0.045,-0.799 0.046,-0.392 0,0"
           style="fill:#66ff00;fill-opacity:1;fill-rule:nonzero;stroke:none"
           id="path14613"
           inkscape:connector-curvature="0" />
      </g>
      <g
         style="fill:#d400aa"
         id="g14661"
         transform="matrix(0.2732782,-1.2362405,-1.2362405,-0.2732782,-147.37229,153.6226)">
        <path
           d="m 0,0 c -0.523,-0.937 -1.571,-1.991 -3.595,-1.692 -0.48,0.068 -1.06,0.244 -1.108,0.675 -0.093,0.844 1.187,2.401 2.917,3.069 0.598,0.231 1.48,0.444 2.438,0.245 C 0.575,1.42 0.351,0.629 0,0 m 0.77,-14.313 c 0.107,-0.096 0.233,-0.159 0.365,-0.191 0.294,-0.069 0.617,0.02 0.833,0.263 0.315,0.357 7.663,8.794 2.684,15.684 C 4.003,2.341 3.229,3.018 2.378,3.46 2.262,5.734 1.366,8.136 -0.207,10.01 c -1.251,1.49 -2.685,2.217 -4.264,2.158 -3.216,-0.122 -5.728,-3.572 -5.834,-3.719 -0.274,-0.381 -0.187,-0.912 0.194,-1.185 0.382,-0.275 0.914,-0.188 1.187,0.194 0.582,0.812 2.529,2.936 4.517,3.01 C -3.371,10.508 -2.42,10 -1.509,8.917 -0.255,7.423 0.417,5.665 0.617,4.022 -0.35,4.158 -1.372,4.034 -2.398,3.638 -4.796,2.713 -6.586,0.541 -6.392,-1.204 c 0.06,-0.549 0.435,-1.864 2.548,-2.17 2.293,-0.339 4.236,0.59 5.327,2.546 0.394,0.704 0.658,1.499 0.795,2.343 0.339,-0.273 0.675,-0.622 0.996,-1.068 4.18,-5.786 -2.51,-13.484 -2.58,-13.56 -0.31,-0.352 -0.276,-0.889 0.076,-1.2"
           style="fill:#d400aa;fill-opacity:1;fill-rule:nonzero;stroke:none"
           id="path14659"
           inkscape:connector-curvature="0" />
      </g>
      <g
         id="g14665"
         transform="matrix(0.58529056,-1.1226782,-1.1226782,-0.58529056,154.17969,149.61707)">
        <path
           d="M 0,0 C 0.176,1.059 0.805,2.406 2.811,2.811 3.285,2.906 3.891,2.938 4.081,2.548 4.455,1.786 3.777,-0.111 2.375,-1.326 1.891,-1.746 1.133,-2.246 0.164,-2.381 -0.061,-1.53 -0.117,-0.711 0,0 m -5.568,13.208 c -0.134,0.054 -0.274,0.071 -0.409,0.056 -0.3,-0.034 -0.574,-0.229 -0.695,-0.53 -0.176,-0.441 -4.234,-10.867 2.783,-15.666 0.914,-0.626 1.871,-1.001 2.823,-1.129 0.879,-2.1 2.535,-4.056 4.648,-5.288 1.683,-0.979 3.277,-1.176 4.743,-0.587 2.986,1.204 4.182,5.299 4.232,5.473 0.129,0.451 -0.133,0.922 -0.584,1.051 -0.452,0.128 -0.923,-0.133 -1.051,-0.586 -0.274,-0.961 -1.387,-3.617 -3.233,-4.361 -0.96,-0.387 -2.027,-0.233 -3.251,0.48 -1.685,0.981 -2.913,2.407 -3.657,3.885 0.955,0.2 1.875,0.662 2.707,1.383 1.944,1.681 2.893,4.332 2.119,5.908 -0.242,0.496 -1.041,1.605 -3.131,1.18 -2.273,-0.459 -3.787,-1.99 -4.152,-4.2 -0.133,-0.797 -0.111,-1.632 0.045,-2.472 -0.411,0.14 -0.846,0.357 -1.299,0.666 -5.89,4.029 -2.201,13.538 -2.162,13.633 0.173,0.437 -0.041,0.931 -0.476,1.104"
           style="fill:#e03b59;fill-opacity:1;fill-rule:nonzero;stroke:none"
           id="path14663"
           inkscape:connector-curvature="0" />
      </g>
      <path
         sodipodi:nodetypes="ccccc"
         inkscape:connector-curvature="0"
         id="path15659"
         d="m -33.213934,192.13057 c 6.5639,0.5952 12.8465,0.9302 19.298,1.0763 -2.2325,-17.655 8.4529003,-82.012 -14.2267,-123.219697 -8.3059,-14.0298 -25.7783,-18.2117 -27.503,5.3887 -0.8775,15.36189 8.081,78.347697 22.4317,116.754697 z"
         style="fill:#ffffff;stroke:#000000;stroke-width:2.31007195;stroke-linecap:butt;stroke-linejoin:miter;stroke-miterlimit:4;stroke-dasharray:none;stroke-opacity:1" />
      <path
         style="fill:#ffffff;stroke:#000000;stroke-width:2.31007195;stroke-linecap:butt;stroke-linejoin:miter;stroke-miterlimit:4;stroke-dasharray:none;stroke-opacity:1"
         d="m 20.505766,192.04757 c -6.3863,0.9602 -12.9283997,0.966 -19.58119974,1.1701 2.23260004,-17.655 -8.17489996,-81.1447 14.50469974,-122.352397 8.306,-14.0299 25.77821,-18.2117 27.503,5.38859 0.87749,15.36201 -8.0759,77.386707 -22.4265,115.793707 z"
         id="path15661"
         inkscape:connector-curvature="0"
         sodipodi:nodetypes="ccccc" />
    </g>
    <text
       xml:space="preserve"
       style="font-style:normal;font-variant:normal;font-weight:normal;font-stretch:normal;font-size:7.38889599px;line-height:1.25;font-family:'Bushido Shadow';-inkscape-font-specification:'Bushido Shadow';letter-spacing:0px;word-spacing:0px;fill:#dd55ff;fill-opacity:1;stroke:#22002b;stroke-width:1.5;stroke-miterlimit:4;stroke-dasharray:none;stroke-opacity:1;"
       x="4.8915162"
       y="177.81454"
       id="text4892"
       inkscape:export-xdpi="200"
       inkscape:export-ydpi="200"><tspan
         sodipodi:role="line"
         id="tspan4890"
         x="4.8915162"
         y="177.81454"
         style="font-style:normal;font-variant:normal;font-weight:normal;font-stretch:normal;font-size:61.57413864px;font-family:'DK Lemon Yellow Sun';-inkscape-font-specification:'DK Lemon Yellow Sun';fill:#dd55ff;stroke:#22002b;stroke-width:1.5;stroke-miterlimit:4;stroke-dasharray:none;stroke-opacity:1;fill-opacity:1;">UBICACIÓN</tspan></text>
  </g>
</svg>
