<?xml version="1.0" encoding="UTF-8" standalone="no"?>
<!-- Created with Inkscape (http://www.inkscape.org/) -->

<svg
   xmlns:dc="http://purl.org/dc/elements/1.1/"
   xmlns:cc="http://creativecommons.org/ns#"
   xmlns:rdf="http://www.w3.org/1999/02/22-rdf-syntax-ns#"
   xmlns:svg="http://www.w3.org/2000/svg"
   xmlns="http://www.w3.org/2000/svg"
   xmlns:sodipodi="http://sodipodi.sourceforge.net/DTD/sodipodi-0.dtd"
   xmlns:inkscape="http://www.inkscape.org/namespaces/inkscape"
   width="400mm"
   height="115mm"
   viewBox="0 0 400 115"
   version="1.1"
   id="svg1634"
   inkscape:version="0.92.2 2405546, 2018-03-11"
   sodipodi:docname="contactoTitle.svg">
  <defs
     id="defs1628" />
  <sodipodi:namedview
     id="base"
     pagecolor="#ffffff"
     bordercolor="#666666"
     borderopacity="1.0"
     inkscape:pageopacity="0.0"
     inkscape:pageshadow="2"
     inkscape:zoom="0.16"
     inkscape:cx="427.99377"
     inkscape:cy="148.30492"
     inkscape:document-units="mm"
     inkscape:current-layer="layer1"
     showgrid="false"
     borderlayer="true"
     inkscape:showpageshadow="false"
     inkscape:window-width="679"
     inkscape:window-height="724"
     inkscape:window-x="0"
     inkscape:window-y="20"
     inkscape:window-maximized="0" />
  <metadata
     id="metadata1631">
    <rdf:RDF>
      <cc:Work
         rdf:about="">
        <dc:format>image/svg+xml</dc:format>
        <dc:type
           rdf:resource="http://purl.org/dc/dcmitype/StillImage" />
        <dc:title></dc:title>
      </cc:Work>
    </rdf:RDF>
  </metadata>
  <g
     inkscape:label="Layer 1"
     inkscape:groupmode="layer"
     id="layer1"
     transform="translate(0,-182)">
    <g
       style="fill:#ffff00;stroke:#660080"
       id="g1437"
       transform="matrix(3.3755391,-1.0448602,-1.0448602,-3.3755391,29.826077,192.11398)">
      <path
         d="m 0,0 c 0.198,0.221 0.084,0.573 -0.206,0.636 l -1.898,0.409 c -0.105,0.023 -0.197,0.09 -0.251,0.184 L -3.332,2.906 C -3.48,3.162 -3.851,3.162 -4,2.906 L -4.976,1.229 C -5.03,1.135 -5.122,1.068 -5.229,1.045 L -7.126,0.636 C -7.415,0.573 -7.529,0.221 -7.332,0 l 1.294,-1.446 c 0.072,-0.081 0.107,-0.19 0.097,-0.297 l -0.198,-1.932 c -0.029,-0.295 0.27,-0.512 0.541,-0.392 l 1.776,0.783 c 0.099,0.044 0.213,0.044 0.312,0 l 1.776,-0.783 c 0.271,-0.12 0.571,0.097 0.541,0.392 l -0.197,1.932 c -0.01,0.107 0.024,0.216 0.097,0.297 z"
         style="fill:#ffff00;fill-opacity:1;fill-rule:nonzero;stroke:#660080"
         id="path1435"
         inkscape:connector-curvature="0" />
    </g>
    <g
       transform="matrix(3.3938313,0.98382304,0.98382304,-3.3938313,394.84374,280.49049)"
       id="g969"
       style="fill:#ffff00;stroke:#660080;stroke-width:1.00012648;stroke-miterlimit:4;stroke-dasharray:none">
      <path
         inkscape:connector-curvature="0"
         id="path967"
         style="fill:#ffff00;fill-opacity:1;fill-rule:nonzero;stroke:#660080;stroke-width:1.00012648;stroke-miterlimit:4;stroke-dasharray:none"
         d="m 0,0 c 0.198,0.221 0.084,0.573 -0.206,0.636 l -1.898,0.409 c -0.105,0.023 -0.197,0.09 -0.251,0.184 L -3.332,2.906 C -3.48,3.162 -3.851,3.162 -4,2.906 L -4.976,1.229 C -5.03,1.135 -5.122,1.068 -5.229,1.045 L -7.126,0.636 C -7.415,0.573 -7.529,0.221 -7.332,0 l 1.294,-1.446 c 0.072,-0.081 0.107,-0.19 0.097,-0.297 l -0.198,-1.932 c -0.029,-0.295 0.27,-0.512 0.541,-0.392 l 1.776,0.783 c 0.099,0.044 0.213,0.044 0.312,0 l 1.776,-0.783 c 0.271,-0.12 0.571,0.097 0.541,0.392 l -0.197,1.932 c -0.01,0.107 0.024,0.216 0.097,0.297 z" />
    </g>
    <g
       aria-label="CONTACTO"
       style="font-style:normal;font-variant:normal;font-weight:normal;font-stretch:normal;font-size:16.93333244px;line-height:1.25;font-family:'Microsoft Sans Serif';-inkscape-font-specification:'Microsoft Sans Serif';letter-spacing:0px;word-spacing:0px;fill:#440055;fill-opacity:1;stroke:none;stroke-width:0.26458332"
       id="text2253"
       transform="matrix(1.745212,0,0,1.745212,-107.90202,-377.15467)">
      <path
         d="m 91.891151,344.47624 q -1.8288,-1.5748 -4.2672,-2.8448 -2.4384,-1.27 -5.2324,-1.27 -2.6924,0 -5.08,1.016 -2.3876,1.016 -4.1656,2.794 -1.7272,1.778 -2.7432,4.1656 -1.016,2.3876 -1.016,5.08 0,2.6924 1.016,5.08 1.016,2.3876 2.7432,4.1656 1.778,1.7272 4.1656,2.7432 2.3876,1.016 5.08,1.016 2.8448,0 5.2832,-1.0668 2.4892,-1.1176 4.2672,-3.048 0.254,-0.3048 0.6096,-0.4572 0.406399,-0.1524 0.812799,-0.1524 0.6604,0 0.9652,0.4572 0.3556,0.4572 0.3556,1.016 0,0.8128 -0.4572,1.27 -2.235199,2.4384 -5.283199,3.81 -3.048,1.3208 -6.5532,1.3208 -3.3528,0 -6.2992,-1.27 -2.9464,-1.27 -5.1308,-3.4544 -2.1844,-2.1844 -3.4544,-5.1308 -1.27,-2.9464 -1.27,-6.2992 0,-3.3528 1.27,-6.2992 1.27,-2.9464 3.4544,-5.1308 2.1844,-2.2352 5.1308,-3.5052 2.9464,-1.27 6.2992,-1.27 3.4036,0 6.35,1.3208 2.9972,1.3208 5.232399,3.6068 0.254,0.254 0.4572,0.6604 0.2032,0.4064 0.2032,0.8128 0,0.6604 -0.4572,1.016 -0.4572,0.3556 -1.0668,0.3556 -0.761999,0 -1.219199,-0.508 z"
         style="font-style:normal;font-variant:normal;font-weight:normal;font-stretch:normal;font-size:50.79999924px;font-family:Antipasto;-inkscape-font-specification:Antipasto;fill:#440055;fill-opacity:1;stroke-width:0.26458332"
         id="path2255"
         inkscape:connector-curvature="0" />
      <path
         d="m 113.3478,337.21184 q 3.3528,0 6.2992,1.27 2.9464,1.27 5.1308,3.5052 2.2352,2.1844 3.5052,5.1308 1.27,2.9464 1.27,6.2992 0,3.3528 -1.27,6.2992 -1.27,2.9464 -3.5052,5.1308 -2.1844,2.1844 -5.1308,3.4544 -2.9464,1.27 -6.2992,1.27 -3.3528,0 -6.2992,-1.27 -2.9464,-1.27 -5.1308,-3.4544 -2.1844,-2.1844 -3.4544,-5.1308 -1.27,-2.9464 -1.27,-6.2992 0,-3.3528 1.27,-6.2992 1.27,-2.9464 3.4544,-5.1308 2.1844,-2.2352 5.1308,-3.5052 2.9464,-1.27 6.2992,-1.27 z m 0,3.1496 q -2.6924,0 -5.08,1.016 -2.3876,1.016 -4.1656,2.794 -1.7272,1.778 -2.7432,4.1656 -1.016,2.3876 -1.016,5.08 0,2.6924 1.016,5.08 1.016,2.3876 2.7432,4.1656 1.778,1.7272 4.1656,2.7432 2.3876,1.016 5.08,1.016 2.6924,0 5.08,-1.016 2.3876,-1.016 4.1656,-2.7432 1.778,-1.778 2.794,-4.1656 1.016,-2.3876 1.016,-5.08 0,-2.6924 -1.016,-5.08 -1.016,-2.3876 -2.794,-4.1656 -1.778,-1.778 -4.1656,-2.794 -2.3876,-1.016 -5.08,-1.016 z"
         style="font-style:normal;font-variant:normal;font-weight:normal;font-stretch:normal;font-size:50.79999924px;font-family:Antipasto;-inkscape-font-specification:Antipasto;fill:#440055;fill-opacity:1;stroke-width:0.26458332"
         id="path2257"
         inkscape:connector-curvature="0" />
      <path
         d="m 133.96466,338.68504 q 0,-0.6604 0.4572,-1.1176 0.4572,-0.4572 1.1176,-0.4572 0.5588,0 0.8128,0.254 0.3048,0.2032 0.6096,0.6096 l 17.4752,24.7396 v -24.0284 q 0,-0.6604 0.4572,-1.1176 0.4572,-0.4572 1.1176,-0.4572 0.6604,0 1.1176,0.4572 0.4572,0.4572 0.4572,1.1176 v 29.3116 q 0,0.6604 -0.4572,1.1176 -0.4572,0.4572 -1.1176,0.4572 -0.5588,0 -0.9144,-0.3048 -0.3556,-0.3556 -0.6096,-0.762 l -17.3736,-24.5872 v 24.0792 q 0,0.6604 -0.4572,1.1176 -0.4572,0.4572 -1.1176,0.4572 -0.6604,0 -1.1176,-0.4572 -0.4572,-0.4572 -0.4572,-1.1176 z"
         style="font-style:normal;font-variant:normal;font-weight:normal;font-stretch:normal;font-size:50.79999924px;font-family:Antipasto;-inkscape-font-specification:Antipasto;fill:#440055;fill-opacity:1;stroke-width:0.26458332"
         id="path2259"
         inkscape:connector-curvature="0" />
      <path
         d="m 162.89764,340.25984 q -0.6604,0 -1.1176,-0.4572 -0.4572,-0.4572 -0.4572,-1.1176 0,-0.6604 0.4572,-1.1176 0.4572,-0.4572 1.1176,-0.4572 h 17.6276 q 0.6604,0 1.1176,0.4572 0.4572,0.4572 0.4572,1.1176 0,0.6604 -0.4572,1.1176 -0.4572,0.4572 -1.1176,0.4572 h -7.2136 v 27.7368 q 0,0.6604 -0.4572,1.1176 -0.4572,0.4572 -1.1176,0.4572 -0.6604,0 -1.1176,-0.4572 -0.4572,-0.4572 -0.4572,-1.1176 v -27.7368 z"
         style="font-style:normal;font-variant:normal;font-weight:normal;font-stretch:normal;font-size:50.79999924px;font-family:Antipasto;-inkscape-font-specification:Antipasto;fill:#440055;fill-opacity:1;stroke-width:0.26458332"
         id="path2261"
         inkscape:connector-curvature="0" />
      <path
         d="m 191.59646,338.27864 q 0.1524,-0.4064 0.5588,-0.762 0.4064,-0.4064 0.9144,-0.4064 0.508,0 0.9144,0.3556 0.4064,0.3556 0.6096,0.8128 l 12.5476,29.1084 q 0.1016,0.2032 0.1016,0.6096 0,0.6096 -0.4064,1.0668 -0.4064,0.4572 -1.1176,0.4572 -1.0668,0 -1.4732,-0.9652 l -4.064,-9.2964 h -14.2748 l -4.06399,9.2964 q -0.2032,0.4572 -0.6096,0.7112 -0.4064,0.254 -0.8636,0.254 -0.7112,0 -1.1684,-0.4572 -0.4064,-0.4572 -0.4064,-1.0668 0,-0.3048 0.1524,-0.6096 z m 1.4732,4.7244 -5.7912,13.1064 h 11.5316 z"
         style="font-style:normal;font-variant:normal;font-weight:normal;font-stretch:normal;font-size:50.79999924px;font-family:Antipasto;-inkscape-font-specification:Antipasto;fill:#440055;fill-opacity:1;stroke-width:0.26458332"
         id="path2263"
         inkscape:connector-curvature="0" />
      <path
         d="m 231.8888,344.47624 q -1.8288,-1.5748 -4.2672,-2.8448 -2.4384,-1.27 -5.2324,-1.27 -2.6924,0 -5.08,1.016 -2.3876,1.016 -4.1656,2.794 -1.7272,1.778 -2.7432,4.1656 -1.016,2.3876 -1.016,5.08 0,2.6924 1.016,5.08 1.016,2.3876 2.7432,4.1656 1.778,1.7272 4.1656,2.7432 2.3876,1.016 5.08,1.016 2.8448,0 5.2832,-1.0668 2.4892,-1.1176 4.2672,-3.048 0.254,-0.3048 0.6096,-0.4572 0.4064,-0.1524 0.8128,-0.1524 0.6604,0 0.9652,0.4572 0.3556,0.4572 0.3556,1.016 0,0.8128 -0.4572,1.27 -2.2352,2.4384 -5.2832,3.81 -3.048,1.3208 -6.5532,1.3208 -3.3528,0 -6.2992,-1.27 -2.9464,-1.27 -5.1308,-3.4544 -2.1844,-2.1844 -3.4544,-5.1308 -1.27,-2.9464 -1.27,-6.2992 0,-3.3528 1.27,-6.2992 1.27,-2.9464 3.4544,-5.1308 2.1844,-2.2352 5.1308,-3.5052 2.9464,-1.27 6.2992,-1.27 3.4036,0 6.35,1.3208 2.9972,1.3208 5.2324,3.6068 0.254,0.254 0.4572,0.6604 0.2032,0.4064 0.2032,0.8128 0,0.6604 -0.4572,1.016 -0.4572,0.3556 -1.0668,0.3556 -0.762,0 -1.2192,-0.508 z"
         style="font-style:normal;font-variant:normal;font-weight:normal;font-stretch:normal;font-size:50.79999924px;font-family:Antipasto;-inkscape-font-specification:Antipasto;fill:#440055;fill-opacity:1;stroke-width:0.26458332"
         id="path2265"
         inkscape:connector-curvature="0" />
      <path
         d="m 235.7242,340.25984 q -0.6604,0 -1.1176,-0.4572 -0.4572,-0.4572 -0.4572,-1.1176 0,-0.6604 0.4572,-1.1176 0.4572,-0.4572 1.1176,-0.4572 h 17.6276 q 0.6604,0 1.1176,0.4572 0.4572,0.4572 0.4572,1.1176 0,0.6604 -0.4572,1.1176 -0.4572,0.4572 -1.1176,0.4572 h -7.2136 v 27.7368 q 0,0.6604 -0.4572,1.1176 -0.4572,0.4572 -1.1176,0.4572 -0.6604,0 -1.1176,-0.4572 -0.4572,-0.4572 -0.4572,-1.1176 v -27.7368 z"
         style="font-style:normal;font-variant:normal;font-weight:normal;font-stretch:normal;font-size:50.79999924px;font-family:Antipasto;-inkscape-font-specification:Antipasto;fill:#440055;fill-opacity:1;stroke-width:0.26458332"
         id="path2267"
         inkscape:connector-curvature="0" />
      <path
         d="m 270.41108,337.21184 q 3.3528,0 6.2992,1.27 2.9464,1.27 5.1308,3.5052 2.2352,2.1844 3.5052,5.1308 1.27,2.9464 1.27,6.2992 0,3.3528 -1.27,6.2992 -1.27,2.9464 -3.5052,5.1308 -2.1844,2.1844 -5.1308,3.4544 -2.9464,1.27 -6.2992,1.27 -3.3528,0 -6.2992,-1.27 -2.9464,-1.27 -5.1308,-3.4544 -2.1844,-2.1844 -3.4544,-5.1308 -1.27,-2.9464 -1.27,-6.2992 0,-3.3528 1.27,-6.2992 1.27,-2.9464 3.4544,-5.1308 2.1844,-2.2352 5.1308,-3.5052 2.9464,-1.27 6.2992,-1.27 z m 0,3.1496 q -2.6924,0 -5.08,1.016 -2.3876,1.016 -4.1656,2.794 -1.7272,1.778 -2.7432,4.1656 -1.016,2.3876 -1.016,5.08 0,2.6924 1.016,5.08 1.016,2.3876 2.7432,4.1656 1.778,1.7272 4.1656,2.7432 2.3876,1.016 5.08,1.016 2.6924,0 5.08,-1.016 2.3876,-1.016 4.1656,-2.7432 1.778,-1.778 2.794,-4.1656 1.016,-2.3876 1.016,-5.08 0,-2.6924 -1.016,-5.08 -1.016,-2.3876 -2.794,-4.1656 -1.778,-1.778 -4.1656,-2.794 -2.3876,-1.016 -5.08,-1.016 z"
         style="font-style:normal;font-variant:normal;font-weight:normal;font-stretch:normal;font-size:50.79999924px;font-family:Antipasto;-inkscape-font-specification:Antipasto;fill:#440055;fill-opacity:1;stroke-width:0.26458332"
         id="path2269"
         inkscape:connector-curvature="0" />
    </g>
    <g
       transform="matrix(3.3755391,-1.0448602,-1.0448602,-3.3755391,29.826077,192.11398)"
       id="g2844"
       style="fill:#ffff00;stroke:#660080">
      <path
         inkscape:connector-curvature="0"
         id="path2842"
         style="fill:#ffff00;fill-opacity:1;fill-rule:nonzero;stroke:#660080"
         d="m 0,0 c 0.198,0.221 0.084,0.573 -0.206,0.636 l -1.898,0.409 c -0.105,0.023 -0.197,0.09 -0.251,0.184 L -3.332,2.906 C -3.48,3.162 -3.851,3.162 -4,2.906 L -4.976,1.229 C -5.03,1.135 -5.122,1.068 -5.229,1.045 L -7.126,0.636 C -7.415,0.573 -7.529,0.221 -7.332,0 l 1.294,-1.446 c 0.072,-0.081 0.107,-0.19 0.097,-0.297 l -0.198,-1.932 c -0.029,-0.295 0.27,-0.512 0.541,-0.392 l 1.776,0.783 c 0.099,0.044 0.213,0.044 0.312,0 l 1.776,-0.783 c 0.271,-0.12 0.571,0.097 0.541,0.392 l -0.197,1.932 c -0.01,0.107 0.024,0.216 0.097,0.297 z" />
    </g>
    <g
       style="fill:#ffff00;stroke:#660080;stroke-width:1.00012648;stroke-miterlimit:4;stroke-dasharray:none"
       id="g2848"
       transform="matrix(3.3938313,0.98382304,0.98382304,-3.3938313,394.84374,280.49049)">
      <path
         d="m 0,0 c 0.198,0.221 0.084,0.573 -0.206,0.636 l -1.898,0.409 c -0.105,0.023 -0.197,0.09 -0.251,0.184 L -3.332,2.906 C -3.48,3.162 -3.851,3.162 -4,2.906 L -4.976,1.229 C -5.03,1.135 -5.122,1.068 -5.229,1.045 L -7.126,0.636 C -7.415,0.573 -7.529,0.221 -7.332,0 l 1.294,-1.446 c 0.072,-0.081 0.107,-0.19 0.097,-0.297 l -0.198,-1.932 c -0.029,-0.295 0.27,-0.512 0.541,-0.392 l 1.776,0.783 c 0.099,0.044 0.213,0.044 0.312,0 l 1.776,-0.783 c 0.271,-0.12 0.571,0.097 0.541,0.392 l -0.197,1.932 c -0.01,0.107 0.024,0.216 0.097,0.297 z"
         style="fill:#ffff00;fill-opacity:1;fill-rule:nonzero;stroke:#660080;stroke-width:1.00012648;stroke-miterlimit:4;stroke-dasharray:none"
         id="path2846"
         inkscape:connector-curvature="0" />
    </g>
    <g
       transform="matrix(1.745212,0,0,1.745212,-107.90202,-377.15467)"
       id="g2866"
       style="font-style:normal;font-variant:normal;font-weight:normal;font-stretch:normal;font-size:16.93333244px;line-height:1.25;font-family:'Microsoft Sans Serif';-inkscape-font-specification:'Microsoft Sans Serif';letter-spacing:0px;word-spacing:0px;fill:#440055;fill-opacity:1;stroke:none;stroke-width:0.26458332"
       aria-label="CONTACTO">
      <path
         inkscape:connector-curvature="0"
         id="path2850"
         style="font-style:normal;font-variant:normal;font-weight:normal;font-stretch:normal;font-size:50.79999924px;font-family:Antipasto;-inkscape-font-specification:Antipasto;fill:#440055;fill-opacity:1;stroke-width:0.26458332"
         d="m 91.891151,344.47624 q -1.8288,-1.5748 -4.2672,-2.8448 -2.4384,-1.27 -5.2324,-1.27 -2.6924,0 -5.08,1.016 -2.3876,1.016 -4.1656,2.794 -1.7272,1.778 -2.7432,4.1656 -1.016,2.3876 -1.016,5.08 0,2.6924 1.016,5.08 1.016,2.3876 2.7432,4.1656 1.778,1.7272 4.1656,2.7432 2.3876,1.016 5.08,1.016 2.8448,0 5.2832,-1.0668 2.4892,-1.1176 4.2672,-3.048 0.254,-0.3048 0.6096,-0.4572 0.406399,-0.1524 0.812799,-0.1524 0.6604,0 0.9652,0.4572 0.3556,0.4572 0.3556,1.016 0,0.8128 -0.4572,1.27 -2.235199,2.4384 -5.283199,3.81 -3.048,1.3208 -6.5532,1.3208 -3.3528,0 -6.2992,-1.27 -2.9464,-1.27 -5.1308,-3.4544 -2.1844,-2.1844 -3.4544,-5.1308 -1.27,-2.9464 -1.27,-6.2992 0,-3.3528 1.27,-6.2992 1.27,-2.9464 3.4544,-5.1308 2.1844,-2.2352 5.1308,-3.5052 2.9464,-1.27 6.2992,-1.27 3.4036,0 6.35,1.3208 2.9972,1.3208 5.232399,3.6068 0.254,0.254 0.4572,0.6604 0.2032,0.4064 0.2032,0.8128 0,0.6604 -0.4572,1.016 -0.4572,0.3556 -1.0668,0.3556 -0.761999,0 -1.219199,-0.508 z" />
      <path
         inkscape:connector-curvature="0"
         id="path2852"
         style="font-style:normal;font-variant:normal;font-weight:normal;font-stretch:normal;font-size:50.79999924px;font-family:Antipasto;-inkscape-font-specification:Antipasto;fill:#440055;fill-opacity:1;stroke-width:0.26458332"
         d="m 113.3478,337.21184 q 3.3528,0 6.2992,1.27 2.9464,1.27 5.1308,3.5052 2.2352,2.1844 3.5052,5.1308 1.27,2.9464 1.27,6.2992 0,3.3528 -1.27,6.2992 -1.27,2.9464 -3.5052,5.1308 -2.1844,2.1844 -5.1308,3.4544 -2.9464,1.27 -6.2992,1.27 -3.3528,0 -6.2992,-1.27 -2.9464,-1.27 -5.1308,-3.4544 -2.1844,-2.1844 -3.4544,-5.1308 -1.27,-2.9464 -1.27,-6.2992 0,-3.3528 1.27,-6.2992 1.27,-2.9464 3.4544,-5.1308 2.1844,-2.2352 5.1308,-3.5052 2.9464,-1.27 6.2992,-1.27 z m 0,3.1496 q -2.6924,0 -5.08,1.016 -2.3876,1.016 -4.1656,2.794 -1.7272,1.778 -2.7432,4.1656 -1.016,2.3876 -1.016,5.08 0,2.6924 1.016,5.08 1.016,2.3876 2.7432,4.1656 1.778,1.7272 4.1656,2.7432 2.3876,1.016 5.08,1.016 2.6924,0 5.08,-1.016 2.3876,-1.016 4.1656,-2.7432 1.778,-1.778 2.794,-4.1656 1.016,-2.3876 1.016,-5.08 0,-2.6924 -1.016,-5.08 -1.016,-2.3876 -2.794,-4.1656 -1.778,-1.778 -4.1656,-2.794 -2.3876,-1.016 -5.08,-1.016 z" />
      <path
         inkscape:connector-curvature="0"
         id="path2854"
         style="font-style:normal;font-variant:normal;font-weight:normal;font-stretch:normal;font-size:50.79999924px;font-family:Antipasto;-inkscape-font-specification:Antipasto;fill:#440055;fill-opacity:1;stroke-width:0.26458332"
         d="m 133.96466,338.68504 q 0,-0.6604 0.4572,-1.1176 0.4572,-0.4572 1.1176,-0.4572 0.5588,0 0.8128,0.254 0.3048,0.2032 0.6096,0.6096 l 17.4752,24.7396 v -24.0284 q 0,-0.6604 0.4572,-1.1176 0.4572,-0.4572 1.1176,-0.4572 0.6604,0 1.1176,0.4572 0.4572,0.4572 0.4572,1.1176 v 29.3116 q 0,0.6604 -0.4572,1.1176 -0.4572,0.4572 -1.1176,0.4572 -0.5588,0 -0.9144,-0.3048 -0.3556,-0.3556 -0.6096,-0.762 l -17.3736,-24.5872 v 24.0792 q 0,0.6604 -0.4572,1.1176 -0.4572,0.4572 -1.1176,0.4572 -0.6604,0 -1.1176,-0.4572 -0.4572,-0.4572 -0.4572,-1.1176 z" />
      <path
         inkscape:connector-curvature="0"
         id="path2856"
         style="font-style:normal;font-variant:normal;font-weight:normal;font-stretch:normal;font-size:50.79999924px;font-family:Antipasto;-inkscape-font-specification:Antipasto;fill:#440055;fill-opacity:1;stroke-width:0.26458332"
         d="m 162.89764,340.25984 q -0.6604,0 -1.1176,-0.4572 -0.4572,-0.4572 -0.4572,-1.1176 0,-0.6604 0.4572,-1.1176 0.4572,-0.4572 1.1176,-0.4572 h 17.6276 q 0.6604,0 1.1176,0.4572 0.4572,0.4572 0.4572,1.1176 0,0.6604 -0.4572,1.1176 -0.4572,0.4572 -1.1176,0.4572 h -7.2136 v 27.7368 q 0,0.6604 -0.4572,1.1176 -0.4572,0.4572 -1.1176,0.4572 -0.6604,0 -1.1176,-0.4572 -0.4572,-0.4572 -0.4572,-1.1176 v -27.7368 z" />
      <path
         inkscape:connector-curvature="0"
         id="path2858"
         style="font-style:normal;font-variant:normal;font-weight:normal;font-stretch:normal;font-size:50.79999924px;font-family:Antipasto;-inkscape-font-specification:Antipasto;fill:#440055;fill-opacity:1;stroke-width:0.26458332"
         d="m 191.59646,338.27864 q 0.1524,-0.4064 0.5588,-0.762 0.4064,-0.4064 0.9144,-0.4064 0.508,0 0.9144,0.3556 0.4064,0.3556 0.6096,0.8128 l 12.5476,29.1084 q 0.1016,0.2032 0.1016,0.6096 0,0.6096 -0.4064,1.0668 -0.4064,0.4572 -1.1176,0.4572 -1.0668,0 -1.4732,-0.9652 l -4.064,-9.2964 h -14.2748 l -4.06399,9.2964 q -0.2032,0.4572 -0.6096,0.7112 -0.4064,0.254 -0.8636,0.254 -0.7112,0 -1.1684,-0.4572 -0.4064,-0.4572 -0.4064,-1.0668 0,-0.3048 0.1524,-0.6096 z m 1.4732,4.7244 -5.7912,13.1064 h 11.5316 z" />
      <path
         inkscape:connector-curvature="0"
         id="path2860"
         style="font-style:normal;font-variant:normal;font-weight:normal;font-stretch:normal;font-size:50.79999924px;font-family:Antipasto;-inkscape-font-specification:Antipasto;fill:#440055;fill-opacity:1;stroke-width:0.26458332"
         d="m 231.8888,344.47624 q -1.8288,-1.5748 -4.2672,-2.8448 -2.4384,-1.27 -5.2324,-1.27 -2.6924,0 -5.08,1.016 -2.3876,1.016 -4.1656,2.794 -1.7272,1.778 -2.7432,4.1656 -1.016,2.3876 -1.016,5.08 0,2.6924 1.016,5.08 1.016,2.3876 2.7432,4.1656 1.778,1.7272 4.1656,2.7432 2.3876,1.016 5.08,1.016 2.8448,0 5.2832,-1.0668 2.4892,-1.1176 4.2672,-3.048 0.254,-0.3048 0.6096,-0.4572 0.4064,-0.1524 0.8128,-0.1524 0.6604,0 0.9652,0.4572 0.3556,0.4572 0.3556,1.016 0,0.8128 -0.4572,1.27 -2.2352,2.4384 -5.2832,3.81 -3.048,1.3208 -6.5532,1.3208 -3.3528,0 -6.2992,-1.27 -2.9464,-1.27 -5.1308,-3.4544 -2.1844,-2.1844 -3.4544,-5.1308 -1.27,-2.9464 -1.27,-6.2992 0,-3.3528 1.27,-6.2992 1.27,-2.9464 3.4544,-5.1308 2.1844,-2.2352 5.1308,-3.5052 2.9464,-1.27 6.2992,-1.27 3.4036,0 6.35,1.3208 2.9972,1.3208 5.2324,3.6068 0.254,0.254 0.4572,0.6604 0.2032,0.4064 0.2032,0.8128 0,0.6604 -0.4572,1.016 -0.4572,0.3556 -1.0668,0.3556 -0.762,0 -1.2192,-0.508 z" />
      <path
         inkscape:connector-curvature="0"
         id="path2862"
         style="font-style:normal;font-variant:normal;font-weight:normal;font-stretch:normal;font-size:50.79999924px;font-family:Antipasto;-inkscape-font-specification:Antipasto;fill:#440055;fill-opacity:1;stroke-width:0.26458332"
         d="m 235.7242,340.25984 q -0.6604,0 -1.1176,-0.4572 -0.4572,-0.4572 -0.4572,-1.1176 0,-0.6604 0.4572,-1.1176 0.4572,-0.4572 1.1176,-0.4572 h 17.6276 q 0.6604,0 1.1176,0.4572 0.4572,0.4572 0.4572,1.1176 0,0.6604 -0.4572,1.1176 -0.4572,0.4572 -1.1176,0.4572 h -7.2136 v 27.7368 q 0,0.6604 -0.4572,1.1176 -0.4572,0.4572 -1.1176,0.4572 -0.6604,0 -1.1176,-0.4572 -0.4572,-0.4572 -0.4572,-1.1176 v -27.7368 z" />
      <path
         inkscape:connector-curvature="0"
         id="path2864"
         style="font-style:normal;font-variant:normal;font-weight:normal;font-stretch:normal;font-size:50.79999924px;font-family:Antipasto;-inkscape-font-specification:Antipasto;fill:#440055;fill-opacity:1;stroke-width:0.26458332"
         d="m 270.41108,337.21184 q 3.3528,0 6.2992,1.27 2.9464,1.27 5.1308,3.5052 2.2352,2.1844 3.5052,5.1308 1.27,2.9464 1.27,6.2992 0,3.3528 -1.27,6.2992 -1.27,2.9464 -3.5052,5.1308 -2.1844,2.1844 -5.1308,3.4544 -2.9464,1.27 -6.2992,1.27 -3.3528,0 -6.2992,-1.27 -2.9464,-1.27 -5.1308,-3.4544 -2.1844,-2.1844 -3.4544,-5.1308 -1.27,-2.9464 -1.27,-6.2992 0,-3.3528 1.27,-6.2992 1.27,-2.9464 3.4544,-5.1308 2.1844,-2.2352 5.1308,-3.5052 2.9464,-1.27 6.2992,-1.27 z m 0,3.1496 q -2.6924,0 -5.08,1.016 -2.3876,1.016 -4.1656,2.794 -1.7272,1.778 -2.7432,4.1656 -1.016,2.3876 -1.016,5.08 0,2.6924 1.016,5.08 1.016,2.3876 2.7432,4.1656 1.778,1.7272 4.1656,2.7432 2.3876,1.016 5.08,1.016 2.6924,0 5.08,-1.016 2.3876,-1.016 4.1656,-2.7432 1.778,-1.778 2.794,-4.1656 1.016,-2.3876 1.016,-5.08 0,-2.6924 -1.016,-5.08 -1.016,-2.3876 -2.794,-4.1656 -1.778,-1.778 -4.1656,-2.794 -2.3876,-1.016 -5.08,-1.016 z" />
    </g>
  </g>
</svg>
