<?xml version="1.0" encoding="UTF-8" standalone="no"?>
<!-- Created with Inkscape (http://www.inkscape.org/) -->

<svg
   xmlns:dc="http://purl.org/dc/elements/1.1/"
   xmlns:cc="http://creativecommons.org/ns#"
   xmlns:rdf="http://www.w3.org/1999/02/22-rdf-syntax-ns#"
   xmlns:svg="http://www.w3.org/2000/svg"
   xmlns="http://www.w3.org/2000/svg"
   xmlns:sodipodi="http://sodipodi.sourceforge.net/DTD/sodipodi-0.dtd"
   xmlns:inkscape="http://www.inkscape.org/namespaces/inkscape"
   width="350mm"
   height="115mm"
   viewBox="0 0 350 115"
   version="1.1"
   id="svg982"
   inkscape:version="0.92.2 2405546, 2018-03-11"
   sodipodi:docname="fiestasTitle.svg">
  <defs
     id="defs976" />
  <sodipodi:namedview
     id="base"
     pagecolor="#ffffff"
     bordercolor="#666666"
     borderopacity="1.0"
     inkscape:pageopacity="0.0"
     inkscape:pageshadow="2"
     inkscape:zoom="0.49497475"
     inkscape:cx="705.53069"
     inkscape:cy="399.92006"
     inkscape:document-units="mm"
     inkscape:current-layer="layer1"
     showgrid="false"
     fit-margin-top="0"
     fit-margin-left="0"
     fit-margin-right="0"
     fit-margin-bottom="0"
     inkscape:showpageshadow="false"
     borderlayer="true"
     inkscape:window-width="1362"
     inkscape:window-height="724"
     inkscape:window-x="0"
     inkscape:window-y="20"
     inkscape:window-maximized="0" />
  <metadata
     id="metadata979">
    <rdf:RDF>
      <cc:Work
         rdf:about="">
        <dc:format>image/svg+xml</dc:format>
        <dc:type
           rdf:resource="http://purl.org/dc/dcmitype/StillImage" />
        <dc:title></dc:title>
      </cc:Work>
    </rdf:RDF>
  </metadata>
  <g
     inkscape:label="Layer 1"
     inkscape:groupmode="layer"
     id="layer1"
     transform="translate(199.78166,-90.54682)">
    <g
       style="fill:#ffff00;stroke:#660080"
       id="g1437"
       transform="matrix(3.3755391,-1.0448602,-1.0448602,-3.3755391,-161.83207,141.4346)">
      <path
         d="m 0,0 c 0.198,0.221 0.084,0.573 -0.206,0.636 l -1.898,0.409 c -0.105,0.023 -0.197,0.09 -0.251,0.184 L -3.332,2.906 C -3.48,3.162 -3.851,3.162 -4,2.906 L -4.976,1.229 C -5.03,1.135 -5.122,1.068 -5.229,1.045 L -7.126,0.636 C -7.415,0.573 -7.529,0.221 -7.332,0 l 1.294,-1.446 c 0.072,-0.081 0.107,-0.19 0.097,-0.297 l -0.198,-1.932 c -0.029,-0.295 0.27,-0.512 0.541,-0.392 l 1.776,0.783 c 0.099,0.044 0.213,0.044 0.312,0 l 1.776,-0.783 c 0.271,-0.12 0.571,0.097 0.541,0.392 l -0.197,1.932 c -0.01,0.107 0.024,0.216 0.097,0.297 z"
         style="fill:#ffff00;fill-opacity:1;fill-rule:nonzero;stroke:#660080"
         id="path1435"
         inkscape:connector-curvature="0" />
    </g>
    <g
       transform="matrix(3.3938313,0.98382304,0.98382304,-3.3938313,134.39391,148.92421)"
       id="g969"
       style="fill:#ffff00;stroke:#660080">
      <path
         inkscape:connector-curvature="0"
         id="path967"
         style="fill:#ffff00;fill-opacity:1;fill-rule:nonzero;stroke:#660080"
         d="m 0,0 c 0.198,0.221 0.084,0.573 -0.206,0.636 l -1.898,0.409 c -0.105,0.023 -0.197,0.09 -0.251,0.184 L -3.332,2.906 C -3.48,3.162 -3.851,3.162 -4,2.906 L -4.976,1.229 C -5.03,1.135 -5.122,1.068 -5.229,1.045 L -7.126,0.636 C -7.415,0.573 -7.529,0.221 -7.332,0 l 1.294,-1.446 c 0.072,-0.081 0.107,-0.19 0.097,-0.297 l -0.198,-1.932 c -0.029,-0.295 0.27,-0.512 0.541,-0.392 l 1.776,0.783 c 0.099,0.044 0.213,0.044 0.312,0 l 1.776,-0.783 c 0.271,-0.12 0.571,0.097 0.541,0.392 l -0.197,1.932 c -0.01,0.107 0.024,0.216 0.097,0.297 z" />
    </g>
    <g
       aria-label="FIESTAS"
       style="font-style:normal;font-variant:normal;font-weight:normal;font-stretch:normal;font-size:29.76003838px;line-height:1.25;font-family:'Microsoft Sans Serif';-inkscape-font-specification:'Microsoft Sans Serif';letter-spacing:0px;word-spacing:0px;fill:#440055;fill-opacity:1;stroke:none;stroke-width:0.4650006"
       id="text1579"
       transform="translate(-20.995525,-104.34502)">
      <path
         d="m -128.19798,226.63453 q 0,-1.16065 0.80352,-1.96417 0.80352,-0.80352 1.96416,-0.80352 h 27.230439 q 1.160642,0 1.964163,0.80352 0.803521,0.80352 0.803521,1.96417 0,1.16064 -0.803521,1.96416 -0.803521,0.80352 -1.964163,0.80352 h -24.462749 v 19.90947 h 15.44546 q 1.16064,0 1.96416,0.80352 0.80352,0.80352 0.80352,1.96416 0,1.16064 -0.80352,1.96416 -0.80352,0.80352 -1.96416,0.80352 h -15.44546 v 23.30212 q 0,1.16064 -0.80352,1.96416 -0.80353,0.80352 -1.96417,0.80352 -1.16064,0 -1.96416,-0.80352 -0.80352,-0.80352 -0.80352,-1.96416 z"
         style="font-style:normal;font-variant:normal;font-weight:normal;font-stretch:normal;font-size:89.28012085px;font-family:Antipasto;-inkscape-font-specification:Antipasto;stroke-width:0.4650006;fill:#440055;fill-opacity:1"
         id="path1585"
         inkscape:connector-curvature="0" />
      <path
         d="m -87.973102,226.63453 q 0,-1.16065 0.803521,-1.96417 0.803521,-0.80352 1.964163,-0.80352 1.160641,0 1.964162,0.80352 0.803522,0.80352 0.803522,1.96417 v 51.51463 q 0,1.16064 -0.803522,1.96416 -0.803521,0.80352 -1.964162,0.80352 -1.160642,0 -1.964163,-0.80352 -0.803521,-0.80352 -0.803521,-1.96416 z"
         style="font-style:normal;font-variant:normal;font-weight:normal;font-stretch:normal;font-size:89.28012085px;font-family:Antipasto;-inkscape-font-specification:Antipasto;stroke-width:0.4650006;fill:#440055;fill-opacity:1"
         id="path1587"
         inkscape:connector-curvature="0" />
      <path
         d="m -74.745693,226.63453 q 0,-1.16065 0.803522,-1.96417 0.803521,-0.80352 1.964162,-0.80352 h 27.141157 q 1.160642,0 1.964163,0.80352 0.803521,0.80352 0.803521,1.96417 0,1.16064 -0.803521,1.96416 -0.803521,0.80352 -1.964163,0.80352 h -24.373473 v 19.90947 h 16.248982 q 1.160642,0 1.964163,0.80352 0.803521,0.80352 0.803521,1.96416 0,1.16064 -0.803521,1.96416 -0.803521,0.80352 -1.964163,0.80352 h -16.248982 v 20.53443 h 24.373473 q 1.160642,0 1.964163,0.80352 0.803521,0.80352 0.803521,1.96417 0,1.16064 -0.803521,1.96416 -0.803521,0.80352 -1.964163,0.80352 h -27.141157 q -1.160641,0 -1.964162,-0.80352 -0.803522,-0.80352 -0.803522,-1.96416 z"
         style="font-style:normal;font-variant:normal;font-weight:normal;font-stretch:normal;font-size:89.28012085px;font-family:Antipasto;-inkscape-font-specification:Antipasto;stroke-width:0.4650006;fill:#440055;fill-opacity:1"
         id="path1589"
         inkscape:connector-curvature="0" />
      <path
         d="m -16.945189,252.25792 q -2.678404,-0.80352 -5.713928,-1.96416 -2.946244,-1.24992 -5.446088,-2.94625 -2.410563,-1.69632 -4.017605,-3.92832 -1.607042,-2.32128 -1.607042,-5.26753 0,-3.39264 1.517762,-5.98177 1.517762,-2.6784 3.928325,-4.464 2.410563,-1.87488 5.356807,-2.76769 3.035525,-0.98208 5.981769,-0.98208 1.964162,0 4.017605,0.35712 2.142723,0.26784 4.1961657,1.07136 2.0534428,0.80353 3.9283253,2.23201 1.9641627,1.42848 3.5712048,3.66048 0.53568077,0.80352 0.53568077,1.87488 0,1.24993 -0.80352107,2.14273 -0.714241,0.80352 -1.9641627,0.80352 -1.6070421,0 -2.4998434,-1.42848 -1.0713614,-1.78561 -2.4998433,-2.76769 -1.428482,-1.07136 -2.9462441,-1.60704 -1.428482,-0.53568 -2.946244,-0.62496 -1.428482,-0.17856 -2.589123,-0.17856 -1.785603,0 -3.749765,0.4464 -1.964163,0.4464 -3.660485,1.42848 -1.607043,0.98208 -2.678404,2.67841 -1.071362,1.60704 -1.071362,4.10688 0,1.7856 1.517763,3.21409 1.607042,1.42848 3.839045,2.49984 2.232003,1.07136 4.642566,1.87488 2.410563,0.80352 4.106886,1.42848 3.392644,1.24993 6.1603279,2.67841 2.7676838,1.42848 4.7318464,3.39264 2.0534428,1.96416 3.12480424,4.55329 1.16064156,2.58912 1.16064156,6.16033 0,3.5712 -1.51776204,6.69601 -1.51776206,3.1248 -4.10688556,5.44608 -2.4998434,2.23201 -5.8032075,3.57121 -3.303365,1.24992 -6.87457,1.24992 -2.499843,0 -5.267527,-0.62496 -2.678403,-0.71424 -5.178247,-1.87488 -2.410563,-1.24993 -4.464006,-2.94625 -1.964163,-1.69632 -3.035524,-3.74976 -0.446401,-0.71424 -0.446401,-1.42848 0,-1.07137 0.803522,-1.96417 0.892801,-0.8928 2.142722,-0.8928 1.696323,0 2.499844,1.42848 0.803521,1.60705 2.321283,2.85697 1.607042,1.16064 3.481925,2.05344 1.874882,0.80352 3.749765,1.24992 1.964162,0.35712 3.481924,0.35712 2.410564,0 4.731847,-0.8928 2.321283,-0.8928 4.0176053,-2.41056 1.7856024,-1.51776 2.8569639,-3.57121 1.0713614,-2.14272 1.0713614,-4.55328 0,-2.41057 -0.9820813,-4.19617 -0.8928012,-1.7856 -2.5891235,-3.1248 -1.6963223,-1.33921 -4.0176058,-2.41057 -2.321283,-1.07136 -4.999686,-1.96416 z"
         style="font-style:normal;font-variant:normal;font-weight:normal;font-stretch:normal;font-size:89.28012085px;font-family:Antipasto;-inkscape-font-specification:Antipasto;stroke-width:0.4650006;fill:#440055;fill-opacity:1"
         id="path1591"
         inkscape:connector-curvature="0" />
      <path
         d="m 4.6368795,229.40221 q -1.1606416,0 -1.9641627,-0.80352 -0.8035211,-0.80352 -0.8035211,-1.96416 0,-1.16065 0.8035211,-1.96417 0.8035211,-0.80352 1.9641627,-0.80352 H 35.617081 q 1.160642,0 1.964163,0.80352 0.803521,0.80352 0.803521,1.96417 0,1.16064 -0.803521,1.96416 -0.803521,0.80352 -1.964163,0.80352 H 22.939304 v 48.74695 q 0,1.16064 -0.803521,1.96416 -0.803521,0.80352 -1.964162,0.80352 -1.160642,0 -1.964163,-0.80352 -0.803521,-0.80352 -0.803521,-1.96416 v -48.74695 z"
         style="font-style:normal;font-variant:normal;font-weight:normal;font-stretch:normal;font-size:89.28012085px;font-family:Antipasto;-inkscape-font-specification:Antipasto;stroke-width:0.4650006;fill:#440055;fill-opacity:1"
         id="path1593"
         inkscape:connector-curvature="0" />
      <path
         d="m 55.074566,225.92029 q 0.26784,-0.71425 0.982081,-1.33921 0.714241,-0.71424 1.607042,-0.71424 0.892801,0 1.607042,0.62496 0.714241,0.62496 1.071362,1.42849 l 22.05219,51.1575 q 0.17856,0.35712 0.17856,1.07137 0,1.07136 -0.714241,1.87488 -0.714241,0.80352 -1.964163,0.80352 -1.874882,0 -2.589123,-1.69632 l -7.14241,-16.33826 H 45.075192 l -7.14241,16.33826 q -0.35712,0.80352 -1.071361,1.24992 -0.714241,0.4464 -1.517762,0.4464 -1.249922,0 -2.053443,-0.80352 -0.714241,-0.80352 -0.714241,-1.87488 0,-0.53568 0.267841,-1.07137 z m 2.589123,8.30305 -10.177934,23.03427 h 20.266588 z"
         style="font-style:normal;font-variant:normal;font-weight:normal;font-stretch:normal;font-size:89.28012085px;font-family:Antipasto;-inkscape-font-specification:Antipasto;stroke-width:0.4650006;fill:#440055;fill-opacity:1"
         id="path1595"
         inkscape:connector-curvature="0" />
      <path
         d="m 102.50185,252.25792 q -2.678406,-0.80352 -5.71393,-1.96416 -2.946244,-1.24992 -5.446088,-2.94625 -2.410563,-1.69632 -4.017605,-3.92832 -1.607042,-2.32128 -1.607042,-5.26753 0,-3.39264 1.517762,-5.98177 1.517762,-2.6784 3.928325,-4.464 2.410563,-1.87488 5.356807,-2.76769 3.035524,-0.98208 5.981771,-0.98208 1.96416,0 4.0176,0.35712 2.14273,0.26784 4.19617,1.07136 2.05344,0.80353 3.92832,2.23201 1.96417,1.42848 3.57121,3.66048 0.53568,0.80352 0.53568,1.87488 0,1.24993 -0.80352,2.14273 -0.71424,0.80352 -1.96416,0.80352 -1.60705,0 -2.49985,-1.42848 -1.07136,-1.78561 -2.49984,-2.76769 -1.42848,-1.07136 -2.94625,-1.60704 -1.42848,-0.53568 -2.94624,-0.62496 -1.42848,-0.17856 -2.58912,-0.17856 -1.78561,0 -3.749768,0.4464 -1.964162,0.4464 -3.660485,1.42848 -1.607042,0.98208 -2.678403,2.67841 -1.071362,1.60704 -1.071362,4.10688 0,1.7856 1.517762,3.21409 1.607042,1.42848 3.839045,2.49984 2.232003,1.07136 4.642571,1.87488 2.41056,0.80352 4.10688,1.42848 3.39265,1.24993 6.16033,2.67841 2.76768,1.42848 4.73185,3.39264 2.05344,1.96416 3.1248,4.55329 1.16064,2.58912 1.16064,6.16033 0,3.5712 -1.51776,6.69601 -1.51776,3.1248 -4.10689,5.44608 -2.49984,2.23201 -5.8032,3.57121 -3.30337,1.24992 -6.87457,1.24992 -2.499846,0 -5.26753,-0.62496 -2.678404,-0.71424 -5.178247,-1.87488 -2.410563,-1.24993 -4.464006,-2.94625 -1.964163,-1.69632 -3.035524,-3.74976 -0.446401,-0.71424 -0.446401,-1.42848 0,-1.07137 0.803521,-1.96417 0.892801,-0.8928 2.142723,-0.8928 1.696322,0 2.499844,1.42848 0.803521,1.60705 2.321283,2.85697 1.607042,1.16064 3.481924,2.05344 1.874883,0.80352 3.749765,1.24992 1.964168,0.35712 3.481928,0.35712 2.41056,0 4.73184,-0.8928 2.32129,-0.8928 4.01761,-2.41056 1.7856,-1.51776 2.85696,-3.57121 1.07136,-2.14272 1.07136,-4.55328 0,-2.41057 -0.98208,-4.19617 -0.8928,-1.7856 -2.58912,-3.1248 -1.69632,-1.33921 -4.01761,-2.41057 -2.32128,-1.07136 -4.99968,-1.96416 z"
         style="font-style:normal;font-variant:normal;font-weight:normal;font-stretch:normal;font-size:89.28012085px;font-family:Antipasto;-inkscape-font-specification:Antipasto;stroke-width:0.4650006;fill:#440055;fill-opacity:1"
         id="path1597"
         inkscape:connector-curvature="0" />
    </g>
  </g>
</svg>
