<?xml version="1.0" encoding="UTF-8" standalone="no"?>
<!-- Created with Inkscape (http://www.inkscape.org/) -->

<svg
   xmlns:dc="http://purl.org/dc/elements/1.1/"
   xmlns:cc="http://creativecommons.org/ns#"
   xmlns:rdf="http://www.w3.org/1999/02/22-rdf-syntax-ns#"
   xmlns:svg="http://www.w3.org/2000/svg"
   xmlns="http://www.w3.org/2000/svg"
   xmlns:sodipodi="http://sodipodi.sourceforge.net/DTD/sodipodi-0.dtd"
   xmlns:inkscape="http://www.inkscape.org/namespaces/inkscape"
   width="60mm"
   height="60mm"
   viewBox="0 0 60 60"
   version="1.1"
   id="svg9651"
   inkscape:version="0.92.2 2405546, 2018-03-11"
   sodipodi:docname="iconoContacto.svg">
  <defs
     id="defs9645" />
  <sodipodi:namedview
     id="base"
     pagecolor="#ffffff"
     bordercolor="#666666"
     borderopacity="1.0"
     inkscape:pageopacity="0.0"
     inkscape:pageshadow="2"
     inkscape:zoom="3.959798"
     inkscape:cx="111.81768"
     inkscape:cy="159.35516"
     inkscape:document-units="mm"
     inkscape:current-layer="layer1"
     showgrid="false"
     inkscape:showpageshadow="false"
     borderlayer="true"
     inkscape:window-width="1366"
     inkscape:window-height="768"
     inkscape:window-x="0"
     inkscape:window-y="0"
     inkscape:window-maximized="0" />
  <metadata
     id="metadata9648">
    <rdf:RDF>
      <cc:Work
         rdf:about="">
        <dc:format>image/svg+xml</dc:format>
        <dc:type
           rdf:resource="http://purl.org/dc/dcmitype/StillImage" />
        <dc:title />
      </cc:Work>
    </rdf:RDF>
  </metadata>
  <g
     inkscape:label="Layer 1"
     inkscape:groupmode="layer"
     id="layer1"
     transform="translate(0,-237)">
    <path
       inkscape:connector-curvature="0"
       style="fill:#ffff00;stroke-width:0.07691631"
       d="m 12.596083,268.5245 18.17594,9.08797 18.17594,-9.08797 v 19.38768 L 30.772023,297 12.596083,287.91203 Z"
       id="path4445" />
    <path
       inkscape:connector-curvature="0"
       style="fill:#ffcc00;stroke-width:0.07691631"
       d="m 12.596083,270.34196 v 5.66481 l 18.11533,8.87591 18.236473,-8.90621 v -5.63451 l -18.175863,8.90629 z"
       id="path4447" />
    <path
       inkscape:connector-curvature="0"
       style="fill:#ffff00;stroke-width:0.07691631"
       d="m 30.772023,297 v -19.38753 l -16.964201,-8.4821 h -1.211739 v 18.78181 z"
       id="path4449" />
    <path
       inkscape:connector-curvature="0"
       style="fill:#ffcc00;stroke-width:0.07691631"
       d="m 12.596083,270.34196 v 5.66481 l 18.11533,8.87591 0.06061,-0.0303 v -5.63451 0.0303 z"
       id="path4451" />
    <path
       inkscape:connector-curvature="0"
       style="fill:#ffff4f;fill-opacity:1;stroke-width:0.07691631"
       d="m 11.384343,267.88833 19.38768,-9.66353 19.387679,9.66353 v 1.27235 l -19.387679,9.66338 -19.38768,-9.63316 z"
       id="path4453" />
    <path
       inkscape:connector-curvature="0"
       style="fill:#dd55ff;stroke-width:0.07691631"
       d="m 41.889584,261.28437 c -0.636176,-1.15113 -1.999363,-1.84791 -3.604914,-1.84791 -3.665447,0 -6.240375,3.42316 -7.512724,5.60428 -1.27235,-2.18112 -3.877506,-5.57398 -7.512724,-5.57398 -2.332564,0 -3.998726,1.4238 -3.998726,3.36255 0,3.45339 3.786667,5.69512 11.39023,5.69512 7.603561,0 11.632592,-2.87783 11.632592,-5.66481 7.7e-5,-0.54526 -0.121067,-1.09052 -0.393734,-1.57525 z m -17.842662,3.72613 c -0.848233,-0.57556 -1.151129,-1.21173 -1.151129,-1.63585 0,-0.51495 0.484726,-0.90877 1.181434,-0.90877 1.635856,0 2.938434,2.15081 3.665446,3.63522 -1.908447,-0.15153 -3.029348,-0.66656 -3.695751,-1.0906 z m 13.450125,0 c -0.66648,0.42412 -1.787305,0.93907 -3.695752,1.09053 0.696708,-1.48434 1.999363,-3.63523 3.665446,-3.63523 0.696709,0 1.181435,0.39382 1.181435,0.90877 7.7e-5,0.4242 -0.302896,1.0603 -1.151129,1.63593 z"
       id="path4455" />
    <path
       inkscape:connector-curvature="0"
       style="fill:#ffff2f;fill-opacity:1;stroke-width:0.07691631"
       d="m 11.384343,267.91864 19.38768,9.48177 19.387679,-9.48177 v 6.27067 l -19.448289,9.48179 -19.32707,-9.48179 z"
       id="path4457" />
    <path
       inkscape:connector-curvature="0"
       style="fill:#dd55ff;stroke-width:0.07691631"
       d="m 38.042383,274.67396 v -0.69671 l -7.27036,-3.93811 -7.270361,3.93811 v 0.69671 l -4.846881,-2.1205 v -0.96938 l 11.874879,-6.27068 0.242363,0.12114 0.242363,-0.12114 11.874879,6.24037 v 0.96938 z"
       id="path4459" />
    <path
       inkscape:connector-curvature="0"
       style="fill:#cc00ff;stroke-width:0.07691631"
       d="m 38.042383,273.97725 v 19.35738 l 4.846882,-2.42348 v -19.35738 z"
       id="path4461" />
    <path
       inkscape:connector-curvature="0"
       style="fill:#cc00ff;stroke-width:0.07691631"
       d="m 18.654704,290.94138 4.846881,2.42348 v -19.3573 l -4.846881,-2.45379 c 0,-7e-5 0,19.38761 0,19.38761 z"
       id="path4463" />
    <path
       d="m 46.052492,260.22956 c 0.102985,-0.1429 0.139575,-0.22858 0.204202,-0.27256 0.102733,-0.0709 0.219107,-0.13335 0.339371,-0.16545 1.552752,-0.41981 3.107116,-0.83449 4.662154,-1.24881 0.532376,-0.14195 1.065704,-0.27996 1.600013,-0.41575 0.246456,-0.0624 0.492125,-0.13806 0.742792,-0.16904 0.480497,-0.0582 0.912119,0.20156 1.011186,0.57841 0.08563,0.32774 -0.108268,0.73022 -0.535172,0.90621 -0.704592,0.29078 -1.415897,0.59523 -2.154156,0.76792 -1.608522,0.37694 -3.234944,0.68785 -4.903217,0.61185 -0.250075,-0.0121 -0.526715,-0.0144 -0.736554,-0.12575 -0.135464,-0.0712 -0.169667,-0.33212 -0.230619,-0.46703"
       style="fill:#ffff00;fill-opacity:1;fill-rule:evenodd;stroke:none;stroke-width:0.38066429"
       id="path14434"
       inkscape:connector-curvature="0" />
    <path
       d="m 43.315588,257.39241 c 0.138472,-0.83985 0.408044,-1.46779 0.856561,-2.06667 0.923154,-1.23052 2.071544,-2.22873 3.167311,-3.28405 0.419361,-0.40411 0.916774,-0.61972 1.491027,-0.59764 0.185118,0.007 0.407915,0.11772 0.535763,0.25364 0.202912,0.21421 0.125663,0.49037 -0.04855,0.69399 -0.385779,0.44999 -0.771971,0.90407 -1.198921,1.31366 -1.19092,1.14048 -2.312557,2.3588 -3.669116,3.31484 -0.207065,0.14566 -0.417036,0.29195 -0.642706,0.4017 -0.0929,0.0447 -0.232747,-0.01 -0.491374,-0.0295"
       style="fill:#ffff00;fill-opacity:1;fill-rule:evenodd;stroke:none;stroke-width:0.38066429"
       id="path14438"
       inkscape:connector-curvature="0" />
    <path
       d="m 40.169355,249.7293 c 0.407472,0.54695 0.329356,1.1512 0.1505,1.70412 -0.442525,1.36689 -0.951408,2.712 -1.434397,4.06592 -0.01415,0.0394 -0.02663,0.0905 -0.05679,0.1112 -0.132865,0.0899 -0.267102,0.22853 -0.411056,0.24267 -0.248684,0.0247 -0.394534,-0.18116 -0.393393,-0.39959 0.0011,-1.01255 -0.07309,-2.03732 0.266365,-3.01613 0.234716,-0.67878 0.499406,-1.34834 0.772853,-2.01247 0.194286,-0.47229 0.555658,-0.71686 1.105921,-0.69572"
       style="fill:#ffff00;fill-opacity:1;fill-rule:evenodd;stroke:none;stroke-width:0.38066429"
       id="path14442"
       inkscape:connector-curvature="0" />
    <path
       d="m 56.668657,264.90279 c -0.356957,0.0528 -0.604735,0.15139 -0.827946,0.11254 -0.787261,-0.1372 -1.584548,-0.2659 -2.343428,-0.50595 -0.635288,-0.2004 -1.229296,-0.53986 -1.824651,-0.85125 -0.101898,-0.0532 -0.155226,-0.27262 -0.155249,-0.41564 2.78e-4,-0.0639 0.19134,-0.19038 0.286377,-0.1824 1.044495,0.0912 2.088722,0.18781 3.128842,0.3145 0.824343,0.10074 1.390876,0.54954 1.736055,1.5282"
       style="fill:#ffff00;fill-opacity:1;fill-rule:evenodd;stroke:none;stroke-width:0.38066429"
       id="path14446"
       inkscape:connector-curvature="0" />
    <path
       d="m 43.381902,252.03507 c 0.04319,-0.14107 0.05609,-0.30225 0.133118,-0.42177 0.365423,-0.56972 0.7302,-1.14148 1.130593,-1.68606 0.576246,-0.7834 1.180391,-1.54623 1.776792,-2.31396 0.440461,-0.56702 0.891131,-1.12398 1.546088,-1.45786 0.273158,0.14138 0.219961,0.34765 0.09346,0.52079 -0.174282,0.23665 -0.397484,0.43787 -0.581198,0.66873 -0.209641,0.26242 -0.42238,0.52665 -0.59262,0.81394 -0.890173,1.50284 -2.102278,2.73403 -3.259364,4.012 -0.08246,-0.0452 -0.164582,-0.0903 -0.246865,-0.13581"
       style="fill:#ffff00;fill-opacity:1;fill-rule:evenodd;stroke:none;stroke-width:0.38066429"
       id="path14450"
       inkscape:connector-curvature="0" />
    <path
       inkscape:connector-curvature="0"
       id="path17306"
       style="fill:#ffff00;fill-opacity:1;fill-rule:evenodd;stroke:#ffff00;stroke-width:0.41691783"
       d="m 13.404808,259.96772 c -0.112793,-0.15651 -0.152868,-0.25035 -0.22365,-0.29851 -0.112516,-0.0776 -0.239974,-0.14606 -0.371692,-0.18121 -1.700632,-0.4598 -3.4030293,-0.91397 -5.1061658,-1.36775 -0.5830779,-0.15547 -1.1671985,-0.30662 -1.7523948,-0.45534 -0.2699272,-0.0683 -0.5389932,-0.15121 -0.8135334,-0.18514 -0.5262577,-0.0638 -0.9989864,0.22075 -1.1074883,0.63349 -0.093789,0.35896 0.1185792,0.79977 0.5861395,0.99252 0.7716965,0.31847 1.5507443,0.65191 2.3593136,0.84106 1.7617128,0.41284 3.5430322,0.75335 5.3701872,0.67011 0.273892,-0.0132 0.576877,-0.0158 0.806702,-0.13772 0.148364,-0.078 0.185825,-0.36376 0.252582,-0.51151" />
    <path
       inkscape:connector-curvature="0"
       id="path17310"
       style="fill:#ffff00;fill-opacity:1;fill-rule:evenodd;stroke:#ffff00;stroke-width:0.41691783"
       d="m 16.402367,256.86036 c -0.151659,-0.91984 -0.446905,-1.60757 -0.938138,-2.2635 -1.011072,-1.34771 -2.268832,-2.44098 -3.468958,-3.59681 -0.4593,-0.4426 -1.004085,-0.67874 -1.633029,-0.65456 -0.202748,0.008 -0.4467639,0.12893 -0.5867877,0.2778 -0.2222364,0.2346 -0.1376307,0.53707 0.053168,0.76008 0.4225207,0.49285 0.8454927,0.99017 1.3131047,1.43878 1.30434,1.24909 2.532799,2.58344 4.018553,3.63053 0.226786,0.15954 0.456754,0.31976 0.703916,0.43995 0.101751,0.0489 0.254913,-0.0109 0.538171,-0.0323" />
    <path
       inkscape:connector-curvature="0"
       id="path17314"
       style="fill:#ffff00;fill-opacity:1;fill-rule:evenodd;stroke:#ffff00;stroke-width:0.41691783"
       d="m 19.848239,248.46744 c -0.446279,0.59904 -0.360723,1.26084 -0.164834,1.86642 0.48467,1.49706 1.042019,2.97028 1.571006,4.45314 0.0155,0.0432 0.02917,0.0991 0.0622,0.12179 0.145519,0.0985 0.292541,0.2503 0.450204,0.26579 0.272368,0.0271 0.432108,-0.19842 0.430859,-0.43765 -0.0012,-1.10898 0.08005,-2.23135 -0.291733,-3.30337 -0.25707,-0.74343 -0.546968,-1.47676 -0.846458,-2.20415 -0.212789,-0.51726 -0.608578,-0.78513 -1.211246,-0.76197" />
    <path
       inkscape:connector-curvature="0"
       id="path17318"
       style="fill:#ffff00;fill-opacity:1;fill-rule:evenodd;stroke:#ffff00;stroke-width:0.41691783"
       d="m 1.7775852,265.08601 c 0.3909532,0.0578 0.6623287,0.16581 0.9067977,0.12326 0.8622379,-0.15027 1.7354565,-0.29122 2.5666105,-0.55413 0.6957914,-0.21949 1.3463706,-0.59128 1.9984262,-0.93233 0.1116029,-0.0583 0.170009,-0.29858 0.1700347,-0.45523 -3.048e-4,-0.0699 -0.2095636,-0.2085 -0.3136515,-0.19976 -1.1439693,0.0999 -2.2876466,0.2057 -3.4268252,0.34445 -0.9028513,0.11034 -1.5233398,0.60187 -1.9013924,1.67374" />
    <path
       inkscape:connector-curvature="0"
       id="path17322"
       style="fill:#ffff00;fill-opacity:1;fill-rule:evenodd;stroke:#ffff00;stroke-width:0.41691783"
       d="m 16.329738,250.9928 c -0.0473,-0.1545 -0.06143,-0.33103 -0.145796,-0.46194 -0.400224,-0.62397 -0.799743,-1.25019 -1.238268,-1.84663 -0.631126,-0.85802 -1.292809,-1.69349 -1.946009,-2.53434 -0.48241,-0.62102 -0.976001,-1.23103 -1.693334,-1.59671 -0.299172,0.15485 -0.24091,0.38077 -0.102356,0.57039 0.19088,0.25919 0.435339,0.47957 0.636549,0.73242 0.229608,0.28741 0.462607,0.57681 0.64906,0.89146 0.974951,1.64597 2.302494,2.99442 3.569778,4.3941 0.09031,-0.0495 0.180256,-0.0989 0.270376,-0.14875" />
    <path
       d="m 37.866644,243.20421 c 0.396525,-0.44259 0.168223,-1.14752 -0.412546,-1.27369 l -3.80103,-0.81908 c -0.210278,-0.0461 -0.394522,-0.18024 -0.502665,-0.36849 l -1.956589,-3.35844 c -0.296392,-0.51268 -1.039376,-0.51268 -1.33777,0 l -1.954587,3.35844 c -0.108143,0.18825 -0.292387,0.32243 -0.50667,0.36849 l -3.799028,0.81908 c -0.578765,0.12617 -0.807068,0.8311 -0.412546,1.27369 l 2.59143,2.89583 c 0.144191,0.16222 0.214283,0.38051 0.194257,0.59479 l -0.396525,3.86912 c -0.05808,0.59078 0.540716,1.02536 1.083434,0.78504 l 3.556706,-1.56808 c 0.198263,-0.0881 0.426565,-0.0881 0.624827,0 l 3.556707,1.56808 c 0.542718,0.24032 1.143513,-0.19426 1.083433,-0.78504 l -0.394522,-3.86912 c -0.02003,-0.21428 0.04806,-0.43257 0.194257,-0.59479 z"
       style="fill:#ffff00;fill-opacity:1;fill-rule:nonzero;stroke:none;stroke-width:2.00265002"
       id="path14625"
       inkscape:connector-curvature="0" />
    <path
       inkscape:connector-curvature="0"
       id="path9594"
       style="fill:#ffff00;fill-opacity:1;fill-rule:nonzero;stroke:none;stroke-width:0.80642051"
       d="m 6.2526707,248.91638 c 0.0049,-0.23923 -0.2498521,-0.39456 -0.4603131,-0.28064 l -1.3756838,0.74765 c -0.076301,0.0411 -0.1677828,0.0485 -0.25022,0.0194 l -1.479043,-0.51193 c -0.2250824,-0.0788 -0.4519587,0.11629 -0.4084995,0.35116 l 0.2847324,1.53861 c 0.016392,0.0859 -0.00465,0.1752 -0.057989,0.24552 l -0.945058,1.24735 c -0.1436126,0.19045 -0.028284,0.46563 0.2083643,0.49722 l 1.5514624,0.20402 c 0.086611,0.0117 0.1653144,0.0599 0.2154479,0.13063 l 0.8945506,1.28556 c 0.1373442,0.19564 0.4342653,0.17116 0.5369061,-0.0447 l 0.6744553,-1.41245 c 0.037411,-0.0789 0.1071247,-0.13888 0.1907962,-0.16402 l 1.4976856,-0.4548 c 0.2288064,-0.0691 0.2981895,-0.35948 0.1247652,-0.52411 l -1.1361034,-1.07791 c -0.062364,-0.0602 -0.098872,-0.14471 -0.096812,-0.23262 z" />
    <path
       inkscape:connector-curvature="0"
       id="path9602"
       style="fill:#ffff00;fill-opacity:1;fill-rule:nonzero;stroke:none;stroke-width:0.52633929"
       d="m 58.483025,251.14132 c 0.06605,-0.14152 -0.04505,-0.30147 -0.200754,-0.28899 l -1.018517,0.0834 c -0.0564,0.004 -0.112965,-0.0153 -0.154502,-0.0544 l -0.747891,-0.69585 c -0.113592,-0.1064 -0.300491,-0.0498 -0.336517,0.10186 l -0.23597,0.99364 c -0.01287,0.0556 -0.049,0.10337 -0.0994,0.13127 l -0.893285,0.49529 c -0.135983,0.0758 -0.13974,0.27052 -0.0068,0.35181 l 0.872362,0.53114 c 0.04862,0.0298 0.08288,0.0794 0.09415,0.13483 l 0.194845,1.00347 c 0.03037,0.15304 0.214088,0.21676 0.332311,0.11499 l 0.775302,-0.66526 c 0.04316,-0.0373 0.100593,-0.0546 0.157176,-0.0476 l 1.014085,0.12365 c 0.154819,0.0191 0.272861,-0.13593 0.212766,-0.27997 l -0.393833,-0.94324 c -0.02135,-0.0524 -0.02084,-0.11248 0.0036,-0.16441 z" />
  </g>
</svg>
