<?xml version="1.0" encoding="UTF-8" standalone="no"?>
<!-- Created with Inkscape (http://www.inkscape.org/) -->

<svg
   xmlns:dc="http://purl.org/dc/elements/1.1/"
   xmlns:cc="http://creativecommons.org/ns#"
   xmlns:rdf="http://www.w3.org/1999/02/22-rdf-syntax-ns#"
   xmlns:svg="http://www.w3.org/2000/svg"
   xmlns="http://www.w3.org/2000/svg"
   xmlns:sodipodi="http://sodipodi.sourceforge.net/DTD/sodipodi-0.dtd"
   xmlns:inkscape="http://www.inkscape.org/namespaces/inkscape"
   width="60mm"
   height="60mm"
   viewBox="0 0 60 60"
   version="1.1"
   id="svg9651"
   inkscape:version="0.92.2 2405546, 2018-03-11"
   sodipodi:docname="contacto.svg">
  <defs
     id="defs9645" />
  <sodipodi:namedview
     id="base"
     pagecolor="#ffffff"
     bordercolor="#666666"
     borderopacity="1.0"
     inkscape:pageopacity="0.0"
     inkscape:pageshadow="2"
     inkscape:zoom="0.35"
     inkscape:cx="-1.4285714"
     inkscape:cy="560"
     inkscape:document-units="mm"
     inkscape:current-layer="layer1"
     showgrid="false"
     inkscape:showpageshadow="false"
     borderlayer="true"
     inkscape:window-width="1362"
     inkscape:window-height="724"
     inkscape:window-x="0"
     inkscape:window-y="20"
     inkscape:window-maximized="0" />
  <metadata
     id="metadata9648">
    <rdf:RDF>
      <cc:Work
         rdf:about="">
        <dc:format>image/svg+xml</dc:format>
        <dc:type
           rdf:resource="http://purl.org/dc/dcmitype/StillImage" />
        <dc:title></dc:title>
      </cc:Work>
    </rdf:RDF>
  </metadata>
  <g
     inkscape:label="Layer 1"
     inkscape:groupmode="layer"
     id="layer1"
     transform="translate(0,-237)">
    <g
       id="g9643"
       transform="matrix(0.65753988,0,0,0.65753988,-2.1049709,101.71066)">
      <g
         transform="translate(85.011793,90.11206)"
         id="g9568">
        <path
           inkscape:connector-curvature="0"
           style="fill:#ffff00;stroke-width:0.11697589"
           d="m -62.654132,163.58182 27.642339,13.82117 27.6423384,-13.82117 V 193.067 l -27.6423384,13.82094 -27.642339,-13.82117 z"
           id="path4445" />
        <path
           inkscape:connector-curvature="0"
           style="fill:#ffcc00;stroke-width:0.11697589"
           d="m -62.654132,166.34585 v 8.61516 l 27.550162,13.49866 27.7343984,-13.54475 v -8.56907 l -27.6422214,13.54487 z"
           id="path4447" />
        <path
           inkscape:connector-curvature="0"
           style="fill:#ffff00;stroke-width:0.11697589"
           d="m -35.011793,206.88794 v -29.48495 l -25.799501,-12.89975 h -1.842838 V 193.067 Z"
           id="path4449" />
        <path
           inkscape:connector-curvature="0"
           style="fill:#ffcc00;stroke-width:0.11697589"
           d="m -62.654132,166.34585 v 8.61516 l 27.550162,13.49866 0.09218,-0.0461 v -8.56907 0.0461 z"
           id="path4451" />
        <path
           inkscape:connector-curvature="0"
           style="fill:#ffff4f;fill-opacity:1;stroke-width:0.11697589"
           d="m -64.49697,162.61432 29.485177,-14.6965 29.4851766,14.6965 v 1.93501 L -35.011793,179.2456 -64.49697,164.5953 Z"
           id="path4453" />
        <path
           inkscape:connector-curvature="0"
           style="fill:#dd55ff;stroke-width:0.11697589"
           d="m -18.103981,152.57088 c -0.967508,-1.75066 -3.040671,-2.81034 -5.482426,-2.81034 -5.574486,0 -9.490488,5.20601 -11.425503,8.5231 -1.935015,-3.31709 -5.896989,-8.47701 -11.425503,-8.47701 -3.547411,0 -6.081343,2.16534 -6.081343,5.11383 0,5.25199 5.75884,8.66125 17.322492,8.66125 11.563651,0 17.691082,-4.37666 17.691082,-8.61516 1.17e-4,-0.82924 -0.18412,-1.65848 -0.598799,-2.39567 z m -27.135482,5.66678 c -1.29001,-0.87533 -1.750661,-1.84283 -1.750661,-2.48784 0,-0.78315 0.737182,-1.38207 1.796749,-1.38207 2.487844,0 4.46883,3.271 5.574486,5.52852 -2.902405,-0.23045 -4.607095,-1.01372 -5.620574,-1.65861 z m 20.455223,0 c -1.013596,0.64501 -2.718169,1.42816 -5.620575,1.65849 1.059568,-2.2574 3.040672,-5.52852 5.574486,-5.52852 1.059568,0 1.79675,0.59892 1.79675,1.38207 1.17e-4,0.64513 -0.460651,1.61252 -1.750661,2.48796 z"
           id="path4455" />
        <path
           inkscape:connector-curvature="0"
           style="fill:#ffff2f;fill-opacity:1;stroke-width:0.11697589"
           d="m -64.49697,162.66041 29.485177,14.42008 29.4851766,-14.42008 v 9.53657 l -29.5773536,14.42009 -29.393,-14.42009 z"
           id="path4457" />
        <path
           inkscape:connector-curvature="0"
           style="fill:#dd55ff;stroke-width:0.11697589"
           d="m -23.954881,172.93405 v -1.05957 l -11.056912,-5.98917 -11.056912,5.98917 v 1.05957 l -7.371236,-3.22491 v -1.47425 l 18.059557,-9.53658 0.368591,0.18424 0.368591,-0.18424 18.059557,9.49049 v 1.47425 z"
           id="path4459" />
        <path
           inkscape:connector-curvature="0"
           style="fill:#cc00ff;stroke-width:0.11697589"
           d="m -23.954881,171.87448 v 29.43909 l 7.371236,-3.68568 V 168.1888 Z"
           id="path4461" />
        <path
           inkscape:connector-curvature="0"
           style="fill:#cc00ff;stroke-width:0.11697589"
           d="m -53.440058,197.67386 7.371236,3.68568 v -29.43897 l -7.371236,-3.73177 c 0,-1.1e-4 0,29.48506 0,29.48506 z"
           id="path4463" />
      </g>
      <g
         id="g14436"
         transform="matrix(0.26802125,-0.51314254,-0.51314254,-0.26802125,73.238847,241.07876)"
         style="fill:#ffff00">
        <path
           d="m 0,0 c 0.458,-0.066 0.702,-0.047 0.883,-0.144 0.29,-0.153 0.577,-0.348 0.798,-0.589 2.866,-3.105 5.722,-6.22 8.578,-9.337 0.978,-1.067 1.948,-2.141 2.914,-3.22 0.445,-0.498 0.92,-0.978 1.297,-1.524 0.72,-1.048 0.64,-2.369 -0.117,-3.058 -0.659,-0.598 -1.832,-0.636 -2.761,0.144 -1.534,1.287 -3.108,2.573 -4.408,4.082 -2.834,3.287 -5.536,6.696 -7.388,10.673 -0.276,0.597 -0.607,1.244 -0.603,1.868 C -0.806,-0.703 -0.24,-0.306 0,0"
           style="fill:#ffff00;fill-opacity:1;fill-rule:evenodd;stroke:none"
           id="path14434"
           inkscape:connector-curvature="0" />
      </g>
      <g
         id="g14440"
         transform="matrix(0.26802125,-0.51314254,-0.51314254,-0.26802125,69.076508,236.76396)"
         style="fill:#ffff00">
        <path
           d="m 0,0 c 2.124,0.699 3.914,0.835 5.854,0.519 3.988,-0.653 7.709,-2.113 11.499,-3.381 1.451,-0.485 2.558,-1.381 3.205,-2.745 0.208,-0.44 0.222,-1.093 0.061,-1.556 C 20.367,-7.896 19.63,-8.052 18.944,-7.894 17.427,-7.543 15.9,-7.196 14.427,-6.7 10.323,-5.314 6.122,-4.184 2.246,-2.188 1.655,-1.883 1.059,-1.572 0.529,-1.18 0.312,-1.018 0.269,-0.626 0,0"
           style="fill:#ffff00;fill-opacity:1;fill-rule:evenodd;stroke:none"
           id="path14438"
           inkscape:connector-curvature="0" />
      </g>
      <g
         id="g14444"
         transform="matrix(0.26802125,-0.51314254,-0.51314254,-0.26802125,64.291653,225.10976)"
         style="fill:#ffff00">
        <path
           d="m 0,0 c -0.778,-1.614 -2.28,-2.167 -3.785,-2.423 -3.721,-0.632 -7.472,-1.083 -11.212,-1.605 -0.109,-0.015 -0.243,-0.048 -0.328,-0.003 -0.371,0.2 -0.857,0.344 -1.065,0.662 -0.36,0.549 -0.058,1.139 0.452,1.402 2.359,1.229 4.655,2.648 7.347,3.048 1.866,0.279 3.747,0.477 5.626,0.648 C -1.629,1.851 -0.62,1.307 0,0"
           style="fill:#ffff00;fill-opacity:1;fill-rule:evenodd;stroke:none"
           id="path14442"
           inkscape:connector-curvature="0" />
      </g>
      <g
         id="g14448"
         transform="matrix(0.26802125,-0.51314254,-0.51314254,-0.26802125,89.384126,248.1859)"
         style="fill:#ffff00">
        <path
           d="m 0,0 c -0.557,0.767 -1.088,1.224 -1.269,1.791 -0.638,2 -1.308,4.013 -1.672,6.072 -0.306,1.723 -0.238,3.519 -0.237,5.284 0,0.302 0.446,0.693 0.779,0.867 0.149,0.077 0.676,-0.214 0.773,-0.445 C -0.568,11.026 0.477,8.477 1.447,5.901 2.215,3.859 1.859,1.994 0,0"
           style="fill:#ffff00;fill-opacity:1;fill-rule:evenodd;stroke:none"
           id="path14446"
           inkscape:connector-curvature="0" />
      </g>
      <g
         id="g14452"
         transform="matrix(0.26802125,-0.51314254,-0.51314254,-0.26802125,69.17736,228.61641)"
         style="fill:#ffff00">
        <path
           d="m 0,0 c 0.381,0.071 0.772,0.237 1.144,0.203 1.771,-0.158 3.546,-0.312 5.301,-0.582 2.525,-0.389 5.036,-0.868 7.549,-1.323 1.856,-0.336 3.701,-0.708 5.275,-1.827 0.003,-0.808 -0.542,-0.935 -1.099,-0.851 -0.763,0.118 -1.503,0.393 -2.264,0.54 -0.866,0.169 -1.74,0.343 -2.616,0.39 -4.582,0.245 -8.923,1.57 -13.306,2.71 0.005,0.247 0.01,0.493 0.016,0.74"
           style="fill:#ffff00;fill-opacity:1;fill-rule:evenodd;stroke:none"
           id="path14450"
           inkscape:connector-curvature="0" />
      </g>
      <g
         transform="matrix(-0.29354694,-0.56201298,0.56201298,-0.29354694,23.587586,240.68055)"
         id="g17308"
         style="fill:#ffff00;stroke:#ffff00">
        <path
           inkscape:connector-curvature="0"
           id="path17306"
           style="fill:#ffff00;fill-opacity:1;fill-rule:evenodd;stroke:#ffff00"
           d="m 0,0 c 0.458,-0.066 0.702,-0.047 0.883,-0.144 0.29,-0.153 0.577,-0.348 0.798,-0.589 2.866,-3.105 5.722,-6.22 8.578,-9.337 0.978,-1.067 1.948,-2.141 2.914,-3.22 0.445,-0.498 0.92,-0.978 1.297,-1.524 0.72,-1.048 0.64,-2.369 -0.117,-3.058 -0.659,-0.598 -1.832,-0.636 -2.761,0.144 -1.534,1.287 -3.108,2.573 -4.408,4.082 -2.834,3.287 -5.536,6.696 -7.388,10.673 -0.276,0.597 -0.607,1.244 -0.603,1.868 C -0.806,-0.703 -0.24,-0.306 0,0" />
      </g>
      <g
         transform="matrix(-0.29354694,-0.56201298,0.56201298,-0.29354694,28.146336,235.95481)"
         id="g17312"
         style="fill:#ffff00;stroke:#ffff00">
        <path
           inkscape:connector-curvature="0"
           id="path17310"
           style="fill:#ffff00;fill-opacity:1;fill-rule:evenodd;stroke:#ffff00"
           d="m 0,0 c 2.124,0.699 3.914,0.835 5.854,0.519 3.988,-0.653 7.709,-2.113 11.499,-3.381 1.451,-0.485 2.558,-1.381 3.205,-2.745 0.208,-0.44 0.222,-1.093 0.061,-1.556 C 20.367,-7.896 19.63,-8.052 18.944,-7.894 17.427,-7.543 15.9,-7.196 14.427,-6.7 10.323,-5.314 6.122,-4.184 2.246,-2.188 1.655,-1.883 1.059,-1.572 0.529,-1.18 0.312,-1.018 0.269,-0.626 0,0" />
      </g>
      <g
         transform="matrix(-0.29354694,-0.56201298,0.56201298,-0.29354694,33.386888,223.19069)"
         id="g17316"
         style="fill:#ffff00;stroke:#ffff00">
        <path
           inkscape:connector-curvature="0"
           id="path17314"
           style="fill:#ffff00;fill-opacity:1;fill-rule:evenodd;stroke:#ffff00"
           d="m 0,0 c -0.778,-1.614 -2.28,-2.167 -3.785,-2.423 -3.721,-0.632 -7.472,-1.083 -11.212,-1.605 -0.109,-0.015 -0.243,-0.048 -0.328,-0.003 -0.371,0.2 -0.857,0.344 -1.065,0.662 -0.36,0.549 -0.058,1.139 0.452,1.402 2.359,1.229 4.655,2.648 7.347,3.048 1.866,0.279 3.747,0.477 5.626,0.648 C -1.629,1.851 -0.62,1.307 0,0" />
      </g>
      <g
         transform="matrix(-0.29354694,-0.56201298,0.56201298,-0.29354694,5.9046702,248.46455)"
         id="g17320"
         style="fill:#ffff00;stroke:#ffff00">
        <path
           inkscape:connector-curvature="0"
           id="path17318"
           style="fill:#ffff00;fill-opacity:1;fill-rule:evenodd;stroke:#ffff00"
           d="m 0,0 c -0.557,0.767 -1.088,1.224 -1.269,1.791 -0.638,2 -1.308,4.013 -1.672,6.072 -0.306,1.723 -0.238,3.519 -0.237,5.284 0,0.302 0.446,0.693 0.779,0.867 0.149,0.077 0.676,-0.214 0.773,-0.445 C -0.568,11.026 0.477,8.477 1.447,5.901 2.215,3.859 1.859,1.994 0,0" />
      </g>
      <g
         transform="matrix(-0.29354694,-0.56201298,0.56201298,-0.29354694,28.035879,227.03131)"
         id="g17324"
         style="fill:#ffff00;stroke:#ffff00">
        <path
           inkscape:connector-curvature="0"
           id="path17322"
           style="fill:#ffff00;fill-opacity:1;fill-rule:evenodd;stroke:#ffff00"
           d="m 0,0 c 0.381,0.071 0.772,0.237 1.144,0.203 1.771,-0.158 3.546,-0.312 5.301,-0.582 2.525,-0.389 5.036,-0.868 7.549,-1.323 1.856,-0.336 3.701,-0.708 5.275,-1.827 0.003,-0.808 -0.542,-0.935 -1.099,-0.851 -0.763,0.118 -1.503,0.393 -2.264,0.54 -0.866,0.169 -1.74,0.343 -2.616,0.39 -4.582,0.245 -8.923,1.57 -13.306,2.71 0.005,0.247 0.01,0.493 0.016,0.74" />
      </g>
      <g
         style="fill:#ffff00"
         id="g14627"
         transform="matrix(3.0456709,0,0,-3.0456709,60.789644,215.18627)">
        <path
           d="m 0,0 c 0.198,0.221 0.084,0.573 -0.206,0.636 l -1.898,0.409 c -0.105,0.023 -0.197,0.09 -0.251,0.184 L -3.332,2.906 C -3.48,3.162 -3.851,3.162 -4,2.906 L -4.976,1.229 C -5.03,1.135 -5.122,1.068 -5.229,1.045 L -7.126,0.636 C -7.415,0.573 -7.529,0.221 -7.332,0 l 1.294,-1.446 c 0.072,-0.081 0.107,-0.19 0.097,-0.297 l -0.198,-1.932 c -0.029,-0.295 0.27,-0.512 0.541,-0.392 l 1.776,0.783 c 0.099,0.044 0.213,0.044 0.312,0 l 1.776,-0.783 c 0.271,-0.12 0.571,0.097 0.541,0.392 l -0.197,1.932 c -0.01,0.107 0.024,0.216 0.097,0.297 z"
           style="fill:#ffff00;fill-opacity:1;fill-rule:nonzero;stroke:none"
           id="path14625"
           inkscape:connector-curvature="0" />
      </g>
      <g
         transform="matrix(0.93002141,-0.79947978,-0.79947978,-0.93002141,12.710471,223.87345)"
         id="g9596"
         style="fill:#ffff00">
        <path
           inkscape:connector-curvature="0"
           id="path9594"
           style="fill:#ffff00;fill-opacity:1;fill-rule:nonzero;stroke:none"
           d="m 0,0 c 0.198,0.221 0.084,0.573 -0.206,0.636 l -1.898,0.409 c -0.105,0.023 -0.197,0.09 -0.251,0.184 L -3.332,2.906 C -3.48,3.162 -3.851,3.162 -4,2.906 L -4.976,1.229 C -5.03,1.135 -5.122,1.068 -5.229,1.045 L -7.126,0.636 C -7.415,0.573 -7.529,0.221 -7.332,0 l 1.294,-1.446 c 0.072,-0.081 0.107,-0.19 0.097,-0.297 l -0.198,-1.932 c -0.029,-0.295 0.27,-0.512 0.541,-0.392 l 1.776,0.783 c 0.099,0.044 0.213,0.044 0.312,0 l 1.776,-0.783 c 0.271,-0.12 0.571,0.097 0.541,0.392 l -0.197,1.932 c -0.01,0.107 0.024,0.216 0.097,0.297 z" />
      </g>
      <g
         transform="matrix(0.7661417,-0.23189447,-0.23189447,-0.7661417,92.143455,227.25718)"
         id="g9604"
         style="fill:#ffff00;stroke:#ff00ff">
        <path
           inkscape:connector-curvature="0"
           id="path9602"
           style="fill:#ffff00;fill-opacity:1;fill-rule:nonzero;stroke:none"
           d="m 0,0 c 0.198,0.221 0.084,0.573 -0.206,0.636 l -1.898,0.409 c -0.105,0.023 -0.197,0.09 -0.251,0.184 L -3.332,2.906 C -3.48,3.162 -3.851,3.162 -4,2.906 L -4.976,1.229 C -5.03,1.135 -5.122,1.068 -5.229,1.045 L -7.126,0.636 C -7.415,0.573 -7.529,0.221 -7.332,0 l 1.294,-1.446 c 0.072,-0.081 0.107,-0.19 0.097,-0.297 l -0.198,-1.932 c -0.029,-0.295 0.27,-0.512 0.541,-0.392 l 1.776,0.783 c 0.099,0.044 0.213,0.044 0.312,0 l 1.776,-0.783 c 0.271,-0.12 0.571,0.097 0.541,0.392 l -0.197,1.932 c -0.01,0.107 0.024,0.216 0.097,0.297 z" />
      </g>
    </g>
  </g>
</svg>
