<?xml version="1.0" encoding="UTF-8" standalone="no"?>
<!-- Created with Inkscape (http://www.inkscape.org/) -->

<svg
   xmlns:dc="http://purl.org/dc/elements/1.1/"
   xmlns:cc="http://creativecommons.org/ns#"
   xmlns:rdf="http://www.w3.org/1999/02/22-rdf-syntax-ns#"
   xmlns:svg="http://www.w3.org/2000/svg"
   xmlns="http://www.w3.org/2000/svg"
   xmlns:sodipodi="http://sodipodi.sourceforge.net/DTD/sodipodi-0.dtd"
   xmlns:inkscape="http://www.inkscape.org/namespaces/inkscape"
   width="60mm"
   height="60mm"
   viewBox="0 0 60 60"
   version="1.1"
   id="svg8776"
   inkscape:version="0.92.2 2405546, 2018-03-11"
   sodipodi:docname="fiestas.svg">
  <defs
     id="defs8770" />
  <sodipodi:namedview
     id="base"
     pagecolor="#ffffff"
     bordercolor="#666666"
     borderopacity="1.0"
     inkscape:pageopacity="0.0"
     inkscape:pageshadow="2"
     inkscape:zoom="0.7"
     inkscape:cx="-22.713056"
     inkscape:cy="269.79746"
     inkscape:document-units="mm"
     inkscape:current-layer="layer1"
     showgrid="false"
     borderlayer="true"
     inkscape:showpageshadow="false"
     inkscape:window-width="1362"
     inkscape:window-height="724"
     inkscape:window-x="0"
     inkscape:window-y="20"
     inkscape:window-maximized="0" />
  <metadata
     id="metadata8773">
    <rdf:RDF>
      <cc:Work
         rdf:about="">
        <dc:format>image/svg+xml</dc:format>
        <dc:type
           rdf:resource="http://purl.org/dc/dcmitype/StillImage" />
        <dc:title></dc:title>
      </cc:Work>
    </rdf:RDF>
  </metadata>
  <g
     inkscape:label="Layer 1"
     inkscape:groupmode="layer"
     id="layer1"
     transform="translate(0,-237)">
    <g
       id="g8768"
       transform="matrix(0.66546278,0,0,0.66546278,-2.0290303,99.709694)">
      <path
         inkscape:connector-curvature="0"
         style="fill:#ff6600;stroke-width:0.16377412"
         d="m 84.037999,226.82838 c -6.537394,1.81713 -6.554947,6.68641 -6.567385,10.24193 -0.01277,3.53696 -0.01946,5.48575 -4.295685,5.68279 -3.968385,0.1833 -6.803268,1.33062 -8.427124,3.40959 -1.294753,1.65801 -1.283289,3.28517 -1.277982,3.46525 0.03016,0.97291 1.051937,1.58685 1.921644,1.17108 0.465733,-0.22263 0.780993,-0.705 0.763977,-1.25397 -0.0011,-0.0377 -0.03353,-3.77623 7.143426,-4.10816 6.624529,-0.30546 6.844661,-4.53187 6.858364,-8.357 0.01271,-3.57053 0.02231,-6.39075 4.600258,-7.66273 0.715613,-0.19811 1.133384,-0.93918 0.934643,-1.65414 -0.198819,-0.71473 -0.939398,-1.13309 -1.654136,-0.93464 z"
         id="path3553" />
      <path
         inkscape:connector-curvature="0"
         style="fill:#ff6600;stroke-width:0.17279546"
         d="m 13.144929,227.32609 c -0.396265,0.67506 -0.17019,1.54369 0.504987,1.93983 6.913977,4.05867 0.776237,9.57905 2.048816,14.78457 0.532175,2.17571 2.26414,3.69853 5.294921,4.65558 7.01383,2.21465 6.224235,5.90657 6.166714,6.13928 -0.049,0.16143 -0.468326,1.65063 0.66712,1.9824 1.606589,0.46939 2.053275,-1.18515 2.053275,-1.18515 0.501405,-1.67693 0.495296,-6.94641 -8.033691,-9.63972 -4.306725,-1.35971 -3.816676,-3.23087 -2.840548,-6.95841 0.950536,-3.62904 2.25208,-8.59915 -3.921745,-12.22313 -0.674949,-0.39639 -1.54257,-0.1699 -1.939849,0.50475 z"
         id="path3555" />
      <g
         id="g13400"
         transform="matrix(0.24741217,0,0,0.24741217,277.23967,253.3702)"
         style="opacity:1">
        <path
           sodipodi:nodetypes="cccc"
           inkscape:connector-curvature="0"
           id="path13294"
           d="m -837.92264,38.467198 c 0.1994,-1.661004 0.024,-3.228996 -0.017,-4.833526 l -1.3045,3.3407 z"
           style="fill:#262a43;fill-opacity:1;stroke:#262a43;stroke-width:0.26499999;stroke-linecap:round;stroke-linejoin:round;stroke-miterlimit:4;stroke-dasharray:none;stroke-opacity:1" />
        <path
           sodipodi:nodetypes="ccccc"
           inkscape:connector-curvature="0"
           id="path13302"
           d="m -981.41913,51.43014 c 6.89699,34.05408 7.3111,66.53124 -4.39873,96.05934 16.54989,39.82679 118.33696,30.82996 127.62482,0.56392 -5.66097,-27.33513 -14.98277,-50.09422 -5.33939,-96.5598 -41.40994,8.82077 -80.39144,7.48626 -117.8867,-0.0635 z"
           style="fill:#252942;fill-opacity:1;stroke:none;stroke-width:0.26458332px;stroke-linecap:butt;stroke-linejoin:miter;stroke-opacity:1" />
        <path
           sodipodi:nodetypes="ccccc"
           inkscape:connector-curvature="0"
           id="path13306"
           d="m -952.75038,55.8927 c 27.61739,1.85212 55.10395,3.2111 80.66407,-2.69087 0.0545,26.20924 -10.6322,28.2508 10.22304,101.26173 -22.33146,23.34668 -71.18995,22.89175 -97.08564,14.43255 8.93947,-35.5199 8.54642,-73.95621 6.19853,-113.00341 z"
           style="fill:#363c5e;fill-opacity:1;stroke:none;stroke-width:0.26458332px;stroke-linecap:butt;stroke-linejoin:miter;stroke-opacity:1" />
        <path
           sodipodi:nodetypes="ccccc"
           inkscape:connector-curvature="0"
           id="path13310"
           d="m -967.53493,53.97023 c 7.00348,42.98244 0.80752,75.69864 -5.47903,108.34439 4.54116,2.78912 9.1677,4.94997 14.06505,6.58149 8.63611,-35.75157 9.63796,-73.7298 6.19851,-113.00341 -5.2459,-0.41388 -9.95389,-1.21197 -14.78453,-1.92247 z"
           style="fill:#516472;fill-opacity:1;stroke:none;stroke-width:0.26458332px;stroke-linecap:butt;stroke-linejoin:miter;stroke-opacity:1" />
        <path
           sodipodi:nodetypes="ccccc"
           inkscape:connector-curvature="0"
           id="path13318"
           d="m -911.70903,58.71427 c -3.98081,38.78395 -5.29619,77.32558 6.24169,114.69874 9.3444,-1.42908 18.206,-4.08709 26.57041,-8.01067 -10.49081,-35.63014 -11.02343,-72.20868 -6.58626,-109.26054 -8.74195,1.58339 -17.48389,2.02002 -26.22584,2.57247 z"
           style="fill:#252942;fill-opacity:1;stroke:none;stroke-width:0.26458332px;stroke-linecap:butt;stroke-linejoin:miter;stroke-opacity:1" />
        <path
           sodipodi:nodetypes="cccccc"
           inkscape:connector-curvature="0"
           id="path13378"
           d="m -981.41913,50.37184 c 0.69186,5.009506 1.64304,10.162208 2.51104,15.227479 18.05714,14.012893 101.1476,9.202279 113.00168,-0.866424 l 2.42123,-14.26216 c -43.67062,13.7516 -91.25745,11.018325 -117.93395,-0.09889 z"
           style="opacity:0.80100002;fill:#c71e57;fill-opacity:1;stroke:none;stroke-width:0.26458332px;stroke-linecap:butt;stroke-linejoin:miter;stroke-opacity:1" />
        <ellipse
           style="opacity:1;fill:#262a43;fill-opacity:1;fill-rule:nonzero;stroke:none;stroke-width:0.7471776;stroke-linecap:square;stroke-linejoin:miter;stroke-miterlimit:4;stroke-dasharray:none;stroke-dashoffset:0;stroke-opacity:1"
           id="ellipse13380"
           cx="-922.73578"
           cy="38.308144"
           rx="84.979034"
           ry="19.849115" />
        <path
           sodipodi:nodetypes="cccc"
           inkscape:connector-curvature="0"
           id="path13382"
           d="m -1007.5647,38.563329 c -0.1994,-1.661005 -0.024,-3.228996 0.017,-4.833526 l 1.3045,3.3407 z"
           style="fill:#262a43;fill-opacity:1;stroke:#262a43;stroke-width:0.26499999;stroke-linecap:round;stroke-linejoin:round;stroke-miterlimit:4;stroke-dasharray:none;stroke-opacity:1" />
        <ellipse
           ry="18.846651"
           rx="84.983574"
           cy="34.131538"
           cx="-922.73578"
           id="ellipse13384"
           style="opacity:1;fill:#848d8a;fill-opacity:1;fill-rule:nonzero;stroke:none;stroke-width:0.73809105;stroke-linecap:square;stroke-linejoin:miter;stroke-miterlimit:4;stroke-dasharray:none;stroke-dashoffset:0;stroke-opacity:1" />
        <path
           sodipodi:nodetypes="ccccc"
           inkscape:connector-curvature="0"
           id="path13386"
           d="m -993.95975,44.15412 105.96696,-27.1704 c 7.37069,0.6206 14.64858,1.4732 21.66483,2.97993 l -102.84195,29.78183 c -9.40041,-1.05155 -17.88001,-2.76083 -24.78984,-5.59136 z"
           style="fill:#b4bebf;fill-opacity:1;stroke:none;stroke-width:0.26458332px;stroke-linecap:butt;stroke-linejoin:miter;stroke-opacity:1" />
        <path
           sodipodi:nodetypes="ccccc"
           inkscape:connector-curvature="0"
           id="path13394"
           d="m -954.32761,51.75753 95.49531,-30.17029 6.74722,2.01107 -86.60377,29.10416 z"
           style="fill:#b4bebf;fill-opacity:1;stroke:none;stroke-width:0.26458332px;stroke-linecap:butt;stroke-linejoin:miter;stroke-opacity:1" />
        <ellipse
           style="opacity:1;fill:#591347;fill-opacity:1;fill-rule:nonzero;stroke:none;stroke-width:0.51116765;stroke-linecap:square;stroke-linejoin:miter;stroke-miterlimit:4;stroke-dasharray:none;stroke-dashoffset:0;stroke-opacity:1"
           id="ellipse13396"
           cx="-922.07434"
           cy="32.266212"
           rx="58.855679"
           ry="13.052316" />
        <path
           style="opacity:1;fill:#5d102a;fill-opacity:1;stroke:none;stroke-width:0.26458332px;stroke-linecap:butt;stroke-linejoin:miter;stroke-opacity:1"
           d="m -980.71155,54.964978 c 34.48068,11.091749 99.61221,6.798558 116.6019,-0.703309 l 0.36508,-1.649093 c -39.54153,8.599509 -88.80437,5.992734 -117.40619,0.107368 0.37338,1.879908 0.14098,0.745376 0.43921,2.245032 z"
           id="path13398"
           inkscape:connector-curvature="0"
           sodipodi:nodetypes="cccccc" />
      </g>
      <path
         style="fill:#ffff00;stroke-width:0.18115374"
         inkscape:connector-curvature="0"
         d="m 70.62609,234.97973 c -0.62064,-0.86429 -0.88295,-1.94867 -0.69563,-3.04085 l 0.37336,-2.1771 -1.58148,-1.54162 c -0.0241,-0.0234 -0.0458,-0.0484 -0.0692,-0.0723 -12.1027,10.09624 -13.47929,26.28015 -13.34741,34.22519 0.005,0.28949 0.22717,0.52879 0.51557,0.5556 0.28821,0.0268 0.55052,-0.16756 0.60886,-0.45125 3.33848,-16.25928 9.65223,-23.944 14.19593,-27.49769 z"
         id="path3772" />
      <path
         style="fill:#ffff00;stroke-width:0.18115374"
         inkscape:connector-curvature="0"
         d="m 38.381662,223.51914 -3.65225,0.81755 -1.39705,3.47217 c -0.0254,0.063 -0.054,0.12409 -0.0823,0.18532 5.70019,8.06406 8.66893,24.52822 9.85567,32.82162 0.0279,0.19456 0.20126,0.33441 0.39727,0.32118 0.19601,-0.0132 0.34872,-0.17535 0.35035,-0.37172 0.14438,-17.88821 -2.59212,-29.82353 -5.35399,-37.27655 -0.0393,0.01 -0.0779,0.0215 -0.11775,0.0304 z"
         id="path3774" />
      <path
         style="fill:#ffff00;stroke-width:0.18115374"
         inkscape:connector-curvature="0"
         d="m 75.757118,249.40961 -0.51756,-0.71194 c -0.41883,-0.57607 -0.66846,-1.23202 -0.74871,-1.90573 -3.98393,1.06246 -9.97686,3.78122 -11.89166,10.65781 -0.10343,0.37137 0.0766,0.76321 0.42572,0.92661 0.34926,0.1634 0.76555,0.0507 0.98439,-0.26666 2.08942,-3.03016 5.84528,-7.03167 11.44656,-7.84414 0.003,-0.009 0.005,-0.0176 0.008,-0.0265 z"
         id="path3776" />
      <path
         style="fill:#ffff00;stroke-width:0.18115374"
         inkscape:connector-curvature="0"
         d="m 30.296714,242.46526 c -0.3643,0.50959 -0.84888,0.93783 -1.43184,1.24108 l -0.78059,0.40597 -0.10815,0.87316 c -0.0326,0.26304 -0.0913,0.51756 -0.17082,0.76266 3.345,3.77832 5.80996,8.96838 7.29959,12.69489 0.0998,0.24981 0.37245,0.38368 0.6315,0.31086 0.25887,-0.073 0.42136,-0.32934 0.37625,-0.59473 -1.31898,-7.78834 -3.62597,-12.6659 -5.81594,-15.69389 z"
         id="path3778" />
      <path
         style="fill:#ffff00;stroke-width:0.18115374"
         inkscape:connector-curvature="0"
         d="m 52.387642,236.49269 -0.33422,-0.81392 -0.86012,-0.18605 c -0.64219,-0.13894 -1.22225,-0.42444 -1.70774,-0.8199 -1.38601,3.68648 -2.35645,9.38865 -1.33583,17.96538 0.0549,0.46158 0.72824,0.45614 0.77208,-0.007 0.37734,-3.9785 1.34978,-10.41163 3.83249,-15.44698 -0.14184,-0.21576 -0.26575,-0.44637 -0.36666,-0.69201 z"
         id="path3788" />
      <path
         id="path3861"
         d="m 45.893986,256.85334 c 0.06076,-0.19001 0.193117,-0.35801 0.383291,-0.45936 0.387962,-0.20734 0.870513,-0.061 1.07745,0.32685 l 0.670082,1.25396 c 0.207334,0.38797 0.06111,0.87012 -0.326892,1.07744 -0.387971,0.20733 -0.870514,0.061 -1.077847,-0.32699 l -0.670082,-1.25396 c -0.105575,-0.19769 -0.11935,-0.41993 -0.05603,-0.61796 z m 0,0"
         inkscape:connector-curvature="0"
         style="fill:#00ffcc;stroke-width:0.10774104" />
      <path
         id="path3865"
         d="m 59.666865,261.84308 c -0.199911,0 -0.399821,-0.0749 -0.554699,-0.22474 -0.315647,-0.30639 -0.323223,-0.81058 -0.01683,-1.12623 l 0.990292,-1.02017 c 0.306388,-0.31523 0.810582,-0.32323 1.12623,-0.0168 0.315648,0.30639 0.323223,0.81059 0.01683,1.12623 l -0.990292,1.02018 c -0.156139,0.16077 -0.363626,0.24157 -0.571531,0.24157 z m 0,0"
         inkscape:connector-curvature="0"
         style="fill:#ff6600;stroke-width:0.10774104" />
      <path
         id="path3875"
         d="m 46.314561,231.06083 h -0.0122 c -0.439802,0 -0.796694,-0.35689 -0.796694,-0.79669 0,-0.4398 0.356472,-0.79627 0.796694,-0.79627 h 0.0122 c 0.439803,0 0.796274,0.35647 0.796274,0.79627 0,0.4398 -0.356471,0.79669 -0.796274,0.79669 z m 0,0"
         inkscape:connector-curvature="0"
         style="fill:#00ff66;stroke-width:0.10774104" />
      <path
         id="path3877"
         d="m 76.539703,215.48405 c -0.0013,0 -0.0025,0 -0.0034,0 h -0.01262 c -0.439802,-0.002 -0.79459,-0.35983 -0.792907,-0.79964 0.0021,-0.43896 0.358155,-0.7929 0.796274,-0.7929 h 0.0038 0.01221 c 0.439803,0.002 0.79459,0.35984 0.792907,0.79964 -0.0017,0.43854 -0.358155,0.7929 -0.796274,0.7929 z m 0,0"
         inkscape:connector-curvature="0"
         style="fill:#ffaa00;stroke-width:0.10774104" />
      <path
         id="path3905"
         d="m 60.159845,233.91819 c -0.415475,-0.14424 -0.635317,-0.59791 -0.491076,-1.01338 2.022294,-5.82501 5.713373,-8.95629 8.453648,-10.55769 2.979717,-1.74057 5.473054,-2.0943 5.577849,-2.1087 0.435839,-0.0594 0.837205,0.24609 0.896078,0.6822 0.05915,0.4353 -0.245288,0.83614 -0.680869,0.89609 -0.03748,0.005 -2.343899,0.34546 -5.049767,1.94142 -3.617742,2.13342 -6.205745,5.3866 -7.692478,9.66899 -0.144242,0.41547 -0.597908,0.63531 -1.013385,0.49107 z m 0,0"
         inkscape:connector-curvature="0"
         style="fill:#ffaaaa;stroke-width:0.10774104" />
      <path
         id="path3907"
         d="m 48.994847,263.17091 0.473564,0.62812 c 0.122951,0.16288 0.373726,0.1099 0.42451,-0.0896 l 0.195747,-0.76931 c 0.02012,-0.0791 0.07688,-0.14307 0.151723,-0.1709 l 0.726069,-0.26996 c 0.188357,-0.07 0.216972,-0.33206 0.04858,-0.44338 l -0.649657,-0.42954 c -0.06682,-0.0443 -0.10833,-0.11965 -0.111002,-0.20141 L 50.229541,260.63 c -0.0063,-0.20612 -0.239455,-0.31524 -0.394323,-0.18458 l -0.597301,0.50375 c -0.06163,0.0519 -0.144019,0.0693 -0.220274,0.0465 l -0.741478,-0.22138 c -0.192287,-0.0574 -0.365078,0.13726 -0.292283,0.32939 l 0.280492,0.74101 c 0.02893,0.0763 0.0195,0.16241 -0.02516,0.23018 l -0.433472,0.65799 c -0.112417,0.17074 0.01384,0.39998 0.213827,0.38819 l 0.770565,-0.0459 c 0.0794,-0.005 0.155968,0.0311 0.204708,0.0958 z m 0,0"
         inkscape:connector-curvature="0"
         style="fill:#ffff00;stroke-width:0.04024985" />
      <path
         id="path3909"
         d="m 34.151675,239.08334 c -0.424486,0.11505 -0.861799,-0.13575 -0.976854,-0.56023 -0.847226,-3.12577 -2.316945,-5.79718 -4.368088,-7.93994 -0.304177,-0.31785 -0.292977,-0.8219 0.02487,-1.12608 0.317845,-0.30418 0.821892,-0.29301 1.125967,0.0245 2.237023,2.33787 3.836757,5.2396 4.754337,8.62494 0.115055,0.42448 -0.135747,0.86179 -0.560233,0.97685 z m 0,0"
         inkscape:connector-curvature="0"
         style="fill:#ff6600;stroke-width:0.10774104" />
      <path
         id="path3913"
         d="m 68.660864,216.01137 c 0,-1.21587 -0.956622,-2.20153 -2.136724,-2.20153 -1.180522,0 -2.137144,0.98566 -2.137144,2.20153 0,1.21588 0.956622,2.20154 2.137144,2.20154 1.180102,0 2.136724,-0.98566 2.136724,-2.20154 z m 0,0"
         inkscape:connector-curvature="0"
         style="fill:#2ad4ff;stroke-width:0.10774104" />
      <path
         id="path3917"
         d="m 25.664808,227.22728 c 0,-0.97514 -0.767235,-1.76553 -1.714177,-1.76553 -0.946522,0 -1.713756,0.79039 -1.713756,1.76553 0,0.97514 0.767234,1.76594 1.713756,1.76594 0.946942,0 1.714177,-0.7908 1.714177,-1.76594 z m 0,0"
         inkscape:connector-curvature="0"
         style="fill:#2aff80;stroke-width:0.10774104" />
      <path
         inkscape:connector-curvature="0"
         d="m 40.013334,251.25217 c 0,-0.97514 -0.767654,-1.76594 -1.714176,-1.76594 -0.946522,0 -1.714177,0.7908 -1.714177,1.76594 0,0.97514 0.767655,1.76553 1.714177,1.76553 0.946522,0 1.714176,-0.79039 1.714176,-1.76553 z m 0,0"
         id="path3921"
         style="fill:#ffaaee;stroke-width:0.10774104" />
      <path
         style="fill:#7fff2a;stroke-width:0.10774104"
         inkscape:connector-curvature="0"
         d="m 53.262489,250.16088 c -0.179281,0.0875 -0.392166,0.10804 -0.59688,0.0407 -0.418042,-0.1369 -0.64598,-0.5867 -0.508888,-1.00437 l 0.442545,-1.35114 c 0.136913,-0.41805 0.586331,-0.64579 1.00439,-0.50885 0.418047,0.13691 0.64598,0.5867 0.509064,1.00475 l -0.442546,1.35114 c -0.06981,0.21297 -0.220837,0.37659 -0.40768,0.46777 z m 0,0"
         id="path8663" />
      <path
         id="path8665"
         d="m 34.371031,244.57661 c 0.08146,-0.18209 0.231634,-0.33438 0.431882,-0.41401 0.408567,-0.16302 0.871901,0.036 1.034536,0.44437 l 0.526846,1.32055 c 0.162983,0.4086 -0.03579,0.87152 -0.44439,1.03452 -0.408581,0.16302 -0.871909,-0.036 -1.034927,-0.44453 l -0.526837,-1.32056 c -0.08301,-0.20817 -0.07204,-0.43057 0.01287,-0.62036 z m 0,0"
         inkscape:connector-curvature="0"
         style="fill:#7fff2a;stroke-width:0.10774104" />
      <path
         style="fill:#ff4e61;stroke-width:0.10774104"
         inkscape:connector-curvature="0"
         d="m 72.55091,240.32065 c -0.19949,0 -0.399821,-0.0749 -0.554277,-0.22517 -0.315648,-0.30638 -0.323223,-0.81058 -0.01684,-1.12581 l 0.990291,-1.02017 c 0.306389,-0.31565 0.810162,-0.32322 1.12581,-0.0168 0.315648,0.30639 0.323223,0.81058 0.01683,1.12623 l -0.990292,1.02017 c -0.156139,0.16077 -0.363626,0.24158 -0.571531,0.24158 z m 0,0"
         id="path8667" />
      <path
         id="path8669"
         d="m 63.1605,219.98177 c 0.197499,-0.0281 0.406383,0.0178 0.580474,0.14484 0.355667,0.25885 0.434202,0.75695 0.175275,1.11221 l -0.836687,1.14951 c -0.25886,0.35567 -0.756542,0.43414 -1.112214,0.17524 -0.355658,-0.25886 -0.434192,-0.75695 -0.175331,-1.11262 l 0.836686,-1.14952 c 0.131931,-0.18116 0.325962,-0.2904 0.531793,-0.31969 z m 0,0"
         inkscape:connector-curvature="0"
         style="fill:#ff9955;stroke-width:0.10774104" />
      <path
         style="fill:#ffaaaa;stroke-width:0.10774104"
         inkscape:connector-curvature="0"
         d="m 57.129838,222.80463 c -0.146742,0.13514 -0.344842,0.21575 -0.560255,0.20985 -0.439738,-0.0115 -0.786871,-0.37729 -0.775047,-0.81672 l 0.03735,-1.42128 c 0.01154,-0.43974 0.376983,-0.78659 0.816748,-0.77502 0.439745,0.0115 0.786871,0.37729 0.775324,0.81704 l -0.03735,1.42128 c -0.0059,0.22403 -0.103824,0.42403 -0.256756,0.56487 z m 0,0"
         id="path8671" />
      <path
         style="fill:#00ff00;stroke-width:0.10774104"
         inkscape:connector-curvature="0"
         d="m 58.138056,239.92258 c 0,-0.97514 -0.767235,-1.76553 -1.714177,-1.76553 -0.946522,0 -1.713756,0.79039 -1.713756,1.76553 0,0.97514 0.767234,1.76594 1.713756,1.76594 0.946942,0 1.714177,-0.7908 1.714177,-1.76594 z m 0,0"
         id="path8673" />
      <path
         id="path8675"
         d="m 89.809495,235.11173 c 0,-0.97514 -0.767235,-1.76553 -1.714177,-1.76553 -0.946522,0 -1.713756,0.79039 -1.713756,1.76553 0,0.97514 0.767234,1.76594 1.713756,1.76594 0.946942,0 1.714177,-0.7908 1.714177,-1.76594 z m 0,0"
         inkscape:connector-curvature="0"
         style="fill:#2ad4ff;stroke-width:0.10774104" />
      <path
         style="fill:#ff4e61;stroke-width:0.10774104"
         inkscape:connector-curvature="0"
         d="m 43.93321,238.0929 c 0.09443,-0.17573 0.255294,-0.31669 0.460794,-0.38157 0.419322,-0.13294 0.866997,0.0991 0.999557,0.51828 l 0.429607,1.35531 c 0.132933,0.41933 -0.09895,0.86663 -0.518309,0.99954 -0.419327,0.13293 -0.866993,-0.0992 -0.999926,-0.51848 l -0.429608,-1.35531 c -0.06767,-0.21365 -0.04059,-0.43467 0.05786,-0.61778 z m 0,0"
         id="path8677" />
      <path
         id="path8679"
         d="m 39.389628,260.14263 c 0.09443,-0.17573 0.255294,-0.31669 0.460794,-0.38157 0.419322,-0.13294 0.866997,0.0991 0.999557,0.51828 l 0.429607,1.35531 c 0.132933,0.41933 -0.09895,0.86663 -0.518309,0.99954 -0.419327,0.13293 -0.866993,-0.0992 -0.999926,-0.51848 l -0.429608,-1.35531 c -0.06767,-0.21365 -0.04059,-0.43467 0.05786,-0.61778 z m 0,0"
         inkscape:connector-curvature="0"
         style="fill:#ff00cc;stroke-width:0.10774104" />
      <path
         style="fill:#00ff66;stroke-width:0.10774104"
         inkscape:connector-curvature="0"
         d="m 51.795216,260.54297 h -0.0122 c -0.439802,0 -0.796694,-0.35689 -0.796694,-0.79669 0,-0.4398 0.356472,-0.79627 0.796694,-0.79627 h 0.0122 c 0.439803,0 0.796274,0.35647 0.796274,0.79627 0,0.4398 -0.356471,0.79669 -0.796274,0.79669 z m 0,0"
         id="path8681" />
      <path
         id="path8683"
         d="m 45.936585,262.71633 h -0.0122 c -0.439802,0 -0.796694,-0.35689 -0.796694,-0.79669 0,-0.4398 0.356472,-0.79627 0.796694,-0.79627 h 0.0122 c 0.439803,0 0.796274,0.35647 0.796274,0.79627 0,0.4398 -0.356471,0.79669 -0.796274,0.79669 z m 0,0"
         inkscape:connector-curvature="0"
         style="fill:#00ff00;stroke-width:0.10774104" />
      <path
         style="fill:#ff00cc;stroke-width:0.10774104"
         inkscape:connector-curvature="0"
         d="m 53.878602,261.33682 c 0.190594,-0.0589 0.404109,-0.0465 0.596049,0.0515 0.392042,0.19952 0.54816,0.67899 0.348504,1.07064 l -0.644921,1.26709 c -0.199528,0.39204 -0.678609,0.54802 -1.070658,0.34846 -0.392039,-0.19953 -0.548161,-0.679 -0.348616,-1.07105 l 0.64492,-1.26708 c 0.101711,-0.19971 0.276086,-0.33818 0.474722,-0.39957 z m 0,0"
         id="path8685" />
      <path
         style="fill:#ffff00;stroke-width:0.04024985"
         inkscape:connector-curvature="0"
         d="m 52.018657,255.4224 0.473564,0.62812 c 0.122951,0.16288 0.373726,0.1099 0.42451,-0.0896 l 0.195747,-0.76931 c 0.02012,-0.0791 0.07688,-0.14307 0.151723,-0.1709 l 0.726069,-0.26996 c 0.188357,-0.07 0.216972,-0.33206 0.04858,-0.44338 l -0.649657,-0.42954 c -0.06682,-0.0443 -0.10833,-0.11965 -0.111002,-0.20141 l -0.02484,-0.79493 c -0.0063,-0.20612 -0.239455,-0.31524 -0.394323,-0.18458 l -0.597301,0.50375 c -0.06163,0.0519 -0.144019,0.0693 -0.220274,0.0465 l -0.741478,-0.22138 c -0.192287,-0.0574 -0.365078,0.13726 -0.292283,0.32939 l 0.280492,0.74101 c 0.02893,0.0763 0.0195,0.16241 -0.02516,0.23018 l -0.433472,0.65799 c -0.112417,0.17074 0.01384,0.39998 0.213827,0.38819 l 0.770565,-0.0459 c 0.0794,-0.005 0.155968,0.0311 0.204708,0.0958 z m 0,0"
         id="path8687" />
      <path
         id="path8689"
         d="m 47.104967,222.34948 0.473564,0.62812 c 0.122951,0.16288 0.373726,0.1099 0.42451,-0.0896 l 0.195747,-0.76931 c 0.02012,-0.0791 0.07688,-0.14307 0.151723,-0.1709 l 0.726069,-0.26996 c 0.188357,-0.07 0.216972,-0.33206 0.04858,-0.44338 l -0.649657,-0.42954 c -0.06682,-0.0443 -0.10833,-0.11965 -0.111002,-0.20141 l -0.02484,-0.79493 c -0.0063,-0.20612 -0.239455,-0.31524 -0.394323,-0.18458 l -0.597301,0.50375 c -0.06163,0.0519 -0.144019,0.0693 -0.220274,0.0465 l -0.741478,-0.22138 c -0.192287,-0.0574 -0.365078,0.13726 -0.292283,0.32939 l 0.280492,0.74101 c 0.02893,0.0763 0.0195,0.16241 -0.02516,0.23018 l -0.433472,0.65799 c -0.112417,0.17074 0.01384,0.39998 0.213827,0.38819 l 0.770565,-0.0459 c 0.0794,-0.005 0.155968,0.0311 0.204708,0.0958 z m 0,0"
         inkscape:connector-curvature="0"
         style="fill:#ffff00;stroke-width:0.04024985" />
      <path
         style="fill:#ffff00;stroke-width:0.04024985"
         inkscape:connector-curvature="0"
         d="m 56.365384,216.30186 0.473564,0.62812 c 0.122951,0.16288 0.373726,0.1099 0.42451,-0.0896 l 0.195747,-0.76931 c 0.02012,-0.0791 0.07688,-0.14307 0.151723,-0.1709 l 0.726069,-0.26996 c 0.188357,-0.07 0.216972,-0.33206 0.04858,-0.44338 l -0.649657,-0.42954 c -0.06682,-0.0443 -0.10833,-0.11965 -0.111002,-0.20141 l -0.02484,-0.79493 c -0.0063,-0.20612 -0.239455,-0.31524 -0.394323,-0.18458 l -0.597301,0.50375 c -0.06163,0.0519 -0.144019,0.0693 -0.220274,0.0465 l -0.741478,-0.22138 c -0.192287,-0.0574 -0.365078,0.13726 -0.292283,0.32939 l 0.280492,0.74101 c 0.02893,0.0763 0.0195,0.16241 -0.02516,0.23018 l -0.433472,0.65799 c -0.112417,0.17074 0.01384,0.39998 0.213827,0.38819 l 0.770565,-0.0459 c 0.0794,-0.005 0.155968,0.0311 0.204708,0.0958 z m 0,0"
         id="path8691" />
      <path
         id="path8693"
         d="m 42.758242,211.76614 0.473564,0.62812 c 0.122951,0.16288 0.373726,0.1099 0.42451,-0.0896 l 0.195747,-0.76931 c 0.02012,-0.0791 0.07688,-0.14307 0.151723,-0.1709 l 0.726069,-0.26996 c 0.188357,-0.07 0.216972,-0.33206 0.04858,-0.44338 l -0.649657,-0.42954 c -0.06682,-0.0443 -0.10833,-0.11965 -0.111002,-0.20141 l -0.02484,-0.79493 c -0.0063,-0.20612 -0.239455,-0.31524 -0.394323,-0.18458 l -0.597301,0.50375 c -0.06163,0.0519 -0.144019,0.0693 -0.220274,0.0465 l -0.741478,-0.22138 c -0.192287,-0.0574 -0.365078,0.13726 -0.292283,0.32939 l 0.280492,0.74101 c 0.02893,0.0763 0.0195,0.16241 -0.02516,0.23018 l -0.433472,0.65799 c -0.112417,0.17074 0.01384,0.39998 0.213827,0.38819 l 0.770565,-0.0459 c 0.0794,-0.005 0.155968,0.0311 0.204708,0.0958 z m 0,0"
         inkscape:connector-curvature="0"
         style="fill:#ffff00;stroke-width:0.04024985" />
      <path
         style="fill:#ffff00;stroke-width:0.199479"
         inkscape:connector-curvature="0"
         d="m 25.36529,218.88635 1.43068,3.62659 c 0.371709,0.94063 1.639542,1.01941 2.146066,0.13377 l 1.95285,-3.41532 c 0.200763,-0.35116 0.556494,-0.58158 0.950776,-0.61547 l 3.824998,-0.32864 c 0.992238,-0.0851 1.475658,-1.29886 0.818696,-2.05336 l -2.53448,-2.91115 c -0.260524,-0.29999 -0.359082,-0.71479 -0.263658,-1.10883 l 0.933192,-3.82954 c 0.242639,-0.9928 -0.726546,-1.82247 -1.6391,-1.40334 l -3.51933,1.61563 c -0.363027,0.16633 -0.779549,0.14042 -1.113584,-0.0694 l -3.248461,-2.03845 c -0.842436,-0.52858 -1.925275,0.1725 -1.831822,1.18647 l 0.359173,3.91029 c 0.03721,0.4027 -0.121754,0.80149 -0.424741,1.06607 l -2.940955,2.56908 c -0.762836,0.66673 -0.463133,1.92866 0.507623,2.13696 l 3.741042,0.80038 c 0.385845,0.0812 0.703768,0.35492 0.850949,0.72842 z m 0,0"
         id="path8695" />
      <path
         id="path8697"
         d="m 23.647069,243.31933 1.517052,1.6697 c 0.393822,0.43293 1.096108,0.2159 1.18885,-0.36715 l 0.357384,-2.24833 c 0.03672,-0.23117 0.18206,-0.42873 0.388504,-0.52782 l 2.002778,-0.96127 c 0.519571,-0.24928 0.532606,-1.00517 0.02253,-1.27896 l -1.967898,-1.05642 c -0.202437,-0.109 -0.340733,-0.3133 -0.369794,-0.5461 l -0.279294,-2.26368 c -0.07202,-0.587 -0.76647,-0.83751 -1.174501,-0.42377 l -1.573761,1.59518 c -0.162404,0.16437 -0.393133,0.23565 -0.616885,0.19052 l -2.175567,-0.43789 c -0.564185,-0.11353 -1.006629,0.48767 -0.748378,1.01729 l 0.995258,2.04269 c 0.102611,0.21032 0.09827,0.4587 -0.01153,0.66395 L 20.136351,242.38 c -0.276295,0.51706 0.144366,1.13864 0.712398,1.05254 l 2.18858,-0.33304 c 0.225454,-0.035 0.453572,0.048 0.609723,0.21994 z m 0,0"
         inkscape:connector-curvature="0"
         style="fill:#ffff00;stroke-width:0.11543015" />
      <path
         id="path8699"
         d="m 53.956402,232.44444 0.76102,1.9291 c 0.197729,0.50034 0.872125,0.54225 1.141561,0.0711 l 1.038787,-1.81672 c 0.106791,-0.18679 0.296016,-0.30936 0.505746,-0.32739 l 2.034639,-0.17481 c 0.527803,-0.0453 0.784953,-0.69091 0.435493,-1.09224 l -1.348171,-1.54854 c -0.138581,-0.15957 -0.19101,-0.38022 -0.140247,-0.58982 l 0.496393,-2.03705 c 0.129064,-0.52811 -0.386475,-0.96943 -0.871889,-0.74648 l -1.872049,0.8594 c -0.193108,0.0885 -0.414666,0.0747 -0.592354,-0.0369 l -1.72795,-1.08431 c -0.448123,-0.28117 -1.024122,0.0917 -0.974405,0.63111 l 0.191049,2.08001 c 0.01981,0.21421 -0.06476,0.42634 -0.225928,0.56708 l -1.564389,1.36658 c -0.405777,0.35465 -0.246356,1.02591 0.270021,1.13671 l 1.989976,0.42575 c 0.205242,0.0432 0.374356,0.18879 0.452649,0.38747 z m 0,0"
         inkscape:connector-curvature="0"
         style="fill:#ffff00;stroke-width:0.10610922" />
      <path
         style="fill:#ffff00;stroke-width:0.11386763"
         inkscape:connector-curvature="0"
         d="m 81.142637,248.2637 -0.830711,2.06455 c -0.215185,0.53573 0.279298,1.06606 0.83691,0.89783 l 2.149998,-0.64879 c 0.221041,-0.0668 0.458908,-0.0225 0.635618,0.11815 l 1.714176,1.3653 c 0.444635,0.35422 1.121418,0.041 1.145327,-0.52957 l 0.0924,-2.20136 c 0.0097,-0.22659 0.131778,-0.43719 0.326013,-0.56302 l 1.890017,-1.22073 c 0.490275,-0.3162 0.414309,-1.04048 -0.12841,-1.225 l -2.092707,-0.71196 c -0.215761,-0.0735 -0.378188,-0.24782 -0.434258,-0.46589 l -0.546045,-2.11995 c -0.141641,-0.54976 -0.865566,-0.68433 -1.224899,-0.22738 l -1.386135,1.7615 c -0.142649,0.18151 -0.365074,0.28436 -0.594507,0.27508 l -2.227291,-0.0898 c -0.577859,-0.0232 -0.949023,0.61747 -0.628485,1.08487 l 1.23618,1.80023 c 0.128021,0.18512 0.15234,0.42335 0.06672,0.63592 z m 0,0"
         id="path8701" />
      <path
         id="path8703"
         d="m 74.230152,230.01493 -0.557897,2.9025 c -0.144279,0.75306 0.635163,1.31864 1.319265,0.95754 l 2.637668,-1.39244 c 0.271155,-0.14326 0.592492,-0.14601 0.858607,-0.008 l 2.5817,1.34384 c 0.669681,0.34869 1.47226,-0.23169 1.35834,-0.98156 l -0.439322,-2.89341 c -0.04498,-0.29784 0.0606,-0.6034 0.28181,-0.81682 l 2.153334,-2.0719 c 0.558701,-0.53685 0.275498,-1.46167 -0.478888,-1.56421 l -2.909003,-0.39593 c -0.299948,-0.041 -0.556007,-0.22689 -0.68455,-0.49689 l -1.250868,-2.62462 c -0.324432,-0.68064 -1.30233,-0.67197 -1.654546,0.015 l -1.358985,2.64868 c -0.139795,0.27289 -0.403588,0.46351 -0.705026,0.50976 l -2.926238,0.44929 c -0.759165,0.11673 -1.080092,1.04624 -0.5434,1.57402 l 2.069201,2.03236 c 0.213956,0.20876 0.306234,0.51312 0.248678,0.81199 z m 0,0"
         inkscape:connector-curvature="0"
         style="fill:#ffff00;stroke-width:0.15123072" />
      <path
         style="fill:#ffff00;stroke-width:0.04024985"
         inkscape:connector-curvature="0"
         d="m 18.908032,255.4909 0.473564,0.62812 c 0.122951,0.16288 0.373726,0.1099 0.42451,-0.0896 l 0.195747,-0.76931 c 0.02012,-0.0791 0.07688,-0.14307 0.151723,-0.1709 l 0.726069,-0.26996 c 0.188357,-0.07 0.216972,-0.33206 0.04858,-0.44338 l -0.649657,-0.42954 c -0.06682,-0.0443 -0.10833,-0.11965 -0.111002,-0.20141 l -0.02484,-0.79493 c -0.0063,-0.20612 -0.239455,-0.31524 -0.394323,-0.18458 l -0.597301,0.50375 c -0.06163,0.0519 -0.144019,0.0693 -0.220274,0.0465 l -0.741478,-0.22138 c -0.192287,-0.0574 -0.365078,0.13726 -0.292283,0.32939 l 0.280492,0.74101 c 0.02893,0.0763 0.0195,0.16241 -0.02516,0.23018 l -0.433472,0.65799 c -0.112417,0.17074 0.01384,0.39998 0.213827,0.38819 l 0.770565,-0.0459 c 0.0794,-0.005 0.155968,0.0311 0.204708,0.0958 z m 0,0"
         id="path8705" />
      <path
         id="path8707"
         d="m 8.7619559,238.5525 0.8886508,1.17868 c 0.2307196,0.30565 0.7013033,0.20623 0.7966003,-0.16813 l 0.367322,-1.44363 c 0.03776,-0.14843 0.144267,-0.26847 0.284711,-0.32069 l 1.362481,-0.50659 c 0.353455,-0.13136 0.407151,-0.62312 0.09116,-0.83201 l -1.219092,-0.80604 c -0.125389,-0.0831 -0.203283,-0.22452 -0.208297,-0.37795 l -0.04661,-1.4917 c -0.01182,-0.38678 -0.449341,-0.59155 -0.739954,-0.34636 l -1.1208452,0.94529 c -0.1156497,0.0974 -0.2702541,0.13004 -0.4133478,0.0873 l -1.391396,-0.41542 c -0.3608298,-0.10772 -0.685075,0.25757 -0.5484739,0.6181 l 0.5263479,1.39052 c 0.054288,0.14318 0.036592,0.30476 -0.047213,0.43194 l -0.8134175,1.23473 c -0.2109523,0.32039 0.025971,0.75056 0.40125,0.72844 l 1.4459782,-0.0861 c 0.1489954,-0.009 0.2926766,0.0584 0.384138,0.17977 z m 0,0"
         inkscape:connector-curvature="0"
         style="fill:#ffff00;stroke-width:0.07552952" />
      <path
         style="fill:#ff6600;stroke-width:0.10774104"
         inkscape:connector-curvature="0"
         d="m 43.931204,227.90566 c -0.439685,0.0101 -0.804259,-0.33808 -0.814372,-0.77776 -0.07446,-3.2377 -0.862063,-6.18323 -2.340724,-8.75465 -0.219259,-0.38141 -0.08774,-0.86813 0.293671,-1.08739 0.381411,-0.21927 0.868134,-0.0878 1.087376,0.29328 1.612439,2.80535 2.471155,6.00563 2.551794,9.51219 0.01011,0.43968 -0.338069,0.80425 -0.777756,0.81436 z m 0,0"
         id="path8711" />
    </g>
  </g>
</svg>
