<?xml version="1.0" encoding="UTF-8" standalone="no"?>
<!-- Created with Inkscape (http://www.inkscape.org/) -->

<svg
   xmlns:dc="http://purl.org/dc/elements/1.1/"
   xmlns:cc="http://creativecommons.org/ns#"
   xmlns:rdf="http://www.w3.org/1999/02/22-rdf-syntax-ns#"
   xmlns:svg="http://www.w3.org/2000/svg"
   xmlns="http://www.w3.org/2000/svg"
   xmlns:xlink="http://www.w3.org/1999/xlink"
   xmlns:sodipodi="http://sodipodi.sourceforge.net/DTD/sodipodi-0.dtd"
   xmlns:inkscape="http://www.inkscape.org/namespaces/inkscape"
   width="1485.2631"
   height="800"
   viewBox="0 0 392.97585 211.66668"
   version="1.1"
   id="svg13873"
   inkscape:version="0.92.2 2405546, 2018-03-11"
   sodipodi:docname="popup.svg"
   inkscape:export-filename="/home/kona/mySite/AbraKdabra/graphics/site/background2.png"
   inkscape:export-xdpi="70.400002"
   inkscape:export-ydpi="70.400002">
  <defs
     id="defs13867">
    <clipPath
       id="clipPath12658"
       clipPathUnits="userSpaceOnUse">
      <path
         inkscape:connector-curvature="0"
         id="path12656"
         d="m 361.005,244.775 h 54.371 v -50.663 h -54.371 z" />
    </clipPath>
    <clipPath
       id="clipPath12674"
       clipPathUnits="userSpaceOnUse">
      <path
         inkscape:connector-curvature="0"
         id="path12672"
         d="M 363.925,261.192 H 391.05 V 240.007 H 363.925 Z" />
    </clipPath>
    <clipPath
       id="clipPath12694"
       clipPathUnits="userSpaceOnUse">
      <path
         inkscape:connector-curvature="0"
         id="path12692"
         d="m 409.66,199.071 h 61.385 V 143.999 H 409.66 Z" />
    </clipPath>
    <clipPath
       id="clipPath12710"
       clipPathUnits="userSpaceOnUse">
      <path
         inkscape:connector-curvature="0"
         id="path12708"
         d="m 414.08,218.596 h 31.037 V 196.073 H 414.08 Z" />
    </clipPath>
    <clipPath
       id="clipPath12854"
       clipPathUnits="userSpaceOnUse">
      <path
         inkscape:connector-curvature="0"
         id="path12852"
         d="m 404.595,225.916 h 65.533 v -46.8 h -65.533 z" />
    </clipPath>
    <clipPath
       id="clipPath12870"
       clipPathUnits="userSpaceOnUse">
      <path
         inkscape:connector-curvature="0"
         id="path12868"
         d="M 412.912,252.385 H 447.94 V 235.411 H 412.912 Z" />
    </clipPath>
    <clipPath
       id="clipPath12890"
       clipPathUnits="userSpaceOnUse">
      <path
         inkscape:connector-curvature="0"
         id="path12888"
         d="m 252.764,201.581 h 49.172 v -58.514 h -49.172 z" />
    </clipPath>
    <clipPath
       id="clipPath12906"
       clipPathUnits="userSpaceOnUse">
      <path
         inkscape:connector-curvature="0"
         id="path12904"
         d="m 247.478,209.802 h 21.439 v -28.105 h -21.439 z" />
    </clipPath>
    <clipPath
       id="clipPath12926"
       clipPathUnits="userSpaceOnUse">
      <path
         inkscape:connector-curvature="0"
         id="path12924"
         d="m 273.038,246.72 h 49.089 v -63.623 h -49.089 z" />
    </clipPath>
    <clipPath
       id="clipPath12942"
       clipPathUnits="userSpaceOnUse">
      <path
         inkscape:connector-curvature="0"
         id="path12940"
         d="m 263.294,251.347 h 19.714 v -32.188 h -19.714 z" />
    </clipPath>
    <clipPath
       id="clipPath13626"
       clipPathUnits="userSpaceOnUse">
      <path
         inkscape:connector-curvature="0"
         id="path13624"
         d="m 310.246,258.216 h 28.217 v -30.642 h -28.217 z" />
    </clipPath>
    <clipPath
       id="clipPath13642"
       clipPathUnits="userSpaceOnUse">
      <path
         inkscape:connector-curvature="0"
         id="path13640"
         d="m 312.772,244.693 h 61.061 v -66.85 h -61.061 z" />
    </clipPath>
    <linearGradient
       id="grad1">
      <stop
         id="stop11086"
         stop-opacity="1.0000"
         stop-color="#a4027c"
         offset="0%" />
      <stop
         id="stop11088"
         stop-opacity="1.0000"
         stop-color="#fde079"
         offset="100%" />
    </linearGradient>
    <linearGradient
       gradientUnits="userSpaceOnUse"
       gradientTransform="matrix(0.47566003,0,0,0.25763971,121.69844,103.18498)"
       y2="859.80438"
       x2="-251.9697"
       y1="31.612612"
       x1="-251.9697"
       id="grad2"
       xlink:href="#grad1" />
    <defs
       id="defs11092">
      <linearGradient
         id="linearGradient11268">
        <stop
           offset="0%"
           stop-color="#a4027c"
           stop-opacity="1.0000"
           id="stop11264" />
        <stop
           offset="100%"
           stop-color="#fde079"
           stop-opacity="1.0000"
           id="stop11266" />
      </linearGradient>
      <linearGradient
         xlink:href="#grad1"
         id="linearGradient11270"
         x1="0"
         y1="0"
         x2="0"
         y2="1"
         gradientTransform="rotate(-63,0.5,0.5)"
         gradientUnits="objectBoundingBox" />
    </defs>
  </defs>
  <sodipodi:namedview
     id="base"
     pagecolor="#ffffff"
     bordercolor="#666666"
     borderopacity="1.0"
     inkscape:pageopacity="0.0"
     inkscape:pageshadow="2"
     inkscape:zoom="0.49497476"
     inkscape:cx="814.66966"
     inkscape:cy="362.95447"
     inkscape:document-units="mm"
     inkscape:current-layer="layer1"
     showgrid="false"
     inkscape:window-width="1366"
     inkscape:window-height="768"
     inkscape:window-x="0"
     inkscape:window-y="0"
     inkscape:window-maximized="0"
     inkscape:showpageshadow="false"
     borderlayer="true"
     units="px"
     showguides="true"
     inkscape:guide-bbox="true"
     fit-margin-top="0"
     fit-margin-left="0"
     fit-margin-right="0"
     fit-margin-bottom="0">
    <sodipodi:guide
       position="158.31232,-23.166583"
       orientation="0,1"
       id="guide3594"
       inkscape:locked="false" />
  </sodipodi:namedview>
  <metadata
     id="metadata13870">
    <rdf:RDF>
      <cc:Work
         rdf:about="">
        <dc:format>image/svg+xml</dc:format>
        <dc:type
           rdf:resource="http://purl.org/dc/dcmitype/StillImage" />
        <dc:title />
      </cc:Work>
    </rdf:RDF>
  </metadata>
  <g
     inkscape:label="Layer 1"
     inkscape:groupmode="layer"
     id="layer1"
     transform="translate(-1.9495799,-111.30363)">
    <path
       d="M 2.6293365,112.58754 V 323.4468 H 395.00142 V 112.58754 Z"
       style="fill:url(#grad2);stroke:#e40044;stroke-width:1.98465109;stroke-linecap:butt;stroke-linejoin:miter;stroke-dasharray:none"
       id="path11094"
       inkscape:connector-curvature="0" />
    <g
       id="g12777"
       style="stroke:#aa00d4;stroke-width:1.3;stroke-miterlimit:4;stroke-dasharray:none;fill:#ffff00">
      <path
         inkscape:connector-curvature="0"
         id="path11132"
         style="fill:#ffff00;fill-rule:evenodd;stroke-width:1.3;stroke:#aa00d4;stroke-miterlimit:4;stroke-dasharray:none"
         d="m 21.42435,165.50734 c 0.124196,-0.78404 0.673074,-0.95461 1.219703,-0.37912 l 2.029566,2.13641 c 0.546708,0.57539 1.635337,0.9444 2.419138,0.81994 l 2.908353,-0.46202 c 0.783775,-0.12443 1.115642,0.34452 0.737076,1.04217 l -1.403826,2.58797 c -0.378486,0.69755 -0.393303,1.84711 -0.03297,2.55423 l 1.338183,2.62618 c 0.36023,0.7071 0.01638,1.1679 -0.764117,1.02357 l -2.896737,-0.53518 c -0.7806,-0.14419 -1.878436,0.19709 -2.439617,0.7583 l -2.082853,2.08293 c -0.561261,0.56137 -1.105482,0.37674 -1.209596,-0.41002 l -0.386582,-2.92196 c -0.104061,-0.78681 -0.768006,-1.72534 -1.475264,-2.08541 l -2.623582,-1.3362 c -0.707125,-0.36018 -0.699876,-0.93451 0.01651,-1.27633 l 2.657925,-1.26822 c 0.716253,-0.34185 1.403985,-1.26294 1.528074,-2.0469 z" />
      <path
         inkscape:connector-curvature="0"
         id="path11134"
         style="fill:#ffff00;fill-rule:evenodd;stroke-width:1.3;stroke:#aa00d4;stroke-miterlimit:4;stroke-dasharray:none"
         d="m 21.229088,251.6897 c 0.198914,-1.19332 1.037537,-1.4465 1.863513,-0.56272 l 3.066706,3.28094 c 0.826109,0.88363 2.480628,1.45945 3.676703,1.27945 l 4.438068,-0.66821 c 1.196022,-0.17999 1.695979,0.5388 1.110456,1.59735 l -2.171382,3.92678 c -0.585444,1.05839 -0.622168,2.8102 -0.08176,3.89229 l 2.007024,4.01883 c 0.540253,1.08207 0.01053,1.78009 -1.177158,1.55052 l -4.408064,-0.85135 c -1.187873,-0.2294 -2.865199,0.27717 -3.727371,1.12556 l -3.199976,3.14873 c -0.862304,0.84857 -1.689418,0.56049 -1.838378,-0.63982 l -0.553109,-4.45788 c -0.148881,-1.20039 -1.149191,-2.63893 -2.222632,-3.19641 l -3.981873,-2.06875 c -1.073203,-0.55766 -1.055106,-1.43282 0.0409,-1.94492 l 4.066355,-1.9 c 1.095825,-0.51216 2.155296,-1.90741 2.354077,-3.10066 z" />
      <path
         inkscape:connector-curvature="0"
         id="path11136"
         style="fill:#ffff00;fill-rule:evenodd;stroke-width:1.3;stroke:#aa00d4;stroke-miterlimit:4;stroke-dasharray:none"
         d="m 373.62538,170.94051 c 0.81332,-0.89559 1.65547,-0.65442 1.87142,0.53583 l 0.80195,4.41884 c 0.21614,1.1902 1.29543,2.5701 2.39848,3.06636 l 4.0931,1.84105 c 1.103,0.49622 1.13419,1.37123 0.0688,1.94418 l -3.95164,2.12582 c -1.06524,0.57288 -2.04459,2.02581 -2.17609,3.22818 l -0.4885,4.46551 c -0.13163,1.20224 -0.95491,1.5023 -1.82917,0.66622 l -3.24514,-3.1024 c -0.8745,-0.83598 -2.559,-1.3182 -3.74319,-1.07175 l -4.39518,0.91478 c -1.18441,0.24656 -1.72384,-0.44347 -1.1992,-1.53329 l 1.94855,-4.04744 c 0.52475,-1.08984 0.4626,-2.84086 -0.13806,-3.89072 l -2.22771,-3.8952 c -0.60037,-1.04992 -0.11131,-1.77591 1.08741,-1.61306 l 4.44751,0.6042 c 1.19859,0.1627 2.84478,-0.43674 3.65795,-1.33233 z" />
      <path
         inkscape:connector-curvature="0"
         id="path11138"
         style="fill:#ffff00;fill-rule:evenodd;stroke-width:1.3;stroke:#aa00d4;stroke-miterlimit:4;stroke-dasharray:none"
         d="m 98.797411,160.99739 c 0.81332,-0.89562 1.655469,-0.65442 1.871419,0.53581 l 0.80195,4.41885 c 0.21614,1.19021 1.29543,2.57011 2.39848,3.06637 l 4.0931,1.84105 c 1.10299,0.49622 1.13419,1.37123 0.0688,1.94418 l -3.95164,2.12582 c -1.06524,0.57288 -2.04459,2.02581 -2.17609,3.22818 l -0.4885,4.46551 c -0.13163,1.20221 -0.95493,1.5023 -1.829169,0.66622 l -3.24514,-3.1024 c -0.8745,-0.83598 -2.559,-1.31823 -3.74319,-1.07175 l -4.39518,0.91477 c -1.18441,0.24657 -1.72384,-0.44346 -1.19923,-1.53328 l 1.94858,-4.04744 c 0.52475,-1.08984 0.4626,-2.84086 -0.13806,-3.89075 l -2.22771,-3.89517 c -0.60037,-1.04992 -0.11131,-1.77591 1.08741,-1.61306 l 4.44751,0.6042 c 1.19859,0.1627 2.84478,-0.43674 3.65795,-1.33233 z" />
      <path
         inkscape:connector-curvature="0"
         id="path11140"
         style="fill:#ffff00;fill-rule:evenodd;stroke-width:1.3;stroke:#aa00d4;stroke-miterlimit:4;stroke-dasharray:none"
         d="m 82.787945,254.60496 c 0.404574,0.32803 0.321178,0.69583 -0.185235,0.81732 l -1.880129,0.45117 c -0.506386,0.12155 -1.073547,0.61873 -1.26029,1.10482 l -0.692785,1.80375 c -0.186743,0.48609 -0.562107,0.52056 -0.834046,0.0764 l -1.008962,-1.6474 c -0.271912,-0.44408 -0.920035,-0.83005 -1.440047,-0.85762 l -1.931247,-0.10242 c -0.519959,-0.0276 -0.668761,-0.37431 -0.330438,-0.77023 l 1.255395,-1.46965 c 0.338296,-0.39603 0.50501,-1.13171 0.370549,-1.63481 l -0.499084,-1.86722 c -0.134514,-0.50318 0.149093,-0.75168 0.630211,-0.55242 l 1.786705,0.74012 c 0.481092,0.19931 1.23227,0.13041 1.669098,-0.15307 l 1.620678,-1.0514 c 0.436854,-0.28334 0.760704,-0.0906 0.719561,0.42857 l -0.152585,1.9263 c -0.04106,0.51914 0.256249,1.21232 0.660797,1.54028 z" />
      <path
         inkscape:connector-curvature="0"
         id="path11142"
         style="fill:#ffff00;fill-rule:evenodd;stroke-width:1.3;stroke:#aa00d4;stroke-miterlimit:4;stroke-dasharray:none"
         d="m 126.13601,186.05346 c 0.40454,0.32803 0.32117,0.69585 -0.18526,0.81732 l -1.88011,0.45117 c -0.50641,0.12155 -1.07354,0.61873 -1.26029,1.10482 l -0.69281,1.80374 c -0.18671,0.48609 -0.56211,0.52057 -0.83404,0.0764 l -1.00894,-1.6474 c -0.27194,-0.4441 -0.92006,-0.83008 -1.44007,-0.85765 l -1.93122,-0.10242 c -0.51996,-0.0276 -0.66879,-0.37427 -0.33044,-0.77022 l 1.25539,-1.46963 c 0.33827,-0.39606 0.50499,-1.13173 0.37053,-1.63484 l -0.49906,-1.86721 c -0.13452,-0.50319 0.14909,-0.75168 0.63018,-0.55243 l 1.78671,0.74012 c 0.48112,0.19931 1.23229,0.13042 1.66912,-0.15306 l 1.62068,-1.0514 c 0.43683,-0.28334 0.76068,-0.0906 0.71956,0.42857 l -0.15261,1.9263 c -0.0411,0.51914 0.25625,1.21232 0.66082,1.54027 z" />
      <path
         inkscape:connector-curvature="0"
         id="path11144"
         style="fill:#ffff00;fill-rule:evenodd;stroke-width:1.3;stroke:#aa00d4;stroke-miterlimit:4;stroke-dasharray:none"
         d="m 32.532564,188.34374 c 0.404548,0.32803 0.321178,0.69583 -0.185261,0.81733 l -1.880103,0.45114 c -0.506412,0.12157 -1.073573,0.61875 -1.260316,1.10484 l -0.692785,1.80375 c -0.186743,0.48606 -0.562107,0.52057 -0.834046,0.0764 l -1.008962,-1.6474 c -0.271913,-0.44408 -0.920036,-0.83008 -1.440048,-0.85765 l -1.931247,-0.10242 c -0.519932,-0.0276 -0.66876,-0.37428 -0.330438,-0.7702 l 1.255422,-1.46965 c 0.33827,-0.39603 0.504984,-1.13173 0.370522,-1.63481 l -0.499057,-1.86724 c -0.13454,-0.50316 0.149093,-0.75166 0.630185,-0.5524 l 1.786705,0.74009 c 0.481118,0.19934 1.232296,0.13044 1.669097,-0.15303 l 1.620705,-1.0514 c 0.436827,-0.28337 0.760677,-0.0906 0.719561,0.42857 l -0.152612,1.9263 c -0.04106,0.51914 0.256249,1.21229 0.660797,1.54027 z" />
      <path
         inkscape:connector-curvature="0"
         id="path11146"
         style="fill:#ffff00;fill-rule:evenodd;stroke-width:1.3;stroke:#aa00d4;stroke-miterlimit:4;stroke-dasharray:none"
         d="m 142.44273,265.20073 c 0.40457,0.32803 0.32117,0.69585 -0.18524,0.81732 l -1.88013,0.45117 c -0.50638,0.12158 -1.07354,0.61873 -1.26029,1.10482 l -0.69278,1.80377 c -0.18674,0.48607 -0.56211,0.52054 -0.83407,0.0764 l -1.00894,-1.64741 c -0.27191,-0.4441 -0.92006,-0.83007 -1.44005,-0.85764 l -1.93124,-0.10242 c -0.51996,-0.0276 -0.66876,-0.37428 -0.33044,-0.77023 l 1.25539,-1.46963 c 0.33827,-0.39605 0.50501,-1.13173 0.37053,-1.63483 l -0.49906,-1.86722 c -0.13452,-0.50319 0.14909,-0.75168 0.63018,-0.5524 l 1.78673,0.74009 c 0.4811,0.19931 1.23227,0.13042 1.6691,-0.15306 l 1.62068,-1.05137 c 0.43683,-0.28337 0.76068,-0.0907 0.71956,0.42854 l -0.15258,1.9263 c -0.0411,0.51914 0.25625,1.21232 0.66079,1.54027 z" />
      <path
         inkscape:connector-curvature="0"
         id="path11198"
         style="fill:#ffff00;fill-rule:evenodd;stroke-width:1.3;stroke:#aa00d4;stroke-miterlimit:4;stroke-dasharray:none"
         d="m 132.08762,259.89432 c 0.17177,0.13925 0.13637,0.29538 -0.0786,0.34698 l -0.79814,0.1915 c -0.21498,0.0516 -0.45575,0.26266 -0.53502,0.46903 l -0.29411,0.7657 c -0.0793,0.20635 -0.2386,0.22101 -0.35406,0.0324 l -0.42831,-0.69934 c -0.11544,-0.18852 -0.39058,-0.35238 -0.61132,-0.3641 l -0.81986,-0.0435 c -0.22072,-0.0117 -0.2839,-0.15888 -0.14026,-0.32697 l 0.53292,-0.62389 c 0.14362,-0.16811 0.2144,-0.48043 0.1573,-0.694 l -0.21185,-0.79267 c -0.0571,-0.21362 0.0633,-0.31911 0.26752,-0.2345 l 0.7585,0.31417 c 0.20424,0.0846 0.52311,0.0554 0.70856,-0.065 l 0.68799,-0.44636 c 0.18545,-0.12028 0.32293,-0.0385 0.30547,0.18193 l -0.0648,0.81778 c -0.0174,0.22037 0.10879,0.51464 0.28051,0.65386 z" />
      <path
         inkscape:connector-curvature="0"
         id="path11200"
         style="fill:#ffff00;fill-rule:evenodd;stroke-width:1.3;stroke:#aa00d4;stroke-miterlimit:4;stroke-dasharray:none"
         d="m 376.53026,202.51641 c 0.40455,0.32803 0.32115,0.69583 -0.18526,0.81733 l -1.88013,0.45116 c -0.50638,0.12155 -1.07355,0.61873 -1.26029,1.10482 l -0.69278,1.80375 c -0.18675,0.48606 -0.56211,0.52057 -0.83405,0.0764 l -1.00896,-1.6474 c -0.27191,-0.44407 -0.92004,-0.83005 -1.44005,-0.85762 l -1.93125,-0.10242 c -0.51993,-0.0276 -0.66876,-0.3743 -0.33043,-0.77023 l 1.25539,-1.46965 c 0.3383,-0.39603 0.50501,-1.13173 0.37055,-1.63481 l -0.49908,-1.86722 c -0.13452,-0.50318 0.14912,-0.75168 0.63021,-0.55242 l 1.7867,0.74012 c 0.48112,0.19931 1.2323,0.13041 1.6691,-0.15306 l 1.62071,-1.0514 c 0.43682,-0.28335 0.76067,-0.0906 0.71953,0.42857 l -0.15259,1.9263 c -0.0411,0.51914 0.25625,1.21232 0.6608,1.54027 z" />
      <path
         inkscape:connector-curvature="0"
         id="path11202"
         style="fill:#ffff00;fill-rule:evenodd;stroke-width:1.3;stroke:#aa00d4;stroke-miterlimit:4;stroke-dasharray:none"
         d="m 382.1416,193.78813 c 0.17174,0.13925 0.13636,0.29538 -0.0786,0.34694 l -0.79814,0.19154 c -0.21497,0.0516 -0.45574,0.26265 -0.53501,0.46902 l -0.29411,0.76571 c -0.0793,0.20635 -0.23863,0.221 -0.35407,0.0324 l -0.42831,-0.69934 c -0.11543,-0.18852 -0.39057,-0.35237 -0.61132,-0.3641 l -0.81986,-0.0435 c -0.22072,-0.0117 -0.2839,-0.15888 -0.14026,-0.32697 l 0.53293,-0.62389 c 0.14361,-0.16811 0.21439,-0.48043 0.15729,-0.694 l -0.21185,-0.79266 c -0.0571,-0.21363 0.0633,-0.31912 0.26752,-0.2345 l 0.75848,0.31416 c 0.20426,0.0846 0.52314,0.0554 0.70858,-0.065 l 0.688,-0.44632 c 0.18545,-0.12028 0.32292,-0.0385 0.30546,0.18192 l -0.0648,0.81775 c -0.0174,0.2204 0.10877,0.51467 0.28051,0.65389 z" />
      <path
         inkscape:connector-curvature="0"
         id="path11204"
         style="fill:#ffff00;fill-rule:evenodd;stroke-width:1.3;stroke:#aa00d4;stroke-miterlimit:4;stroke-dasharray:none"
         d="m 288.65507,186.2978 c 0.17174,0.13925 0.13637,0.29538 -0.0786,0.34697 l -0.79814,0.19151 c -0.21498,0.0516 -0.45575,0.26268 -0.53502,0.46902 l -0.29411,0.76574 c -0.0793,0.20632 -0.2386,0.22098 -0.35406,0.0324 l -0.42831,-0.69935 c -0.11544,-0.18852 -0.39058,-0.35237 -0.61132,-0.36407 l -0.81986,-0.0435 c -0.22072,-0.0117 -0.2839,-0.15889 -0.14026,-0.32698 l 0.53292,-0.62388 c 0.14362,-0.16812 0.2144,-0.48043 0.1573,-0.69401 l -0.21185,-0.79266 c -0.0571,-0.21363 0.0633,-0.31911 0.26752,-0.2345 l 0.75848,0.31417 c 0.20426,0.0846 0.52313,0.0554 0.70858,-0.065 l 0.68799,-0.44635 c 0.18545,-0.12028 0.32293,-0.0385 0.30547,0.18195 l -0.0648,0.81775 c -0.0174,0.22037 0.10877,0.51464 0.28051,0.65386 z" />
      <path
         inkscape:connector-curvature="0"
         id="path11206"
         style="fill:#ffff00;fill-rule:evenodd;stroke-width:1.3;stroke:#aa00d4;stroke-miterlimit:4;stroke-dasharray:none"
         d="m 38.622875,170.17811 c 0.171741,0.13925 0.13634,0.29541 -0.07866,0.34698 l -0.798142,0.19153 c -0.214974,0.0516 -0.455745,0.26265 -0.535014,0.469 l -0.294085,0.76573 c -0.0793,0.20635 -0.238627,0.22098 -0.354091,0.0324 l -0.428308,-0.69935 c -0.115438,-0.18854 -0.390578,-0.3524 -0.61132,-0.36409 l -0.819838,-0.0435 c -0.220742,-0.0118 -0.283924,-0.15891 -0.140282,-0.32698 l 0.532924,-0.62388 c 0.143616,-0.16815 0.214392,-0.48046 0.157295,-0.69403 l -0.211852,-0.79267 c -0.0571,-0.2136 0.06329,-0.31908 0.26752,-0.2345 l 0.758508,0.3142 c 0.204231,0.0846 0.523107,0.0554 0.708554,-0.065 l 0.687996,-0.44632 c 0.185446,-0.12031 0.322924,-0.0385 0.305461,0.18193 l -0.06477,0.81774 c -0.01744,0.22037 0.108797,0.51464 0.280538,0.65387 z" />
      <path
         inkscape:connector-curvature="0"
         id="path11208"
         style="fill:#ffff00;fill-rule:evenodd;stroke-width:1.3;stroke:#aa00d4;stroke-miterlimit:4;stroke-dasharray:none"
         d="m 248.55041,269.35691 c 0.17174,0.13925 0.13634,0.29541 -0.0786,0.34697 l -0.79814,0.19153 c -0.21497,0.0516 -0.45575,0.26266 -0.53501,0.46901 l -0.29412,0.76573 c -0.0793,0.20634 -0.23862,0.22098 -0.35406,0.0324 l -0.42831,-0.69934 c -0.11544,-0.18855 -0.39058,-0.3524 -0.61134,-0.3641 l -0.81984,-0.0435 c -0.22072,-0.0117 -0.2839,-0.15891 -0.14028,-0.32697 l 0.53295,-0.62389 c 0.14361,-0.16814 0.21439,-0.48045 0.15729,-0.69403 l -0.21185,-0.79266 c -0.0571,-0.2136 0.0633,-0.31909 0.26752,-0.2345 l 0.75848,0.31419 c 0.20423,0.0846 0.52313,0.0553 0.70858,-0.065 l 0.688,-0.44633 c 0.18544,-0.1203 0.32292,-0.0385 0.30546,0.18193 l -0.0648,0.81775 c -0.0174,0.22037 0.10877,0.51464 0.28051,0.65386 z" />
      <path
         inkscape:connector-curvature="0"
         id="path11210"
         style="fill:#ffff00;fill-rule:evenodd;stroke-width:1.3;stroke:#aa00d4;stroke-miterlimit:4;stroke-dasharray:none"
         d="m 190.01928,243.17247 c 0.17174,0.13925 0.13634,0.29538 -0.0786,0.34698 l -0.79814,0.1915 c -0.21498,0.0516 -0.45575,0.26268 -0.53502,0.46903 l -0.29411,0.76573 c -0.0793,0.20632 -0.23863,0.22098 -0.35406,0.0324 l -0.42831,-0.69935 c -0.11544,-0.18851 -0.39058,-0.35237 -0.61135,-0.36406 l -0.81984,-0.0435 c -0.22071,-0.0117 -0.28389,-0.15888 -0.14028,-0.32697 l 0.53295,-0.62389 c 0.14362,-0.16812 0.21439,-0.48043 0.1573,-0.694 l -0.21186,-0.79267 c -0.0571,-0.21362 0.0633,-0.31911 0.26752,-0.2345 l 0.75849,0.31417 c 0.20423,0.0846 0.52313,0.0554 0.70858,-0.065 l 0.68799,-0.44635 c 0.18545,-0.12028 0.32293,-0.0385 0.30546,0.18196 l -0.0648,0.81774 c -0.0174,0.22038 0.10877,0.51464 0.28052,0.65387 z" />
      <path
         inkscape:connector-curvature="0"
         id="path11212"
         style="fill:#ffff00;fill-rule:evenodd;stroke-width:1.3;stroke:#aa00d4;stroke-miterlimit:4;stroke-dasharray:none"
         d="m 331.79142,260.42643 c 0.17174,0.13927 0.13634,0.2954 -0.0787,0.34697 l -0.79815,0.19153 c -0.21497,0.0516 -0.45571,0.26266 -0.53501,0.46903 l -0.29408,0.7657 c -0.0793,0.20635 -0.23863,0.22101 -0.35407,0.0324 l -0.42833,-0.69934 c -0.11544,-0.18852 -0.39058,-0.35238 -0.61132,-0.3641 l -0.81984,-0.0435 c -0.22074,-0.0117 -0.2839,-0.15888 -0.14028,-0.32697 l 0.53292,-0.62389 c 0.14362,-0.16811 0.21439,-0.48043 0.15732,-0.694 L 328.21,258.68759 c -0.0571,-0.21362 0.0633,-0.31911 0.26752,-0.23452 l 0.75851,0.31419 c 0.20423,0.0846 0.52311,0.0554 0.70856,-0.065 l 0.68799,-0.44633 c 0.18545,-0.12028 0.32295,-0.0385 0.30549,0.18193 l -0.0648,0.81775 c -0.0174,0.2204 0.1088,0.51464 0.28054,0.65389 z" />
      <path
         inkscape:connector-curvature="0"
         id="path11214"
         style="fill:#ffff00;fill-rule:evenodd;stroke-width:1.3;stroke:#aa00d4;stroke-miterlimit:4;stroke-dasharray:none"
         d="m 339.04751,176.57928 c 0.17174,0.13928 0.13634,0.29541 -0.0786,0.34698 l -0.79814,0.19153 c -0.21497,0.0516 -0.45574,0.26265 -0.53501,0.469 l -0.29411,0.76573 c -0.0793,0.20635 -0.23863,0.22098 -0.35407,0.0324 l -0.42833,-0.69935 c -0.11541,-0.18854 -0.39055,-0.3524 -0.61132,-0.36409 l -0.81984,-0.0435 c -0.22071,-0.0117 -0.2839,-0.15891 -0.14028,-0.32698 l 0.53295,-0.62388 c 0.14359,-0.16815 0.21436,-0.48043 0.15729,-0.69401 l -0.21187,-0.79269 c -0.0571,-0.21359 0.0633,-0.31908 0.26754,-0.2345 l 0.75848,0.3142 c 0.20424,0.0846 0.52314,0.0554 0.70856,-0.065 l 0.68802,-0.44632 c 0.18545,-0.12031 0.32292,-0.0385 0.30546,0.18193 l -0.0648,0.81774 c -0.0174,0.2204 0.10877,0.51464 0.28051,0.65387 z" />
      <path
         inkscape:connector-curvature="0"
         id="path11216"
         style="fill:#ffff00;fill-rule:evenodd;stroke-width:1.3;stroke:#aa00d4;stroke-miterlimit:4;stroke-dasharray:none"
         d="m 372.77942,231.19902 c 0.17174,0.13925 0.13637,0.29538 -0.0786,0.34697 l -0.79814,0.19151 c -0.21498,0.0516 -0.45575,0.26268 -0.53502,0.46902 l -0.29411,0.76574 c -0.0793,0.20634 -0.2386,0.22098 -0.35406,0.0324 l -0.42831,-0.69935 c -0.11544,-0.18852 -0.39058,-0.35237 -0.61132,-0.36407 l -0.81987,-0.0435 c -0.22071,-0.0117 -0.28389,-0.15889 -0.14025,-0.32698 l 0.53292,-0.62388 c 0.14362,-0.16812 0.21439,-0.48043 0.1573,-0.69401 l -0.21185,-0.79266 c -0.0571,-0.2136 0.0633,-0.31909 0.26752,-0.2345 l 0.75848,0.31419 c 0.20426,0.0846 0.52313,0.0553 0.70858,-0.065 l 0.68799,-0.44633 c 0.18545,-0.1203 0.32293,-0.0385 0.30547,0.18193 l -0.0648,0.81775 c -0.0174,0.22037 0.10877,0.51464 0.28051,0.65386 z" />
      <path
         inkscape:connector-curvature="0"
         id="path11218"
         style="fill:#ffff00;fill-rule:evenodd;stroke-width:1.3;stroke:#aa00d4;stroke-miterlimit:4;stroke-dasharray:none"
         d="m 336.38112,220.52313 c 0.17174,0.13925 0.13634,0.29541 -0.0787,0.34698 l -0.79815,0.19153 c -0.21497,0.0516 -0.45571,0.26265 -0.53501,0.469 l -0.29408,0.76573 c -0.0793,0.20635 -0.23863,0.22098 -0.35407,0.0324 l -0.42833,-0.69935 c -0.11544,-0.18854 -0.39058,-0.3524 -0.61132,-0.36409 l -0.81984,-0.0435 c -0.22074,-0.0118 -0.2839,-0.15891 -0.14028,-0.32697 l 0.53292,-0.62389 c 0.14362,-0.16814 0.21439,-0.48046 0.15732,-0.69403 l -0.21188,-0.79267 c -0.0571,-0.21359 0.0633,-0.31908 0.26752,-0.2345 l 0.75851,0.3142 c 0.20423,0.0846 0.52311,0.0553 0.70856,-0.065 l 0.68799,-0.44633 c 0.18545,-0.12031 0.32293,-0.0385 0.30549,0.18193 l -0.0648,0.81775 c -0.0174,0.22037 0.1088,0.51464 0.28054,0.65386 z" />
      <path
         inkscape:connector-curvature="0"
         id="path11220"
         style="fill:#ffff00;fill-rule:evenodd;stroke-width:1.3;stroke:#aa00d4;stroke-miterlimit:4;stroke-dasharray:none"
         d="m 115.06931,254.29286 c 0.17174,0.13927 0.13634,0.2954 -0.0786,0.34697 l -0.79814,0.19153 c -0.21497,0.0516 -0.45574,0.26265 -0.53501,0.469 l -0.29411,0.76573 c -0.0793,0.20635 -0.23863,0.22098 -0.35407,0.0324 l -0.42831,-0.69934 c -0.11544,-0.18855 -0.39058,-0.3524 -0.61134,-0.3641 l -0.81984,-0.0435 c -0.22072,-0.0117 -0.2839,-0.15891 -0.14028,-0.32697 l 0.53295,-0.62389 c 0.14361,-0.16814 0.21439,-0.48043 0.15729,-0.694 L 111.488,252.554 c -0.0571,-0.2136 0.0633,-0.31909 0.26752,-0.2345 l 0.75848,0.31419 c 0.20423,0.0846 0.52313,0.0554 0.70858,-0.065 l 0.688,-0.44633 c 0.18544,-0.1203 0.32292,-0.0385 0.30546,0.18193 l -0.0648,0.81775 c -0.0174,0.2204 0.10877,0.51464 0.28051,0.65386 z" />
      <path
         inkscape:connector-curvature="0"
         id="path11222"
         style="fill:#ffff00;fill-rule:evenodd;stroke-width:1.3;stroke:#aa00d4;stroke-miterlimit:4;stroke-dasharray:none"
         d="m 227.92947,178.01203 c 0.17174,0.13925 0.13634,0.29538 -0.0787,0.34695 l -0.79814,0.19153 c -0.21498,0.0516 -0.45572,0.26265 -0.53502,0.46902 l -0.29408,0.76571 c -0.0793,0.20635 -0.23863,0.221 -0.35407,0.0324 l -0.42833,-0.69935 c -0.11544,-0.18852 -0.39058,-0.35237 -0.61132,-0.36409 l -0.81984,-0.0435 c -0.22074,-0.0117 -0.2839,-0.15889 -0.14028,-0.32698 l 0.53292,-0.62388 c 0.14362,-0.16812 0.21439,-0.48043 0.15732,-0.69401 l -0.21187,-0.79266 c -0.0571,-0.21363 0.0633,-0.31912 0.26752,-0.23453 l 0.7585,0.31419 c 0.20423,0.0846 0.52311,0.0554 0.70856,-0.065 l 0.68799,-0.44632 c 0.18545,-0.12028 0.32293,-0.0385 0.30549,0.18192 l -0.0648,0.81775 c -0.0174,0.2204 0.1088,0.51467 0.28054,0.65389 z" />
      <path
         inkscape:connector-curvature="0"
         id="path11224"
         style="fill:#ffff00;fill-rule:evenodd;stroke-width:1.3;stroke:#aa00d4;stroke-miterlimit:4;stroke-dasharray:none"
         d="m 285.98149,245.87202 c 0.17174,0.13925 0.13634,0.29538 -0.0786,0.34697 l -0.79814,0.19151 c -0.21497,0.0516 -0.45575,0.26267 -0.53501,0.46902 l -0.29412,0.76573 c -0.0793,0.20635 -0.23862,0.22098 -0.35406,0.0324 l -0.42833,-0.69934 c -0.11542,-0.18852 -0.39056,-0.35237 -0.61132,-0.36407 l -0.81984,-0.0435 c -0.22074,-0.0117 -0.2839,-0.15888 -0.14028,-0.32697 l 0.53295,-0.62389 c 0.14359,-0.16811 0.21436,-0.48043 0.15729,-0.694 l -0.21188,-0.79266 c -0.0571,-0.2136 0.0633,-0.31909 0.26755,-0.2345 l 0.75848,0.31419 c 0.20423,0.0846 0.52313,0.0553 0.70855,-0.065 l 0.68803,-0.44633 c 0.18544,-0.1203 0.32292,-0.0385 0.30546,0.18193 l -0.0648,0.81775 c -0.0174,0.22037 0.10877,0.51464 0.28051,0.65386 z" />
      <path
         inkscape:connector-curvature="0"
         id="path11247"
         style="fill:#ffff00;fill-rule:evenodd;stroke-width:1.3;stroke:#aa00d4;stroke-miterlimit:4;stroke-dasharray:none"
         d="m 286.81691,176.90578 c 0.40455,0.32803 0.32118,0.69585 -0.18526,0.81735 l -1.88011,0.45114 c -0.50641,0.12158 -1.07357,0.61873 -1.26031,1.10482 l -0.69279,1.80377 c -0.18674,0.48607 -0.5621,0.52054 -0.83404,0.0764 l -1.00897,-1.64741 c -0.27191,-0.4441 -0.92003,-0.83007 -1.44004,-0.85764 l -1.93125,-0.10242 c -0.51993,-0.0276 -0.66876,-0.37428 -0.33044,-0.77023 l 1.25542,-1.46963 c 0.33827,-0.39605 0.50499,-1.13173 0.37053,-1.63483 l -0.49906,-1.86722 c -0.13452,-0.50319 0.14909,-0.75168 0.63018,-0.5524 l 1.78671,0.74009 c 0.48112,0.19932 1.23229,0.13042 1.6691,-0.15306 l 1.6207,-1.05137 c 0.43683,-0.28337 0.76068,-0.0906 0.71956,0.42854 l -0.15261,1.9263 c -0.0411,0.51914 0.25625,1.21232 0.66082,1.5403 z" />
    </g>
    <g
       transform="matrix(0.28729414,0,0,0.28729414,124.45637,144.07613)"
       id="g3168"
       style="stroke:#aa00d4;stroke-width:5.07294035;stroke-miterlimit:4;stroke-dasharray:none">
      <path
         d="m -294.4694,69.2776 c 28.8236,0 48.9038,27.5499 60.24,82.6492 l 20.0802,105.8048 c 3.0755,26.2754 10.018,71.0491 20.8708,134.4088 l 5.4045,47.8934 c 0,1.7136 -3.6031,4.1741 -10.8528,7.4257 -7.2062,3.2956 -10.9409,3.3834 -11.1606,0.3516 -0.2634,-3.076 -0.3953,-6.4153 -0.3953,-10.1059 l -14.6757,-96.5337 c 0,-4.6576 -5.6683,-6.9862 -17.0042,-6.9862 -11.4244,0 -31.9877,-3.8666 -61.7784,-11.556 h -0.7906 c -1.0108,0 -1.538,1.8014 -1.538,5.4045 l -13.8846,40.9068 25.4847,9.2711 7.7331,4.6576 c 6.5027,10.5453 5.2286,16.477 -3.8665,17.7516 -25.5725,-11.3363 -41.7861,-17.0046 -48.6845,-17.0046 h -2.2849 c -1.8892,0 -5.2285,0 -9.9302,0 -4.7013,0 -8.6119,0 -11.7316,0 l -9.2711,3.1196 h -1.5379 c -1.1864,0 -1.977,-1.3179 -2.2846,-3.8666 0,-8.7438 10.8087,-13.6649 32.4268,-14.6756 5.1407,-12.2588 7.7332,-21.0468 7.7332,-26.2753 3.9106,-9.8424 6.7664,-19.1135 8.4804,-27.8133 -5.2289,-2.0652 -11.4241,-3.0759 -18.5422,-3.0759 h -7.7335 c -10.2814,1.9774 -15.4225,5.8439 -15.4225,11.6001 l 1.5379,1.5379 h 0.7469 l 10.0622,-1.5379 c 3.7787,0 5.8439,2.5483 6.1951,7.6894 2.0215,0.8785 3.076,2.6802 3.076,5.4482 0,6.1515 -5.4046,9.227 -16.2136,9.227 -13.9287,-1.8892 -20.8708,-7.2937 -20.8708,-16.2132 l -0.7469,-0.7469 c 3.4271,-15.9939 8.3044,-23.9467 14.6756,-23.9467 0,-1.6258 6.9421,-3.4272 20.8267,-5.4045 l 26.2757,3.0755 c 3.6027,-7.7331 16.7404,-68.7201 39.3692,-183.0491 l 3.8666,-30.0982 c 0,-2.4164 -3.0759,-4.4816 -9.2711,-6.1952 h -2.2849 c -7.7331,5.4924 -11.6001,10.8969 -11.6001,16.2132 v 2.329 l 0.7473,5.4046 -6.1514,2.3286 c -7.1181,-3.6032 -10.7213,-6.9862 -10.8091,-10.0622 5.8877,-19.5525 14.4118,-29.3512 25.4847,-29.3512 z m -6.1956,232.4805 35.5465,6.9425 c 14.324,4.1304 26.1437,6.1955 35.5026,6.1955 v -0.791 c -5.6679,-38.6223 -16.6967,-96.5337 -33.1737,-173.778 0,-2.0652 -0.5272,-3.0759 -1.582,-3.0759 -1.8892,0 -6.2393,20.6073 -13.0936,61.778 z"
         style="fill:#b1c900;fill-rule:evenodd;stroke:#aa00d4;stroke-width:5.07294035;stroke-miterlimit:4;stroke-dasharray:none"
         id="path3148"
         inkscape:connector-curvature="0" />
      <path
         d="m -163.2587,70.8623 c 4.2622,-0.3953 7.1181,2.4168 8.48,8.5241 l 0.2638,3.0759 v 131.0258 c 1.1864,13.4011 1.362,23.9904 0.5273,31.8117 l 1.5379,-0.2638 c 7.5575,-10.9847 15.7742,-16.8723 24.6937,-17.6192 l 11.5997,-1.0549 c 11.2484,4.306 17.8393,11.9513 19.8163,22.9364 1.9774,10.9846 -1.2301,30.0978 -9.6223,57.3838 -8.4364,27.3302 -23.9467,46.3996 -46.6193,57.2964 -3.4271,0.3516 -6.5908,2.7243 -9.5345,7.074 -2.8121,0.2638 -5.3167,-1.8451 -7.4697,-6.2829 2.2408,-32.6906 1.8455,-65.7328 -1.1426,-99.1262 -0.3513,-2.944 -1.8892,-37.5238 -4.6572,-103.7397 l -2.9441,-33.8769 c -0.791,-8.7439 -3.4712,-12.918 -8.1288,-12.4786 l -2.6802,-4.3937 c 2.0652,-7.9529 5.8439,-12.2152 11.3363,-12.7424 3.3393,-3.7787 6.4589,-11.7757 9.403,-24.0786 z m 7.2059,271.7619 0.3957,4.6135 0.7469,-0.1319 c 31.3283,-22.9797 44.5978,-53.6932 39.8083,-92.1396 -0.8784,-9.1833 -4.3938,-13.533 -10.5889,-13.0057 l -1.4061,0.1315 c -6.7669,0.5713 -13.0499,6.0199 -18.806,16.3455 -7.2059,10.5452 -9.9302,25.6603 -8.2166,45.301 z"
         style="fill:#e40044;fill-rule:evenodd;stroke:#aa00d4;stroke-width:5.07294035;stroke-miterlimit:4;stroke-dasharray:none"
         id="path3150"
         inkscape:connector-curvature="0" />
      <path
         d="m 14.4109,182.6362 c 12.0391,-2.2411 18.015,-2.197 18.015,0.2198 0.791,0 1.8014,2.8121 3.1196,8.48 0,1.2742 -1.7136,3.691 -5.1407,7.2059 -3.4713,3.5154 -9.6668,5.7121 -18.6741,6.5909 -9.0077,0.8347 -19.5529,7.4697 -31.5483,19.8163 -22.8482,23.8589 -34.6235,37.7435 -35.4145,41.6542 -0.747,3.8666 -0.8789,17.5755 -0.3075,41.1265 0.5709,23.5073 2.3727,37.2163 5.4923,41.1711 v 0.7906 c 0,7.2059 -1.7577,9.4908 -5.1848,6.9425 -3.4272,-2.5924 -8.6561,-3.8666 -15.6864,-3.8666 -1.0544,-0.2638 -2.0648,-1.5379 -3.0755,-3.8665 l 1.5379,-24.6937 c -1.6257,-55.0115 -4.3941,-85.6369 -8.2607,-91.7883 -3.8666,-6.1956 -3.2074,-10.4575 1.9333,-12.7424 5.1411,-2.3286 10.0621,-5.6679 14.6756,-9.9739 4.6576,-4.3501 7.9969,-9.9302 10.0621,-16.8286 2.153,-2.0652 4.1741,-3.0759 6.1515,-3.0759 h 1.5379 l 4.6573,4.6135 v 10.8531 c -6.6787,11.1166 -10.0618,20.168 -10.0618,27.0223 h 0.7907 c 9.0076,-9.6227 19.1576,-19.7286 30.4497,-30.3179 11.2922,-10.589 22.936,-17.0483 34.9314,-19.3329 z"
         style="fill:#ffcb00;fill-rule:evenodd;stroke:#aa00d4;stroke-width:5.07294035;stroke-miterlimit:4;stroke-dasharray:none"
         id="path3152"
         inkscape:connector-curvature="0" />
      <path
         d="m 92.7063,198.9309 h 0.7469 c 3.1196,0 11.5997,8.4801 25.5284,25.4847 2.3727,0 6.7669,14.148 13.0939,42.4885 3.3831,49.9586 6.7228,74.916 10.0622,74.916 0,1.8014 4.1299,9.0073 12.3466,21.6178 v 6.1955 l -1.538,1.538 c -7.8209,0 -16.5648,-5.9318 -26.2753,-17.7516 -4.2619,-9.2711 -7.1181,-13.9287 -8.4801,-13.9287 -2.0651,0 -13.138,6.1956 -33.2178,18.5422 -5.4923,1.538 -10.1062,2.329 -13.8849,2.329 -10.589,0 -20.0798,-8.2607 -28.6039,-24.7377 l -2.2849,-9.227 c 0,-13.0499 5.8876,-27.4621 17.7511,-43.2799 17.6637,-18.015 30.2742,-27.0223 37.8313,-27.0223 5.1411,-0.6154 7.7335,-1.3623 7.7335,-2.329 0,-12.4344 -2.5924,-22.2327 -7.7335,-29.3508 -3.2511,-5.1411 -7.6453,-7.7335 -13.1376,-7.7335 -4.7892,0 -8.9195,5.9317 -12.3467,17.7952 l -3.0759,0.7469 c -2.2408,0 -4.5694,-2.0651 -6.9421,-6.1514 -1.4061,0 -2.6802,-1.3179 -3.8666,-3.8666 2.9878,-9.3589 8.6557,-16.8286 16.9602,-22.4087 8.3485,-2.5924 14.7634,-3.8666 19.3332,-3.8666 z M 64.893,328.6825 c 0.5272,9.2711 2.0652,13.9283 4.6576,13.9283 14.0602,-2.5924 25.6603,-6.459 34.7554,-11.5997 l 8.4804,-7.7332 v -0.7469 l -6.9425,-54.089 -2.3286,-2.3286 c -10.1062,2.8559 -21.4421,12.8739 -33.9647,30.1419 z"
         style="fill:#f07c00;fill-rule:evenodd;stroke:#aa00d4;stroke-width:5.07294035;stroke-miterlimit:4;stroke-dasharray:none"
         id="path3154"
         inkscape:connector-curvature="0" />
      <path
         d="m 311.3149,58.6023 c 1.8896,0 4.4379,2.0652 7.6894,6.1515 l -10.809,17.0042 c -5.053,16.477 -13.2255,35.898 -24.5618,58.3072 -11.3363,22.4087 -21.6618,38.5782 -30.977,48.5521 -9.3152,9.9302 -13.9724,17.0483 -13.9724,21.3543 11.5997,7.997 21.574,18.8938 29.9222,32.6906 8.3923,13.8409 12.2588,31.5042 11.6001,53.0341 -0.6592,21.5303 0.5272,41.2589 3.559,59.0978 2.9878,17.8394 6.4149,34.1845 10.2378,48.992 3.7787,14.8071 -4.0426,9.5345 -23.5073,-15.7742 -5.7562,-34.4919 -8.173,-61.7339 -7.2941,-81.6821 0.9229,-19.9483 -1.2742,-36.8651 -6.5468,-50.7056 -5.2726,-13.8846 -11.5119,-23.1556 -18.7178,-27.901 h -3.1196 c -15.4226,2.1529 -23.1561,9.8861 -23.1561,23.1994 -3.0755,35.8543 -7.9528,70.0824 -14.5437,102.7293 l -0.791,13.0935 c 0,3.691 4.1303,7.5575 12.3911,11.6001 l 5.4041,5.4045 v 1.5376 c 0,1.8896 -5.9317,3.4275 -17.7952,4.6576 l -22.3647,9.2711 c -3.6031,-1.0545 -5.4045,-2.0652 -5.4045,-3.1196 v -1.538 l 11.556,-20.0798 c 3.1196,-14.7638 6.8983,-50.2661 11.4678,-106.5958 7.2062,-44.0269 13.8849,-95.7428 20.0801,-155.2359 l -0.7907,-0.7469 h -0.7469 c -12.7864,4.9651 -25.3528,14.324 -37.7435,28.1208 -12.347,13.7527 -17.3121,12.962 -14.8516,-2.4605 2.4605,-15.3789 9.8865,-24.65 22.321,-27.7255 12.4789,-3.1196 20.036,-7.9091 22.8044,-14.5 2.7243,-6.5468 5.5801,-10.589 8.4801,-12.0391 2.944,-1.4502 6.9425,-2.1971 12.1273,-2.2408 5.1407,-0.0441 7.689,3.559 7.689,10.7649 -7.2059,64.3264 -12.0832,103.7397 -14.6756,118.1515 4.482,0 16.8286,-14.939 37.0847,-44.7738 16.2132,-28.2527 27.8133,-56.8129 34.7554,-85.7684 v -3.0759 l -3.8665,-8.4801 c 0,-3.6031 6.9862,-5.4045 20.8711,-5.4045 1.977,-2.0652 4.0422,-3.3831 6.1952,-3.8666 z"
         style="fill:#5bc3cd;fill-rule:evenodd;stroke:#aa00d4;stroke-width:5.07294035;stroke-miterlimit:4;stroke-dasharray:none"
         id="path3156"
         inkscape:connector-curvature="0" />
      <path
         d="m 411.5624,81.0182 c 2.8121,0.2638 5.0088,1.3182 6.5468,3.2074 -4.2619,76.6296 -5.7121,120.5683 -4.2619,131.8168 1.4939,11.2484 3.0755,48.3328 4.7891,111.209 1.2742,12.962 4.7454,24.2105 10.4137,33.7454 l 0.1316,1.5376 c 0.3516,3.0759 -10.1496,6.7227 -31.548,10.9409 l -6.2833,-9.5349 c 4.2622,-3.5149 5.888,-10.5452 4.7454,-21.0905 v -0.791 l -2.3286,0.1319 c -10.1941,7.8209 -20.3436,12.2151 -30.4935,13.2695 l -3.076,0.2635 c -12.2588,1.2745 -22.5843,-5.7121 -30.8888,-21.0027 -8.3485,-15.2466 -9.6227,-30.8888 -3.8665,-46.8386 5.7557,-15.9498 12.9179,-27.1545 21.5736,-33.5253 8.6123,-6.4153 24.3861,-11.0288 47.2784,-13.8409 v -0.791 l -0.5272,-81.5944 -3.4713,-34.4919 c -0.3953,-4.2182 -2.2849,-10.0181 -5.6679,-17.4 -0.2197,-2.4164 3.1633,-4.7891 10.1936,-7.2059 5.4045,-5.1407 9.2711,-10.4574 11.6001,-15.9497 z M 365.031,270.4826 c -14.8072,7.1181 -21.5741,19.5966 -20.2995,37.3918 1.3179,17.8394 8.6998,26.056 22.1449,24.65 13.4893,-1.3624 20.4318,-4.1304 20.7834,-8.3045 0.3953,-4.1303 1.362,-6.3274 2.8999,-6.503 l 0.7907,0.6591 c 1.3623,-0.0878 2.5487,1.6257 3.6031,5.1407 l 0.7469,-0.1319 c 2.153,-0.1756 2.5046,-12.3466 1.0545,-36.5571 l 0.2638,-27.9011 -6.9425,0.615 c -1.8892,0.176 -10.2377,3.8229 -25.0452,10.941 z"
         style="fill:#e30079;fill-rule:evenodd;stroke:#aa00d4;stroke-width:5.07294035;stroke-miterlimit:4;stroke-dasharray:none"
         id="path3158"
         inkscape:connector-curvature="0" />
      <path
         d="m 491.6659,199.1674 h 0.7469 c 3.1196,0 11.5997,8.4801 25.5284,25.4847 2.3727,0 6.7669,14.148 13.0939,42.4885 3.3831,49.9586 6.7228,74.916 10.0621,74.916 0,1.8014 4.13,9.0073 12.3467,21.6178 v 6.1955 l -1.538,1.538 c -7.8209,0 -16.5648,-5.9318 -26.2753,-17.7516 -4.2619,-9.271 -7.1181,-13.9286 -8.4801,-13.9286 -2.0651,0 -13.138,6.1955 -33.2178,18.5421 -5.4923,1.538 -10.1062,2.329 -13.8849,2.329 -10.589,0 -20.0798,-8.2607 -28.6039,-24.7377 l -2.2849,-9.227 c 0,-13.0499 5.8876,-27.462 17.7511,-43.2799 17.6637,-18.015 30.2742,-27.0223 37.8313,-27.0223 5.1411,-0.6154 7.7335,-1.3623 7.7335,-2.3289 0,-12.4345 -2.5924,-22.2328 -7.7335,-29.3509 -3.2511,-5.1411 -7.6453,-7.7335 -13.1376,-7.7335 -4.7892,0 -8.9195,5.9317 -12.3467,17.7952 l -3.0759,0.747 c -2.2408,0 -4.5694,-2.0652 -6.9421,-6.1515 -1.4061,0 -2.6802,-1.3179 -3.8666,-3.8666 2.9878,-9.3589 8.6557,-16.8286 16.9602,-22.4087 8.3485,-2.5924 14.7634,-3.8666 19.3332,-3.8666 z M 463.8526,328.919 c 0.5272,9.2711 2.0652,13.9283 4.6576,13.9283 14.0602,-2.5924 25.6603,-6.459 34.7554,-11.5997 l 8.4804,-7.7331 v -0.747 l -6.9425,-54.0889 -2.3286,-2.3286 c -10.1062,2.8558 -21.4421,12.8738 -33.9647,30.1418 z"
         style="fill:#e30016;fill-rule:evenodd;stroke:#aa00d4;stroke-width:5.07294035;stroke-miterlimit:4;stroke-dasharray:none"
         id="path3160"
         inkscape:connector-curvature="0" />
      <path
         d="m 583.1848,70.7065 c 4.2623,-0.3954 7.1181,2.4168 8.4801,8.5241 l 0.2638,3.0759 v 131.0258 c 1.1864,13.401 1.362,23.9904 0.5272,31.8117 l 1.538,-0.2638 c 7.5575,-10.9847 15.7741,-16.8723 24.6936,-17.6193 l 11.5997,-1.0548 c 11.2485,4.306 17.8394,11.9513 19.8164,22.9364 1.9773,10.9846 -1.2301,30.0978 -9.6224,57.3838 -8.4363,27.3301 -23.9467,46.3996 -46.6192,57.2964 -3.4272,0.3516 -6.5909,2.7243 -9.5345,7.074 -2.8121,0.2638 -5.3167,-1.8451 -7.4697,-6.283 2.2408,-32.6905 1.8454,-65.7327 -1.1427,-99.1261 -0.3512,-2.944 -1.8892,-37.5238 -4.6572,-103.7397 l -2.944,-33.8769 c -0.791,-8.7439 -3.4712,-12.918 -8.1288,-12.4786 l -2.6803,-4.3938 c 2.0652,-7.9528 5.844,-12.2151 11.3363,-12.7423 3.3394,-3.7787 6.459,-11.7757 9.403,-24.0786 z m 7.2059,271.7619 0.3957,4.6135 0.747,-0.1319 c 31.3282,-22.9797 44.5978,-53.6933 39.8083,-92.1396 -0.8785,-9.1833 -4.3938,-13.533 -10.589,-13.0057 l -1.406,0.1315 c -6.7669,0.5713 -13.0499,6.0199 -18.806,16.3455 -7.2059,10.5452 -9.9302,25.6602 -8.2167,45.301 z"
         style="fill:#009035;fill-rule:evenodd;stroke:#aa00d4;stroke-width:5.07294035;stroke-miterlimit:4;stroke-dasharray:none"
         id="path3162"
         inkscape:connector-curvature="0" />
      <path
         d="m 761.6743,182.813 c 12.0391,-2.2412 18.0149,-2.1971 18.0149,0.2197 0.7911,0 1.8014,2.8121 3.1197,8.4801 0,1.2741 -1.7136,3.6909 -5.1408,7.2059 -3.4712,3.5153 -9.6668,5.712 -18.674,6.5908 -9.0077,0.8348 -19.553,7.4698 -31.5484,19.8164 -22.8481,23.8589 -34.6234,37.7435 -35.4145,41.6541 -0.7469,3.8666 -0.8788,17.5756 -0.3075,41.1266 0.571,23.5073 2.3727,37.2162 5.4923,41.171 v 0.7906 c 0,7.206 -1.7576,9.4908 -5.1848,6.9425 -3.4271,-2.5924 -8.656,-3.8665 -15.6863,-3.8665 -1.0545,-0.2638 -2.0648,-1.538 -3.0756,-3.8666 l 1.538,-24.6936 c -1.6258,-55.0116 -4.3942,-85.6369 -8.2607,-91.7884 -3.8666,-6.1956 -3.2075,-10.4574 1.9332,-12.7423 5.1411,-2.3286 10.0622,-5.668 14.6757,-9.974 4.6576,-4.35 7.9969,-9.9302 10.0621,-16.8286 2.153,-2.0652 4.1741,-3.0759 6.1514,-3.0759 h 1.538 l 4.6572,4.6135 v 10.8531 c -6.6787,11.1166 -10.0617,20.168 -10.0617,27.0223 h 0.7906 c 9.0077,-9.6227 19.1576,-19.7285 30.4498,-30.3179 11.2922,-10.5889 22.936,-17.0483 34.9314,-19.3328 z"
         style="fill:#009ee0;fill-rule:evenodd;stroke:#aa00d4;stroke-width:5.07294035;stroke-miterlimit:4;stroke-dasharray:none"
         id="path3164"
         inkscape:connector-curvature="0" />
      <path
         d="m 839.0736,198.7168 h 0.7469 c 3.1197,0 11.5997,8.4801 25.5284,25.4847 2.3727,0 6.7669,14.148 13.094,42.4885 3.383,49.9586 6.7227,74.916 10.0621,74.916 0,1.8014 4.13,9.0073 12.3466,21.6177 v 6.1956 l -1.5379,1.538 c -7.821,0 -16.5648,-5.9318 -26.2754,-17.7516 -4.2618,-9.2711 -7.1181,-13.9287 -8.48,-13.9287 -2.0652,0 -13.1381,6.1956 -33.2178,18.5422 -5.4924,1.538 -10.1062,2.329 -13.885,2.329 -10.589,0 -20.0798,-8.2607 -28.6039,-24.7377 l -2.2849,-9.227 c 0,-13.0499 5.8877,-27.4621 17.7512,-43.2799 17.6637,-18.015 30.2741,-27.0223 37.8313,-27.0223 5.1411,-0.6154 7.7335,-1.3623 7.7335,-2.329 0,-12.4344 -2.5924,-22.2327 -7.7335,-29.3508 -3.2512,-5.1411 -7.6454,-7.7335 -13.1377,-7.7335 -4.7891,0 -8.9195,5.9317 -12.3466,17.7952 l -3.076,0.7469 c -2.2408,0 -4.5694,-2.0651 -6.9421,-6.1514 -1.406,0 -2.6802,-1.3179 -3.8665,-3.8666 2.9877,-9.3589 8.6557,-16.8286 16.9601,-22.4087 8.3485,-2.5924 14.7634,-3.8666 19.3332,-3.8666 z m -27.8133,129.7516 c 0.5273,9.2711 2.0652,13.9283 4.6576,13.9283 14.0602,-2.5924 25.6603,-6.459 34.7554,-11.5997 l 8.4805,-7.7332 v -0.7469 l -6.9425,-54.089 -2.3286,-2.3286 c -10.1062,2.8559 -21.4421,12.8739 -33.9648,30.1419 z"
         style="fill:#a4027c;fill-rule:evenodd;stroke:#aa00d4;stroke-width:5.07294035;stroke-miterlimit:4;stroke-dasharray:none"
         id="path3166"
         inkscape:connector-curvature="0" />
    </g>
  </g>
</svg>
