<?xml version="1.0" encoding="UTF-8" standalone="no"?>
<!-- Created with Inkscape (http://www.inkscape.org/) -->

<svg
   xmlns:dc="http://purl.org/dc/elements/1.1/"
   xmlns:cc="http://creativecommons.org/ns#"
   xmlns:rdf="http://www.w3.org/1999/02/22-rdf-syntax-ns#"
   xmlns:svg="http://www.w3.org/2000/svg"
   xmlns="http://www.w3.org/2000/svg"
   xmlns:sodipodi="http://sodipodi.sourceforge.net/DTD/sodipodi-0.dtd"
   xmlns:inkscape="http://www.inkscape.org/namespaces/inkscape"
   width="60mm"
   height="60mm"
   viewBox="0 0 60 60"
   version="1.1"
   id="svg7793"
   inkscape:version="0.92.2 2405546, 2018-03-11"
   sodipodi:docname="salon.svg">
  <defs
     id="defs7787" />
  <sodipodi:namedview
     id="base"
     pagecolor="#ffffff"
     bordercolor="#666666"
     borderopacity="1.0"
     inkscape:pageopacity="0.0"
     inkscape:pageshadow="2"
     inkscape:zoom="0.35"
     inkscape:cx="-402.85714"
     inkscape:cy="560"
     inkscape:document-units="mm"
     inkscape:current-layer="layer1"
     showgrid="false"
     borderlayer="true"
     inkscape:showpageshadow="false"
     inkscape:window-width="1362"
     inkscape:window-height="724"
     inkscape:window-x="0"
     inkscape:window-y="20"
     inkscape:window-maximized="0" />
  <metadata
     id="metadata7790">
    <rdf:RDF>
      <cc:Work
         rdf:about="">
        <dc:format>image/svg+xml</dc:format>
        <dc:type
           rdf:resource="http://purl.org/dc/dcmitype/StillImage" />
        <dc:title></dc:title>
      </cc:Work>
    </rdf:RDF>
  </metadata>
  <g
     inkscape:label="Layer 1"
     inkscape:groupmode="layer"
     id="layer1"
     transform="translate(0,-237)">
    <g
       transform="matrix(0.6,0,0,0.6,-0.66818874,118.8)"
       id="g8381">
      <path
         style="fill:#ffcc00;stroke:none;stroke-width:0.44423932px;stroke-linecap:butt;stroke-linejoin:miter;stroke-opacity:1"
         d="m 57.712115,205.25464 c -2.410549,-1.45101 -1.454366,-4.9714 1.570678,-7.9092 0.239812,2.98549 2.219385,7.00803 -1.570678,7.9092 z"
         id="path13411"
         inkscape:connector-curvature="0"
         sodipodi:nodetypes="ccc" />
      <path
         sodipodi:nodetypes="ccccc"
         inkscape:connector-curvature="0"
         id="path13413"
         d="m 58.423511,217.50489 c -1.616034,0.6607 -1.742464,0.25052 -2.625814,-0.2611 l 0.615179,-12.44503 c 1.364117,1.13548 2.72453,0.28444 2.72453,0.28444 z"
         style="fill:#2aff2a;stroke:none;stroke-width:0.44423932px;stroke-linecap:butt;stroke-linejoin:miter;stroke-opacity:1" />
      <path
         sodipodi:nodetypes="ccc"
         inkscape:connector-curvature="0"
         id="path13415"
         d="m 47.334248,204.9092 c 2.410524,-1.45101 1.454367,-4.9714 -1.570702,-7.9092 -0.239813,2.98549 -2.21936,7.00803 1.570702,7.9092 z"
         style="fill:#ffcc00;stroke:none;stroke-width:0.44423932px;stroke-linecap:butt;stroke-linejoin:miter;stroke-opacity:1" />
      <path
         style="fill:#ff5599;stroke:none;stroke-width:0.44423932px;stroke-linecap:butt;stroke-linejoin:miter;stroke-opacity:1"
         d="m 46.622853,217.15945 c 1.616034,0.6607 1.742463,0.25053 2.625779,-0.2611 l -0.615144,-12.44503 c -1.364142,1.13548 -2.724564,0.28444 -2.724564,0.28444 z"
         id="path13417"
         inkscape:connector-curvature="0"
         sodipodi:nodetypes="ccccc" />
      <path
         style="fill:#ff2a2a;stroke:none;stroke-width:0.44423932px;stroke-linecap:butt;stroke-linejoin:miter;stroke-opacity:1"
         d="m 35.560133,234.82605 c -0.543844,-4.86379 -3.723021,-17.76682 12.162807,-17.836 l 9.498525,0.10577 c 8.912017,0.18233 12.150189,4.48432 13.382758,10.24218 1.155133,5.32834 0.720773,10.34222 -0.02391,14.3992 z"
         id="path13419"
         inkscape:connector-curvature="0"
         sodipodi:nodetypes="cccccc" />
      <path
         style="fill:#00ccff;stroke:none;stroke-width:0.44423932px;stroke-linecap:butt;stroke-linejoin:miter;stroke-opacity:1"
         d="m 28.81269,264.6672 c -4.279299,-8.37226 -5.309879,-17.04453 -6.388989,-25.99858 -1.536947,-13.8757 12.517053,-6.89268 16.431357,-5.8337 6.33119,2.35831 28.219513,9.42497 42.182548,5.1045 1.165083,3.27761 2.464634,8.20371 -2.187724,16.09872 z"
         id="path13421"
         inkscape:connector-curvature="0"
         sodipodi:nodetypes="cccccc" />
      <path
         style="fill:#00d400;stroke:none;stroke-width:0.44423932px;stroke-linecap:butt;stroke-linejoin:miter;stroke-opacity:1"
         d="m 14.715859,283.68541 c -18.060144,4.40841 -12.4772698,7.70681 1.140872,10.62799 16.811294,3.0786 43.468345,3.96596 66.919669,0.22447 12.590434,-2.09526 23.8482,-7.41739 -0.151145,-11.28419 -15.979639,-2.67766 -45.758466,-4.78516 -67.908714,0.43173 z"
         id="path13423"
         inkscape:connector-curvature="0"
         sodipodi:nodetypes="ccccc" />
      <path
         style="opacity:1;fill:#80e5ff;stroke:none;stroke-width:0.44423932px;stroke-linecap:butt;stroke-linejoin:miter;stroke-opacity:1"
         d="m 71.805359,241.63494 c 4.018771,-0.34149 6.32471,2.35988 3.794104,5.14198 -4.216837,3.97728 -5.934822,4.46065 -14.184673,5.17458 -4.689153,0.13433 -9.131475,0.57762 -14.199749,0.23823 -10.497048,-0.4473 -13.170878,-5.73247 -14.358436,-10.23357 -1.395601,-6.86918 0.357461,-9.97942 8.567512,-6.18734 9.374763,4.3515 20.546572,6.42107 30.381242,5.86612 z"
         id="path13425"
         inkscape:connector-curvature="0"
         sodipodi:nodetypes="ccccccc" />
      <path
         style="fill:none;stroke:#cc00ff;stroke-width:3.19851732;stroke-linecap:butt;stroke-linejoin:miter;stroke-miterlimit:4;stroke-dasharray:none;stroke-opacity:1"
         d="m 74.463877,239.1582 c 0.449208,4.69741 0.971733,10.87023 -0.378119,14.97692"
         id="path13427"
         inkscape:connector-curvature="0"
         sodipodi:nodetypes="cc" />
      <path
         style="fill:none;stroke:#cc00ff;stroke-width:3.19851732;stroke-linecap:butt;stroke-linejoin:miter;stroke-miterlimit:4;stroke-dasharray:none;stroke-opacity:1"
         d="m 62.395847,238.7099 c -0.483649,3.92911 -0.04065,12.69895 0.284368,16.31711"
         id="path13429"
         inkscape:connector-curvature="0"
         sodipodi:nodetypes="cc" />
      <path
         style="opacity:1;fill:#ff8080;stroke:none;stroke-width:0.44423932px;stroke-linecap:butt;stroke-linejoin:miter;stroke-opacity:1"
         d="m 63.816786,218.30674 c -2.027909,0.65076 -3.371958,0.91438 -10.826116,0.0554 -6.031839,-0.95314 -15.792987,6.40981 -5.104556,12.28448 4.476111,2.17858 9.058113,2.55548 16.09893,1.40251 1.697478,-0.34891 5.136444,-1.07826 6.843502,-3.25357 -0.605489,-4.58997 -2.402367,-8.42751 -7.01176,-10.48881 z"
         id="path13431"
         inkscape:connector-curvature="0"
         sodipodi:nodetypes="cccccc" />
      <path
         style="opacity:1;fill:#55ff55;stroke:none;stroke-width:0.44423932px;stroke-linecap:butt;stroke-linejoin:miter;stroke-opacity:1"
         d="m 86.641323,293.8372 c 1.449477,-0.8385 2.826123,-1.56365 3.989696,-2.75309 2.948853,-3.70506 -0.357627,-4.50681 -5.137126,-3.65352 -8.808956,2.01797 -17.632342,4.00192 -27.172821,4.26485 -9.387247,0.16623 -17.998743,0.23357 -27.544584,-0.69092 -3.346123,-0.26004 -10.825973,0.4287 -1.886218,3.38796 2.057776,0.68924 10.188916,2.35849 16.182992,2.30074 13.74224,0.86889 27.614623,-0.34453 41.568061,-2.85602 z"
         id="path13433"
         inkscape:connector-curvature="0"
         sodipodi:nodetypes="cccccccc" />
      <path
         style="fill:#ff6600;stroke:none;stroke-width:0.24521501px;stroke-linecap:butt;stroke-linejoin:miter;stroke-opacity:1"
         d="m 47.169003,204.55779 c 0,0 1.7195,-1.61089 -0.623385,-4.07383 -0.300884,1.81622 -1.309839,3.18798 0.623385,4.07383 z"
         id="path13435"
         inkscape:connector-curvature="0"
         sodipodi:nodetypes="ccc" />
      <path
         style="fill:none;stroke:#cc00ff;stroke-width:3.19851732;stroke-linecap:butt;stroke-linejoin:miter;stroke-miterlimit:4;stroke-dasharray:none;stroke-opacity:1"
         d="m 31.524122,230.5875 c -1.939537,8.81506 -1.317852,23.45657 4.604468,30.85016"
         id="path13437"
         inkscape:connector-curvature="0"
         sodipodi:nodetypes="cc" />
      <path
         style="fill:none;stroke:#cc00ff;stroke-width:3.19851732;stroke-linecap:butt;stroke-linejoin:miter;stroke-miterlimit:4;stroke-dasharray:none;stroke-opacity:1"
         d="m 45.961983,235.16495 c -1.878297,6.35637 1.032709,22.26195 2.626436,23.27742"
         id="path13439"
         inkscape:connector-curvature="0"
         sodipodi:nodetypes="cc" />
      <path
         style="fill:#ffff00;stroke:none;stroke-width:0.44423932px;stroke-linecap:butt;stroke-linejoin:miter;stroke-opacity:1"
         d="m 19.251224,286.7175 c -0.721826,-5.49422 -2.115919,-11.12279 -3.893645,-16.8281 24.584805,-12.04103 49.346909,-20.35566 74.771057,-14.7679 -4.290565,10.35615 -8.8511,20.83825 -10.073096,29.76238 -11.679204,5.79407 -31.773856,6.51004 -60.804316,1.83362 z"
         id="path13441"
         inkscape:connector-curvature="0"
         sodipodi:nodetypes="ccccc" />
      <path
         style="fill:#ffff80;fill-opacity:1;stroke:none;stroke-width:0.44423932px;stroke-linecap:butt;stroke-linejoin:miter;stroke-opacity:1"
         d="m 43.724718,279.16109 c 12.968215,3.52093 27.611044,8.54651 37.204903,-9.519 4.013198,-9.3301 6.995815,-14.94 -8.884643,-13.48601 -10.760305,0.98523 -16.967936,1.89123 -27.923697,5.7911 -20.151516,7.89403 -7.694929,14.38748 -0.396563,17.21391 z"
         id="path13443"
         inkscape:connector-curvature="0"
         sodipodi:nodetypes="ccscc" />
      <path
         sodipodi:nodetypes="ccc"
         inkscape:connector-curvature="0"
         id="path13445"
         d="m 57.877335,204.90323 c 0,0 -1.719474,-1.61089 0.623386,-4.07383 0.300883,1.81622 1.309837,3.18798 -0.623386,4.07383 z"
         style="fill:#ff6600;stroke:none;stroke-width:0.24521501px;stroke-linecap:butt;stroke-linejoin:miter;stroke-opacity:1" />
      <path
         inkscape:transform-center-y="-0.15908536"
         inkscape:transform-center-x="0.070428209"
         d="m -1573.533,-1308.9192 c -0.367,0.4368 -4.6152,-0.566 -5.1688,-0.4283 -0.5537,0.1378 -3.8369,3.0141 -4.3658,2.8001 -0.5289,-0.214 -0.8879,-4.5642 -1.19,-5.0481 -0.3021,-0.484 -4.0522,-2.7177 -4.0122,-3.2868 0.04,-0.5691 4.0665,-2.2549 4.4334,-2.6918 0.367,-0.4368 1.3325,-4.6937 1.8861,-4.8314 0.5537,-0.1378 3.4012,3.1706 3.93,3.3846 0.5289,0.214 4.8758,-0.1832 5.1778,0.3008 0.3021,0.4839 -1.9644,4.2144 -2.0045,4.7835 -0.04,0.5691 1.6809,4.5805 1.314,5.0174 z"
         inkscape:randomized="0"
         inkscape:rounded="0.11"
         inkscape:flatsided="false"
         sodipodi:arg2="1.3269784"
         sodipodi:arg1="0.69865982"
         sodipodi:r2="5.0982599"
         sodipodi:r1="8.3578024"
         sodipodi:cy="-1314.2949"
         sodipodi:cx="-1579.9326"
         sodipodi:sides="5"
         id="path13447"
         style="opacity:1;fill:#aa00d4;fill-opacity:1;fill-rule:nonzero;stroke:none;stroke-width:0.67725015;stroke-linecap:round;stroke-linejoin:round;stroke-miterlimit:4;stroke-dasharray:none;stroke-dashoffset:0;stroke-opacity:1"
         sodipodi:type="star"
         transform="matrix(0.45189391,0.06765971,-0.06765971,0.45189391,652.65735,982.64493)" />
      <path
         sodipodi:type="star"
         style="opacity:1;fill:#aa00d4;fill-opacity:1;fill-rule:nonzero;stroke:none;stroke-width:0.30945662;stroke-linecap:round;stroke-linejoin:round;stroke-miterlimit:4;stroke-dasharray:none;stroke-dashoffset:0;stroke-opacity:1"
         id="path13449"
         sodipodi:sides="5"
         sodipodi:cx="48.412994"
         sodipodi:cy="270.10641"
         sodipodi:r1="3.8189394"
         sodipodi:r2="2.3295529"
         sodipodi:arg1="0.69865982"
         sodipodi:arg2="1.3269784"
         inkscape:flatsided="false"
         inkscape:rounded="0.11"
         inkscape:randomized="0"
         d="m 51.337175,272.56273 c -0.167673,0.19961 -2.108827,-0.2586 -2.361805,-0.19566 -0.252978,0.0629 -1.753191,1.37723 -1.994845,1.27945 -0.241655,-0.0978 -0.405728,-2.08552 -0.543755,-2.30667 -0.138027,-0.22115 -1.851593,-1.2418 -1.833271,-1.50184 0.01832,-0.26005 1.858073,-1.03033 2.025745,-1.22995 0.167673,-0.19961 0.608844,-2.1447 0.861822,-2.20763 0.252979,-0.0629 1.55408,1.44874 1.795735,1.54652 0.241654,0.0978 2.227879,-0.0837 2.365906,0.13745 0.138027,0.22115 -0.897599,1.9257 -0.915921,2.18574 -0.01832,0.26005 0.768062,2.09298 0.600389,2.29259 z"
         inkscape:transform-center-x="0.17728483"
         inkscape:transform-center-y="-0.051608393" />
      <path
         inkscape:transform-center-y="0.027824611"
         inkscape:transform-center-x="-0.19792807"
         d="m -1503.2992,-1309.9776 c -0.367,0.4369 -4.6152,-0.5659 -5.1689,-0.4282 -0.5536,0.1377 -3.8369,3.0141 -4.3657,2.8001 -0.5289,-0.214 -0.888,-4.5642 -1.19,-5.0482 -0.3021,-0.484 -4.0523,-2.7177 -4.0122,-3.2868 0.04,-0.5691 4.0664,-2.2549 4.4334,-2.6917 0.3669,-0.4369 1.3324,-4.6937 1.8861,-4.8315 0.5536,-0.1377 3.4011,3.1706 3.93,3.3846 0.5288,0.214 4.8757,-0.1832 5.1778,0.3008 0.3021,0.484 -1.9644,4.2144 -2.0045,4.7836 -0.04,0.5691 1.6809,4.5805 1.314,5.0173 z"
         inkscape:randomized="0"
         inkscape:rounded="0.11"
         inkscape:flatsided="false"
         sodipodi:arg2="1.3269784"
         sodipodi:arg1="0.69865982"
         sodipodi:r2="5.0982599"
         sodipodi:r1="8.3578024"
         sodipodi:cy="-1315.3533"
         sodipodi:cx="-1509.6989"
         sodipodi:sides="5"
         id="path13451"
         style="opacity:1;fill:#aa00d4;fill-opacity:1;fill-rule:nonzero;stroke:none;stroke-width:0.67725015;stroke-linecap:round;stroke-linejoin:round;stroke-miterlimit:4;stroke-dasharray:none;stroke-dashoffset:0;stroke-opacity:1"
         sodipodi:type="star"
         transform="matrix(0.37795641,0.25677794,-0.25677794,0.37795641,292.55913,1166.1447)" />
      <path
         sodipodi:type="star"
         style="opacity:1;fill:#aa00d4;fill-opacity:1;fill-rule:nonzero;stroke:none;stroke-width:0.67725015;stroke-linecap:round;stroke-linejoin:round;stroke-miterlimit:4;stroke-dasharray:none;stroke-dashoffset:0;stroke-opacity:1"
         id="path13453"
         sodipodi:sides="5"
         sodipodi:cx="-1463.9377"
         sodipodi:cy="-1360.7998"
         sodipodi:r1="8.3578024"
         sodipodi:r2="5.0982599"
         sodipodi:arg1="0.69865982"
         sodipodi:arg2="1.3269784"
         inkscape:flatsided="false"
         inkscape:rounded="0.11"
         inkscape:randomized="0"
         d="m -1457.5381,-1355.4241 c -0.367,0.4368 -4.6152,-0.566 -5.1689,-0.4282 -0.5536,0.1377 -3.8369,3.0141 -4.3657,2.8001 -0.5289,-0.214 -0.888,-4.5642 -1.19,-5.0482 -0.3021,-0.484 -4.0523,-2.7177 -4.0122,-3.2868 0.04,-0.5691 4.0664,-2.2549 4.4334,-2.6918 0.3669,-0.4368 1.3325,-4.6937 1.8861,-4.8314 0.5536,-0.1377 3.4011,3.1706 3.93,3.3846 0.5289,0.214 4.8757,-0.1832 5.1778,0.3008 0.3021,0.484 -1.9644,4.2144 -2.0045,4.7835 -0.04,0.5691 1.6809,4.5805 1.314,5.0174 z"
         inkscape:transform-center-x="-0.060233157"
         inkscape:transform-center-y="-0.16757649"
         transform="matrix(0.43268176,0.14687559,-0.14687559,0.43268176,515.38175,1062.6928)" />
      <path
         sodipodi:type="star"
         style="opacity:1;fill:#aa00d4;fill-opacity:1;fill-rule:nonzero;stroke:none;stroke-width:0.41959238;stroke-linecap:round;stroke-linejoin:round;stroke-miterlimit:4;stroke-dasharray:none;stroke-dashoffset:0;stroke-opacity:1"
         id="path13455"
         sodipodi:sides="5"
         sodipodi:cx="-1546.157"
         sodipodi:cy="-1309.3641"
         sodipodi:r1="5.1781015"
         sodipodi:r2="3.1586423"
         sodipodi:arg1="0.69865982"
         sodipodi:arg2="1.3269784"
         inkscape:flatsided="false"
         inkscape:rounded="0.11"
         inkscape:randomized="0"
         d="m -1542.1921,-1306.0336 c -0.2273,0.2706 -2.8593,-0.3506 -3.2024,-0.2653 -0.343,0.085 -2.3771,1.8674 -2.7048,1.7348 -0.3276,-0.1326 -0.5501,-2.8278 -0.7372,-3.1276 -0.1872,-0.2999 -2.5106,-1.6838 -2.4858,-2.0364 0.025,-0.3526 2.5194,-1.397 2.7467,-1.6676 0.2274,-0.2707 0.8256,-2.9081 1.1686,-2.9934 0.343,-0.085 2.1072,1.9644 2.4348,2.0969 0.3277,0.1326 3.0208,-0.1134 3.2079,0.1864 0.1872,0.2999 -1.217,2.6111 -1.2419,2.9637 -0.025,0.3526 1.0415,2.8378 0.8141,3.1085 z"
         inkscape:transform-center-x="-0.081846057"
         inkscape:transform-center-y="0.059681989"
         transform="matrix(0.38539399,-0.24547388,0.24547388,0.38539399,960.34767,409.15877)" />
      <path
         inkscape:transform-center-y="0.075185177"
         inkscape:transform-center-x="0.066372554"
         d="m -1480.8435,-1334.4178 c -0.2273,0.2707 -2.8593,-0.3506 -3.2023,-0.2653 -0.343,0.085 -2.3772,1.8674 -2.7048,1.7348 -0.3277,-0.1325 -0.5502,-2.8277 -0.7373,-3.1276 -0.1872,-0.2998 -2.5106,-1.6837 -2.4857,-2.0363 0.025,-0.3526 2.5193,-1.3971 2.7467,-1.6677 0.2273,-0.2707 0.8255,-2.908 1.1685,-2.9933 0.343,-0.085 2.1072,1.9643 2.4348,2.0969 0.3277,0.1326 3.0208,-0.1135 3.208,0.1864 0.1871,0.2998 -1.2171,2.611 -1.2419,2.9636 -0.025,0.3526 1.0414,2.8379 0.814,3.1085 z"
         inkscape:randomized="0"
         inkscape:rounded="0.11"
         inkscape:flatsided="false"
         sodipodi:arg2="1.3269784"
         sodipodi:arg1="0.69865982"
         sodipodi:r2="3.1586423"
         sodipodi:r1="5.1781015"
         sodipodi:cy="-1337.7483"
         sodipodi:cx="-1484.8083"
         sodipodi:sides="5"
         id="path13457"
         style="opacity:1;fill:#aa00d4;fill-opacity:1;fill-rule:nonzero;stroke:none;stroke-width:0.41959238;stroke-linecap:round;stroke-linejoin:round;stroke-miterlimit:4;stroke-dasharray:none;stroke-dashoffset:0;stroke-opacity:1"
         sodipodi:type="star"
         transform="matrix(0.23970625,0.38900752,-0.38900752,0.23970625,-93.390468,1169.3764)" />
      <path
         sodipodi:type="star"
         style="opacity:1;fill:#aa00d4;fill-opacity:1;fill-rule:nonzero;stroke:none;stroke-width:0.41959238;stroke-linecap:round;stroke-linejoin:round;stroke-miterlimit:4;stroke-dasharray:none;stroke-dashoffset:0;stroke-opacity:1"
         id="path13459"
         sodipodi:sides="5"
         sodipodi:cx="-1511.5514"
         sodipodi:cy="-1362.818"
         sodipodi:r1="5.1781015"
         sodipodi:r2="3.1586423"
         sodipodi:arg1="0.69865982"
         sodipodi:arg2="1.3269784"
         inkscape:flatsided="false"
         inkscape:rounded="0.11"
         inkscape:randomized="0"
         d="m -1507.5865,-1359.4875 c -0.2273,0.2707 -2.8594,-0.3506 -3.2024,-0.2653 -0.343,0.085 -2.3771,1.8674 -2.7048,1.7348 -0.3276,-0.1326 -0.5501,-2.8277 -0.7373,-3.1276 -0.1871,-0.2998 -2.5105,-1.6837 -2.4857,-2.0363 0.025,-0.3526 2.5194,-1.3971 2.7467,-1.6677 0.2274,-0.2707 0.8256,-2.908 1.1686,-2.9933 0.343,-0.085 2.1071,1.9643 2.4348,2.0969 0.3277,0.1326 3.0208,-0.1135 3.2079,0.1864 0.1872,0.2998 -1.217,2.611 -1.2419,2.9636 -0.025,0.3526 1.0415,2.8379 0.8141,3.1085 z"
         inkscape:transform-center-x="-0.029707535"
         inkscape:transform-center-y="-0.11114721"
         transform="matrix(0.43510156,0.13954414,-0.13954414,0.43510156,526.37085,1063.5458)" />
      <path
         inkscape:transform-center-y="-0.10480368"
         inkscape:transform-center-x="-0.036321981"
         d="m -1570.0526,-1339.7095 c -0.2273,0.2706 -2.8593,-0.3506 -3.2023,-0.2653 -0.343,0.085 -2.3772,1.8674 -2.7048,1.7348 -0.3277,-0.1326 -0.5502,-2.8278 -0.7373,-3.1276 -0.1872,-0.2999 -2.5106,-1.6838 -2.4858,-2.0364 0.025,-0.3526 2.5194,-1.397 2.7468,-1.6677 0.2273,-0.2706 0.8255,-2.908 1.1685,-2.9933 0.343,-0.085 2.1072,1.9644 2.4348,2.0969 0.3277,0.1326 3.0208,-0.1135 3.208,0.1864 0.1871,0.2999 -1.2171,2.6111 -1.2419,2.9637 -0.025,0.3526 1.0414,2.8378 0.814,3.1085 z"
         inkscape:randomized="0"
         inkscape:rounded="0.11"
         inkscape:flatsided="false"
         sodipodi:arg2="1.3269784"
         sodipodi:arg1="0.69865982"
         sodipodi:r2="3.1586423"
         sodipodi:r1="5.1781015"
         sodipodi:cy="-1343.04"
         sodipodi:cx="-1574.0175"
         sodipodi:sides="5"
         id="path13461"
         style="opacity:1;fill:#aa00d4;fill-opacity:1;fill-rule:nonzero;stroke:none;stroke-width:0.41959238;stroke-linecap:round;stroke-linejoin:round;stroke-miterlimit:4;stroke-dasharray:none;stroke-dashoffset:0;stroke-opacity:1"
         sodipodi:type="star"
         transform="matrix(0.43300904,0.14590793,-0.14590793,0.43300904,515.92666,1079.9007)" />
      <path
         sodipodi:type="star"
         style="opacity:1;fill:#aa00d4;fill-opacity:1;fill-rule:nonzero;stroke:none;stroke-width:0.19172479;stroke-linecap:round;stroke-linejoin:round;stroke-miterlimit:4;stroke-dasharray:none;stroke-dashoffset:0;stroke-opacity:1"
         id="path13463"
         sodipodi:sides="5"
         sodipodi:cx="77.034912"
         sodipodi:cy="282.15305"
         sodipodi:r1="2.366035"
         sodipodi:r2="1.4432817"
         sodipodi:arg1="0.69865982"
         sodipodi:arg2="1.3269784"
         inkscape:flatsided="false"
         inkscape:rounded="0.11"
         inkscape:randomized="0"
         d="m 78.846597,283.67486 c -0.103883,0.12367 -1.30653,-0.16021 -1.463263,-0.12122 -0.156733,0.039 -1.086195,0.85327 -1.235913,0.79269 -0.149717,-0.0606 -0.25137,-1.29209 -0.336885,-1.42911 -0.08552,-0.13701 -1.147159,-0.76936 -1.135808,-0.93047 0.01135,-0.16111 1.151174,-0.63834 1.255056,-0.76201 0.103882,-0.12367 0.377212,-1.32876 0.533945,-1.36775 0.156733,-0.039 0.962835,0.89757 1.112553,0.95815 0.149717,0.0606 1.380288,-0.0519 1.465803,0.0852 0.08552,0.13701 -0.556109,1.19307 -0.56746,1.35418 -0.01135,0.16112 0.475854,1.29671 0.371972,1.42038 z"
         inkscape:transform-center-x="0.10984018"
         inkscape:transform-center-y="-0.031988462" />
      <circle
         r="1.4654849"
         cy="229.15656"
         cx="39.024357"
         id="circle13465"
         style="opacity:1;fill:#e580ff;fill-opacity:1;fill-rule:nonzero;stroke:none;stroke-width:0.91386205;stroke-linecap:round;stroke-linejoin:round;stroke-miterlimit:4;stroke-dasharray:none;stroke-dashoffset:0;stroke-opacity:1" />
      <circle
         style="opacity:1;fill:#e580ff;fill-opacity:1;fill-rule:nonzero;stroke:none;stroke-width:0.91386205;stroke-linecap:round;stroke-linejoin:round;stroke-miterlimit:4;stroke-dasharray:none;stroke-dashoffset:0;stroke-opacity:1"
         id="circle13467"
         cx="42.199646"
         cy="220.36372"
         r="1.4654849" />
      <circle
         r="1.4654849"
         cy="234.27847"
         cx="54.411987"
         id="circle13469"
         style="opacity:1;fill:#e580ff;fill-opacity:1;fill-rule:nonzero;stroke:none;stroke-width:0.91386205;stroke-linecap:round;stroke-linejoin:round;stroke-miterlimit:4;stroke-dasharray:none;stroke-dashoffset:0;stroke-opacity:1" />
      <circle
         style="opacity:1;fill:#e580ff;fill-opacity:1;fill-rule:nonzero;stroke:none;stroke-width:0.91386205;stroke-linecap:round;stroke-linejoin:round;stroke-miterlimit:4;stroke-dasharray:none;stroke-dashoffset:0;stroke-opacity:1"
         id="circle13471"
         cx="56.39785"
         cy="221.3578"
         r="1.4654849" />
      <circle
         r="1.4654849"
         cy="226.46249"
         cx="49.031139"
         id="circle13473"
         style="opacity:1;fill:#e580ff;fill-opacity:1;fill-rule:nonzero;stroke:none;stroke-width:0.91386205;stroke-linecap:round;stroke-linejoin:round;stroke-miterlimit:4;stroke-dasharray:none;stroke-dashoffset:0;stroke-opacity:1" />
      <circle
         style="opacity:1;fill:#e580ff;fill-opacity:1;fill-rule:nonzero;stroke:none;stroke-width:0.91386205;stroke-linecap:round;stroke-linejoin:round;stroke-miterlimit:4;stroke-dasharray:none;stroke-dashoffset:0;stroke-opacity:1"
         id="circle13475"
         cx="67.357109"
         cy="235.75127"
         r="1.4654849" />
      <circle
         r="1.4654849"
         cy="226.72391"
         cx="64.909851"
         id="circle13477"
         style="opacity:1;fill:#e580ff;fill-opacity:1;fill-rule:nonzero;stroke:none;stroke-width:0.91386205;stroke-linecap:round;stroke-linejoin:round;stroke-miterlimit:4;stroke-dasharray:none;stroke-dashoffset:0;stroke-opacity:1" />
      <path
         sodipodi:nodetypes="ccccccc"
         inkscape:connector-curvature="0"
         id="path13479"
         d="m 71.805359,241.63494 c 4.01877,-0.34149 6.32471,2.35988 3.7941,5.14198 -4.21683,3.97728 -5.93482,4.46065 -14.18467,5.17458 -4.68915,0.13433 -9.13147,0.57762 -14.19975,0.23823 -10.497046,-0.4473 -13.170876,-5.73247 -14.358434,-10.23357 -1.395601,-6.86918 0.357461,-9.97942 8.567512,-6.18734 9.374762,4.3515 20.546572,6.42107 30.381242,5.86612 z"
         style="opacity:0.3;fill:#aaeeff;stroke:none;stroke-width:0.44423932px;stroke-linecap:butt;stroke-linejoin:miter;stroke-opacity:1" />
      <path
         sodipodi:nodetypes="cccccc"
         inkscape:connector-curvature="0"
         id="path13481"
         d="m 63.816786,218.30673 c -2.02791,0.65076 -3.37196,0.91438 -10.826116,0.0554 -6.031839,-0.95314 -15.792987,6.40981 -5.104556,12.28448 4.476111,2.17858 9.058113,2.55548 16.098932,1.40251 1.69748,-0.34891 5.13645,-1.07826 6.8435,-3.25357 -0.60548,-4.58997 -2.40236,-8.42751 -7.01176,-10.48881 z"
         style="opacity:0.3;fill:#ffd5d5;stroke:none;stroke-width:0.44423932px;stroke-linecap:butt;stroke-linejoin:miter;stroke-opacity:1" />
      <path
         sodipodi:nodetypes="ccscc"
         inkscape:connector-curvature="0"
         id="path13483"
         d="m 43.724718,279.16109 c 12.968213,3.52093 27.611043,8.54651 37.204903,-9.519 4.0132,-9.3301 6.99581,-14.94 -8.88464,-13.48601 -10.76031,0.98523 -16.967939,1.89123 -27.9237,5.7911 -20.151516,7.89403 -7.694929,14.38748 -0.396563,17.21391 z"
         style="opacity:0.3;fill:#ffff00;stroke:none;stroke-width:0.44423932px;stroke-linecap:butt;stroke-linejoin:miter;stroke-opacity:1" />
      <path
         style="fill:#ff80b2;stroke:#ff80b2;stroke-width:1.37079298;stroke-linecap:round;stroke-linejoin:round;stroke-miterlimit:4;stroke-dasharray:none;stroke-opacity:1"
         d="m 48.082565,214.28808 -0.336576,-7.66441"
         id="path13485"
         inkscape:connector-curvature="0"
         sodipodi:nodetypes="cc" />
      <path
         sodipodi:nodetypes="cc"
         inkscape:connector-curvature="0"
         id="path13487"
         d="m 57.602336,215.01736 0.468915,-7.6574"
         style="fill:#00ff00;stroke:#80ff80;stroke-width:1.37079298;stroke-linecap:round;stroke-linejoin:round;stroke-miterlimit:4;stroke-dasharray:none;stroke-opacity:1" />
      <path
         transform="matrix(0.74521127,0.63789543,-0.63789543,0.74521127,169.46058,-3.762821)"
         inkscape:transform-center-y="-0.036924857"
         inkscape:transform-center-x="-0.66888873"
         d="m 96.551057,231.32162 c -0.266697,0.45257 -4.277144,0.18892 -4.758924,0.3983 -0.48178,0.20938 -3.025186,3.32134 -3.538026,3.20755 -0.512839,-0.11379 -1.501385,-4.00943 -1.849396,-4.40292 -0.348012,-0.3935 -4.093617,-1.85078 -4.143873,-2.37368 -0.05026,-0.5229 3.349238,-2.66688 3.615934,-3.11946 0.266697,-0.45257 0.495192,-4.46518 0.976972,-4.67456 0.48178,-0.20938 3.571327,2.3612 4.084167,2.47499 0.51284,0.11379 4.399662,-0.90886 4.747674,-0.51536 0.348012,0.3935 -1.142036,4.12618 -1.09178,4.64909 0.05025,0.5229 2.223949,3.90347 1.957252,4.35605 z"
         inkscape:randomized="0"
         inkscape:rounded="0.11"
         inkscape:flatsided="false"
         sodipodi:arg2="1.1608226"
         sodipodi:arg1="0.5325041"
         sodipodi:r2="4.6942697"
         sodipodi:r1="7.6955252"
         sodipodi:cy="227.41466"
         sodipodi:cx="89.921066"
         sodipodi:sides="5"
         id="path14328"
         style="opacity:1;fill:#ffff00;fill-opacity:1;fill-rule:nonzero;stroke:none;stroke-width:0.06750036;stroke-linecap:round;stroke-linejoin:round;stroke-miterlimit:4;stroke-dasharray:none;stroke-dashoffset:0;stroke-opacity:1"
         sodipodi:type="star" />
      <path
         transform="matrix(0.15759979,0.03575904,-0.03575904,0.15759979,295.01192,941.56918)"
         inkscape:transform-center-y="-0.14159236"
         inkscape:transform-center-x="0.20705776"
         d="m -2271.5925,-4121.9519 c -0.7901,1.3407 -12.6701,0.5597 -14.0973,1.1799 -1.4272,0.6202 -8.9614,9.8387 -10.4806,9.5017 -1.5192,-0.3371 -4.4475,-11.8771 -5.4785,-13.0427 -1.0309,-1.1657 -12.1264,-5.4825 -12.2753,-7.0315 -0.1488,-1.549 9.9214,-7.9001 10.7114,-9.2407 0.7901,-1.3407 1.4669,-13.2271 2.8941,-13.8474 1.4272,-0.6202 10.5793,6.9945 12.0985,7.3316 1.5191,0.3371 13.033,-2.6923 14.0639,-1.5266 1.0309,1.1656 -3.383,12.2229 -3.2342,13.7719 0.1489,1.549 6.588,11.5632 5.798,12.9038 z"
         inkscape:randomized="0"
         inkscape:rounded="0.11"
         inkscape:flatsided="false"
         sodipodi:arg2="1.1608226"
         sodipodi:arg1="0.5325041"
         sodipodi:r2="13.905744"
         sodipodi:r1="22.796303"
         sodipodi:cy="-4133.5254"
         sodipodi:cx="-2291.2324"
         sodipodi:sides="5"
         id="path14332"
         style="opacity:1;fill:#ffff00;fill-opacity:1;fill-rule:nonzero;stroke:none;stroke-width:2.65067673;stroke-linecap:round;stroke-linejoin:round;stroke-miterlimit:4;stroke-dasharray:none;stroke-dashoffset:0;stroke-opacity:1"
         sodipodi:type="star" />
      <path
         inkscape:transform-center-y="0.28430112"
         inkscape:transform-center-x="0.64237533"
         d="m 22.365165,216.41168 c -0.339894,0.57679 -5.451044,0.24077 -6.065053,0.50762 -0.614009,0.26685 -3.855474,4.23291 -4.509067,4.08789 -0.653593,-0.14502 -1.913454,-5.10985 -2.3569808,-5.61135 -0.4435269,-0.50149 -5.2171457,-2.35873 -5.2811943,-3.02515 -0.064049,-0.66641 4.2684646,-3.39883 4.6083588,-3.97562 0.3398941,-0.57679 0.6311014,-5.69069 1.2451103,-5.95754 0.614009,-0.26684 4.55151,3.00926 5.205103,3.15428 0.653593,0.14502 5.607187,-1.15831 6.050714,-0.65681 0.443527,0.5015 -1.455477,5.25865 -1.391428,5.92507 0.06405,0.66642 2.834331,4.97482 2.494437,5.55161 z"
         inkscape:randomized="0"
         inkscape:rounded="0.11"
         inkscape:flatsided="false"
         sodipodi:arg2="1.1608226"
         sodipodi:arg1="0.5325041"
         sodipodi:r2="5.9826536"
         sodipodi:r1="9.8076296"
         sodipodi:cy="211.43242"
         sodipodi:cx="13.915515"
         sodipodi:sides="5"
         id="path14336"
         style="opacity:1;fill:#ffff00;fill-opacity:1;fill-rule:nonzero;stroke:none;stroke-width:0.08602643;stroke-linecap:round;stroke-linejoin:round;stroke-miterlimit:4;stroke-dasharray:none;stroke-dashoffset:0;stroke-opacity:1"
         sodipodi:type="star" />
      <path
         transform="matrix(0.19083358,0.27846237,-0.27846237,0.19083358,-689.17958,1756.7732)"
         sodipodi:type="star"
         style="opacity:1;fill:#ffff00;fill-opacity:1;fill-rule:nonzero;stroke:none;stroke-width:0.1407101;stroke-linecap:round;stroke-linejoin:round;stroke-miterlimit:4;stroke-dasharray:none;stroke-dashoffset:0;stroke-opacity:1"
         id="path14338"
         sodipodi:sides="5"
         sodipodi:cx="-2550.0078"
         sodipodi:cy="-4260.4956"
         sodipodi:r1="16.04196"
         sodipodi:r2="9.7855949"
         sodipodi:arg1="0.5325041"
         sodipodi:arg2="1.1608226"
         inkscape:flatsided="false"
         inkscape:rounded="0.11"
         inkscape:randomized="0"
         d="m -2536.187,-4252.3512 c -0.556,0.9434 -8.9161,0.3938 -9.9204,0.8303 -1.0043,0.4364 -6.3063,6.9236 -7.3753,6.6864 -1.0691,-0.2372 -3.1298,-8.358 -3.8552,-9.1783 -0.7255,-0.8203 -8.5335,-3.8581 -8.6383,-4.9481 -0.1048,-1.09 6.9818,-5.5593 7.5377,-6.5028 0.556,-0.9434 1.0323,-9.308 2.0366,-9.7445 1.0043,-0.4365 7.4447,4.9221 8.5138,5.1593 1.069,0.2372 9.1714,-1.8946 9.8969,-1.0743 0.7255,0.8203 -2.3807,8.6014 -2.2759,9.6914 0.1048,1.0901 4.636,8.1371 4.0801,9.0806 z"
         inkscape:transform-center-x="-0.11195026"
         inkscape:transform-center-y="0.39841199" />
    </g>
  </g>
</svg>
