<?xml version="1.0" encoding="UTF-8" standalone="no"?>
<!-- Created with Inkscape (http://www.inkscape.org/) -->

<svg
   xmlns:dc="http://purl.org/dc/elements/1.1/"
   xmlns:cc="http://creativecommons.org/ns#"
   xmlns:rdf="http://www.w3.org/1999/02/22-rdf-syntax-ns#"
   xmlns:svg="http://www.w3.org/2000/svg"
   xmlns="http://www.w3.org/2000/svg"
   xmlns:sodipodi="http://sodipodi.sourceforge.net/DTD/sodipodi-0.dtd"
   xmlns:inkscape="http://www.inkscape.org/namespaces/inkscape"
   width="350mm"
   height="115mm"
   viewBox="0 0 350 115"
   version="1.1"
   id="svg2065"
   inkscape:version="0.92.2 2405546, 2018-03-11"
   sodipodi:docname="salonTitle.svg">
  <defs
     id="defs2059" />
  <sodipodi:namedview
     id="base"
     pagecolor="#ffffff"
     bordercolor="#666666"
     borderopacity="1.0"
     inkscape:pageopacity="0.0"
     inkscape:pageshadow="2"
     inkscape:zoom="0.12374369"
     inkscape:cx="591.71319"
     inkscape:cy="554.25186"
     inkscape:document-units="mm"
     inkscape:current-layer="layer1"
     showgrid="false"
     fit-margin-top="0"
     fit-margin-left="0"
     fit-margin-right="0"
     fit-margin-bottom="0"
     inkscape:window-width="679"
     inkscape:window-height="724"
     inkscape:window-x="0"
     inkscape:window-y="20"
     inkscape:window-maximized="0"
     inkscape:showpageshadow="false"
     borderlayer="true" />
  <metadata
     id="metadata2062">
    <rdf:RDF>
      <cc:Work
         rdf:about="">
        <dc:format>image/svg+xml</dc:format>
        <dc:type
           rdf:resource="http://purl.org/dc/dcmitype/StillImage" />
        <dc:title></dc:title>
      </cc:Work>
    </rdf:RDF>
  </metadata>
  <g
     inkscape:label="Layer 1"
     inkscape:groupmode="layer"
     id="layer1"
     transform="translate(143.73886,-83.289641)">
    <g
       style="fill:#ffff00;stroke:#660080"
       id="g1437"
       transform="matrix(3.3755392,-1.0448602,-1.0448602,-3.3755392,-95.123207,139.80493)">
      <path
         d="m 0,0 c 0.198,0.221 0.084,0.573 -0.206,0.636 l -1.898,0.409 c -0.105,0.023 -0.197,0.09 -0.251,0.184 L -3.332,2.906 C -3.48,3.162 -3.851,3.162 -4,2.906 L -4.976,1.229 C -5.03,1.135 -5.122,1.068 -5.229,1.045 L -7.126,0.636 C -7.415,0.573 -7.529,0.221 -7.332,0 l 1.294,-1.446 c 0.072,-0.081 0.107,-0.19 0.097,-0.297 l -0.198,-1.932 c -0.029,-0.295 0.27,-0.512 0.541,-0.392 l 1.776,0.783 c 0.099,0.044 0.213,0.044 0.312,0 l 1.776,-0.783 c 0.271,-0.12 0.571,0.097 0.541,0.392 l -0.197,1.932 c -0.01,0.107 0.024,0.216 0.097,0.297 z"
         style="fill:#ffff00;fill-opacity:1;fill-rule:nonzero;stroke:#660080"
         id="path1435"
         inkscape:connector-curvature="0" />
    </g>
    <text
       xml:space="preserve"
       style="font-style:normal;font-variant:normal;font-weight:normal;font-stretch:normal;font-size:16.93333244px;line-height:1.25;font-family:'Microsoft Sans Serif';-inkscape-font-specification:'Microsoft Sans Serif';letter-spacing:0px;word-spacing:0px;fill:#000000;fill-opacity:1;stroke:none;stroke-width:0.26458332"
       x="-142.13524"
       y="234.63829"
       id="text862"><tspan
         sodipodi:role="line"
         id="tspan860"
         x="-142.13524"
         y="249.89107"
         style="stroke-width:0.26458332" /></text>
    <path
       inkscape:connector-curvature="0"
       id="path868"
       style="font-style:normal;font-variant:normal;font-weight:normal;font-stretch:normal;font-size:50.79999924px;line-height:1.25;font-family:Antipasto;-inkscape-font-specification:Antipasto;letter-spacing:0px;word-spacing:0px;fill:#440055;fill-opacity:1;stroke:none;stroke-width:1;stroke-miterlimit:4;stroke-dasharray:none"
       d="m -63.199122,146.23981 q -2.660197,-0.79806 -5.675088,-1.95082 -2.926218,-1.24142 -5.409069,-2.92621 -2.394179,-1.6848 -3.990297,-3.90163 -1.596119,-2.3055 -1.596119,-5.23172 0,-3.36958 1.507445,-5.94111 1.507446,-2.6602 3.901624,-4.43366 2.394178,-1.86214 5.320396,-2.74887 3.014891,-0.97541 5.941108,-0.97541 1.950812,0 3.990297,0.35469 2.128159,0.26602 4.167644,1.06408 2.039485,0.79806 3.901623,2.21683 1.950812,1.41878 3.546931,3.63561 0.53204,0.79806 0.53204,1.86214 0,1.24142 -0.79806,2.12816 -0.709386,0.79805 -1.950812,0.79805 -1.596119,0 -2.482851,-1.41877 -1.064079,-1.77346 -2.482852,-2.74887 -1.418772,-1.06408 -2.926217,-1.59612 -1.418772,-0.53204 -2.926218,-0.62071 -1.418772,-0.17735 -2.571525,-0.17735 -1.773465,0 -3.724277,0.44337 -1.950811,0.44337 -3.635603,1.41877 -1.596119,0.97541 -2.660198,2.6602 -1.064079,1.59612 -1.064079,4.07897 0,1.77346 1.507445,3.19224 1.596119,1.41877 3.81295,2.48285 2.216832,1.06408 4.61101,1.86214 2.394178,0.79806 4.07897,1.41877 3.369584,1.24142 6.118455,2.6602 2.748871,1.41877 4.699683,3.36958 2.039486,1.95081 3.103565,4.52234 1.152752,2.57152 1.152752,6.11845 0,3.54693 -1.507445,6.6505 -1.507446,3.10356 -4.078971,5.40907 -2.482851,2.21683 -5.763762,3.54693 -3.28091,1.24142 -6.827841,1.24142 -2.482851,0 -5.231723,-0.62071 -2.660197,-0.70939 -5.143049,-1.86214 -2.394178,-1.24142 -4.433663,-2.92622 -1.950812,-1.68479 -3.014891,-3.72427 -0.443366,-0.70939 -0.443366,-1.41878 0,-1.06407 0.798059,-1.95081 0.886733,-0.88673 2.128158,-0.88673 1.684792,0 2.482852,1.41877 0.798059,1.59612 2.305505,2.83755 1.596118,1.15275 3.458257,2.03948 1.862138,0.79806 3.724277,1.24143 1.950812,0.35469 3.458257,0.35469 2.394178,0 4.699683,-0.88673 2.305505,-0.88673 3.990297,-2.39418 1.773465,-1.50745 2.837544,-3.54693 1.06408,-2.12816 1.06408,-4.52234 0,-2.39418 -0.975406,-4.16764 -0.886733,-1.77347 -2.571525,-3.10356 -1.684792,-1.3301 -3.990297,-2.39418 -2.305505,-1.06408 -4.965703,-1.95081 z" />
    <path
       inkscape:connector-curvature="0"
       id="path870"
       style="font-style:normal;font-variant:normal;font-weight:normal;font-stretch:normal;font-size:50.79999924px;line-height:1.25;font-family:Antipasto;-inkscape-font-specification:Antipasto;letter-spacing:0px;word-spacing:0px;fill:#440055;fill-opacity:1;stroke:none;stroke-width:1;stroke-miterlimit:4;stroke-dasharray:none"
       d="m -22.150328,120.08119 q 0.26602,-0.70938 0.975406,-1.3301 0.709386,-0.70938 1.596119,-0.70938 0.886732,0 1.596118,0.62071 0.709386,0.62071 1.064079,1.41877 l 21.9022967,50.80978 q 0.1773466,0.3547 0.1773466,1.06408 0,1.06408 -0.7093862,1.86214 -0.7093861,0.79806 -1.9508118,0.79806 -1.86213852,0 -2.57152463,-1.68479 L -7.1645465,156.70325 H -32.081734 l -7.093861,16.22721 q -0.354693,0.79806 -1.064079,1.24142 -0.709386,0.44337 -1.507446,0.44337 -1.241425,0 -2.039485,-0.79806 -0.709386,-0.79806 -0.709386,-1.86214 0,-0.53204 0.26602,-1.06408 z m 2.571525,8.24662 -10.108753,22.8777 h 20.1288314 z" />
    <path
       inkscape:connector-curvature="0"
       id="path872"
       style="font-style:normal;font-variant:normal;font-weight:normal;font-stretch:normal;font-size:50.79999924px;line-height:1.25;font-family:Antipasto;-inkscape-font-specification:Antipasto;letter-spacing:0px;word-spacing:0px;fill:#440055;fill-opacity:1;stroke:none;stroke-width:1;stroke-miterlimit:4;stroke-dasharray:none"
       d="m 11.271179,120.79058 q 0,-1.15275 0.798059,-1.95081 0.798059,-0.79806 1.950812,-0.79806 1.152752,0 1.950812,0.79806 0.798059,0.79806 0.798059,1.95081 v 48.4156 H 39.29193 q 1.152752,0 1.950812,0.79806 0.798059,0.79806 0.798059,1.95081 0,1.15275 -0.798059,1.95081 -0.79806,0.79806 -1.950812,0.79806 H 14.02005 q -1.152753,0 -1.950812,-0.79806 -0.798059,-0.79806 -0.798059,-1.95081 z" />
    <path
       inkscape:connector-curvature="0"
       id="path874"
       style="font-style:normal;font-variant:normal;font-weight:normal;font-stretch:normal;font-size:50.79999924px;line-height:1.25;font-family:Antipasto;-inkscape-font-specification:Antipasto;letter-spacing:0px;word-spacing:0px;fill:#440055;fill-opacity:1;stroke:none;stroke-width:1;stroke-miterlimit:4;stroke-dasharray:none"
       d="m 66.410709,118.21905 q 5.852435,0 10.995484,2.21684 5.14305,2.21683 8.956,6.11845 3.901624,3.81295 6.118455,8.956 2.216832,5.14305 2.216832,10.99549 0,5.85243 -2.216832,10.99548 -2.216831,5.14305 -6.118455,8.956 -3.81295,3.81295 -8.956,6.02978 -5.143049,2.21683 -10.995484,2.21683 -5.852436,0 -10.995483,-2.21683 -5.14305,-2.21683 -8.956,-6.02978 -3.81295,-3.81295 -6.029782,-8.956 -2.216832,-5.14305 -2.216832,-10.99548 0,-5.85244 2.216832,-10.99549 2.216832,-5.14305 6.029782,-8.956 3.81295,-3.90162 8.956,-6.11845 5.143047,-2.21684 10.995483,-2.21684 z m 0,5.49775 q -4.699683,0 -8.867327,1.77346 -4.167641,1.77347 -7.271206,4.87703 -3.014891,3.10357 -4.788356,7.27121 -1.773465,4.16764 -1.773465,8.86733 0,4.69968 1.773465,8.86732 1.773465,4.16764 4.788356,7.27121 3.103565,3.01489 7.271206,4.78836 4.167644,1.77346 8.867327,1.77346 4.699683,0 8.867326,-1.77346 4.167644,-1.77347 7.271208,-4.78836 3.103564,-3.10357 4.877029,-7.27121 1.773466,-4.16764 1.773466,-8.86732 0,-4.69969 -1.773466,-8.86733 -1.773465,-4.16764 -4.877029,-7.27121 -3.103564,-3.10356 -7.271208,-4.87703 -4.167643,-1.77346 -8.867326,-1.77346 z m 5.143049,-26.335945 q 0.709386,-1.330091 2.305505,-1.330091 1.241426,0 1.950812,0.886724 0.798059,0.886727 0.798059,1.950801 0,0.709384 -0.26602,1.241421 l -7.359881,12.68027 q -0.354693,0.70939 -0.975406,1.06408 -0.620712,0.3547 -1.330099,0.3547 -1.241425,0 -2.039485,-0.97541 -0.709386,-0.9754 -0.709386,-1.95081 0,-0.62071 0.26602,-1.15275 z" />
    <path
       inkscape:connector-curvature="0"
       id="path876"
       style="font-style:normal;font-variant:normal;font-weight:normal;font-stretch:normal;font-size:50.79999924px;line-height:1.25;font-family:Antipasto;-inkscape-font-specification:Antipasto;letter-spacing:0px;word-spacing:0px;fill:#440055;fill-opacity:1;stroke:none;stroke-width:1;stroke-miterlimit:4;stroke-dasharray:none"
       d="m 102.39819,120.79058 q 0,-1.15275 0.79806,-1.95081 0.79806,-0.79806 1.95081,-0.79806 0.97541,0 1.41877,0.44336 0.53204,0.3547 1.06408,1.06408 l 30.50361,43.18388 v -41.94245 q 0,-1.15275 0.79806,-1.95081 0.79806,-0.79806 1.95081,-0.79806 1.15275,0 1.95081,0.79806 0.79806,0.79806 0.79806,1.95081 v 51.16447 q 0,1.15275 -0.79806,1.95081 -0.79806,0.79806 -1.95081,0.79806 -0.97541,0 -1.59612,-0.53204 -0.62071,-0.62071 -1.06408,-1.3301 l -30.32626,-42.91786 v 42.03113 q 0,1.15275 -0.79806,1.95081 -0.79806,0.79806 -1.95081,0.79806 -1.15275,0 -1.95081,-0.79806 -0.79806,-0.79806 -0.79806,-1.95081 z" />
    <g
       transform="matrix(3.3938312,0.98382303,0.98382303,-3.3938312,185.75684,147.79415)"
       id="g969"
       style="fill:#ffff00;stroke:#660080">
      <path
         inkscape:connector-curvature="0"
         id="path967"
         style="fill:#ffff00;fill-opacity:1;fill-rule:nonzero;stroke:#660080"
         d="m 0,0 c 0.198,0.221 0.084,0.573 -0.206,0.636 l -1.898,0.409 c -0.105,0.023 -0.197,0.09 -0.251,0.184 L -3.332,2.906 C -3.48,3.162 -3.851,3.162 -4,2.906 L -4.976,1.229 C -5.03,1.135 -5.122,1.068 -5.229,1.045 L -7.126,0.636 C -7.415,0.573 -7.529,0.221 -7.332,0 l 1.294,-1.446 c 0.072,-0.081 0.107,-0.19 0.097,-0.297 l -0.198,-1.932 c -0.029,-0.295 0.27,-0.512 0.541,-0.392 l 1.776,0.783 c 0.099,0.044 0.213,0.044 0.312,0 l 1.776,-0.783 c 0.271,-0.12 0.571,0.097 0.541,0.392 l -0.197,1.932 c -0.01,0.107 0.024,0.216 0.097,0.297 z" />
    </g>
  </g>
</svg>
