<?xml version="1.0" encoding="UTF-8" standalone="no"?>
<!-- Created with Inkscape (http://www.inkscape.org/) -->

<svg
   xmlns:dc="http://purl.org/dc/elements/1.1/"
   xmlns:cc="http://creativecommons.org/ns#"
   xmlns:rdf="http://www.w3.org/1999/02/22-rdf-syntax-ns#"
   xmlns:svg="http://www.w3.org/2000/svg"
   xmlns="http://www.w3.org/2000/svg"
   xmlns:sodipodi="http://sodipodi.sourceforge.net/DTD/sodipodi-0.dtd"
   xmlns:inkscape="http://www.inkscape.org/namespaces/inkscape"
   width="62mm"
   height="58mm"
   viewBox="0 0 62 58"
   version="1.1"
   id="svg8"
   inkscape:version="0.92.2 2405546, 2018-03-11"
   sodipodi:docname="salonBackground.svg">
  <defs
     id="defs2" />
  <sodipodi:namedview
     id="base"
     pagecolor="#ffffff"
     bordercolor="#666666"
     borderopacity="1.0"
     inkscape:pageopacity="0.0"
     inkscape:pageshadow="2"
     inkscape:zoom="1.8101934"
     inkscape:cx="83.090609"
     inkscape:cy="124.11615"
     inkscape:document-units="mm"
     inkscape:current-layer="layer1"
     showgrid="false"
     showborder="true"
     inkscape:window-width="1366"
     inkscape:window-height="768"
     inkscape:window-x="0"
     inkscape:window-y="0"
     inkscape:window-maximized="0"
     borderlayer="true"
     inkscape:showpageshadow="false" />
  <metadata
     id="metadata5">
    <rdf:RDF>
      <cc:Work
         rdf:about="">
        <dc:format>image/svg+xml</dc:format>
        <dc:type
           rdf:resource="http://purl.org/dc/dcmitype/StillImage" />
        <dc:title></dc:title>
      </cc:Work>
    </rdf:RDF>
  </metadata>
  <g
     inkscape:label="Layer 1"
     inkscape:groupmode="layer"
     id="layer1"
     transform="translate(0,-239)">
    <g
       id="g889"
       transform="matrix(0.31186956,0,0,0.31186956,-175.66951,360.29215)"
       inkscape:export-filename="/home/kona/mySite/AbraKdabra/salonBack.png"
       inkscape:export-xdpi="300"
       inkscape:export-ydpi="300">
      <path
         style="fill:#cc00ff;stroke:#ffff00;stroke-width:5;stroke-linecap:round;stroke-linejoin:round;stroke-miterlimit:4;stroke-dasharray:none;stroke-opacity:1"
         d="m 604.89189,-234.17497 c 7.98429,-10.95582 19.9666,-16.92618 28.45445,-20.00586 10.16192,-2.80753 18.20113,30.86279 19.97397,44.87892 1.12059,-12.60774 18.00275,-58.0219 36.61173,-41.88169 4.13021,3.62831 7.57443,7.85684 11.18794,11.93726 -1.29228,-5.19702 -2.46983,-10.36914 -1.94305,-15.17147 1.46497,-11.70462 12.65949,-8.47219 18.7726,-4.74169 6.33029,3.90837 12.25413,9.3071 18.18124,14.69383 -3.78417,-6.29968 -6.33458,-12.805 -8.47493,-19.37865 -4.21163,-11.5088 0.3418,-15.22644 4.66708,-19.14688 7.97254,-5.23021 16.47407,-8.66188 25.42087,-10.57961 -29.37158,-6.10419 -50.29696,3.10012 -12.23755,-65.07899 -26.05134,17.78718 -66.02482,62.82404 -60.84672,-10.14757 -26.61908,42.50457 -51.87877,26.82777 -76.55635,-13.76367 8.11688,33.11216 20.37035,67.63524 -40.48924,77.22054 38.48502,2.85669 32.98205,18.73024 17.9834,37.41374 39.0696,-21.85589 20.90033,18.40489 19.29456,33.75179 z"
         id="path843"
         inkscape:connector-curvature="0"
         sodipodi:nodetypes="ccccccccccccccccc" />
      <path
         inkscape:connector-curvature="0"
         id="path845"
         d="m 722.76476,-265.01759 c -0.45538,-0.72525 -0.3207,-1.01639 1.82349,-3.94259 1.8773,-2.56169 2.58721,-3.95132 3.75214,-7.34493 0.79055,-2.30186 1.31384,-4.47111 1.16351,-4.8202 -0.19689,-0.45725 -1.14946,-0.7518 -3.40311,-1.05278 -5.89079,-0.78639 -10.40342,0.48236 -15.00498,4.21892 -1.65792,1.34624 -2.65162,1.84757 -3.21649,1.62274 -2.13655,-0.85038 1.28295,-4.45951 5.66116,-5.97479 3.26976,-1.1317 7.59485,-1.45966 11.3749,-0.86247 3.92388,0.61995 7.0315,2.40034 10.08682,5.77971 3.89455,4.30722 6.18081,12.8315 3.94677,14.71549 -1.33931,1.12952 -2.06633,-0.0137 -1.92896,-3.03334 0.18935,-4.16284 -0.0553,-5.6405 -1.39676,-8.43696 -1.21996,-2.54295 -4.61196,-6.71149 -5.241,-6.44063 -0.18833,0.0811 -0.45866,1.37681 -0.60021,2.87916 -0.27121,2.87908 -3.03289,10.70024 -4.41861,12.5129 -0.89896,1.17603 -1.92879,1.24714 -2.5992,0.17935 z m -13.16536,-6.45228 c 0.12357,-0.32399 -0.0816,-0.57308 -0.47854,-0.5779 -0.46635,-0.006 -0.53996,-0.18059 -0.22447,-0.52138 0.2692,-0.29174 0.23131,-0.61225 -0.0911,-0.74473 -0.46874,-0.19195 -0.44201,-0.25482 0.15834,-0.3667 0.42499,-0.08 0.67249,-0.40893 0.60285,-0.80257 -0.084,-0.47516 0.0513,-0.51103 0.47107,-0.12394 0.34986,0.32275 0.67368,0.33788 0.79778,0.037 0.14424,-0.34889 0.25069,-0.28253 0.34446,0.21428 0.0787,0.41991 0.4106,0.67202 0.79445,0.60422 0.44984,-0.0793 0.48845,0.0104 0.12171,0.28264 -0.31296,0.23202 -0.35794,0.64648 -0.107,0.99243 0.29647,0.40944 0.27194,0.53282 -0.081,0.39748 -0.30424,-0.11571 -0.51543,0.12913 -0.52137,0.60497 -0.007,0.57085 -0.12583,0.64485 -0.41375,0.25706 -0.23798,-0.32101 -0.64708,-0.36736 -0.99728,-0.1135 -0.49313,0.35746 -0.55637,0.33398 -0.37521,-0.13697 z m 32.35368,12.08257 c 0.0334,-0.51874 0.2226,-1.69639 0.42032,-2.61669 0.19763,-0.9203 0.0201,-3.27706 -0.39484,-5.23736 -0.74072,-3.49963 -0.73868,-3.52285 0.11212,-1.28387 1.1315,2.97726 1.35686,7.08265 0.48136,8.77048 -0.54028,1.04176 -0.66747,1.11714 -0.61885,0.36749 z m -20.31973,-10.53697 c 0.23795,-0.36989 0.76019,-0.59479 1.16027,-0.49961 0.99484,0.23645 0.21493,1.51262 -0.80669,1.32036 -0.54578,-0.10297 -0.65387,-0.35346 -0.35338,-0.82068 z m 10.59957,4.19017 c -0.22539,-0.52343 -0.19607,-1.18247 0.0649,-1.4652 0.26122,-0.2829 0.51004,-0.60382 0.55369,-0.71349 0.0436,-0.10952 0.22086,-0.008 0.39446,0.22503 0.17327,0.23368 0.38739,0.24277 0.47552,0.0214 0.0883,-0.22199 0.49547,-0.15653 0.90467,0.14466 0.40931,0.30117 0.59131,0.66108 0.4043,0.80002 -0.18661,0.13891 -0.14158,0.44195 0.10038,0.67386 0.33313,0.31881 0.24434,0.4687 -0.36264,0.61535 -0.44131,0.10665 -0.61723,0.27437 -0.39,0.3728 0.43949,0.19225 -0.96591,0.56324 -1.44868,0.3836 -0.1577,-0.0574 -0.47015,-0.53457 -0.69552,-1.05753 z m -28.38446,-13.18617 c 0.53228,-1.33733 6.88951,-5.15363 8.97853,-5.38987 0.48715,-0.0552 -0.35526,0.45452 -1.87198,1.1326 -1.51681,0.67799 -3.60067,2.02604 -4.63082,2.99555 -1.03009,0.96956 -2.02878,1.70085 -2.21926,1.62504 -0.19043,-0.0758 -0.30585,-0.23945 -0.25657,-0.36328 z m 40.67296,15.72395 c 0.13705,-0.34434 0.53103,-0.51439 0.87584,-0.37715 0.34434,0.13705 0.51419,0.53152 0.37714,0.87586 -0.13724,0.34481 -0.53102,0.51438 -0.87585,0.37713 -0.34481,-0.13724 -0.51437,-0.53103 -0.37713,-0.87584 z m -24.72452,-13.24359 c 0.7215,-1.81275 5.18818,-4.5962 7.86055,-4.89837 0.7468,-0.0845 0.34541,0.26212 -1.26482,1.09242 -1.29719,0.66888 -3.03744,2.01967 -3.86723,3.00185 -1.47902,1.75057 -3.3213,2.29348 -2.7285,0.8041 z m 26.87203,7.19692 c -1.09096,-1.96525 -3.12675,-4.78218 -4.52398,-6.25976 -2.36538,-2.50141 -2.83353,-2.80432 -6.79097,-4.39402 -5.10028,-2.04732 -4.83524,-2.73939 0.37162,-0.97721 4.28479,1.44997 8.23801,4.24804 11.67758,8.26452 2.44334,2.85325 3.89577,6.10231 3.10905,6.955 -0.87111,0.94379 -1.8218,0.0563 -3.84556,-3.58943 z m -6.51255,-2.58672 c -0.25583,-0.86923 -0.23522,-0.87812 0.22064,-0.0952 0.47852,0.82256 0.56328,1.25358 0.21955,1.11677 -0.0869,-0.0346 -0.2849,-0.49458 -0.44002,-1.02181 z m 14.37767,0.23351 c -0.30324,-0.37385 -0.34609,-0.90143 -0.0953,-1.17319 0.74268,-0.80496 1.80309,-0.54844 1.91758,0.46378 0.13945,1.23305 -1.02825,1.68755 -1.82219,0.70931 z m -47.20673,-19.70705 c 0.22165,-0.55689 0.61068,-0.72458 1.16778,-0.50284 0.55688,0.22164 0.72461,0.61072 0.50289,1.1678 -0.22165,0.55688 -0.61072,0.72462 -1.16785,0.50288 -0.55684,-0.22164 -0.72458,-0.6107 -0.50282,-1.16784 z m 3.05597,0.83124 c 0.47838,-1.20191 9.79651,1.34004 13.51,3.68554 1.344,0.84867 0.62393,0.65407 -3.27579,-0.88666 -4.33206,-1.71185 -6.88375,-2.33411 -9.7099,-2.36893 -0.38049,-0.005 -0.61605,-0.19945 -0.52437,-0.4298 z m 18.30256,5.77377 c -1.92346,-4.74424 -7.94666,-8.43066 -16.21102,-9.92184 -4.9768,-0.898 -6.15242,-1.45198 -5.6674,-2.67057 0.48992,-1.2309 2.78755,-0.98968 7.97016,0.83666 5.84105,2.05855 9.65821,4.44308 12.14309,7.58612 1.63156,2.06368 3.26889,5.48536 2.73487,5.71534 -0.16057,0.0691 -0.59683,-0.62671 -0.96965,-1.54581 z m 3.63707,1.70704 c 4.64573,-1.61838 10.94011,-1.16588 15.25508,1.09668 2.82119,1.47944 5.97627,4.25946 6.79333,5.98597 1.09324,2.31041 -0.35515,1.75803 -3.33196,-1.26902 -2.73165,-2.77966 -3.17898,-3.07164 -7.09217,-4.62915 -3.86221,-1.53723 -4.42128,-1.64252 -7.4262,-1.39936 -1.78729,0.14467 -3.8423,0.3846 -4.56666,0.53316 -0.94261,0.19343 -0.83787,0.10312 0.36781,-0.31703 z m -6.25065,-2.14957 c 0.34949,-8.7e-4 0.70396,0.15727 0.78678,0.35319 0.0834,0.1937 -0.20246,0.19427 -0.63558,10e-4 -0.47874,-0.21282 -0.53817,-0.35194 -0.15204,-0.35307 z m 16.66762,4.54402 c 0.22164,-0.55688 0.61069,-0.7246 1.16777,-0.50287 0.55688,0.22165 0.72458,0.61069 0.50284,1.16781 -0.22166,0.5569 -0.6107,0.72458 -1.16779,0.50285 -0.55689,-0.22165 -0.72456,-0.61068 -0.50282,-1.16779 z m -14.85208,-9.53732 c -2.60229,-5.99309 -4.62712,-8.03484 -12.0693,-12.17031 -2.0311,-1.12841 -2.34318,-1.46177 -2.14304,-2.28877 0.19225,-0.79433 0.51265,-0.91333 1.78722,-0.66375 3.82697,0.74927 9.28541,5.98139 11.9933,11.4959 1.45937,2.97199 2.91733,7.6157 2.41467,7.69072 -0.11303,0.0168 -1.005,-1.8119 -1.98285,-4.06379 z m 4.9612,4.27279 c 3.78782,-3.78967 9.45716,-5.44779 16.02943,-4.68818 4.41339,0.51012 7.58933,2.50524 6.26794,3.93733 -0.42021,0.45552 -1.11326,0.35264 -3.18824,-0.47323 -7.21243,-2.87067 -12.83503,-2.51724 -18.10902,1.13836 -1.97046,1.3658 -2.30855,1.39478 -1.00018,0.0859 z m 3.18889,0.19621 c 4.18353,-1.49285 10.42419,-0.38799 14.4744,2.56252 1.31815,0.96008 2.44976,1.86942 2.51477,2.02051 0.32097,0.74535 -0.62063,0.36046 -2.45825,-1.00717 -4.24863,-3.15593 -9.63926,-4.46007 -14.14026,-3.42087 l -2.35155,0.54297 1.96169,-0.69997 z m -4.57286,-3.52911 c 0.5189,-2.72077 -0.012,-8.47977 -1.04376,-11.31789 -0.50521,-1.3896 -1.75866,-3.73177 -2.78547,-5.2049 -1.8173,-2.6071 -2.14632,-3.99913 -0.82047,-3.47142 2.29781,0.91457 5.00426,7.13146 5.48852,12.6075 0.27054,3.05944 -0.12162,7.60366 -0.73518,8.51892 -0.24585,0.36674 -0.29166,-0.1445 -0.10367,-1.13222 z m 2.17256,-2.48168 c 0.69466,-1.87456 1.697,-5.46965 2.22635,-7.98958 0.77409,-3.684 1.10082,-4.62646 1.66784,-4.8105 1.54434,-0.50135 1.093,1.89349 -1.68143,8.92086 -1.47463,3.73603 -2.54101,6.84956 -2.36937,6.91919 0.1717,0.0694 0.25004,0.28351 0.17385,0.47493 -0.0761,0.19128 -0.39563,0.24597 -0.70987,0.1209 -0.42967,-0.17102 -0.2577,-1.07301 0.69244,-3.63536 z m 1.00328,1.5687 c 1.15731,-1.93706 5.6181,-5.866 8.19538,-7.21867 2.17116,-1.13952 6.69809,-1.85218 8.13435,-1.28052 1.48534,0.59119 0.22698,1.58291 -2.07701,1.63694 -5.21233,0.12218 -8.76936,1.77214 -12.86013,5.96504 -1.64049,1.68148 -1.99935,1.91271 -1.39259,0.89721 z m -26.33248,-10.51198 c 0.53499,-0.0979 2.99512,0.55887 5.46701,1.45929 4.14606,1.51022 4.24171,1.56536 1.23398,0.71174 -1.79315,-0.50918 -4.25324,-1.16599 -5.46706,-1.45933 -1.77097,-0.42831 -2.01466,-0.56865 -1.23392,-0.71171 z m 13.07221,5.38522 c 0.3495,-8.7e-4 0.70377,0.15769 0.78679,0.35319 0.0834,0.1937 -0.20268,0.19479 -0.6356,0.001 -0.47874,-0.21282 -0.53816,-0.35195 -0.15205,-0.35311 z m -2.36929,-1.41676 c 0.33324,-0.002 0.80315,0.18538 1.04411,0.41557 0.24096,0.2302 -0.0316,0.23154 -0.60593,0.003 -0.57429,-0.22858 -0.77149,-0.41687 -0.43818,-0.4185 z m -9.70019,-6.23579 c -0.37227,-0.86456 0.35311,-2.21525 0.83811,-1.56141 0.14023,0.18887 0.37754,0.21872 0.52797,0.0662 0.1501,-0.15295 0.46727,0.19136 0.70584,0.76153 0.23829,0.57143 0.23406,0.95998 -0.009,0.86315 -0.2432,-0.0968 -0.40537,0.0335 -0.35996,0.28988 0.14743,0.83415 -1.31813,0.47296 -1.70253,-0.41934 z m 35.96642,8.21027 c 0.0572,-0.46124 0.28729,-0.76533 0.50698,-0.67789 0.22199,0.0884 0.36638,-0.049 0.32089,-0.30543 -0.10801,-0.61161 1.20971,-0.58362 1.88536,0.0399 0.29091,0.26837 0.35778,0.61498 0.14903,0.76986 -0.20915,0.15516 -0.19854,0.35414 0.0232,0.44241 0.22199,0.0884 0.17769,0.46672 -0.0975,0.84087 -0.6917,0.93965 -2.93091,0.0484 -2.78774,-1.10957 z m -21.2742,-8.65593 c -0.3687,-0.85628 0.55388,-2.58611 1.03406,-1.93903 0.15362,0.20681 0.36812,0.1519 0.47541,-0.11766 0.14549,-0.36554 0.29403,-0.31498 0.57236,0.19347 0.2064,0.37872 0.60137,0.61707 0.87788,0.52945 0.2763,-0.0871 0.29515,-0.0438 0.0419,0.0973 -0.25316,0.14086 -0.35145,0.5916 -0.21861,1.00159 0.17919,0.55192 0.11432,0.69484 -0.25274,0.54875 -0.27132,-0.10799 -0.45704,0.0112 -0.41215,0.26454 0.14015,0.79358 -1.7506,0.2751 -2.11927,-0.58121 z m 14.83794,5.37143 c -0.0909,-0.21101 -0.0657,-0.63478 0.0562,-0.94103 0.24764,-0.62219 1.38013,-0.33385 1.50678,0.38383 0.10113,0.57286 -1.33568,1.08545 -1.56305,0.55742 z m -2.43863,-8.00738 c 0.17506,-0.47091 0.0181,-0.72606 -0.4547,-0.73186 -0.52076,-0.007 -0.57798,-0.17117 -0.20151,-0.57908 0.31844,-0.34526 0.31226,-0.65527 -0.0198,-0.78742 -0.40353,-0.16061 -0.37506,-0.29099 0.10904,-0.49948 0.35999,-0.15502 0.65892,-0.58304 0.66313,-0.95109 0.006,-0.45991 0.18392,-0.50562 0.57859,-0.14285 0.35067,0.32357 0.65976,0.30834 0.80214,-0.0379 0.1898,-0.46334 0.25673,-0.43383 0.36945,0.16438 0.0777,0.41379 0.482,0.73414 0.93284,0.73987 0.48502,0.006 0.62477,0.13664 0.35753,0.33497 -0.24089,0.17897 -0.32004,0.68916 -0.17542,1.13423 0.20598,0.63399 0.15158,0.76486 -0.25276,0.60393 -0.30042,-0.11957 -0.51761,0.11741 -0.52288,0.57145 -0.007,0.55101 -0.16207,0.63513 -0.53527,0.29097 -0.29222,-0.26939 -0.83631,-0.24138 -1.22545,0.0631 -0.65908,0.51594 -0.68416,0.50568 -0.42683,-0.17527 z"
         style="fill:#ff0000;stroke-width:0.44952995"
         sodipodi:nodetypes="ccccccsccccccsccccccccccccccccccccccccccccccccccccscsccccccccccccsccsssssscscsccccccccccscccccccsssssscccssccscccccccccscccccccccsssssccccccccccsscccccccccccccscccccccccssccccscccccccccccccccsscccccsccccscccscccccsccccsccccsccccccsccccccccsccccc" />
      <path
         inkscape:connector-curvature="0"
         id="path847"
         d="m 621.29865,-224.84762 c -0.55469,-0.18696 -0.51295,-1.26936 0.0575,-1.48824 0.25478,-0.0976 0.60745,-0.003 0.78415,0.20958 0.40082,0.48299 -0.25325,1.47693 -0.84153,1.27874 z m -8.76395,-2.82934 c -0.0398,-0.47997 0.14525,-0.80372 0.51464,-0.9003 0.77211,-0.20191 0.86325,0.94558 0.10728,1.3502 -0.45043,0.24098 -0.57203,0.1532 -0.62192,-0.4499 z m 8.95088,-3.11052 c -0.0582,-1.43717 -0.0231,-3.95513 0.0804,-5.59551 0.15371,-2.45739 0.19653,-1.99733 0.24327,2.61301 0.0587,5.77897 -0.13761,7.5862 -0.32373,2.9825 z m 3.44484,2.26037 c -0.33446,-0.54089 0.41756,-1.16113 0.86506,-0.71364 0.3743,0.3743 0.14027,1.06626 -0.36091,1.06626 -0.15752,0 -0.38416,-0.15868 -0.50403,-0.35247 z m 3.10705,-1.74711 c -0.53572,-0.64548 0.24978,-1.02635 0.85922,-0.41668 0.42454,0.42454 0.4237,0.50242 -0.008,0.66786 -0.26858,0.10297 -0.65177,-0.0116 -0.85188,-0.25133 z m 4.99464,-0.0652 c 0.15254,-1.04003 1.35514,-1.30227 1.35514,-0.29538 0,0.51126 -0.19654,0.70781 -0.70782,0.70781 -0.38933,0 -0.68062,-0.18542 -0.64732,-0.41228 z m -18.618,0.13712 c -0.003,-0.13331 0.731,-1.57424 1.63477,-3.20187 2.77676,-5.00081 4.72314,-7.63721 2.42628,-3.28645 -1.30905,2.47968 -4.04825,6.85605 -4.06105,6.48832 z m 9.09244,-4.81602 c -0.57097,-2.15781 -0.9755,-3.98585 -0.89903,-4.06235 0.0766,-0.0766 0.51411,1.21461 0.97248,2.86905 0.96167,3.47097 1.31897,5.11656 1.11093,5.11656 -0.0804,0 -0.61345,-1.76546 -1.18438,-3.92326 z m -5.20835,3.08525 c 0,-0.28235 0.17317,-0.4558 0.38518,-0.38519 0.60148,0.20038 0.70124,0.8988 0.12834,0.8988 -0.28237,0 -0.51357,-0.23102 -0.51357,-0.51361 z m -7.1363,-0.92696 c 0,-0.25708 0.12949,-0.5474 0.28772,-0.64518 0.35708,-0.22067 1.0842,0.60584 0.79084,0.8992 -0.38591,0.38591 -1.07845,0.22297 -1.07845,-0.25402 z m 18.3104,-1.59705 c -1.24412,-1.13546 -2.99001,-2.92256 -3.87977,-3.97139 l -1.61776,-1.90696 1.86909,1.60387 c 1.64746,1.41364 6.31492,6.33897 6.00712,6.33897 -0.0643,0 -1.13461,-0.92902 -2.37868,-2.06449 z m -3.62786,-0.43871 c -1.61276,-2.73254 -2.54002,-4.57462 -2.08733,-4.14653 0.51672,0.48863 3.6723,6.06043 3.51909,6.21363 -0.0731,0.0731 -0.71755,-0.85697 -1.43176,-2.0671 z m -19.32647,1.40632 c -0.37164,-0.96846 -0.25019,-1.44463 0.34595,-1.35729 0.32221,0.0471 0.58339,0.38197 0.60403,0.77375 0.0192,0.37968 -0.0769,0.62054 -0.2157,0.53489 -0.13878,-0.0859 -0.31072,0.0191 -0.38236,0.23523 -0.0801,0.24022 -0.21608,0.16819 -0.35209,-0.18658 z m 12.93503,-1.33563 c 0.0877,-0.53524 0.44428,-1.84895 0.79192,-2.91941 0.34748,-1.07044 0.54437,-1.43536 0.43721,-0.81095 -0.10727,0.62442 -0.46349,1.93815 -0.79187,2.9194 -0.32834,0.98124 -0.52515,1.34618 -0.43726,0.81096 z m -5.75526,-0.001 c 0.44297,-0.85106 4.85898,-5.2018 5.06787,-4.99296 0.0889,0.0889 -1.09114,1.39449 -2.62205,2.90158 -1.53092,1.50705 -2.63155,2.44818 -2.44582,2.09138 z m 20.63962,0.13364 c -0.33408,-0.54084 0.41753,-1.16108 0.86503,-0.71359 0.3743,0.37431 0.14027,1.06626 -0.36091,1.06626 -0.15752,0 -0.38416,-0.15867 -0.50403,-0.35247 z m -25.12172,-0.74045 c 0,-0.0909 1.28312,-0.95895 2.85134,-1.92906 2.94169,-1.81964 6.23122,-3.58174 6.23122,-3.33787 0,0.2019 -3.6592,2.4606 -6.56863,4.05478 -1.38266,0.75758 -2.51393,1.30306 -2.51393,1.21215 z m 20.38411,-2.39869 c -3.34189,-1.82776 -5.127,-3.06517 -2.86777,-1.98791 2.51761,1.20051 6.3732,3.56346 5.75766,3.52871 -0.0444,-0.003 -1.34501,-0.69586 -2.88989,-1.5408 z m -21.86127,-1.07737 c -0.11988,-0.19386 -0.0909,-0.47983 0.0647,-0.63525 0.38363,-0.38363 1.22797,0.17469 0.94834,0.62724 -0.28351,0.45848 -0.73241,0.46205 -1.01302,0.008 z m 27.10293,-0.13414 c 0,-0.26743 0.21915,-0.48657 0.48656,-0.48657 0.26781,0 0.48657,0.21914 0.48657,0.48657 0,0.26779 -0.21876,0.48656 -0.48657,0.48656 -0.26741,0 -0.48656,-0.21877 -0.48656,-0.48656 z m -5.50381,-1.32933 c -3.01062,-0.79601 -3.82028,-1.1037 -2.90296,-1.10324 0.52917,2.7e-4 6.55461,1.6189 6.75785,1.81539 0.29769,0.28772 -0.93222,0.0605 -3.85489,-0.71215 z m -18.13551,0.3701 c 0.24212,-0.24213 6.82634,-1.85147 6.9734,-1.70444 0.0743,0.0743 -1.30305,0.52155 -3.06077,0.99391 -3.0488,0.81929 -4.23725,1.03511 -3.91263,0.71053 z m 26.77792,-2.2531 c -0.0809,-0.21072 0.0555,-0.66047 0.30344,-0.99931 0.24826,-0.33944 0.45048,-0.43392 0.45048,-0.21071 0,0.22298 0.14591,0.31531 0.3245,0.20497 0.17853,-0.11043 0.32451,0.0831 0.32451,0.42959 0,0.70089 -1.17029,1.18078 -1.40265,0.57523 z m -34.06865,-0.1164 c -0.0839,-0.13563 0.0537,-0.5286 0.30534,-0.87295 0.25171,-0.34443 0.45779,-0.44358 0.45779,-0.22068 0,0.22299 0.14591,0.31531 0.3245,0.20496 0.17854,-0.11026 0.32451,0.1 0.32451,0.46743 0,0.44487 -0.21034,0.66789 -0.62963,0.66789 -0.34633,0 -0.69824,-0.11109 -0.78213,-0.24673 z m 6.03412,-0.31888 c 1.56108,-0.0594 4.11554,-0.0594 5.6766,0 1.56108,0.0594 0.28391,0.10811 -2.83831,0.10811 -3.1221,0 -4.39935,-0.0487 -2.83829,-0.10811 z m 17.84074,0 c 1.56106,-0.0594 4.11553,-0.0594 5.67655,0 1.56108,0.0594 0.28389,0.10811 -2.83827,0.10811 -3.12214,0 -4.39935,-0.0487 -2.83828,-0.10811 z m -2.67612,-0.85248 c 0,-0.36627 9.65579,-2.9823 9.94417,-2.69393 0.14442,0.14442 -4.9668,1.68306 -7.18699,2.16327 -0.89201,0.19309 -1.8773,0.42825 -2.18954,0.52296 -0.31225,0.0947 -0.56764,0.0982 -0.56764,0.008 z m -10.05569,-0.57135 c -6.16504,-1.67988 -7.98237,-2.53971 -2.35044,-1.11209 3.72746,0.94486 5.17045,1.44398 4.13453,1.43012 -0.35668,-0.003 -1.15966,-0.1479 -1.78409,-0.318 z m 9.73131,-0.40286 c 0,-0.19807 3.74318,-2.5447 5.43332,-3.40588 2.28544,-1.16458 1.55374,-0.49347 -1.29752,1.19009 -3.34121,1.97285 -4.1358,2.39857 -4.1358,2.21579 z m -10.75787,-2.24575 c -4.218,-2.45252 -5.62696,-3.47013 -3.19033,-2.3041 1.98134,0.94816 7.13628,3.98704 7.13628,4.20691 0,0.32566 -0.66539,0.003 -3.94595,-1.90281 z m 10.58354,1.07009 c 1.16014,-1.48046 4.85845,-5.22367 6.17528,-6.25029 1.00095,-0.78035 0.8156,-0.49675 -0.81092,1.24079 -2.41922,2.58431 -6.31427,6.2217 -5.36436,5.0095 z m -6.99508,-0.62756 c -0.63471,-0.52318 -1.56544,-1.5085 -2.06824,-2.18954 -0.6656,-0.90155 -0.32757,-0.66747 1.24234,0.86081 1.18608,1.15445 2.15652,2.13977 2.15652,2.18953 0,0.19692 -0.22105,0.0537 -1.33062,-0.8608 z m -11.62046,-0.15519 c -0.27126,-0.32719 -0.27854,-0.52022 -0.0269,-0.67667 0.43025,-0.26589 1.36347,0.4433 1.11414,0.84673 -0.25709,0.41596 -0.65373,0.354 -1.08865,-0.17011 z m 15.50525,-1.73184 c -0.0643,-3.45312 0.0675,-8.64951 0.22335,-8.80543 0.0781,-0.0781 0.1421,2.36385 0.1421,5.42649 0,3.06268 -0.0728,5.56848 -0.16199,5.56848 -0.0892,0 -0.18047,-0.98531 -0.20306,-2.18954 z m 3.47667,-0.64877 c 1.55617,-2.86419 3.6805,-6.24425 3.92444,-6.24425 0.17816,0 -1.92694,3.83062 -3.69889,6.73081 -0.79023,1.29347 -1.51127,2.35175 -1.60221,2.35175 -0.0912,0 0.5285,-1.27725 1.37666,-2.83831 z m -7.26854,-0.16215 c -2.8801,-4.80012 -4.00827,-7.48428 -1.42963,-3.40132 1.38285,2.18963 3.41737,6.07743 3.18033,6.07743 -0.0797,0 -0.86761,-1.20426 -1.7507,-2.67611 z m 19.71679,2.0079 c -0.25823,-0.48234 -0.26512,-0.63739 -0.0231,-0.48709 0.19615,0.12137 0.35668,0.09 0.35668,-0.069 0,-0.15901 0.19769,-0.28925 0.43967,-0.28925 0.53565,0 0.52496,1.24668 -0.0116,1.42548 -0.21072,0.0701 -0.55392,-0.19079 -0.76222,-0.57994 z m -17.59127,-1.68327 c -0.6733,-2.17089 -1.58311,-6.14363 -1.43977,-6.28697 0.11839,-0.11838 1.66553,5.2118 2.01296,6.9357 0.32336,1.60425 0.0191,1.25944 -0.57319,-0.64873 z m 3.04935,0.89195 c -0.003,-0.6961 1.16483,-4.43472 1.21832,-3.89253 0.0192,0.17853 -0.24826,1.2732 -0.59067,2.43283 -0.3425,1.15962 -0.62493,1.8165 -0.62765,1.4597 z m 10.3354,-1.74481 c 0,-0.42539 0.83853,-1.03938 1.08407,-0.79379 0.44408,0.44408 0.18812,1.07845 -0.43529,1.07845 -0.3567,0 -0.64878,-0.128 -0.64878,-0.28466 z m -26.83766,-1.3849 c -0.0231,-0.32376 0.10496,-0.68063 0.28772,-0.7935 0.46956,-0.29003 0.98167,0.31417 0.75875,0.89505 -0.26092,0.68005 -0.99291,0.60902 -1.04644,-0.10147 z m 6.46411,0.023 c 0.064,-0.19195 0.25478,-0.34864 0.42438,-0.34864 0.16934,0 0.36053,0.15702 0.42443,0.34864 0.064,0.19194 -0.12717,0.34864 -0.42443,0.34864 -0.29731,0 -0.48828,-0.15668 -0.42438,-0.34864 z m 11.51607,-2.77795 c -0.25899,-0.25901 0.0345,-0.76572 0.44285,-0.76572 0.16781,0 0.30535,0.21876 0.30535,0.48657 0,0.50163 -0.38275,0.64445 -0.74808,0.2793 z m 8.98432,-0.49417 c -0.49085,-0.78623 -0.38477,-1.11491 0.35975,-1.11491 0.76012,0 0.8849,0.5748 0.26053,1.19929 -0.2494,0.2494 -0.42672,0.22564 -0.62011,-0.0842 z m -3.71979,-2.51475 c -0.0149,-0.10413 -0.071,-0.42397 -0.12685,-0.71089 -0.0698,-0.3563 0.11839,-0.51055 0.59251,-0.48656 0.62423,0.0307 0.73709,0.24864 0.58085,1.11633 -0.0544,0.30305 -1.0078,0.37661 -1.04661,0.0813 z m -17.04809,-0.4717 c -0.2793,-0.31875 -0.24022,-0.49863 0.16199,-0.74727 0.75062,-0.46389 1.30093,-0.18582 1.10619,0.55866 -0.18889,0.72283 -0.73034,0.80333 -1.26837,0.18849 z m 4.62496,0.18581 c -0.088,-0.14209 -0.0307,-0.46951 0.12949,-0.72712 0.21877,-0.35401 0.38084,-0.37699 0.66395,-0.0939 0.20613,0.20612 0.27662,0.53319 0.15669,0.72713 -0.25592,0.41446 -0.72338,0.46062 -0.95003,0.0938 z m 3.82881,-2.67399 c 0,-0.47217 0.18121,-0.6351 0.63096,-0.56767 0.91521,0.13712 0.98785,1.22985 0.0816,1.22985 -0.50132,0 -0.71272,-0.19653 -0.71272,-0.66218 z"
         style="fill:#ff0000;stroke-width:0.32437661"
         sodipodi:nodetypes="cccccccccccccccssccccccccsscccccccccscccsccccsccccccscccsccccccccccccccccccssccscscscccccccccsssssccccccccccscsccccscssccssssscssscccsscscccscssccsccccccccsccccccccsscccscscccscccssccccsccccccscssccccccscsccsscccsccccccccccccccccccccccscc" />
      <path
         sodipodi:type="star"
         style="opacity:1;fill:#00ff00;fill-opacity:1;fill-rule:nonzero;stroke:none;stroke-width:1.58633423;stroke-linecap:round;stroke-linejoin:round;stroke-miterlimit:4;stroke-dasharray:none;stroke-dashoffset:0;stroke-opacity:1"
         id="path849"
         sodipodi:sides="5"
         sodipodi:cx="188.60498"
         sodipodi:cy="220.5094"
         sodipodi:r1="12.466579"
         sodipodi:r2="7.2306156"
         sodipodi:arg1="0.81696662"
         sodipodi:arg2="1.4452852"
         inkscape:flatsided="false"
         inkscape:rounded="0.24"
         inkscape:randomized="0"
         d="m 197.13756,229.59845 c -1.37607,1.29181 -5.75487,-2.15158 -7.62744,-1.91531 -1.87257,0.23627 -5.25881,4.65941 -6.91263,3.74989 -1.65381,-0.90952 0.26793,-6.13808 -0.53544,-7.84598 -0.80336,-1.70791 -6.05642,-3.56159 -5.70248,-5.41552 0.35395,-1.85393 5.92045,-1.64196 7.29652,-2.93378 1.37606,-1.29181 1.51573,-6.8606 3.3883,-7.09687 1.87257,-0.23627 3.39112,5.12329 5.04493,6.03281 1.65382,0.90953 6.99321,-0.67849 7.79657,1.02942 0.80336,1.70791 -3.82463,4.80833 -4.17857,6.66226 -0.35395,1.85393 2.8063,6.44126 1.43024,7.73308 z"
         inkscape:transform-center-x="0.49873188"
         inkscape:transform-center-y="0.6229511"
         transform="rotate(-21.411232,-1063.2985,-1082.2882)" />
      <path
         inkscape:transform-center-y="-1.3700429"
         inkscape:transform-center-x="-0.42064883"
         d="m 233.33715,204.73565 c -2.17334,2.04028 -9.08917,-3.39817 -12.04668,-3.02501 -2.95751,0.37316 -8.3057,7.35902 -10.91772,5.92253 -2.61202,-1.43648 0.42315,-9.6944 -0.84567,-12.39185 -1.26882,-2.69744 -9.56545,-5.62513 -9.00642,-8.5532 0.55902,-2.92808 9.35068,-2.5933 11.52402,-4.63357 2.17334,-2.04028 2.39393,-10.83555 5.35144,-11.20871 2.95752,-0.37316 5.35589,8.09166 7.96791,9.52815 2.61202,1.43648 11.04498,-1.0716 12.3138,1.62584 1.26882,2.69745 -6.04056,7.59421 -6.59959,10.52229 -0.55902,2.92807 4.43224,10.17326 2.25891,12.21353 z"
         inkscape:randomized="0"
         inkscape:rounded="0.24"
         inkscape:flatsided="false"
         sodipodi:arg2="1.4452852"
         sodipodi:arg1="0.81696662"
         sodipodi:r2="11.419947"
         sodipodi:r1="19.689564"
         sodipodi:cy="190.38052"
         sodipodi:cx="219.8609"
         sodipodi:sides="5"
         id="path851"
         style="opacity:1;fill:#00ccff;fill-opacity:1;fill-rule:nonzero;stroke:none;stroke-width:2.5054369;stroke-linecap:round;stroke-linejoin:round;stroke-miterlimit:4;stroke-dasharray:none;stroke-dashoffset:0;stroke-opacity:1"
         sodipodi:type="star"
         transform="rotate(11.805887,3003.3859,1810.0791)" />
      <path
         sodipodi:type="star"
         style="opacity:1;fill:#0000ff;fill-opacity:1;fill-rule:nonzero;stroke:none;stroke-width:2.5054369;stroke-linecap:round;stroke-linejoin:round;stroke-miterlimit:4;stroke-dasharray:none;stroke-dashoffset:0;stroke-opacity:1"
         id="path853"
         sodipodi:sides="5"
         sodipodi:cx="330.83893"
         sodipodi:cy="312.99728"
         sodipodi:r1="19.689564"
         sodipodi:r2="11.419947"
         sodipodi:arg1="0.81696662"
         sodipodi:arg2="1.4452852"
         inkscape:flatsided="false"
         inkscape:rounded="0.24"
         inkscape:randomized="0"
         d="m 344.31517,327.35241 c -2.17334,2.04028 -9.08916,-3.39817 -12.04667,-3.02501 -2.95751,0.37316 -8.30571,7.35902 -10.91772,5.92253 -2.61202,-1.43648 0.42315,-9.6944 -0.84567,-12.39185 -1.26882,-2.69744 -9.56545,-5.62513 -9.00643,-8.5532 0.55903,-2.92808 9.35069,-2.59329 11.52403,-4.63357 2.17334,-2.04028 2.39393,-10.83555 5.35144,-11.20871 2.95751,-0.37316 5.35589,8.09166 7.96791,9.52815 2.61201,1.43649 11.04498,-1.0716 12.3138,1.62584 1.26882,2.69745 -6.04057,7.59422 -6.59959,10.52229 -0.55902,2.92807 4.43224,10.17326 2.2589,12.21353 z"
         inkscape:transform-center-x="-0.5899408"
         inkscape:transform-center-y="1.0834154"
         transform="rotate(37.197749,1344.5707,552.11493)" />
      <path
         sodipodi:type="star"
         style="opacity:1;fill:#ffcc00;fill-opacity:1;fill-rule:nonzero;stroke:none;stroke-width:3.31240392;stroke-linecap:round;stroke-linejoin:round;stroke-miterlimit:4;stroke-dasharray:none;stroke-dashoffset:0;stroke-opacity:1"
         id="path855"
         sodipodi:sides="4"
         sodipodi:cx="635.51514"
         sodipodi:cy="-246.91136"
         sodipodi:r1="5.2681322"
         sodipodi:r2="2.3179781"
         sodipodi:arg1="1.0838971"
         sodipodi:arg2="1.8692953"
         inkscape:flatsided="false"
         inkscape:rounded="0.1"
         inkscape:randomized="0"
         d="m 637.98003,-242.25545 c -0.35193,0.18631 -2.76598,-2.32333 -3.14658,-2.44044 -0.38059,-0.1171 -3.78791,0.60135 -3.97422,0.24942 -0.18632,-0.35193 2.32333,-2.76598 2.44043,-3.14658 0.11711,-0.38059 -0.60135,-3.78791 -0.24942,-3.97422 0.35193,-0.18632 2.76599,2.32333 3.14658,2.44043 0.3806,0.11711 3.78791,-0.60134 3.97423,-0.24942 0.18631,0.35193 -2.32333,2.76599 -2.44044,3.14658 -0.1171,0.3806 0.60135,3.78791 0.24942,3.97423 z"
         inkscape:transform-center-x="1.1451061e-05"
         inkscape:transform-center-y="3.8615114e-06" />
      <path
         inkscape:transform-center-y="-2.2729739e-06"
         inkscape:transform-center-x="1.3249336e-06"
         d="m 306.75131,214.52442 c -0.53123,0.28124 -4.17519,-3.50701 -4.74969,-3.68378 -0.5745,-0.17677 -5.71777,0.90772 -5.99901,0.37649 -0.28123,-0.53123 3.50702,-4.17519 3.68379,-4.74969 0.17677,-0.5745 -0.90772,-5.71777 -0.37649,-5.99901 0.53122,-0.28123 4.17519,3.50702 4.74969,3.68379 0.5745,0.17677 5.71777,-0.90772 5.999,-0.37649 0.28124,0.53122 -3.50701,4.17519 -3.68378,4.74969 -0.17677,0.5745 0.90772,5.71777 0.37649,5.999 z"
         inkscape:randomized="0"
         inkscape:rounded="0.1"
         inkscape:flatsided="false"
         sodipodi:arg2="1.8692953"
         sodipodi:arg1="1.0838971"
         sodipodi:r2="3.4989364"
         sodipodi:r1="7.9521284"
         sodipodi:cy="207.49643"
         sodipodi:cx="303.03061"
         sodipodi:sides="4"
         id="path857"
         style="opacity:1;fill:#ff0066;fill-opacity:1;fill-rule:nonzero;stroke:none;stroke-width:5;stroke-linecap:round;stroke-linejoin:round;stroke-miterlimit:4;stroke-dasharray:none;stroke-dashoffset:0;stroke-opacity:1"
         sodipodi:type="star"
         transform="rotate(41.770999,1052.1789,400.29658)" />
      <path
         sodipodi:nodetypes="ccccccsccccccsccccccccccccccccccccccccccccccccccccscsccccccccccccsccsssssscscsccccccccccscccccccsssssscccssccscccccccccscccccccccsssssccccccccccsscccccccccccccscccccccccssccccscccccccccccccccsscccccsccccscccscccccsccccsccccsccccccsccccccccsccccc"
         style="fill:#0000ff;stroke-width:0.29033113"
         d="m 598.82757,-299.09838 c 0.39363,-0.38855 0.35206,-0.59151 -0.56282,-2.74847 -0.80104,-1.88831 -1.04166,-2.867 -1.27174,-5.17287 -0.15629,-1.56411 -0.1642,-3.0053 -0.018,-3.20251 0.19147,-0.25832 0.83392,-0.30251 2.29525,-0.15815 3.81973,0.3775 6.46889,1.84304 8.8087,4.87317 0.84302,1.09172 1.39353,1.55396 1.78191,1.49623 1.46906,-0.21838 -0.1465,-2.99344 -2.67464,-4.59406 -1.88809,-1.19541 -4.55859,-2.04175 -7.02338,-2.2258 -2.55857,-0.19103 -4.77574,0.46829 -7.19669,2.14057 -3.0859,2.13138 -5.78486,7.15192 -4.65924,8.66698 0.67481,0.90832 1.3011,0.29708 1.66164,-1.62146 0.49709,-2.64506 0.8696,-3.5378 2.12684,-5.09729 1.14333,-1.41811 3.89275,-3.53669 4.24812,-3.2733 0.10638,0.0789 0.0846,0.93344 -0.0488,1.89888 -0.25562,1.85011 0.32295,7.17577 0.92582,8.52042 0.3911,0.87238 1.02797,1.06953 1.60748,0.49746 z m 9.23163,-2.10775 c -0.0297,-0.22198 0.13611,-0.34819 0.38636,-0.2925 0.2941,0.0651 0.36619,-0.0336 0.21828,-0.29454 -0.1258,-0.22339 -0.0548,-0.41914 0.16746,-0.45471 0.32309,-0.0513 0.31558,-0.0948 -0.0452,-0.25399 -0.25533,-0.11322 -0.36224,-0.35661 -0.26025,-0.59375 0.12318,-0.28627 0.0434,-0.32885 -0.2778,-0.1476 -0.26773,0.15112 -0.47354,0.11271 -0.50702,-0.0948 -0.0391,-0.24071 -0.1157,-0.21476 -0.24826,0.0837 -0.1116,0.25235 -0.3576,0.36171 -0.5889,0.26223 -0.27107,-0.11642 -0.30869,-0.0655 -0.11834,0.15969 0.16245,0.19217 0.12931,0.45942 -0.0796,0.63974 -0.24701,0.21348 -0.24982,0.29473 -0.008,0.26188 0.20838,-0.0277 0.30493,0.15747 0.23804,0.45758 -0.0796,0.36002 -0.0163,0.42403 0.22204,0.22286 0.19711,-0.16658 0.46117,-0.13517 0.64375,0.0762 0.25708,0.29774 0.30034,0.29232 0.25617,-0.0306 z m -22.12802,2.80727 c 0.0558,-0.33107 0.11114,-1.09941 0.12305,-1.70724 0.012,-0.60781 0.47238,-2.06316 1.0234,-3.23412 0.98364,-2.09046 0.9858,-2.10537 0.11956,-0.82371 -1.15201,1.70423 -1.90132,4.25179 -1.60074,5.44246 0.18547,0.73488 0.25427,0.8011 0.33466,0.32262 z m 14.3339,-3.61673 c -0.0948,-0.26776 -0.38987,-0.48645 -0.65547,-0.48583 -0.66042,10e-4 -0.35899,0.91913 0.31172,0.94947 0.35835,0.0161 0.46337,-0.12543 0.34362,-0.46363 z m -7.28377,1.06538 c 0.21916,-0.2957 0.29827,-0.71436 0.17607,-0.93073 -0.12226,-0.21656 -0.23115,-0.45515 -0.24247,-0.53051 -0.0113,-0.0752 -0.13772,-0.0376 -0.28131,0.0831 -0.14352,0.12126 -0.27948,0.0953 -0.3021,-0.0569 -0.0226,-0.15263 -0.28832,-0.17174 -0.59015,-0.043 -0.3019,0.12873 -0.46959,0.32805 -0.37258,0.44309 0.0968,0.11492 0.0236,0.2988 -0.16281,0.40879 -0.25661,0.15111 -0.22298,0.25849 0.13688,0.44054 0.26165,0.13238 0.34742,0.26384 0.18998,0.29209 -0.30477,0.0558 0.52387,0.49706 0.85396,0.45559 0.10767,-0.0127 0.37467,-0.26652 0.59377,-0.5619 z m 19.79604,-4.08855 c -0.13669,-0.91951 -3.56842,-4.25962 -4.84675,-4.71733 -0.29808,-0.10686 0.15603,0.33834 1.00921,0.9891 0.85321,0.65073 1.96375,1.80663 2.46787,2.56861 0.50409,0.76198 1.02369,1.36955 1.15466,1.35008 0.13095,-0.0195 0.22771,-0.10529 0.21506,-0.19041 z m -27.89704,3.86516 c -0.0352,-0.23675 -0.25768,-0.40199 -0.49478,-0.36673 -0.23675,0.0352 -0.4019,0.25808 -0.36673,0.4948 0.0352,0.23705 0.25768,0.40197 0.4948,0.36672 0.23706,-0.0352 0.40198,-0.25768 0.36671,-0.49479 z m 17.50367,-4.66635 c -0.18529,-1.2464 -2.58136,-3.65738 -4.21666,-4.24288 -0.45698,-0.16368 -0.25593,0.1137 0.63345,0.87398 0.71651,0.6125 1.61062,1.71927 1.9869,2.45955 0.67067,1.31946 1.74854,1.93341 1.59631,0.90935 z m -17.95877,0.54715 c 0.97673,-1.07401 2.6735,-2.5436 3.77058,-3.26571 1.85727,-1.22245 2.19642,-1.3436 4.91962,-1.75724 3.5094,-0.5322 3.44521,-1.00651 -0.089,-0.66934 -2.90833,0.27735 -5.80771,1.45129 -8.56454,3.46723 -1.95835,1.43211 -3.35234,3.25971 -2.98395,3.9122 0.40796,0.72226 1.13696,0.30508 2.94884,-1.68737 z m 4.47709,-0.66226 c 0.28949,-0.50859 0.27784,-0.51723 -0.1246,-0.0925 -0.42257,0.4463 -0.53964,0.70471 -0.30331,0.66957 0.0597,-0.009 0.25231,-0.26875 0.42787,-0.57724 z m -9.07333,-1.98124 c 0.24595,-0.19017 0.351,-0.51547 0.23361,-0.72342 -0.34776,-0.61598 -1.05237,-0.61166 -1.27417,0.008 -0.2702,0.75453 0.39666,1.21309 1.04057,0.71562 z m 32.59413,-5.40212 c -0.0569,-0.38291 -0.27695,-0.54577 -0.65971,-0.48897 -0.3829,0.0569 -0.5458,0.27697 -0.489,0.65973 0.0569,0.3829 0.27696,0.54579 0.65976,0.48899 0.38287,-0.0569 0.54576,-0.27694 0.48895,-0.65975 z m -2.04422,0.0703 c -0.12285,-0.8264 -6.35707,-0.60754 -9.03878,0.31737 -0.97054,0.33461 -0.48905,0.31886 2.19061,-0.0726 2.9768,-0.43499 4.67306,-0.44852 6.45491,-0.0521 0.2399,0.0534 0.41681,-0.0342 0.39337,-0.19241 z m -12.36079,0.92082 c 1.91141,-2.69785 6.24362,-4.12389 11.65986,-3.83815 3.26166,0.17208 4.08273,-0.002 3.95818,-0.84007 -0.12582,-0.84634 -1.60596,-1.03476 -5.13441,-0.65367 -3.97676,0.42961 -6.72941,1.36371 -8.75677,2.97185 -1.33115,1.05589 -2.86693,2.96464 -2.56525,3.18826 0.0907,0.0672 0.46796,-0.30569 0.83838,-0.82828 z m -2.53915,0.53484 c -2.68108,-1.70502 -6.70513,-2.35218 -9.75267,-1.56844 -1.99257,0.5125 -4.38754,1.79323 -5.15674,2.75769 -1.02924,1.29067 -0.0369,1.15778 2.28252,-0.30462 2.12871,-1.34318 2.45315,-1.46053 5.14378,-1.86049 2.65555,-0.39477 3.02261,-0.37821 4.87571,0.21941 1.10221,0.35545 2.3586,0.81049 2.79199,1.01109 0.56397,0.26111 0.51149,0.18885 -0.1843,-0.25374 z m 4.24773,-0.4262 c -0.21958,-0.0523 -0.46583,-0.005 -0.5469,0.10558 -0.0811,0.10945 0.0986,0.15208 0.39942,0.0947 0.33248,-0.0629 0.39044,-0.14157 0.14784,-0.19945 z m -11.15094,0.3897 c -0.0569,-0.38289 -0.27695,-0.54576 -0.65971,-0.48897 -0.38289,0.0569 -0.54576,0.27694 -0.48897,0.65974 0.0569,0.38291 0.27695,0.54577 0.65973,0.48895 0.38291,-0.0569 0.54576,-0.27694 0.48895,-0.65972 z m 10.74862,-3.79754 c 2.523,-3.38249 4.09815,-4.36637 9.3889,-5.8647 1.4439,-0.40877 1.68942,-0.57216 1.686,-1.12169 -0.003,-0.52782 -0.18711,-0.65005 -1.02532,-0.6818 -2.51679,-0.0954 -6.72272,2.38597 -9.24128,5.45198 -1.35735,1.65238 -2.96123,4.35593 -2.65633,4.4775 0.0686,0.0272 0.89999,-0.99033 1.84803,-2.26129 z m -3.75156,1.95143 c -1.82038,-2.94307 -5.13909,-4.82459 -9.38328,-5.31981 -2.85006,-0.33253 -5.14197,0.45167 -4.52322,1.54755 0.1968,0.34856 0.64769,0.38647 2.07439,0.17439 4.95911,-0.73718 8.44153,0.3172 11.21605,3.39596 1.0366,1.15028 1.24487,1.21853 0.61606,0.20205 z m -2.0338,-0.34864 c -2.4091,-1.5577 -6.49592,-1.78679 -9.47885,-0.53137 -0.97077,0.40849 -1.81678,0.81265 -1.87998,0.89805 -0.31211,0.42107 0.33681,0.31847 1.69448,-0.26933 3.13808,-1.35519 6.72002,-1.3772 9.39583,-0.0577 l 1.39798,0.6894 -1.12964,-0.7304 z m 3.39715,-1.54181 c 0.0765,-1.78725 1.26287,-5.32911 2.33133,-6.96069 0.52327,-0.79882 1.65795,-2.08574 2.5215,-2.85987 1.52836,-1.37002 1.94123,-2.19644 1.02961,-2.06093 -1.57993,0.23486 -4.20153,3.74264 -5.31648,7.11357 -0.6229,1.88331 -1.049,4.79816 -0.7987,5.46436 0.10027,0.26696 0.20473,-0.0477 0.2328,-0.69643 z m -0.9985,-1.88171 c -0.15926,-1.28129 -0.25729,-3.68976 -0.21711,-5.3523 0.0586,-2.43059 -0.007,-3.07144 -0.33651,-3.27105 -0.89667,-0.54377 -0.96738,1.02859 -0.26331,5.8571 0.37409,2.56698 0.58365,4.68219 0.46544,4.70056 -0.1182,0.0182 -0.19913,0.14128 -0.17959,0.27284 0.0195,0.13153 0.2123,0.2132 0.42838,0.18109 0.29541,-0.0439 0.32082,-0.63643 0.10275,-2.38791 z m -0.86291,0.83771 c -0.44086,-1.38907 -2.66369,-4.5193 -4.08373,-5.75114 -1.19628,-1.03773 -3.93673,-2.15579 -4.92427,-2.00899 -1.02129,0.15183 -0.37698,0.96153 1.06346,1.33651 3.25875,0.84828 5.25072,2.41203 7.20186,5.65344 0.78249,1.29988 0.97383,1.49838 0.74268,0.77018 z m 18.11022,-2.7111 c -0.32184,-0.14069 -1.96564,-0.0919 -3.6529,0.10825 -2.83003,0.33577 -2.89832,0.35627 -0.88112,0.2648 1.20266,-0.0547 2.84645,-0.1035 3.65296,-0.10825 1.17674,-0.007 1.35071,-0.0593 0.88105,-0.26479 z m -9.01512,1.4507 c -0.2196,-0.0523 -0.46578,-0.005 -0.5469,0.10559 -0.0811,0.10946 0.0985,0.15248 0.39942,0.0947 0.33248,-0.0629 0.39044,-0.14157 0.14785,-0.19949 z m 1.69919,-0.53999 c -0.20927,-0.0503 -0.53235,-0.002 -0.71791,0.10672 -0.18557,0.10903 -0.0144,0.15025 0.38047,0.0916 0.39487,-0.0587 0.54671,-0.14788 0.33742,-0.19824 z m 7.02114,-2.48451 c 0.362,-0.48842 0.10589,-1.44491 -0.29579,-1.10566 -0.11614,0.098 -0.2697,0.0817 -0.34173,-0.0365 -0.0715,-0.11848 -0.32208,0.0511 -0.55646,0.37426 -0.23438,0.32397 -0.28923,0.56885 -0.12192,0.54401 0.16721,-0.0249 0.2499,0.081 0.18342,0.2355 -0.21613,0.50259 0.75866,0.49243 1.13239,-0.0116 z m -23.8261,-0.16185 c 0.0324,-0.29842 -0.0673,-0.52364 -0.21839,-0.50119 -0.15265,0.0227 -0.22307,-0.0851 -0.15655,-0.2395 0.15847,-0.3685 -0.67413,-0.54595 -1.19118,-0.25393 -0.22271,0.12545 -0.31594,0.33366 -0.20767,0.46192 0.10852,0.12848 0.0724,0.25203 -0.0801,0.27469 -0.15264,0.0227 -0.18079,0.2671 -0.0631,0.54306 0.2958,0.69309 1.8354,0.46427 1.91679,-0.28494 z m 14.65555,-2.29292 c 0.35853,-0.48373 0.0346,-1.70777 -0.36309,-1.37204 -0.12716,0.10728 -0.25388,0.041 -0.28145,-0.14435 -0.0374,-0.25131 -0.13823,-0.24153 -0.38846,0.0369 -0.18579,0.20756 -0.4694,0.29889 -0.63026,0.20291 -0.1608,-0.0957 -0.17907,-0.0712 -0.0407,0.0549 0.13825,0.12608 0.13336,0.42395 -0.0108,0.66204 -0.19434,0.32045 -0.17469,0.4199 0.0777,0.38238 0.18655,-0.0277 0.28572,0.0745 0.21994,0.22731 -0.20554,0.47816 1.05983,0.43206 1.41834,-0.0517 z m -10.12315,1.1807 c 0.0884,-0.11918 0.13523,-0.38935 0.10395,-0.59992 -0.0636,-0.42779 -0.81823,-0.41415 -1.00407,0.0183 -0.14835,0.34517 0.67904,0.88007 0.90013,0.58177 z m 2.71826,-4.67304 c -0.0404,-0.32196 0.0961,-0.45914 0.39418,-0.39278 0.32852,0.0722 0.38869,-0.0221 0.21239,-0.33423 -0.14907,-0.2642 -0.0993,-0.45817 0.129,-0.4921 0.27744,-0.0413 0.27888,-0.12738 0.005,-0.33014 -0.20338,-0.15073 -0.32798,-0.46404 -0.27616,-0.69605 0.0642,-0.29005 -0.0408,-0.34509 -0.34259,-0.17548 -0.26833,0.15154 -0.46039,0.0962 -0.49866,-0.14256 -0.0507,-0.31938 -0.0972,-0.31076 -0.2566,0.0486 -0.11011,0.24864 -0.41167,0.39019 -0.69598,0.32702 -0.30583,-0.0679 -0.413,-0.007 -0.27432,0.15769 0.12491,0.14818 0.0992,0.48061 -0.0576,0.73902 -0.22333,0.36808 -0.2085,0.45839 0.0695,0.41707 0.20654,-0.0307 0.30803,0.1504 0.2441,0.43666 -0.0767,0.34755 0.008,0.42327 0.29345,0.26214 0.22366,-0.12594 0.56148,-0.028 0.76104,0.2211 0.33798,0.4219 0.35527,0.41916 0.2943,-0.047 z"
         id="path859"
         inkscape:connector-curvature="0" />
      <path
         inkscape:transform-center-y="3.8615114e-06"
         inkscape:transform-center-x="1.1451061e-05"
         d="m 714.86174,-326.44535 c -0.35192,0.18632 -2.76598,-2.32333 -3.14657,-2.44043 -0.3806,-0.11711 -3.78792,0.60135 -3.97423,0.24942 -0.18632,-0.35193 2.32333,-2.76599 2.44044,-3.14658 0.1171,-0.3806 -0.60135,-3.78791 -0.24942,-3.97423 0.35192,-0.18631 2.76598,2.32333 3.14658,2.44044 0.38059,0.1171 3.78791,-0.60135 3.97422,-0.24942 0.18632,0.35193 -2.32333,2.76598 -2.44043,3.14658 -0.11711,0.38059 0.60134,3.78791 0.24941,3.97422 z"
         inkscape:randomized="0"
         inkscape:rounded="0.1"
         inkscape:flatsided="false"
         sodipodi:arg2="1.8692953"
         sodipodi:arg1="1.0838971"
         sodipodi:r2="2.3179781"
         sodipodi:r1="5.2681322"
         sodipodi:cy="-331.10126"
         sodipodi:cx="712.39685"
         sodipodi:sides="4"
         id="path861"
         style="opacity:1;fill:#00ff66;fill-opacity:1;fill-rule:nonzero;stroke:none;stroke-width:3.31240392;stroke-linecap:round;stroke-linejoin:round;stroke-miterlimit:4;stroke-dasharray:none;stroke-dashoffset:0;stroke-opacity:1"
         sodipodi:type="star" />
      <path
         transform="rotate(37.197749,1498.7737,532.04442)"
         inkscape:transform-center-y="1.0834154"
         inkscape:transform-center-x="-0.5899408"
         d="m 344.31517,327.35241 c -2.17334,2.04028 -9.08916,-3.39817 -12.04667,-3.02501 -2.95751,0.37316 -8.30571,7.35902 -10.91772,5.92253 -2.61202,-1.43648 0.42315,-9.6944 -0.84567,-12.39185 -1.26882,-2.69744 -9.56545,-5.62513 -9.00643,-8.5532 0.55903,-2.92808 9.35069,-2.59329 11.52403,-4.63357 2.17334,-2.04028 2.39393,-10.83555 5.35144,-11.20871 2.95751,-0.37316 5.35589,8.09166 7.96791,9.52815 2.61201,1.43649 11.04498,-1.0716 12.3138,1.62584 1.26882,2.69745 -6.04057,7.59422 -6.59959,10.52229 -0.55902,2.92807 4.43224,10.17326 2.2589,12.21353 z"
         inkscape:randomized="0"
         inkscape:rounded="0.24"
         inkscape:flatsided="false"
         sodipodi:arg2="1.4452852"
         sodipodi:arg1="0.81696662"
         sodipodi:r2="11.419947"
         sodipodi:r1="19.689564"
         sodipodi:cy="312.99728"
         sodipodi:cx="330.83893"
         sodipodi:sides="5"
         id="path863"
         style="opacity:1;fill:#ff6600;fill-opacity:1;fill-rule:nonzero;stroke:none;stroke-width:2.5054369;stroke-linecap:round;stroke-linejoin:round;stroke-miterlimit:4;stroke-dasharray:none;stroke-dashoffset:0;stroke-opacity:1"
         sodipodi:type="star" />
    </g>
  </g>
</svg>
