<?xml version="1.0" encoding="UTF-8" standalone="no"?>
<!-- Created with Inkscape (http://www.inkscape.org/) -->

<svg
   xmlns:dc="http://purl.org/dc/elements/1.1/"
   xmlns:cc="http://creativecommons.org/ns#"
   xmlns:rdf="http://www.w3.org/1999/02/22-rdf-syntax-ns#"
   xmlns:svg="http://www.w3.org/2000/svg"
   xmlns="http://www.w3.org/2000/svg"
   xmlns:sodipodi="http://sodipodi.sourceforge.net/DTD/sodipodi-0.dtd"
   xmlns:inkscape="http://www.inkscape.org/namespaces/inkscape"
   width="320.56171mm"
   height="100mm"
   viewBox="0 0 320.5617 100"
   version="1.1"
   id="svg2065"
   inkscape:version="0.92.2 2405546, 2018-03-11"
   sodipodi:docname="titleSalon.svg">
  <defs
     id="defs2059">
    <clipPath
       clipPathUnits="userSpaceOnUse"
       id="clipPath13626">
      <path
         d="m 310.246,258.216 h 28.217 v -30.642 h -28.217 z"
         id="path13624"
         inkscape:connector-curvature="0" />
    </clipPath>
    <clipPath
       clipPathUnits="userSpaceOnUse"
       id="clipPath1233">
      <path
         d="m 310.246,258.216 h 28.217 v -30.642 h -28.217 z"
         id="path1231"
         inkscape:connector-curvature="0" />
    </clipPath>
    <clipPath
       clipPathUnits="userSpaceOnUse"
       id="clipPath1237">
      <path
         d="m 310.246,258.216 h 28.217 v -30.642 h -28.217 z"
         id="path1235"
         inkscape:connector-curvature="0" />
    </clipPath>
    <clipPath
       clipPathUnits="userSpaceOnUse"
       id="clipPath1241">
      <path
         d="m 310.246,258.216 h 28.217 v -30.642 h -28.217 z"
         id="path1239"
         inkscape:connector-curvature="0" />
    </clipPath>
    <clipPath
       clipPathUnits="userSpaceOnUse"
       id="clipPath1245">
      <path
         d="m 310.246,258.216 h 28.217 v -30.642 h -28.217 z"
         id="path1243"
         inkscape:connector-curvature="0" />
    </clipPath>
  </defs>
  <sodipodi:namedview
     id="base"
     pagecolor="#ffffff"
     bordercolor="#666666"
     borderopacity="1.0"
     inkscape:pageopacity="0.0"
     inkscape:pageshadow="2"
     inkscape:zoom="0.69999999"
     inkscape:cx="186.52116"
     inkscape:cy="216.3831"
     inkscape:document-units="mm"
     inkscape:current-layer="layer1"
     showgrid="false"
     fit-margin-top="0"
     fit-margin-left="0"
     fit-margin-right="0"
     fit-margin-bottom="0"
     inkscape:window-width="1366"
     inkscape:window-height="768"
     inkscape:window-x="0"
     inkscape:window-y="0"
     inkscape:window-maximized="0"
     inkscape:showpageshadow="false"
     borderlayer="true"
     units="mm"
     showguides="true"
     inkscape:guide-bbox="true" />
  <metadata
     id="metadata2062">
    <rdf:RDF>
      <cc:Work
         rdf:about="">
        <dc:format>image/svg+xml</dc:format>
        <dc:type
           rdf:resource="http://purl.org/dc/dcmitype/StillImage" />
        <dc:title />
      </cc:Work>
    </rdf:RDF>
  </metadata>
  <g
     inkscape:label="Layer 1"
     inkscape:groupmode="layer"
     id="layer1"
     transform="translate(260.55379,-328.36966)">
    <text
       xml:space="preserve"
       style="font-style:normal;font-variant:normal;font-weight:normal;font-stretch:normal;font-size:16.93333244px;line-height:1.25;font-family:'Microsoft Sans Serif';-inkscape-font-specification:'Microsoft Sans Serif';letter-spacing:0px;word-spacing:0px;fill:#000000;fill-opacity:1;stroke:none;stroke-width:0.26458332"
       x="-142.13524"
       y="234.63829"
       id="text862"><tspan
         sodipodi:role="line"
         id="tspan860"
         x="-142.13524"
         y="249.89107"
         style="stroke-width:0.26458332" /></text>
    <path
       d="m -194.79984,354.08566 c -7.03201,-18.57489 -26.89712,-27.67622 -44.37147,-20.32866 -17.47323,7.3484 -25.9398,28.36255 -18.90778,46.93744 6.85145,18.09935 28.95033,35.29139 46.24364,29.36258 -0.36718,0.98377 -0.83782,2.0248 -1.33335,2.496 -1.07245,1.01933 0.72835,2.47662 1.37676,2.5351 0.64688,0.0609 3.08546,-0.85377 3.08546,-0.85377 0,0 2.36474,-1.1062 2.79521,-1.61895 0.43048,-0.51276 0.78496,-2.87605 -0.65787,-2.83823 -0.66746,0.0169 -1.68927,-0.39495 -2.5971,-0.84318 16.41682,-8.24609 21.21814,-36.74798 14.3665,-54.84833"
       style="fill:#0000ff;fill-opacity:1;fill-rule:nonzero;stroke:none;stroke-width:2.02523375;stroke-miterlimit:4;stroke-dasharray:none"
       id="path17796"
       inkscape:connector-curvature="0" />
    <g
       transform="matrix(0.94676739,-0.18163373,-0.17683156,-1.0051343,-235.80963,336.43439)"
       id="g17804"
       style="stroke-width:2.04189515;stroke-miterlimit:4;stroke-dasharray:none;opacity:0.5">
      <path
         d="M 0,0 C -2.341,-0.469 -4.987,-1.644 -5.945,-2.083 -11.229,-4.504 -16.352,-8 -19.541,-12.961 c -5.382,-8.373 -5.137,-15.763 -3.529,-17.075 1.607,-1.312 4.645,0.568 5.915,5.179 1.076,3.908 3.838,7.627 6.435,10.652 1.508,1.756 3.177,3.453 5.108,4.747 3.098,2.077 8.836,2.486 9.674,6.952 C 4.57,0.208 2.452,0.491 0,0"
         style="fill:#ffffff;fill-opacity:1;fill-rule:nonzero;stroke:none;stroke-width:2.04189515;stroke-miterlimit:4;stroke-dasharray:none"
         id="path17802"
         inkscape:connector-curvature="0" />
    </g>
    <path
       style="fill:#ff9900;fill-opacity:1;stroke:#ffff00;stroke-width:2;stroke-linecap:butt;stroke-linejoin:miter;stroke-miterlimit:4;stroke-dasharray:none;stroke-opacity:1"
       d="m -217.48311,364.17655 c 2.5134,-1.58793 5.036,-4.60984 4.81753,-7.33456 -0.44198,-2.52693 -6.63674,-3.45293 -8.33743,-3.69762 -10.73983,-0.46578 -16.57354,5.80522 -18.44898,11.1243 -1.44732,3.5291 -0.78865,12.1905 7.23195,15.0341 4.55655,1.36955 13.82152,-3.0353 16.26263,-2.27486 2.25977,2.39785 -1.34852,5.78193 -5.39995,6.70891 -4.25224,0.56696 -7.93751,-1.03944 -7.93751,-1.03944 -1.4956,-1.04994 -6.49352,6.42403 -6.01606,7.44845 0.41504,1.21918 3.68999,2.10013 7.77787,3.31273 9.95946,1.96942 18.08671,-4.20568 20.20806,-8.35158 2.82253,-6.04762 1.64036,-12.2595 -2.02924,-16.09166 -4.2045,-3.75795 -11.47862,-1.80367 -17.38929,-0.1377 -5.84457,1.41196 -4.87228,-8.47576 9.26042,-4.70107 z"
       id="path1027"
       inkscape:connector-curvature="0"
       sodipodi:nodetypes="cccccccccccccc" />
    <path
       inkscape:connector-curvature="0"
       id="path12898"
       style="fill:#cc00ff;fill-opacity:1;fill-rule:nonzero;stroke:none;stroke-width:2.02523375;stroke-miterlimit:4;stroke-dasharray:none"
       d="m -132.78765,368.70472 c -5.80598,-19.0313 -25.03234,-29.52241 -42.94476,-23.4329 -17.91136,6.09041 -27.72695,26.4546 -21.92097,45.4859 5.65682,18.54404 26.58484,37.26576 44.22424,32.57887 -0.4304,0.95542 -0.96775,1.96061 -1.49282,2.39553 -1.13636,0.94081 0.56536,2.52262 1.20846,2.62701 0.64142,0.10665 3.13392,-0.63266 3.13392,-0.63266 0,0 2.43131,-0.93569 2.89418,-1.41669 0.46287,-0.48099 0.97045,-2.81363 -0.4715,-2.87837 -0.66701,-0.0306 -1.65964,-0.51401 -2.53618,-1.02568 16.91588,-7.06105 23.56235,-35.15596 17.90543,-53.70101" />
    <g
       clip-path="url(#clipPath13626)"
       id="g12908"
       style="opacity:0.5;stroke-width:2.04189515;stroke-miterlimit:4;stroke-dasharray:none"
       transform="matrix(0.95640481,-0.11397267,-0.11095935,-1.0153658,-463.67351,648.26896)">
      <g
         transform="translate(334.3252,258.0186)"
         id="g12906"
         style="stroke-width:2.04189515;stroke-miterlimit:4;stroke-dasharray:none">
        <path
           d="M 0,0 C -2.341,-0.469 -4.987,-1.644 -5.945,-2.083 -11.229,-4.504 -16.352,-8 -19.541,-12.961 c -5.382,-8.373 -5.137,-15.763 -3.529,-17.075 1.607,-1.312 4.645,0.568 5.915,5.179 1.076,3.908 3.838,7.627 6.435,10.652 1.508,1.756 3.177,3.453 5.108,4.747 3.098,2.077 8.836,2.486 9.674,6.952 C 4.57,0.208 2.452,0.491 0,0"
           style="fill:#ffffff;fill-opacity:1;fill-rule:nonzero;stroke:none;stroke-width:2.04189515;stroke-miterlimit:4;stroke-dasharray:none"
           id="path12904"
           inkscape:connector-curvature="0" />
      </g>
    </g>
    <g
       id="g1065"
       transform="translate(9.53639,-131.06393)">
      <path
         sodipodi:nodetypes="cccccccccc"
         inkscape:connector-curvature="0"
         id="path1029"
         d="m -184.41304,536.13152 c 1.20729,-10.20298 0.73875,-21.94839 1.10813,-32.92258 0.27121,-4.7542 10.6752,-6.62348 12.99293,-3.77976 l 19.0878,25.79688 c 2.80997,4.28824 -7.068,8.49826 -9.4494,5.95312 -1.47987,-1.55994 -1.41344,-4.08295 -4.19125,-2.91582 l -6.01411,2.06538 c -1.6754,0.61947 -2.77769,1.42847 -2.69022,3.15596 l 0.12742,2.15191 c 0.25436,3.28998 -12.44778,7.85667 -10.9713,0.49491 z"
         style="fill:#ff9900;fill-opacity:1;stroke:#ffff00;stroke-width:2;stroke-linecap:round;stroke-linejoin:round;stroke-miterlimit:4;stroke-dasharray:none;stroke-opacity:1" />
      <path
         sodipodi:nodetypes="cccc"
         inkscape:connector-curvature="0"
         id="path1031"
         d="m -173.52659,522.10908 c -1.7243,0.0853 -0.54779,-7.8382 -0.82169,-11.7573 2.00321,3.59851 6.89549,8.75417 6.1343,9.81355 -1.17079,1.44052 -3.86979,1.92195 -5.31261,1.94375 z"
         style="fill:#cc00ff;fill-opacity:1;stroke:#ffff00;stroke-width:2;stroke-linecap:round;stroke-linejoin:round;stroke-miterlimit:4;stroke-dasharray:none;stroke-opacity:1" />
    </g>
    <path
       d="m -66.28813,365.05342 c 0.401648,-19.96932 -14.541059,-36.39111 -33.376762,-36.67993 -18.834968,-0.28761 -34.431148,15.6659 -34.832798,35.63522 -0.39185,19.45787 13.61137,44.24257 31.75423,45.76636 -0.70322,0.75866 -1.52307,1.52828 -2.15463,1.76245 -1.3667,0.50635 -0.24649,2.57796 0.3297,2.89398 0.57389,0.3176 3.1614,0.46001 3.1614,0.46001 0,0 2.59044,-0.0641 3.177424,-0.36284 0.586984,-0.29878 1.789871,-2.33453 0.445501,-2.88289 -0.621676,-0.25425 -1.411172,-1.04701 -2.082079,-1.82726 18.193695,-0.96714 33.185954,-25.30623 33.578014,-44.7651"
       style="fill:#ff0000;fill-opacity:1;fill-rule:nonzero;stroke:none;stroke-width:2.02523375;stroke-miterlimit:4;stroke-dasharray:none"
       id="path12916"
       inkscape:connector-curvature="0" />
    <g
       style="opacity:0.5;stroke-width:2.04189515;stroke-miterlimit:4;stroke-dasharray:none"
       id="g12926"
       clip-path="url(#clipPath13626)"
       transform="matrix(0.94028731,0.21523381,0.2095433,-0.99825474,-465.98554,517.81122)">
      <g
         style="stroke-width:2.04189515;stroke-miterlimit:4;stroke-dasharray:none"
         id="g12924"
         transform="translate(334.3252,258.0186)">
        <path
           inkscape:connector-curvature="0"
           id="path12922"
           style="fill:#ffffff;fill-opacity:1;fill-rule:nonzero;stroke:none;stroke-width:2.04189515;stroke-miterlimit:4;stroke-dasharray:none"
           d="M 0,0 C -2.341,-0.469 -4.987,-1.644 -5.945,-2.083 -11.229,-4.504 -16.352,-8 -19.541,-12.961 c -5.382,-8.373 -5.137,-15.763 -3.529,-17.075 1.607,-1.312 4.645,0.568 5.915,5.179 1.076,3.908 3.838,7.627 6.435,10.652 1.508,1.756 3.177,3.453 5.108,4.747 3.098,2.077 8.836,2.486 9.674,6.952 C 4.57,0.208 2.452,0.491 0,0" />
      </g>
    </g>
    <path
       style="fill:#ff9900;fill-opacity:1;stroke:#ffff00;stroke-width:2;stroke-linecap:round;stroke-linejoin:round;stroke-miterlimit:4;stroke-dasharray:none;stroke-opacity:1"
       d="m -108.80255,353.56903 -2.26212,31.39217 c -0.37293,5.21488 2.62237,4.69101 4.34673,5.00818 l 14.412341,1.00429 c 4.179964,0.40806 4.529219,-1.48651 4.580951,-4.87855 0.411679,-5.24585 -1.494417,-5.09817 -4.724701,-5.19717 -8.116391,-0.28882 -8.816421,1.69898 -8.232291,-6.60475 l 2.150271,-19.60401 c 0.13668,-3.63383 -9.982531,-3.72599 -10.271181,-1.12016 z"
       id="path1067"
       inkscape:connector-curvature="0"
       sodipodi:nodetypes="ccccccccc" />
    <path
       inkscape:connector-curvature="0"
       id="path12934"
       style="fill:#00cc00;fill-opacity:1;fill-rule:nonzero;stroke:none;stroke-width:2.02523375;stroke-miterlimit:4;stroke-dasharray:none"
       d="m -6.2421783,385.72798 c 4.1137504,-19.5063 -7.4845727,-38.6497 -25.9066907,-42.75907 -18.421627,-4.10803 -36.691629,8.37271 -40.80538,27.87901 -4.00887,19.00661 5.110116,46.16233 22.622586,51.34235 -0.831113,0.60132 -1.778659,1.18971 -2.441778,1.29112 -1.434915,0.21906 -0.721985,2.47865 -0.21567,2.90568 0.503767,0.42809 3.015321,1.09338 3.015321,1.09338 0,0 2.552898,0.46335 3.184324,0.28952 0.631425,-0.17384 2.190545,-1.92636 0.973999,-2.73733 -0.562441,-0.37567 -1.189186,-1.31365 -1.701936,-2.21529 18.026324,2.747 37.265963,-18.08183 41.2752247,-37.08937" />
    <g
       clip-path="url(#clipPath13626)"
       id="g12944"
       style="opacity:0.5;stroke-width:2.04189515;stroke-miterlimit:4;stroke-dasharray:none"
       transform="matrix(0.88223409,0.40212171,0.3914901,-0.93662254,-426.54253,453.44771)">
      <g
         transform="translate(334.3252,258.0186)"
         id="g12942"
         style="stroke-width:2.04189515;stroke-miterlimit:4;stroke-dasharray:none">
        <path
           d="M 0,0 C -2.341,-0.469 -4.987,-1.644 -5.945,-2.083 -11.229,-4.504 -16.352,-8 -19.541,-12.961 c -5.382,-8.373 -5.137,-15.763 -3.529,-17.075 1.607,-1.312 4.645,0.568 5.915,5.179 1.076,3.908 3.838,7.627 6.435,10.652 1.508,1.756 3.177,3.453 5.108,4.747 3.098,2.077 8.836,2.486 9.674,6.952 C 4.57,0.208 2.452,0.491 0,0"
           style="fill:#ffffff;fill-opacity:1;fill-rule:nonzero;stroke:none;stroke-width:2.04189515;stroke-miterlimit:4;stroke-dasharray:none"
           id="path12940"
           inkscape:connector-curvature="0" />
      </g>
    </g>
    <g
       id="g1078"
       transform="translate(9.071433,-130.77976)">
      <path
         sodipodi:nodetypes="cccccccc"
         inkscape:connector-curvature="0"
         id="path1069"
         d="m -66.629077,532.77412 c 0.915516,0.91838 5.348367,7.10454 14.853934,7.62985 8.354214,-0.20966 13.583877,-5.45207 15.566434,-8.79145 2.595887,-4.75813 3.530219,-9.7378 3.45714,-14.85179 -0.09639,-5.85993 -3.608142,-10.45598 -6.487169,-12.58143 -5.692153,-4.57642 -11.471423,-5.45326 -15.884993,-3.89967 -5.09236,1.74867 -9.896852,5.73554 -11.733473,10.22423 -2.963056,7.36617 -4.333267,15.54546 0.228127,22.27026 z"
         style="fill:#ff9900;fill-opacity:1;stroke:#ffff00;stroke-width:2;stroke-linecap:round;stroke-linejoin:round;stroke-miterlimit:4;stroke-dasharray:none;stroke-opacity:1" />
      <path
         sodipodi:nodetypes="ccccc"
         inkscape:connector-curvature="0"
         id="path1071"
         d="m -58.980789,523.24168 c -0.317899,-4.05988 0.02128,-6.47229 2.117024,-9.83114 4.593112,-6.46692 11.67435,-3.06342 12.833995,1.66077 0.854923,4.06605 0.288983,6.3334 -0.878676,9.52007 -3.677324,8.72817 -13.276604,4.76471 -14.072343,-1.3497 z"
         style="fill:#00cc00;fill-opacity:1;stroke:#ffff00;stroke-width:2;stroke-linecap:round;stroke-linejoin:round;stroke-miterlimit:4;stroke-dasharray:none;stroke-opacity:1" />
      <path
         sodipodi:nodetypes="ccccc"
         inkscape:connector-curvature="0"
         id="path1073"
         d="m -50.268556,492.66156 c -0.133633,0.88533 2.753084,4.84435 4.06166,4.1552 3.996792,-2.58096 7.16395,-5.99154 10.58592,-9.14732 0,0 -1.886849,-4.50849 -3.82919,-4.40349 -1.95826,-0.43409 -10.716909,7.42913 -10.81839,9.39561 z"
         style="fill:#ff9900;fill-opacity:1;stroke:#ffff00;stroke-width:2;stroke-linecap:round;stroke-linejoin:round;stroke-miterlimit:4;stroke-dasharray:none;stroke-opacity:1" />
    </g>
    <path
       d="m 57.040261,382.29687 c 7.69382,-18.28658 -0.088,-39.43194 -17.38207,-47.23078 -17.293839,-7.79743 -37.5514007,0.70343 -45.2452203,18.99001 -7.4972187,17.81803 -3.6499663,46.31316 12.5512084,54.97579 -0.9278255,0.41962 -1.9674017,0.80275 -2.6366949,0.76651 -1.4482044,-0.0788 -1.1730389,2.2829 -0.7566573,2.80524 0.413683,0.52287 2.7517382,1.68912 2.7517382,1.68912 0,0 2.4164854,0.97669 3.0682878,0.93541 0.6518021,-0.0413 2.5095171,-1.44085 1.4687031,-2.485 -0.481056,-0.48346 -0.9196685,-1.5315 -1.2533147,-2.52056 17.1615557,6.38189 39.9362407,-10.10687 47.4340197,-27.92574"
       style="fill:#ff0066;fill-opacity:1;fill-rule:nonzero;stroke:none;stroke-width:2.02523375;stroke-miterlimit:4;stroke-dasharray:none"
       id="path12952"
       inkscape:connector-curvature="0" />
    <g
       style="opacity:0.5;stroke-width:2.04189515;stroke-miterlimit:4;stroke-dasharray:none"
       id="g12962"
       clip-path="url(#clipPath13626)"
       transform="matrix(0.78968866,0.57483078,0.55963297,-0.83837186,-368.20733,363.57962)">
      <g
         style="stroke-width:2.04189515;stroke-miterlimit:4;stroke-dasharray:none"
         id="g12960"
         transform="translate(334.3252,258.0186)">
        <path
           inkscape:connector-curvature="0"
           id="path12958"
           style="fill:#ffffff;fill-opacity:1;fill-rule:nonzero;stroke:none;stroke-width:2.04189515;stroke-miterlimit:4;stroke-dasharray:none"
           d="M 0,0 C -2.341,-0.469 -4.987,-1.644 -5.945,-2.083 -11.229,-4.504 -16.352,-8 -19.541,-12.961 c -5.382,-8.373 -5.137,-15.763 -3.529,-17.075 1.607,-1.312 4.645,0.568 5.915,5.179 1.076,3.908 3.838,7.627 6.435,10.652 1.508,1.756 3.177,3.453 5.108,4.747 3.098,2.077 8.836,2.486 9.674,6.952 C 4.57,0.208 2.452,0.491 0,0" />
      </g>
    </g>
    <path
       style="fill:#ff9900;fill-opacity:1;stroke:#ffff00;stroke-width:2;stroke-linecap:round;stroke-linejoin:round;stroke-miterlimit:4;stroke-dasharray:none;stroke-opacity:1"
       d="M 4.6056524,384.09935 16.334959,352.60736 c 1.065248,-3.05825 11.710017,1.69068 11.672309,4.79243 l 2.086761,21.75009 6.258981,-17.93003 c 0.780614,-2.28904 10.369641,0.91994 9.680424,3.21869 L 33.351968,395.5201 c -1.668859,4.00944 -10.081319,-0.28494 -10.812258,-3.98543 l -1.981915,-22.1072 -6.971612,18.29861 c -1.635696,2.78041 -9.7727546,-0.97042 -8.9805306,-3.62673 z"
       id="path1080"
       inkscape:connector-curvature="0"
       sodipodi:nodetypes="ccccccccccc" />
  </g>
</svg>
