<?xml version="1.0" encoding="UTF-8" standalone="no"?>
<!-- Created with Inkscape (http://www.inkscape.org/) -->

<svg
   xmlns:dc="http://purl.org/dc/elements/1.1/"
   xmlns:cc="http://creativecommons.org/ns#"
   xmlns:rdf="http://www.w3.org/1999/02/22-rdf-syntax-ns#"
   xmlns:svg="http://www.w3.org/2000/svg"
   xmlns="http://www.w3.org/2000/svg"
   xmlns:sodipodi="http://sodipodi.sourceforge.net/DTD/sodipodi-0.dtd"
   xmlns:inkscape="http://www.inkscape.org/namespaces/inkscape"
   width="502.12482mm"
   height="150mm"
   viewBox="0 0 502.12482 150"
   version="1.1"
   id="svg2065"
   inkscape:version="0.92.2 2405546, 2018-03-11"
   sodipodi:docname="titleSalon.svg">
  <defs
     id="defs2059">
    <clipPath
       clipPathUnits="userSpaceOnUse"
       id="clipPath13626">
      <path
         d="m 310.246,258.216 h 28.217 v -30.642 h -28.217 z"
         id="path13624"
         inkscape:connector-curvature="0" />
    </clipPath>
    <clipPath
       clipPathUnits="userSpaceOnUse"
       id="clipPath1233">
      <path
         d="m 310.246,258.216 h 28.217 v -30.642 h -28.217 z"
         id="path1231"
         inkscape:connector-curvature="0" />
    </clipPath>
    <clipPath
       clipPathUnits="userSpaceOnUse"
       id="clipPath1237">
      <path
         d="m 310.246,258.216 h 28.217 v -30.642 h -28.217 z"
         id="path1235"
         inkscape:connector-curvature="0" />
    </clipPath>
    <clipPath
       clipPathUnits="userSpaceOnUse"
       id="clipPath1241">
      <path
         d="m 310.246,258.216 h 28.217 v -30.642 h -28.217 z"
         id="path1239"
         inkscape:connector-curvature="0" />
    </clipPath>
    <clipPath
       clipPathUnits="userSpaceOnUse"
       id="clipPath1245">
      <path
         d="m 310.246,258.216 h 28.217 v -30.642 h -28.217 z"
         id="path1243"
         inkscape:connector-curvature="0" />
    </clipPath>
  </defs>
  <sodipodi:namedview
     id="base"
     pagecolor="#ffffff"
     bordercolor="#666666"
     borderopacity="1.0"
     inkscape:pageopacity="0.0"
     inkscape:pageshadow="2"
     inkscape:zoom="0.175"
     inkscape:cx="55.924724"
     inkscape:cy="203.77689"
     inkscape:document-units="mm"
     inkscape:current-layer="layer1"
     showgrid="false"
     fit-margin-top="0"
     fit-margin-left="0"
     fit-margin-right="0"
     fit-margin-bottom="0"
     inkscape:window-width="1366"
     inkscape:window-height="768"
     inkscape:window-x="0"
     inkscape:window-y="0"
     inkscape:window-maximized="0"
     inkscape:showpageshadow="false"
     borderlayer="true"
     units="mm" />
  <metadata
     id="metadata2062">
    <rdf:RDF>
      <cc:Work
         rdf:about="">
        <dc:format>image/svg+xml</dc:format>
        <dc:type
           rdf:resource="http://purl.org/dc/dcmitype/StillImage" />
        <dc:title></dc:title>
      </cc:Work>
    </rdf:RDF>
  </metadata>
  <g
     inkscape:label="Layer 1"
     inkscape:groupmode="layer"
     id="layer1"
     transform="translate(267.68697,-308.188)">
    <text
       xml:space="preserve"
       style="font-style:normal;font-variant:normal;font-weight:normal;font-stretch:normal;font-size:16.93333244px;line-height:1.25;font-family:'Microsoft Sans Serif';-inkscape-font-specification:'Microsoft Sans Serif';letter-spacing:0px;word-spacing:0px;fill:#000000;fill-opacity:1;stroke:none;stroke-width:0.26458332"
       x="-142.13524"
       y="234.63829"
       id="text862"><tspan
         sodipodi:role="line"
         id="tspan860"
         x="-142.13524"
         y="249.89107"
         style="stroke-width:0.26458332" /></text>
    <g
       id="g13223"
       transform="matrix(1.0775484,0,0,1.0775484,-430.38069,146.22058)">
      <g
         inkscape:transform-center-y="19.154014"
         inkscape:transform-center-x="-17.464106"
         transform="rotate(-2.170453,-188.5127,-379.01745)"
         id="g13127">
        <g
           transform="matrix(1.3848676,-0.20053852,-0.20387776,-1.4079275,224.85417,202.18117)"
           id="g17798"
           style="fill:#0000ff;stroke-width:2.04189515;stroke-miterlimit:4;stroke-dasharray:none">
          <path
             inkscape:connector-curvature="0"
             id="path17796"
             style="fill:#0000ff;fill-opacity:1;fill-rule:nonzero;stroke:none;stroke-width:2.04189515;stroke-miterlimit:4;stroke-dasharray:none"
             d="M 0,0 C -3.846,19.175 -22.507,31.602 -41.682,27.757 -60.856,23.911 -73.284,5.25 -69.438,-13.925 c 3.747,-18.684 23.236,-39.31 41.971,-36.797 -0.552,-0.879 -1.22,-1.794 -1.811,-2.156 -1.279,-0.783 0.299,-2.518 0.951,-2.694 0.65,-0.178 3.306,0.252 3.306,0.252 0,0 2.615,0.628 3.147,1.042 0.532,0.414 1.319,2.623 -0.162,2.853 -0.685,0.107 -1.655,0.692 -2.502,1.291 C -6.282,-45.229 3.747,-18.685 0,0" />
        </g>
        <g
           style="stroke-width:2.04189515;stroke-miterlimit:4;stroke-dasharray:none"
           id="g17810"
           transform="matrix(1.3848676,-0.20053852,-0.20387776,-1.4079275,-244.17871,605.68621)">
          <g
             style="stroke-width:2.04189515;stroke-miterlimit:4;stroke-dasharray:none"
             id="g17800" />
          <g
             style="stroke-width:2.04189515;stroke-miterlimit:4;stroke-dasharray:none"
             id="g17808">
            <g
               style="opacity:0.5;stroke-width:2.04189515;stroke-miterlimit:4;stroke-dasharray:none"
               id="g17806"
               clip-path="url(#clipPath13626)">
              <g
                 style="stroke-width:2.04189515;stroke-miterlimit:4;stroke-dasharray:none"
                 id="g17804"
                 transform="translate(334.3252,258.0186)">
                <path
                   inkscape:connector-curvature="0"
                   id="path17802"
                   style="fill:#ffffff;fill-opacity:1;fill-rule:nonzero;stroke:none;stroke-width:2.04189515;stroke-miterlimit:4;stroke-dasharray:none"
                   d="M 0,0 C -2.341,-0.469 -4.987,-1.644 -5.945,-2.083 -11.229,-4.504 -16.352,-8 -19.541,-12.961 c -5.382,-8.373 -5.137,-15.763 -3.529,-17.075 1.607,-1.312 4.645,0.568 5.915,5.179 1.076,3.908 3.838,7.627 6.435,10.652 1.508,1.756 3.177,3.453 5.108,4.747 3.098,2.077 8.836,2.486 9.674,6.952 C 4.57,0.208 2.452,0.491 0,0" />
              </g>
            </g>
          </g>
        </g>
        <path
           inkscape:connector-curvature="0"
           id="path12970"
           style="font-style:normal;font-variant:normal;font-weight:normal;font-stretch:normal;font-size:53.17361832px;line-height:1.25;font-family:Propaganda;-inkscape-font-specification:Propaganda;letter-spacing:0px;word-spacing:0px;fill:#ff9900;fill-opacity:1;stroke:#ffff00;stroke-width:2.51894331;stroke-miterlimit:4;stroke-dasharray:none"
           d="m 198.43646,205.12957 q 0.27347,0.89682 -0.38033,2.42647 -0.65378,1.52964 -1.73099,3.04839 -1.01317,1.4992 -2.25212,2.71718 -1.23894,1.21797 -2.13576,1.49144 -0.44841,0.13674 -2.28428,-0.14362 -1.8554,-0.34441 -4.13421,-0.69975 -2.29837,-0.41939 -4.51858,-0.58254 -2.23976,-0.22722 -3.45687,0.14392 -0.83277,0.25395 -1.86316,0.77819 -0.98587,0.44066 -1.82955,1.11802 -0.77961,0.65782 -1.20533,1.5578 -0.42571,0.89998 -0.11322,1.92493 0.25394,0.83276 0.83363,1.35613 0.56015,0.45933 1.33748,0.7124 0.75777,0.18902 1.54056,0.23038 0.84684,0.0218 1.59056,-0.0649 1.55147,-0.19304 3.12795,-0.53374 1.55695,-0.40472 3.06936,-0.72591 1.12806,-0.20394 2.53188,-0.42198 1.38431,-0.28209 2.89126,-0.39155 1.48743,-0.1735 2.86626,-0.24388 1.37884,-0.0704 2.45693,0.0209 1.28978,0.0969 2.86396,0.66702 1.61871,0.48661 3.14291,1.35211 1.50465,0.80145 2.68357,1.91228 1.24297,1.09128 1.82582,2.31386 0.40159,0.85775 0.73912,1.73504 0.31803,0.8132 0.5915,1.71002 0.91809,3.01075 0.88076,6.10281 0.008,3.00846 -0.9356,5.8865 -0.89826,2.79445 -2.741,5.24678 -1.7787,2.43281 -4.49099,4.10006 -0.81868,0.52971 -1.58739,0.76412 -0.78824,0.17031 -1.52878,0.95628 -0.64059,0.19533 -1.17805,0.49926 -0.53746,0.30393 -0.95226,0.78048 -0.32029,0.0977 -1.15306,0.35161 -0.83276,0.25394 -1.79364,0.54695 -0.96088,0.293 -1.77409,0.61103 -0.74917,0.29849 -0.98587,0.44066 -1.44836,0.30162 -3.6209,0.75406 -2.08893,0.49696 -4.3646,0.84081 -2.2116,0.32433 -4.30916,0.33381 -2.0335,-0.0101 -3.35145,-0.65839 -1.36247,-0.56474 -2.65541,-1.36073 -1.29297,-0.79599 -2.6109,-1.44432 -0.33437,-0.17811 -0.91952,-0.48977 -0.58515,-0.31169 -1.18983,-0.68741 -0.56015,-0.45933 -1.03671,-0.87412 -0.49611,-0.47887 -0.6133,-0.86321 -0.15628,-0.51248 -0.12582,-0.87184 0.0749,-0.44295 0.21401,-0.90544 0.18355,-0.54608 1.23577,-1.91716 1.11628,-1.39063 2.40521,-2.90392 1.28892,-1.51327 2.4638,-2.71172 1.17489,-1.19843 1.62331,-1.33517 0.89682,-0.27349 2.19522,0.3108 1.36247,0.56474 3.16789,1.20447 1.86948,0.62017 4.12877,0.91145 2.25929,0.29129 5.01381,-0.54866 0.83276,-0.25395 2.15844,-0.72824 1.30617,-0.53834 2.48967,-1.2493 1.16397,-0.77503 2.01311,-1.6641 0.8296,-0.95312 0.77329,-2.05619 -0.0868,-0.74372 -0.23757,-1.46789 -0.17031,-0.78824 -0.32116,-1.51241 l -0.3203,0.0977 q -2.64363,-0.17409 -5.70753,0.34012 -3.06391,0.5142 -6.08872,1.15652 -3.04436,0.57826 -5.85203,1.01433 -2.74361,0.41653 -4.87477,0.0862 -0.44297,-0.0749 -1.22028,-0.32805 -0.7328,-0.33667 -1.54919,-0.71784 -0.8164,-0.38121 -1.54918,-0.71787 -0.68828,-0.42026 -1.10625,-0.64288 -2.25698,-1.20217 -3.60079,-3.31294 -1.29927,-2.19436 -2.02202,-4.56453 -1.17203,-3.84351 -1.25505,-8.0191 -0.0477,-0.61561 0.67017,-2.16479 0.76237,-1.63277 1.6974,-3.38821 0.97954,-1.83903 1.9091,-3.38276 0.99363,-1.56326 1.47248,-2.05937 0.37027,-0.39296 1.01086,-0.58831 0.6851,-0.27896 1.15852,-0.56331 0.64604,-0.40705 1.57331,-1.03988 0.97179,-0.71643 1.96312,-1.3688 1.03584,-0.73596 2.00218,-1.24066 0.94681,-0.56878 1.65146,-0.78365 2.6264,-0.80088 5.40907,-1.0893 2.82719,-0.37201 5.5458,-0.6409 0.92498,0.27807 1.93354,0.60066 0.98904,0.25853 2.00305,0.3694 1.37339,0.14134 2.99755,0.41623 1.66868,0.19132 3.15928,0.71699 1.55462,0.50615 2.75854,1.46933 1.26796,0.94365 1.75631,2.5451 z" />
      </g>
      <g
         transform="rotate(-23.61371,323.79639,209.76904)"
         id="g13138">
        <g
           style="fill:#cc00ff;stroke-width:2.04189515;stroke-miterlimit:4;stroke-dasharray:none"
           id="g12900"
           transform="matrix(1.3374279,0.41153476,0.41838737,-1.3596978,336.9579,211.91085)">
          <path
             d="M 0,0 C -3.846,19.175 -22.507,31.602 -41.682,27.757 -60.856,23.911 -73.284,5.25 -69.438,-13.925 c 3.747,-18.684 23.236,-39.31 41.971,-36.797 -0.552,-0.879 -1.22,-1.794 -1.811,-2.156 -1.279,-0.783 0.299,-2.518 0.951,-2.694 0.65,-0.178 3.306,0.252 3.306,0.252 0,0 2.615,0.628 3.147,1.042 0.532,0.414 1.319,2.623 -0.162,2.853 -0.685,0.107 -1.655,0.692 -2.502,1.291 C -6.282,-45.229 3.747,-18.685 0,0"
             style="fill:#cc00ff;fill-opacity:1;fill-rule:nonzero;stroke:none;stroke-width:2.04189515;stroke-miterlimit:4;stroke-dasharray:none"
             id="path12898"
             inkscape:connector-curvature="0" />
        </g>
        <g
           transform="matrix(1.3374279,0.41153476,0.41838737,-1.3596978,-259.65081,375.82003)"
           id="g12912"
           style="stroke-width:2.04189515;stroke-miterlimit:4;stroke-dasharray:none">
          <g
             id="g12902"
             style="stroke-width:2.04189515;stroke-miterlimit:4;stroke-dasharray:none" />
          <g
             id="g12910"
             style="stroke-width:2.04189515;stroke-miterlimit:4;stroke-dasharray:none">
            <g
               clip-path="url(#clipPath13626)"
               id="g12908"
               style="opacity:0.5;stroke-width:2.04189515;stroke-miterlimit:4;stroke-dasharray:none">
              <g
                 transform="translate(334.3252,258.0186)"
                 id="g12906"
                 style="stroke-width:2.04189515;stroke-miterlimit:4;stroke-dasharray:none">
                <path
                   d="M 0,0 C -2.341,-0.469 -4.987,-1.644 -5.945,-2.083 -11.229,-4.504 -16.352,-8 -19.541,-12.961 c -5.382,-8.373 -5.137,-15.763 -3.529,-17.075 1.607,-1.312 4.645,0.568 5.915,5.179 1.076,3.908 3.838,7.627 6.435,10.652 1.508,1.756 3.177,3.453 5.108,4.747 3.098,2.077 8.836,2.486 9.674,6.952 C 4.57,0.208 2.452,0.491 0,0"
                   style="fill:#ffffff;fill-opacity:1;fill-rule:nonzero;stroke:none;stroke-width:2.04189515;stroke-miterlimit:4;stroke-dasharray:none"
                   id="path12904"
                   inkscape:connector-curvature="0" />
              </g>
            </g>
          </g>
        </g>
        <path
           inkscape:connector-curvature="0"
           id="path12972"
           style="font-style:normal;font-variant:normal;font-weight:normal;font-stretch:normal;font-size:53.17361832px;line-height:1.25;font-family:Propaganda;-inkscape-font-specification:Propaganda;letter-spacing:0px;word-spacing:0px;fill:#ff9900;fill-opacity:1;stroke:#ffff00;stroke-width:2.51894331;stroke-miterlimit:4;stroke-dasharray:none"
           d="m 299.25093,244.62366 q -1.93121,-0.20578 -3.19212,-1.01363 -1.19432,-0.80076 -1.87282,-2.01802 -0.61189,-1.21014 -0.78164,-2.77728 -0.16976,-1.56713 0.0147,-3.29856 l -0.33297,-0.0355 q 0.0355,-0.33298 -0.29749,-0.36846 -0.26638,-0.0283 -0.54695,0.0764 -0.27347,0.0383 -0.48744,0.15011 -0.39955,-0.0426 -2.26418,-0.24127 -1.79093,-0.25821 -3.92193,-0.4853 -2.0644,-0.21998 -4.00272,-0.35913 -1.93831,-0.13916 -2.55894,-0.004 -1.37446,0.25762 -2.12553,0.9858 -0.6845,0.73525 -1.12391,1.69867 -0.43941,0.96344 -0.75273,2.00765 -0.31332,1.0442 -0.87173,1.86024 -0.5584,0.81605 -1.61407,1.24237 -0.99618,0.49998 -2.79422,0.30839 -0.93231,-0.0994 -1.79092,-0.25821 -0.85862,-0.15889 -1.79093,-0.25823 -0.59933,-0.0639 -1.21288,0.005 -0.61353,0.0693 -1.14628,0.0126 -0.93231,-0.0994 -1.98362,-0.34608 -0.98471,-0.23963 -1.80786,-0.73144 -0.75654,-0.48472 -1.21123,-1.27402 -0.4547,-0.78929 -0.32696,-1.98798 0.12772,-1.19868 0.57423,-2.2287 0.5202,-1.08952 1.16648,-2.09824 0.64629,-1.00874 1.28548,-1.95087 0.71289,-1.00164 1.22599,-2.02457 0.17576,-0.38536 0.22543,-0.85151 0.12343,-0.52564 0.30623,-0.97762 0.48907,-1.42959 0.99945,-3.05894 0.51745,-1.69595 1.26583,-3.03055 0.90993,-1.58679 1.74617,-3.11408 0.90993,-1.58679 1.81986,-3.17357 0.41103,-0.69705 0.51038,-1.62937 0.10642,-0.99889 0.45797,-1.76963 0.4394,-0.96343 1.21179,-1.89136 0.77238,-0.92795 1.14519,-1.89846 0.27783,-0.71125 0.50328,-1.56278 0.22544,-0.85153 0.51037,-1.62937 0.35862,-0.83733 0.77674,-1.60096 0.41812,-0.76364 1.01475,-1.30623 0.44376,-1.63645 1.27292,-3.09715 0.82914,-1.46068 1.91047,-2.75982 0.3275,-1.17739 0.7882,-2.3406 0.4607,-1.1632 1.23309,-2.09114 0.77237,-0.92794 1.77564,-1.49454 1.06987,-0.55948 2.48253,-0.54366 1.55294,-0.0365 2.43284,-0.0775 0.9536,-0.10038 1.75274,-0.0152 1.26527,0.13483 2.89464,0.64521 1.70304,0.45086 3.23033,1.2871 1.5273,0.83624 2.61243,2.02947 1.15884,1.13374 1.40229,2.64138 0.45851,3.28164 1.13809,6.38479 0.67958,3.10316 0.78383,6.54912 0.3881,0.78219 0.91922,2.11844 0.53112,1.33624 1.04802,2.80566 0.58351,1.47653 0.98144,2.79857 0.46452,1.32915 0.58623,2.08297 0.12179,0.75383 0.17686,1.50054 0.12882,0.68722 0.25055,1.44104 0.12166,0.75382 0.62172,1.75 0.57368,0.93668 0.82859,1.70468 0.19542,0.69433 0.24345,1.50764 0.11461,0.82041 0.16266,1.63373 0.11461,0.82041 0.22926,1.64082 0.12167,0.75382 0.39083,1.38865 0.26911,0.63483 0.79312,2.03765 0.53111,1.33625 1.04093,2.87227 0.57641,1.54311 0.89355,2.99125 0.39082,1.38865 0.31277,2.12118 -0.0851,0.79912 -0.61517,1.34879 -0.53003,0.54966 -1.31932,1.00436 -0.71561,0.39519 -1.55732,0.70961 -0.76801,0.2549 -1.33623,0.53111 -0.33297,-0.0355 -1.27237,-0.0681 -0.87283,-0.0257 -1.94542,-0.0727 -0.9989,-0.10643 -1.9454,-0.0725 -0.87282,-0.0257 -1.1463,0.0126 z m -11.63747,-38.68655 q -0.54148,1.28929 -0.93559,2.4596 -0.39411,1.17029 -0.8024,2.47379 -0.4083,1.30349 -1.02347,2.65227 -0.60808,1.28222 -1.21616,2.56441 -0.60807,1.2822 -1.15666,2.63809 -0.47489,1.29639 -0.62391,2.69487 -0.0568,0.53273 0.30731,0.90828 0.37118,0.30896 0.88975,0.4989 0.51855,0.18997 1.04421,0.31332 0.59933,0.0639 0.9989,0.10643 0.53274,0.0568 1.33187,0.14191 0.80622,0.0185 1.68613,-0.0224 0.8799,-0.0409 1.63372,-0.16264 0.76092,-0.18833 1.20306,-0.54532 0.0666,0.008 0.0737,-0.0596 0.008,-0.0666 0.008,-0.0666 0.0213,-0.19977 -0.14302,-0.55404 -0.0906,-0.41375 -0.20961,-0.56113 -0.45742,-1.39573 -0.69377,-2.96996 -0.16975,-1.56714 -0.3466,-3.06767 -0.10756,-0.88701 -0.48855,-1.7358 -0.31441,-0.84171 -0.36243,-1.65503 l -0.38593,-5.22705 q -0.0453,-0.20689 -0.35698,-0.44214 -0.23798,-0.29477 -0.43067,-0.38264 z"
           inkscape:transform-center-x="6.7688814"
           inkscape:transform-center-y="4.6858267" />
      </g>
      <g
         transform="rotate(10.809455,426.52133,138.16547)"
         id="g13149">
        <g
           transform="matrix(1.3987972,0.03795424,0.03858623,-1.4220891,445.11466,198.96844)"
           id="g12918"
           style="fill:#ff0000;stroke-width:2.04189515;stroke-miterlimit:4;stroke-dasharray:none">
          <path
             inkscape:connector-curvature="0"
             id="path12916"
             style="fill:#ff0000;fill-opacity:1;fill-rule:nonzero;stroke:none;stroke-width:2.04189515;stroke-miterlimit:4;stroke-dasharray:none"
             d="M 0,0 C -3.846,19.175 -22.507,31.602 -41.682,27.757 -60.856,23.911 -73.284,5.25 -69.438,-13.925 c 3.747,-18.684 23.236,-39.31 41.971,-36.797 -0.552,-0.879 -1.22,-1.794 -1.811,-2.156 -1.279,-0.783 0.299,-2.518 0.951,-2.694 0.65,-0.178 3.306,0.252 3.306,0.252 0,0 2.615,0.628 3.147,1.042 0.532,0.414 1.319,2.623 -0.162,2.853 -0.685,0.107 -1.655,0.692 -2.502,1.291 C -6.282,-45.229 3.747,-18.685 0,0" />
        </g>
        <g
           style="stroke-width:2.04189515;stroke-miterlimit:4;stroke-dasharray:none"
           id="g12930"
           transform="matrix(1.3987972,0.03795424,0.03858623,-1.4220891,-85.720086,516.80899)">
          <g
             style="stroke-width:2.04189515;stroke-miterlimit:4;stroke-dasharray:none"
             id="g12920" />
          <g
             style="stroke-width:2.04189515;stroke-miterlimit:4;stroke-dasharray:none"
             id="g12928">
            <g
               style="opacity:0.5;stroke-width:2.04189515;stroke-miterlimit:4;stroke-dasharray:none"
               id="g12926"
               clip-path="url(#clipPath13626)">
              <g
                 style="stroke-width:2.04189515;stroke-miterlimit:4;stroke-dasharray:none"
                 id="g12924"
                 transform="translate(334.3252,258.0186)">
                <path
                   inkscape:connector-curvature="0"
                   id="path12922"
                   style="fill:#ffffff;fill-opacity:1;fill-rule:nonzero;stroke:none;stroke-width:2.04189515;stroke-miterlimit:4;stroke-dasharray:none"
                   d="M 0,0 C -2.341,-0.469 -4.987,-1.644 -5.945,-2.083 -11.229,-4.504 -16.352,-8 -19.541,-12.961 c -5.382,-8.373 -5.137,-15.763 -3.529,-17.075 1.607,-1.312 4.645,0.568 5.915,5.179 1.076,3.908 3.838,7.627 6.435,10.652 1.508,1.756 3.177,3.453 5.108,4.747 3.098,2.077 8.836,2.486 9.674,6.952 C 4.57,0.208 2.452,0.491 0,0" />
              </g>
            </g>
          </g>
        </g>
        <path
           inkscape:connector-curvature="0"
           id="path12974"
           style="font-style:normal;font-variant:normal;font-weight:normal;font-stretch:normal;font-size:53.17361832px;line-height:1.25;font-family:Propaganda;-inkscape-font-specification:Propaganda;letter-spacing:0px;word-spacing:0px;fill:#ff9900;fill-opacity:1;stroke:#ffff00;stroke-width:2.51894331;stroke-miterlimit:4;stroke-dasharray:none"
           d="m 413.8777,244.1555 0.0666,-0.007 -0.14044,-0.052 -1.13903,0.0571 -4.82243,0.25807 q -0.39943,0.0437 -0.79888,0.0875 -0.40673,-0.0223 -0.80616,0.0213 -0.93204,0.10194 -1.98263,0.35163 -0.98405,0.24238 -1.72465,0.86237 -1.53122,0.16749 -3.04783,0.46817 -1.45006,0.29334 -2.91467,0.45357 -3.12897,0.34229 -5.02215,0.27991 -1.88589,0.004 -2.97917,-0.75201 -1.034,-0.83007 -1.56349,-2.59115 -0.46294,-1.76834 -0.80523,-4.8973 -0.10194,-0.93202 -0.004,-1.8859 0.16434,-0.96117 -0.004,-1.88591 -0.21956,-1.39075 -0.50561,-2.77424 -0.22683,-1.45733 -0.37975,-2.85538 -0.23306,-2.13034 -0.25911,-4.21598 0.0406,-2.0929 -0.19252,-4.22326 -0.16023,-1.46461 -0.71259,-2.81895 -0.55239,-1.35435 -0.71261,-2.81897 -0.13109,-1.19832 -0.0698,-2.48506 0.12074,-1.36061 -0.0177,-2.62552 l -0.18938,-1.73073 q -0.1227,-1.7382 -0.37871,-3.46182 -0.19662,-1.7975 -0.51913,-3.51383 -0.16858,-0.92474 -0.53679,-1.82765 -0.37553,-0.96947 -0.48477,-1.96808 -0.1675,-1.53117 0.62512,-2.29159 0.79262,-0.76042 1.89525,-1.15051 1.16919,-0.39738 2.29366,-0.58777 1.11718,-0.25695 1.59879,-0.78122 1.3606,0.12055 2.90634,0.0869 1.54576,-0.0344 2.85435,0.22672 1.30859,0.26105 2.20943,1.10569 0.96742,0.83735 1.17133,2.7014 0.0874,0.79889 -0.0177,1.68618 -0.0384,0.88003 0.049,1.67893 0.10194,0.93203 0.27779,1.92333 0.17585,0.99132 0.27782,1.92336 0.10924,0.99858 0.0926,2.07834 -0.0234,1.01317 0.0854,2.01177 0.08,0.7323 0.37449,1.57592 0.3537,0.76975 0.43381,1.50206 0.1311,1.19831 -0.21112,2.38103 -0.34221,1.18274 -0.21111,2.38106 0.12381,1.13176 0.45461,2.30822 0.39738,1.1692 0.52119,2.30095 0.0655,0.59917 -0.0542,1.3533 -0.0531,0.74688 -0.12055,1.36062 0.21325,0.71775 0.50036,1.49477 0.34641,0.70318 0.55967,1.42093 -0.16435,0.96115 -0.1217,1.96705 0.0426,1.00588 0.15189,2.00448 0.0655,0.59916 0.50869,0.95491 0.50242,0.28188 1.12342,0.41607 0.61374,0.0676 1.22019,0.0686 0.67301,-0.006 1.07245,-0.0499 2.26351,-0.24762 4.40946,-0.95396 2.14594,-0.70635 4.34287,-0.94668 0.79887,-0.0875 1.93791,-0.1446 1.20561,-0.0644 2.36648,0.0779 1.16089,0.14251 2.02532,0.65428 0.85714,0.44519 0.97366,1.51037 l 0.26218,2.39664 q 0.13837,1.26489 0.60962,2.49337 0.47124,1.22849 0.61689,2.55997 0.17478,1.59775 -0.5367,2.48404 -0.71148,0.88626 -1.8734,1.35022 -1.16192,0.46397 -2.55267,0.68347 -1.33148,0.14566 -2.45593,0.33607 z" />
      </g>
      <g
         transform="rotate(9.4091322,368.37002,-5.2289955)"
         id="g13160">
        <g
           style="fill:#00cc00;stroke-width:2.04189515;stroke-miterlimit:4;stroke-dasharray:none"
           id="g12936"
           transform="matrix(1.3567289,0.34257971,0.34828411,-1.3793202,557.10063,202.09161)">
          <path
             d="M 0,0 C -3.846,19.175 -22.507,31.602 -41.682,27.757 -60.856,23.911 -73.284,5.25 -69.438,-13.925 c 3.747,-18.684 23.236,-39.31 41.971,-36.797 -0.552,-0.879 -1.22,-1.794 -1.811,-2.156 -1.279,-0.783 0.299,-2.518 0.951,-2.694 0.65,-0.178 3.306,0.252 3.306,0.252 0,0 2.615,0.628 3.147,1.042 0.532,0.414 1.319,2.623 -0.162,2.853 -0.685,0.107 -1.655,0.692 -2.502,1.291 C -6.282,-45.229 3.747,-18.685 0,0"
             style="fill:#00cc00;fill-opacity:1;fill-rule:nonzero;stroke:none;stroke-width:2.04189515;stroke-miterlimit:4;stroke-dasharray:none"
             id="path12934"
             inkscape:connector-curvature="0" />
        </g>
        <g
           transform="matrix(1.3567289,0.34257971,0.34828411,-1.3793202,-30.242349,394.97655)"
           id="g12948"
           style="stroke-width:2.04189515;stroke-miterlimit:4;stroke-dasharray:none">
          <g
             id="g12938"
             style="stroke-width:2.04189515;stroke-miterlimit:4;stroke-dasharray:none" />
          <g
             id="g12946"
             style="stroke-width:2.04189515;stroke-miterlimit:4;stroke-dasharray:none">
            <g
               clip-path="url(#clipPath13626)"
               id="g12944"
               style="opacity:0.5;stroke-width:2.04189515;stroke-miterlimit:4;stroke-dasharray:none">
              <g
                 transform="translate(334.3252,258.0186)"
                 id="g12942"
                 style="stroke-width:2.04189515;stroke-miterlimit:4;stroke-dasharray:none">
                <path
                   d="M 0,0 C -2.341,-0.469 -4.987,-1.644 -5.945,-2.083 -11.229,-4.504 -16.352,-8 -19.541,-12.961 c -5.382,-8.373 -5.137,-15.763 -3.529,-17.075 1.607,-1.312 4.645,0.568 5.915,5.179 1.076,3.908 3.838,7.627 6.435,10.652 1.508,1.756 3.177,3.453 5.108,4.747 3.098,2.077 8.836,2.486 9.674,6.952 C 4.57,0.208 2.452,0.491 0,0"
                   style="fill:#ffffff;fill-opacity:1;fill-rule:nonzero;stroke:none;stroke-width:2.04189515;stroke-miterlimit:4;stroke-dasharray:none"
                   id="path12940"
                   inkscape:connector-curvature="0" />
              </g>
            </g>
          </g>
        </g>
        <path
           inkscape:connector-curvature="0"
           id="path12976"
           style="font-style:normal;font-variant:normal;font-weight:normal;font-stretch:normal;font-size:53.17361832px;line-height:1.25;font-family:Propaganda;-inkscape-font-specification:Propaganda;letter-spacing:0px;word-spacing:0px;fill:#ff9900;fill-opacity:1;stroke:#ffff00;stroke-width:2.51894331;stroke-miterlimit:4;stroke-dasharray:none"
           d="m 533.10155,212.9189 q -0.2808,3.73982 -0.98737,7.78348 -0.63475,3.9819 -1.84048,7.51797 -0.34736,1.04846 -1.18224,2.32897 -0.76311,1.21871 -1.79834,2.48418 -0.96344,1.20369 -1.98865,2.33558 -1.0202,1.06509 -1.75321,1.88314 -0.44081,0.50417 -1.57453,1.29213 -1.1337,0.78794 -2.40599,1.63263 -1.26727,0.77794 -2.45773,1.4273 -1.19046,0.64937 -1.80655,0.80459 -0.61609,0.15522 -1.50933,0.42395 -0.88823,0.20195 -1.77647,0.4039 -0.88822,0.20194 -1.77144,0.3371 -0.82145,0.20697 -1.43253,0.29541 -0.41072,0.10347 -1.01677,0.12514 -0.53929,0.0267 -0.93998,-0.003 l -5.07549,-0.38107 q -0.60104,-0.0451 -1.97841,-0.48434 -1.3156,-0.36741 -2.88329,-0.95523 -1.50591,-0.51602 -2.87324,-1.08879 -1.36734,-0.57278 -2.01512,-0.89005 -1.74796,-0.87 -3.69288,-2.695 -1.87814,-1.82 -3.52581,-4.02564 -1.64269,-2.27242 -2.80786,-4.64332 -1.09839,-2.36588 -1.35367,-4.33265 -0.10349,-0.41075 -0.22863,-1.42752 -0.12513,-1.01678 -0.24525,-2.10035 -0.11511,-1.15034 -0.17847,-2.09533 -0.0634,-0.945 -0.0433,-1.21213 0.0852,-1.1353 0.29403,-2.12701 0.28057,-1.05347 0.36581,-2.18878 0.3209,-4.27411 1.24445,-7.62987 0.99535,-3.41755 3.02252,-7.16058 0.15362,-0.2571 0.66622,-0.82305 0.57939,-0.56093 1.16379,-1.18863 0.65119,-0.62271 1.23057,-1.18364 0.64618,-0.55592 0.86157,-0.74122 1.79994,-1.611 3.65663,-3.08342 1.92347,-1.46739 4.01721,-2.51906 2.09372,-1.05166 4.34769,-1.55403 2.25898,-0.56914 4.79673,-0.37861 0.46749,0.0351 1.73133,0.19718 1.33065,0.1671 2.72305,0.40593 1.45919,0.24388 2.65126,0.4677 1.25884,0.22884 1.64951,0.39249 0.90988,0.4041 1.75299,0.80321 0.8431,0.39909 1.75298,0.8032 1.04346,0.41414 2.09695,0.69471 1.12527,0.21881 2.15368,0.8333 0.19533,0.0819 0.50418,0.44081 0.38064,0.29722 0.81803,0.73302 0.44241,0.36901 0.81302,0.79978 0.37562,0.36401 0.56594,0.5126 0.8798,0.80481 1.93489,1.95858 1.12687,1.09199 2.10514,2.37431 0.98328,1.21554 1.75618,2.54959 0.77292,1.33405 1.02159,2.49443 0.24366,1.22716 0.34373,2.57786 0.10006,1.35069 0.33871,2.64464 0.0468,0.27213 0.13015,0.94999 0.15522,0.61609 0.30542,1.29896 0.15522,0.61608 0.24366,1.22715 0.0935,0.54429 0.0834,0.67786 z m -15.67229,-0.57227 q -0.51078,-1.24721 -0.88801,-2.4844 -0.31045,-1.23217 -0.75445,-2.47437 -0.37723,-1.23719 -1.23697,-2.30914 -0.85474,-1.13872 -1.93489,-1.95857 -1.08015,-0.81983 -2.38571,-1.32083 -1.30055,-0.56776 -2.56942,-0.66302 -0.80141,-0.0602 -1.82319,0.13174 -0.95502,0.19694 -1.70969,0.40891 -2.19722,0.64094 -3.8335,1.86127 -1.56448,1.15857 -2.69158,2.75292 -1.12709,1.59436 -1.74499,3.56274 -0.61791,1.96837 -0.77836,4.10542 -0.19054,2.53775 0.28174,5.19241 0.54407,2.59291 1.79106,4.76846 1.31379,2.18057 3.35055,3.67667 2.04177,1.42933 4.91343,1.64494 1.00174,0.0752 1.96677,-0.25528 1.03184,-0.32548 1.99688,-0.65598 1.45259,-0.56254 2.21227,-0.84129 0.82646,-0.27375 1.25723,-0.64436 0.50258,-0.43237 0.89165,-1.14192 0.45586,-0.70451 1.16219,-2.06183 0.30725,-0.51421 0.67626,-0.95661 0.36901,-0.44242 0.67625,-0.95662 0.0819,-0.19534 0.24388,-1.45919 0.16709,-1.33064 0.34918,-2.86162 0.18715,-1.59777 0.29245,-3.00022 0.17712,-1.46418 0.28901,-2.06023 z m -15.16207,-33.30762 q -0.88481,-0.73803 -0.95822,-1.54946 -0.0734,-0.81141 0.25392,-1.59276 0.33231,-0.84811 0.92673,-1.60939 0.59945,-0.82805 1.18386,-1.45577 0.67124,-0.88983 1.47103,-1.70285 0.87159,-0.87479 1.67138,-1.68781 l 0.005,-0.0668 q 0.58941,-0.6945 1.04527,-1.39902 0.52264,-0.69951 1.04526,-1.39903 0.17369,-0.52423 0.47091,-0.90487 0.36398,-0.37562 0.78977,-0.67944 1.73815,-1.68281 3.20577,-2.44568 1.46762,-0.76288 2.72145,-0.46726 1.32564,0.23385 2.57104,1.53621 1.31216,1.3074 2.74447,3.69834 -2.83859,3.81643 -4.55009,6.03849 -1.64471,2.22709 -2.61317,3.49756 -0.96343,1.20369 -1.47605,1.76962 -0.44081,0.50419 -0.88161,1.00837 -0.36901,0.44241 -0.95843,1.1369 -0.58441,0.62771 -1.29736,1.17862 -0.70794,0.48411 -1.46261,0.69609 -0.68287,0.15021 -1.24881,-0.36241 l -1.39401,-1.11204 q -0.69449,-0.58942 -1.60438,-0.99353 -0.90488,-0.4709 -1.66113,-1.1321 z" />
      </g>
      <g
         transform="rotate(5.8538087,720.74017,-227.29654)"
         id="g13171">
        <g
           transform="matrix(1.2235659,0.67894078,0.69024605,-1.2439399,659.39165,234.04304)"
           id="g12954"
           style="fill:#ff0066;stroke-width:2.04189515;stroke-miterlimit:4;stroke-dasharray:none">
          <path
             inkscape:connector-curvature="0"
             id="path12952"
             style="fill:#ff0066;fill-opacity:1;fill-rule:nonzero;stroke:none;stroke-width:2.04189515;stroke-miterlimit:4;stroke-dasharray:none"
             d="M 0,0 C -3.846,19.175 -22.507,31.602 -41.682,27.757 -60.856,23.911 -73.284,5.25 -69.438,-13.925 c 3.747,-18.684 23.236,-39.31 41.971,-36.797 -0.552,-0.879 -1.22,-1.794 -1.811,-2.156 -1.279,-0.783 0.299,-2.518 0.951,-2.694 0.65,-0.178 3.306,0.252 3.306,0.252 0,0 2.615,0.628 3.147,1.042 0.532,0.414 1.319,2.623 -0.162,2.853 -0.685,0.107 -1.655,0.692 -2.502,1.291 C -6.282,-45.229 3.747,-18.685 0,0" />
        </g>
        <g
           style="stroke-width:2.04189515;stroke-miterlimit:4;stroke-dasharray:none"
           id="g12966"
           transform="matrix(1.2235659,0.67894078,0.69024605,-1.2439399,41.791774,271.17069)">
          <g
             style="stroke-width:2.04189515;stroke-miterlimit:4;stroke-dasharray:none"
             id="g12956" />
          <g
             style="stroke-width:2.04189515;stroke-miterlimit:4;stroke-dasharray:none"
             id="g12964">
            <g
               style="opacity:0.5;stroke-width:2.04189515;stroke-miterlimit:4;stroke-dasharray:none"
               id="g12962"
               clip-path="url(#clipPath13626)">
              <g
                 style="stroke-width:2.04189515;stroke-miterlimit:4;stroke-dasharray:none"
                 id="g12960"
                 transform="translate(334.3252,258.0186)">
                <path
                   inkscape:connector-curvature="0"
                   id="path12958"
                   style="fill:#ffffff;fill-opacity:1;fill-rule:nonzero;stroke:none;stroke-width:2.04189515;stroke-miterlimit:4;stroke-dasharray:none"
                   d="M 0,0 C -2.341,-0.469 -4.987,-1.644 -5.945,-2.083 -11.229,-4.504 -16.352,-8 -19.541,-12.961 c -5.382,-8.373 -5.137,-15.763 -3.529,-17.075 1.607,-1.312 4.645,0.568 5.915,5.179 1.076,3.908 3.838,7.627 6.435,10.652 1.508,1.756 3.177,3.453 5.108,4.747 3.098,2.077 8.836,2.486 9.674,6.952 C 4.57,0.208 2.452,0.491 0,0" />
              </g>
            </g>
          </g>
        </g>
        <path
           inkscape:connector-curvature="0"
           id="path12978"
           style="font-style:normal;font-variant:normal;font-weight:normal;font-stretch:normal;font-size:53.17361832px;line-height:1.25;font-family:Propaganda;-inkscape-font-specification:Propaganda;letter-spacing:0px;word-spacing:0px;fill:#ff9900;fill-opacity:1;stroke:#ffff00;stroke-width:2.51894331;stroke-miterlimit:4;stroke-dasharray:none"
           d="m 616.21122,257.81003 q -2.43173,-0.75041 -3.68634,-1.90854 -1.19063,-1.13836 -1.85906,-2.6062 -0.60443,-1.44809 -1.04613,-3.19638 -0.35796,-1.79256 -1.18838,-3.87108 0.23297,-1.89054 -0.20874,-3.63885 -0.42196,-1.81229 -0.84392,-3.6246 -0.33346,-1.64482 -0.51919,-3.31412 -0.18573,-1.66933 -0.4552,-3.2944 -0.14224,-0.67467 -0.36822,-1.3051 -0.20622,-0.69441 -0.32871,-1.43309 -0.38246,-1.94028 -0.6172,-3.90507 -0.17074,-1.94504 -0.32172,-3.95406 l 0.0395,-0.12797 q -0.25598,-0.079 -0.56644,0.24572 -0.22673,0.28046 -0.42895,0.70867 -0.20226,0.42819 -0.34048,0.87614 -0.11852,0.38396 -0.15799,0.51195 -0.33572,1.08788 -0.39569,2.19076 0.004,1.12263 -0.33171,2.21051 -0.82941,2.6877 -1.72283,5.35564 -0.87368,2.60396 -1.42733,5.30667 -0.45969,2.17101 -0.91938,4.34203 -0.45971,2.17101 -1.11137,4.28278 -0.65168,2.11177 -1.65657,2.6427 -0.9409,0.55069 -2.02402,0.42671 -1.01914,-0.10429 -2.171,-0.4597 -1.0879,-0.33572 -2.0138,-0.0607 -0.63991,-0.19748 -1.64405,-0.57747 -0.95989,-0.29622 -1.92453,-0.80415 -0.92041,-0.42421 -1.71757,-1.02065 -0.79717,-0.59642 -1.00338,-1.29085 -0.15725,-0.39895 -0.0878,-1.07837 0.0893,-0.74343 0.24247,-1.46709 0.17295,-0.78768 0.32621,-1.51133 0.21722,-0.70392 0.33571,-1.08789 0.56318,-2.27925 1.19036,-4.53875 0.62714,-2.25952 1.31832,-4.49926 0.59243,-1.91979 1.37684,-3.78034 0.78441,-1.86054 1.39659,-3.84433 0.43445,-1.40783 0.61292,-2.89468 0.17848,-1.48683 0.63268,-2.95866 0.73067,-2.36774 1.52535,-4.71573 0.87841,-2.39224 1.48108,-4.79946 0.0939,-0.53171 0.12405,-1.08314 0.11373,-0.59569 0.27168,-1.10764 0.17773,-0.57593 0.49369,-1.59982 0.38,-1.00414 0.69596,-2.02802 0.33571,-1.08787 0.48419,-2.02327 0.23219,-0.97965 0.17848,-1.48684 -0.0292,-0.35947 -0.10277,-0.80266 -0.0101,-0.42345 0.10894,-0.80741 0.33572,-1.08787 1.60133,-1.32812 1.26562,-0.24022 2.81643,-0.0419 1.55084,0.19822 2.95868,0.63267 1.49159,0.39017 2.19552,0.6074 0.63993,0.19748 1.77205,0.61696 1.13212,0.41948 2.28874,0.98665 1.17639,0.50318 2.16552,1.15885 1.00889,0.5917 1.36285,1.26162 0.35396,0.66993 0.47645,1.40858 0.12255,0.73868 0.16124,1.5216 0.0584,0.7189 0.0972,1.50182 0.0584,0.71893 0.26471,1.41334 0.78067,2.69396 1.34961,5.39265 0.56895,2.69871 0.84243,5.44641 0.0584,0.71891 0.30896,1.49707 0.27023,0.71417 0.41246,1.38884 0.5152,2.19152 0.9909,4.511 0.55944,2.27525 0.79893,4.45177 0.083,0.86664 0.023,1.96952 0.0238,1.05864 0.023,1.96954 l -0.0395,0.12799 0.70392,0.21722 q 0.80967,-2.62372 1.29936,-5.34617 0.4897,-2.72245 1.04337,-5.42515 0.64767,-3.23438 1.33959,-6.38504 0.71167,-3.21464 1.6793,-6.35029 0.63193,-2.04779 1.13512,-3.22416 0.50319,-1.17636 1.2766,-1.63856 0.79317,-0.5262 2.02403,-0.42671 1.29486,0.11927 3.44613,0.64291 0.44794,0.13824 1.17162,0.29144 0.72368,0.15319 1.44734,0.30646 0.74341,0.0893 1.42285,0.15874 0.69917,0.005 1.16212,-0.13199 1.8258,1.12411 2.27775,2.38497 0.45196,1.26087 -0.0765,3.20041 l -2.96216,9.59893 q -0.21722,0.70393 -0.69041,1.32886 -0.38944,0.58068 -0.60668,1.28461 -0.27646,0.89591 -0.4447,1.89529 -0.10429,1.01913 -0.38071,1.91503 -0.4147,1.34385 -1.10512,2.67271 -0.62642,1.3486 -1.04113,2.69246 -0.33571,1.08788 -0.67141,2.17576 -0.25194,1.04365 -0.52369,2.15127 -0.19747,0.63992 -0.64618,1.41258 -0.36495,0.72842 -0.69042,1.32886 -7.6e-4,0.9109 -0.14923,1.8463 -0.0845,0.95514 -0.34121,1.78705 -0.4147,1.34385 -0.89343,2.66795 -0.45898,1.2601 -0.87368,2.60396 -0.11852,0.38395 -0.45419,1.47183 -0.2717,1.10763 -0.64689,2.3235 -0.35546,1.15188 -0.67143,2.17576 -0.29621,0.9599 -0.41949,1.13212 -0.75917,1.09738 -1.98528,1.20961 -1.22611,0.11222 -2.38823,0.24423 -0.38395,-0.11852 -1.15187,-0.35546 -0.70393,-0.21722 -1.53583,-0.47394 -0.78768,-0.17295 -1.51133,-0.32621 -0.72368,-0.1532 -1.08314,-0.12405 z" />
      </g>
    </g>
  </g>
</svg>
