<?xml version="1.0" encoding="UTF-8" standalone="no"?>
<!-- Created with Inkscape (http://www.inkscape.org/) -->

<svg
   xmlns:dc="http://purl.org/dc/elements/1.1/"
   xmlns:cc="http://creativecommons.org/ns#"
   xmlns:rdf="http://www.w3.org/1999/02/22-rdf-syntax-ns#"
   xmlns:svg="http://www.w3.org/2000/svg"
   xmlns="http://www.w3.org/2000/svg"
   xmlns:sodipodi="http://sodipodi.sourceforge.net/DTD/sodipodi-0.dtd"
   xmlns:inkscape="http://www.inkscape.org/namespaces/inkscape"
   width="800mm"
   height="150mm"
   viewBox="0 0 800 150"
   version="1.1"
   id="svg1634"
   inkscape:version="0.92.2 2405546, 2018-03-11"
   sodipodi:docname="contactoTitle.svg">
  <defs
     id="defs1628">
    <clipPath
       clipPathUnits="userSpaceOnUse"
       id="clipPath13626">
      <path
         d="m 310.246,258.216 h 28.217 v -30.642 h -28.217 z"
         id="path13624"
         inkscape:connector-curvature="0" />
    </clipPath>
    <clipPath
       clipPathUnits="userSpaceOnUse"
       id="clipPath17870">
      <path
         d="m 310.246,258.216 h 28.217 v -30.642 h -28.217 z"
         id="path17868"
         inkscape:connector-curvature="0" />
    </clipPath>
  </defs>
  <sodipodi:namedview
     id="base"
     pagecolor="#ffff00"
     bordercolor="#666666"
     borderopacity="1.0"
     inkscape:pageopacity="0"
     inkscape:pageshadow="2"
     inkscape:zoom="0.22627417"
     inkscape:cx="1821.6464"
     inkscape:cy="-168.37509"
     inkscape:document-units="mm"
     inkscape:current-layer="layer1"
     showgrid="false"
     borderlayer="true"
     inkscape:showpageshadow="false"
     inkscape:window-width="1362"
     inkscape:window-height="724"
     inkscape:window-x="0"
     inkscape:window-y="20"
     inkscape:window-maximized="0" />
  <metadata
     id="metadata1631">
    <rdf:RDF>
      <cc:Work
         rdf:about="">
        <dc:format>image/svg+xml</dc:format>
        <dc:type
           rdf:resource="http://purl.org/dc/dcmitype/StillImage" />
        <dc:title></dc:title>
      </cc:Work>
    </rdf:RDF>
  </metadata>
  <g
     inkscape:label="Layer 1"
     inkscape:groupmode="layer"
     id="layer1"
     transform="translate(0,-147)">
    <path
       d="m 751.43824,256.95318 c 0.0588,0.23786 -0.22446,0.62343 -0.84982,1.15668 -0.58368,0.4977 -0.88166,0.8238 -0.89395,0.97828 -3.46461,6.91456 -6.42876,12.17829 -8.89244,15.79117 -0.19924,0.0619 -0.30807,0.2087 -0.3265,0.44043 -0.22381,0.37085 -1.68406,2.60609 -4.38077,6.70569 -2.6967,4.09961 -4.36057,6.94049 -4.9916,8.52265 -0.58934,1.5466 -1.06614,2.65521 -1.43036,3.32582 -0.36731,0.70923 -0.67297,1.13188 -0.91698,1.26794 -0.20539,0.13914 -0.45796,0.13849 -0.75771,-0.002 -0.19004,-0.054 -0.33927,-0.37677 -0.44769,-0.96836 -0.48413,-1.2433 -1.44357,-3.10737 -2.87835,-5.5922 -1.39615,-2.48177 -2.35099,-4.40376 -2.86452,-5.766 -0.50255,-1.01158 -1.53334,-3.44486 -3.09236,-7.29985 -1.64727,-4.21178 -3.06231,-7.43348 -4.24515,-9.66509 -1.14423,-2.22855 -2.2639,-4.76606 -3.359,-7.61253 -0.25369,-0.71975 -0.5166,-1.32362 -0.78872,-1.81164 -0.26905,-0.52663 -0.43605,-0.87027 -0.50101,-1.03088 -0.0202,-0.2348 -0.27673,-0.43009 -0.76959,-0.58587 -0.45423,-0.15271 -0.64669,-0.42063 -0.57737,-0.80376 l 0.0645,-0.81104 c 19.79406,1.80692 31.59119,2.76429 35.39138,2.87209 3.76464,0.0661 5.9544,0.14306 6.56926,0.23081 0.65654,0.0522 0.96948,0.2714 0.93877,0.6576 z"
       style="font-style:normal;font-variant:normal;font-weight:normal;font-stretch:normal;font-size:medium;line-height:1.25;font-family:'Paper Banner';-inkscape-font-specification:'Paper Banner';letter-spacing:0px;word-spacing:0px;fill:#3366cc;fill-opacity:1;stroke:#cc00ff;stroke-width:1.77773273;stroke-miterlimit:4;stroke-dasharray:none"
       id="path13278"
       inkscape:connector-curvature="0"
       sodipodi:nodetypes="cscccscccccccccccccccccc" />
    <path
       sodipodi:nodetypes="cscccsccccccccccccccccccc"
       inkscape:connector-curvature="0"
       id="path13280"
       style="font-style:normal;font-variant:normal;font-weight:normal;font-stretch:normal;font-size:medium;line-height:1.25;font-family:'Paper Banner';-inkscape-font-specification:'Paper Banner';letter-spacing:0px;word-spacing:0px;fill:#003399;fill-opacity:1;stroke:#cc00ff;stroke-width:1.77773273;stroke-miterlimit:4;stroke-dasharray:none"
       d="m 787.10862,259.58324 c 0.0538,0.21767 -0.2054,0.57049 -0.77767,1.05846 -0.53412,0.45545 -0.8068,0.75386 -0.81804,0.89522 -3.17042,6.32743 -5.88288,11.1442 -8.13736,14.45031 -0.18233,0.0566 -0.28192,0.19097 -0.29878,0.40303 -0.2048,0.33936 -1.54106,2.38479 -4.00879,6.13629 -2.46771,3.7515 -3.9903,6.35116 -4.56775,7.79897 -0.5393,1.41528 -0.9756,2.42975 -1.30891,3.04343 -0.33612,0.64901 -0.61582,1.03576 -0.83911,1.16027 -0.18795,0.12732 -0.41907,0.12673 -0.69338,-0.002 -0.17389,-0.0494 -0.31045,-0.34477 -0.40967,-0.88613 -0.44302,-1.13773 -1.32099,-2.84352 -2.63393,-5.11736 -1.27761,-2.27103 -2.15136,-4.02982 -2.6213,-5.27639 -0.45987,-0.92569 -1.40313,-3.15236 -2.82978,-6.68 -1.50739,-3.85416 -2.80228,-6.80229 -3.88469,-8.84442 -1.04706,-2.03931 -2.07166,-4.36135 -3.07378,-6.96613 -0.23214,-0.65863 -0.47273,-1.21123 -0.72174,-1.6578 -0.2462,-0.48192 -0.39902,-0.79637 -0.45846,-0.94335 -0.0185,-0.21486 -0.25324,-0.39357 -0.70425,-0.53613 -0.41567,-0.13974 -0.59178,-0.38491 -0.52834,-0.73551 l 0.059,-0.74217 c 18.1133,1.65349 28.90871,2.52956 32.38621,2.62821 3.44499,0.0605 5.4488,0.13091 6.01146,0.21121 0.6008,0.0478 0.88716,0.24835 0.85906,0.60177 z" />
    <path
       sodipodi:nodetypes="cscccsccccccccccccccc"
       inkscape:connector-curvature="0"
       id="path13282"
       style="font-style:normal;font-variant:normal;font-weight:normal;font-stretch:normal;font-size:medium;line-height:1.25;font-family:'Paper Banner';-inkscape-font-specification:'Paper Banner';letter-spacing:0px;word-spacing:0px;fill:#00cc00;fill-opacity:1;stroke:#cc00ff;stroke-width:1.77773273;stroke-miterlimit:4;stroke-dasharray:none"
       d="m 708.44773,253.87414 c 0.0588,0.23786 -0.22446,0.62343 -0.84984,1.15668 -0.58368,0.4977 -0.88166,0.8238 -0.89394,0.97828 -3.46461,6.91456 -6.42876,12.17829 -8.89244,15.79117 -0.19925,0.0619 -0.30808,0.2087 -0.3265,0.44043 -0.22381,0.37085 -1.68406,2.60609 -4.38077,6.70569 -2.6967,4.09961 -5.18846,7.46873 -6.6028,9.36308 -2.23578,3.1557 -1.41141,3.79229 -4.81989,-2.80917 -1.39614,-2.48177 -2.35099,-4.40376 -2.86453,-5.766 -0.50254,-1.01159 -1.53333,-3.44486 -3.09236,-7.29984 -1.64726,-4.21179 -3.0623,-7.43349 -4.24515,-9.66511 -1.14422,-2.22854 -2.26389,-4.76605 -3.359,-7.61252 -0.25369,-0.71975 -0.51659,-1.32363 -0.78871,-1.81164 -0.26905,-0.52664 -0.43606,-0.87026 -0.50101,-1.03089 -0.0202,-0.23479 -0.27673,-0.43008 -0.76959,-0.58587 -0.45424,-0.15269 -0.64669,-0.42063 -0.57737,-0.80376 l 0.0645,-0.81103 c 19.79405,1.80691 31.59119,2.76428 35.39138,2.87209 3.76464,0.0661 5.9544,0.14306 6.56926,0.2308 0.65655,0.0522 0.96948,0.2714 0.93877,0.65761 z" />
    <path
       sodipodi:nodetypes="cscccsccccccccccccccccccc"
       inkscape:connector-curvature="0"
       id="path13284"
       style="font-style:normal;font-variant:normal;font-weight:normal;font-stretch:normal;font-size:medium;line-height:1.25;font-family:'Paper Banner';-inkscape-font-specification:'Paper Banner';letter-spacing:0px;word-spacing:0px;fill:#9ade00;fill-opacity:1;stroke:#cc00ff;stroke-width:1.77773273;stroke-miterlimit:4;stroke-dasharray:none"
       d="m 664.62844,250.41629 c 0.0325,0.22896 -0.27023,0.56395 -0.90828,1.00497 -0.59552,0.41162 -0.90642,0.68937 -0.93269,0.83325 -3.91271,6.16174 -7.19803,10.82122 -9.85594,13.97841 -0.19298,0.0391 -0.30917,0.16657 -0.34858,0.38238 -0.24553,0.32686 -1.82986,2.28627 -4.753,5.87823 -2.92313,3.59196 -4.75643,6.10061 -5.49987,7.52594 -0.7009,1.39593 -1.25435,2.39135 -1.66031,2.98627 -0.41254,0.63087 -0.73985,0.99853 -0.98195,1.10301 -0.20611,0.11104 -0.4432,0.0863 -0.71125,-0.0741 -0.17328,-0.0688 -0.28259,-0.38612 -0.32796,-0.95192 -0.33594,-1.21357 -1.05896,-3.05534 -2.16904,-5.52531 -1.07411,-2.46339 -1.78727,-4.35912 -2.13948,-5.68715 -0.37535,-0.99776 -1.11104,-3.38078 -2.20706,-7.14908 -1.14484,-4.11173 -2.1661,-7.27168 -3.0638,-9.47986 -0.86174,-2.20161 -1.67093,-4.69098 -2.42758,-7.4681 -0.16954,-0.69999 -0.35879,-1.29207 -0.56772,-1.77625 -0.20237,-0.52013 -0.3264,-0.85871 -0.37207,-1.01573 0.003,-0.22237 -0.21878,-0.43022 -0.66669,-0.62351 -0.41193,-0.18671 -1.38903,1.34198 -1.28738,0.98885 l 1.28738,-0.98885 c 18.41285,3.58503 29.07067,4.04432 32.6285,4.50811 3.52843,0.42125 5.57712,0.70238 6.14606,0.84346 0.61148,0.11161 0.88437,0.34732 0.8187,0.70701 z" />
    <path
       d="m 623.12744,245.1628 c 0.0459,0.24069 -0.25765,0.61046 -0.91078,1.10932 -0.6096,0.46561 -0.92468,0.77521 -0.94525,0.92881 -3.83133,6.7183 -7.07417,11.81506 -9.72852,15.29028 -0.20229,0.0511 -0.31885,0.19183 -0.34971,0.42223 -0.24343,0.35829 -1.82173,2.51178 -4.73493,6.46049 -2.9132,3.9487 -4.72739,6.69602 -5.44257,8.24197 -0.67164,1.51268 -1.20733,2.59405 -1.6071,3.24411 -0.40489,0.68847 -0.73284,1.09407 -0.98381,1.21681 -0.21257,0.12789 -0.46473,0.11366 -0.75651,-0.0427 -0.18685,-0.0641 -0.31851,-0.39445 -0.39498,-0.99102 -0.41658,-1.26753 -1.27443,-3.18049 -2.57354,-5.73887 -1.26071,-2.55323 -2.11084,-4.52378 -2.5504,-5.91165 -0.44743,-1.03714 -1.34593,-3.52231 -2.69545,-7.45554 -1.41844,-4.29425 -2.65824,-7.58737 -3.71941,-9.87934 -1.02277,-2.28684 -2.00439,-4.88087 -2.94488,-7.78211 -0.21464,-0.73233 -0.4447,-1.34947 -0.69019,-1.85141 -0.24035,-0.54034 -0.38864,-0.89245 -0.44486,-1.05633 -0.008,-0.23555 -0.25321,-0.44435 -0.73698,-0.62639 -0.44537,-0.17691 -0.62314,-0.45479 -0.53333,-0.83365 l 0.10799,-0.80639 c 19.66829,2.86844 31.39689,4.45864 35.1858,4.77059 3.75564,0.26841 5.9381,0.46296 6.54735,0.58363 0.6528,0.0874 0.95348,0.32313 0.90206,0.70713 z"
       style="font-style:normal;font-variant:normal;font-weight:normal;font-stretch:normal;font-size:medium;line-height:1.25;font-family:'Paper Banner';-inkscape-font-specification:'Paper Banner';letter-spacing:0px;word-spacing:0px;fill:#ff9900;fill-opacity:1;stroke:#cc00ff;stroke-width:1.77773273;stroke-miterlimit:4;stroke-dasharray:none"
       id="path13286"
       inkscape:connector-curvature="0"
       sodipodi:nodetypes="cscccscccccccccccccccccc" />
    <path
       sodipodi:nodetypes="cccccccccsccccccccccc"
       inkscape:connector-curvature="0"
       id="path13288"
       style="font-style:normal;font-variant:normal;font-weight:normal;font-stretch:normal;font-size:medium;line-height:1.25;font-family:'Paper Banner';-inkscape-font-specification:'Paper Banner';letter-spacing:0px;word-spacing:0px;fill:#ff6600;fill-opacity:1;stroke:#cc00ff;stroke-width:1.77773273;stroke-miterlimit:4;stroke-dasharray:none"
       d="m 564.4175,261.65364 c -0.51979,0.71484 -1.56093,1.89933 -3.12345,3.55349 -1.5202,1.6227 -2.58036,2.93628 -3.18047,3.94076 -0.0382,0.25817 -0.13079,0.37643 -0.27834,0.35471 -0.22128,-0.0328 -0.56854,0.40618 -1.04171,1.31631 -0.51549,0.94157 -1.00597,1.58536 -1.47144,1.93135 -0.4709,0.38287 -0.87449,0.43651 -1.21075,0.16088 -0.29938,-0.27018 -0.49998,-0.8273 -0.60181,-1.67136 -0.0855,-0.95471 -0.28171,-1.9257 -0.58855,-2.91299 -1.04521,-3.39475 -2.934,-9.25016 -5.66638,-17.56621 -2.73238,-8.31604 -4.61201,-13.84977 -5.6389,-16.60121 -0.28625,-0.8712 -0.52158,-1.32038 -0.706,-1.34754 -0.33195,-0.0489 -0.3693,-0.5631 -0.11201,-1.54271 l 37.53748,8.11816 c -0.0837,1.08052 3.17046,-0.37186 2.8428,-0.194 -0.68361,0.80376 -2.65424,3.56604 -5.91189,8.28683 -3.21533,4.68932 -5.13063,7.45974 -5.7459,8.31126 -0.37655,0.50982 -1.03629,1.27942 -1.97923,2.3088 -0.90606,1.0348 -1.62984,1.98338 -2.17134,2.84576 -0.10093,0.17356 -0.27019,0.29938 -0.5078,0.37744 -0.2376,0.0781 -0.38571,0.18817 -0.44431,0.33027 z" />
    <path
       d="m 520.75282,254.72754 c -0.5697,0.67572 -1.69312,1.78251 -3.37023,3.32036 -1.63266,1.5095 -2.78429,2.74367 -3.45489,3.70254 -0.0564,0.2548 -0.15745,0.36608 -0.30306,0.33383 -0.21839,-0.0484 -0.59621,0.36437 -1.13343,1.23821 -0.58168,0.90219 -1.11706,1.50914 -1.60615,1.82085 -0.49714,0.34812 -0.90354,0.37268 -1.21916,0.0736 -0.27924,-0.29096 -0.43937,-0.86103 -0.4804,-1.71021 -0.0169,-0.95838 -0.1429,-1.94095 -0.37815,-2.9477 -0.79907,-3.46096 -2.26309,-9.43675 -4.39207,-17.92734 -2.12898,-8.49057 -3.60693,-14.14485 -4.43386,-16.96284 -0.22303,-0.88949 -0.42555,-1.35439 -0.60756,-1.3947 -0.3276,-0.0726 -0.32796,-0.58814 -10e-4,-1.54677 l 40.45892,8.96107 c -0.16096,1.07174 -0.4113,1.68455 -0.75086,1.83845 -0.7395,0.75268 -2.90315,3.36653 -6.49095,7.84154 -3.54333,4.44667 -5.65238,7.07261 -6.32713,7.87781 -0.41213,0.48151 -1.12537,1.20181 -2.1397,2.16092 -0.97793,0.96716 -1.76788,1.86141 -2.36983,2.68273 -0.11311,0.16588 -0.29096,0.27923 -0.53356,0.34006 -0.24258,0.0608 -0.3982,0.16001 -0.46685,0.29754 z"
       style="font-style:normal;font-variant:normal;font-weight:normal;font-stretch:normal;font-size:medium;line-height:1.25;font-family:'Paper Banner';-inkscape-font-specification:'Paper Banner';letter-spacing:0px;word-spacing:0px;fill:#ff0000;fill-opacity:1;stroke:#cc00ff;stroke-width:1.77773273;stroke-miterlimit:4;stroke-dasharray:none"
       id="path13290"
       inkscape:connector-curvature="0"
       sodipodi:nodetypes="cccccccccsccccccccccc" />
    <path
       sodipodi:nodetypes="cccccccccsccccccccccc"
       inkscape:connector-curvature="0"
       id="path13292"
       style="font-style:normal;font-variant:normal;font-weight:normal;font-stretch:normal;font-size:medium;line-height:1.25;font-family:'Paper Banner';-inkscape-font-specification:'Paper Banner';letter-spacing:0px;word-spacing:0px;fill:#ff3399;fill-opacity:1;stroke:#cc00ff;stroke-width:1.77773273;stroke-miterlimit:4;stroke-dasharray:none"
       d="m 479.93227,246.34651 c -0.59202,0.70219 -1.75944,1.85232 -3.50224,3.45039 -1.69661,1.56863 -2.89334,2.85115 -3.59021,3.84756 -0.0586,0.26479 -0.16362,0.38043 -0.31493,0.34692 -0.22696,-0.0503 -0.61956,0.37863 -1.17782,1.28671 -0.60446,0.93752 -1.16082,1.56825 -1.66906,1.89217 -0.51663,0.36176 -0.93893,0.38728 -1.26692,0.0765 -0.29017,-0.30236 -0.45657,-0.89476 -0.49921,-1.7772 -0.0175,-0.99592 -0.1485,-2.01697 -0.39296,-3.06315 -0.83037,-3.59654 -2.35174,-9.80638 -4.5641,-18.62952 -2.21237,-8.82314 -3.74821,-14.69889 -4.60753,-17.62724 -0.23177,-0.92433 -0.44222,-1.40744 -0.63135,-1.44933 -0.34043,-0.0754 -0.34081,-0.61118 -10e-4,-1.60736 l 42.04362,9.31206 c -0.1673,1.11371 -0.42741,1.75053 -0.78027,1.91046 -0.76846,0.78216 -3.01686,3.49838 -6.74519,8.14867 -3.68211,4.62084 -5.87377,7.34963 -6.57495,8.18637 -0.42828,0.50037 -1.16944,1.24889 -2.22351,2.24555 -1.01623,1.00505 -1.83712,1.93432 -2.46265,2.78782 -0.11754,0.17237 -0.30236,0.29017 -0.55445,0.35337 -0.25209,0.0632 -0.4138,0.16629 -0.48514,0.30921 z" />
    <path
       sodipodi:nodetypes="cc"
       inkscape:connector-curvature="0"
       id="path13298"
       d="m 454.16725,215.48319 c 110.75713,28.15636 222.66739,42.42509 340.85699,45.64644"
       style="fill:none;stroke:none;stroke-width:4.35816145;stroke-linecap:round;stroke-linejoin:round;stroke-miterlimit:4;stroke-dasharray:none;stroke-opacity:1" />
    <path
       sodipodi:nodetypes="cc"
       inkscape:connector-curvature="0"
       id="path13312"
       d="m 455.77193,211.87426 c 110.75712,28.15636 223.17939,43.91734 341.36899,47.13869"
       style="fill:none;stroke:#cc00ff;stroke-width:3.11103225;stroke-linecap:round;stroke-linejoin:round;stroke-miterlimit:4;stroke-dasharray:none;stroke-opacity:1" />
    <path
       sodipodi:nodetypes="cscccscccccccccccccccccc"
       inkscape:connector-curvature="0"
       id="path13316"
       style="font-style:normal;font-variant:normal;font-weight:normal;font-stretch:normal;font-size:medium;line-height:1.25;font-family:'Paper Banner';-inkscape-font-specification:'Paper Banner';letter-spacing:0px;word-spacing:0px;fill:#3366cc;fill-opacity:1;stroke:#ff6600;stroke-width:4;stroke-miterlimit:4;stroke-dasharray:none"
       d="m 680.53424,165.34771 c 0.20221,0.5129 -0.31439,1.45737 -1.54979,2.83336 -1.15306,1.28428 -1.72021,2.10051 -1.70148,2.4487 -5.66153,16.45522 -10.69999,29.07936 -15.11535,37.87242 -0.42586,0.19752 -0.62473,0.55743 -0.59662,1.07973 -0.38837,0.8939 -2.97739,6.31491 -7.76707,16.26301 -4.78968,9.94812 -7.65192,16.78063 -8.5867,20.49754 -0.85242,3.62517 -1.58465,6.23992 -2.19665,7.84427 -0.60734,1.69139 -1.16277,2.72524 -1.66631,3.10155 -0.4165,0.37163 -0.97996,0.44561 -1.6904,0.22197 -0.43992,-0.0636 -0.86913,-0.73893 -1.2876,-2.02588 -1.451,-2.62817 -4.14742,-6.49878 -8.08929,-11.61182 -3.85481,-5.11774 -6.55825,-9.11891 -8.11035,-12.00352 -1.42287,-2.1059 -4.4484,-7.22463 -9.07655,-15.35621 -4.93151,-8.90093 -9.04944,-15.66319 -12.35384,-20.28676 -3.21736,-4.62826 -6.47223,-9.95289 -9.76458,-15.97389 -0.78072,-1.52938 -1.5474,-2.79759 -2.30001,-3.80467 -0.7573,-1.09412 -1.23237,-1.8106 -1.42521,-2.1494 -0.11515,-0.5176 -0.74558,-0.87651 -1.89127,-1.07672 -1.05861,-0.20491 -1.56783,-0.74494 -1.52766,-1.62008 l -0.0984,-1.82799 c 44.68333,-1.88189 71.2786,-3.27007 79.78579,-4.1646 8.41546,-0.97687 13.32192,-1.45927 14.71935,-1.4472 1.4798,-0.0796 2.24315,0.31572 2.29001,1.18619 z" />
    <path
       d="m 772.62642,159.50169 c 0.18504,0.46936 -0.2877,1.33361 -1.4182,2.59278 -1.05514,1.17523 -1.57414,1.92216 -1.55699,2.24078 -5.18081,15.05796 -9.79143,26.61017 -13.83188,34.65659 -0.3897,0.18076 -0.57168,0.51009 -0.54596,0.98804 -0.35539,0.81799 -2.72457,5.77869 -7.10756,14.88209 -4.38296,9.10339 -7.00217,15.35574 -7.85757,18.75704 -0.78004,3.31734 -1.45009,5.71007 -2.01013,7.1782 -0.55577,1.54777 -1.06404,2.49382 -1.52483,2.83819 -0.38112,0.34007 -0.89674,0.40778 -1.54686,0.20311 -0.40256,-0.0582 -0.79533,-0.67618 -1.17827,-1.85385 -1.32779,-2.40501 -3.79524,-5.94696 -7.40239,-10.62584 -3.5275,-4.68317 -6.00138,-8.34459 -7.42169,-10.98428 -1.30205,-1.92707 -4.07067,-6.61117 -8.30585,-14.05227 -4.51275,-8.14515 -8.28103,-14.3332 -11.30485,-18.56418 -2.94416,-4.23526 -5.92264,-9.10775 -8.93545,-14.61751 -0.71441,-1.39952 -1.416,-2.56004 -2.1047,-3.48159 -0.69299,-1.00123 -1.12772,-1.65685 -1.30418,-1.96689 -0.10536,-0.47365 -0.68229,-0.80209 -1.73069,-0.98531 -0.96873,-0.1875 -1.43471,-0.68168 -1.39793,-1.48252 l -0.0901,-1.67276 c 40.88917,-1.72209 65.22617,-2.99241 73.01098,-3.81097 7.7009,-0.89394 12.19074,-1.33536 13.46952,-1.32433 1.35415,-0.0729 2.05267,0.28892 2.09555,1.08548 z"
       style="font-style:normal;font-variant:normal;font-weight:normal;font-stretch:normal;font-size:medium;line-height:1.25;font-family:'Paper Banner';-inkscape-font-specification:'Paper Banner';letter-spacing:0px;word-spacing:0px;fill:#6699ff;fill-opacity:1;stroke:#ff6600;stroke-width:4;stroke-miterlimit:4;stroke-dasharray:none"
       id="path13318"
       inkscape:connector-curvature="0"
       sodipodi:nodetypes="cscccsccccccccccccccccccc" />
    <path
       d="m 583.73943,171.32028 c 0.20221,0.51291 -0.31439,1.45737 -1.5498,2.83338 -1.15306,1.28427 -1.72021,2.1005 -1.70146,2.44869 -5.66154,16.45521 -10.7,29.07937 -15.11536,37.87242 -0.42587,0.19753 -0.62473,0.55744 -0.59662,1.07972 -0.38837,0.89391 -2.97739,6.31492 -7.76708,16.26303 -4.78968,9.94811 -9.34046,18.20592 -11.92891,22.85301 -4.04364,7.7054 -2.01507,8.87889 -11.58803,-4.82539 -3.8548,-5.11774 -6.55825,-9.11891 -8.11036,-12.00352 -1.42286,-2.10591 -4.44839,-7.22463 -9.07656,-15.3562 -4.93149,-8.90094 -9.04943,-15.66321 -12.35383,-20.28679 -3.21736,-4.62825 -6.47222,-9.95287 -9.76458,-15.97388 -0.78072,-1.52938 -1.54739,-2.7976 -2.3,-3.80467 -0.7573,-1.09412 -1.23238,-1.81058 -1.42521,-2.1494 -0.11515,-0.51759 -0.7456,-0.87651 -1.89127,-1.07673 -1.05862,-0.20488 -1.56784,-0.74493 -1.52767,-1.62008 l -0.0984,-1.82798 c 44.68333,-1.88189 71.27861,-3.27007 79.78579,-4.1646 8.41546,-0.97686 13.32193,-1.45926 14.71936,-1.4472 1.4798,-0.0796 2.24314,0.31572 2.29001,1.18619 z"
       style="font-style:normal;font-variant:normal;font-weight:normal;font-stretch:normal;font-size:medium;line-height:1.25;font-family:'Paper Banner';-inkscape-font-specification:'Paper Banner';letter-spacing:0px;word-spacing:0px;fill:#003399;fill-opacity:1;stroke:#ff6600;stroke-width:4;stroke-miterlimit:4;stroke-dasharray:none"
       id="path13320"
       inkscape:connector-curvature="0"
       sodipodi:nodetypes="cscccsccccccccccccccc" />
    <path
       d="m 484.98321,176.69558 c 0.14094,0.50088 -0.43423,1.33839 -1.72545,2.51249 -1.20517,1.09583 -1.81557,1.80811 -1.83118,2.13681 -6.88571,14.91016 -12.82088,26.28265 -17.80551,34.11746 -0.4187,0.14486 -0.63975,0.4638 -0.66319,0.95687 -0.44995,0.80226 -3.39805,5.64521 -8.84432,14.52883 -5.44627,8.8836 -8.78558,15.02579 -10.01788,18.42652 -1.14622,3.32246 -2.0832,5.70767 -2.81089,7.15567 -0.73161,1.53014 -1.35176,2.44785 -1.86046,2.75314 -0.42651,0.30919 -0.96262,0.32489 -1.60834,0.0471 -0.40698,-0.10166 -0.74554,-0.7767 -1.01569,-2.02498 -1.11164,-2.60611 -3.27413,-6.4976 -6.48744,-11.67446 -3.13112,-5.17295 -5.28774,-9.1877 -6.46985,-12.04423 -1.13506,-2.11304 -3.48746,-7.20782 -7.05718,-15.28436 -3.78113,-8.82785 -7.00244,-15.57001 -9.66393,-20.22648 -2.57931,-4.65256 -5.1274,-9.96255 -7.64423,-15.92996 -0.58715,-1.51046 -1.18603,-2.77436 -1.79658,-3.79174 -0.60666,-1.09955 -0.98438,-1.81758 -1.13312,-2.15412 -0.0587,-0.49696 -0.61642,-0.89411 -1.67304,-1.1914 -0.97442,-0.29338 -2.69695,3.40764 -2.57573,2.58976 l 2.57573,-2.58976 c 42.13406,2.49607 66.03977,0.33736 74.11277,0.3091 7.99472,-0.11431 12.64757,-0.0992 13.95851,0.0455 1.39704,0.0663 2.07602,0.51046 2.03699,1.33224 z"
       style="font-style:normal;font-variant:normal;font-weight:normal;font-stretch:normal;font-size:medium;line-height:1.25;font-family:'Paper Banner';-inkscape-font-specification:'Paper Banner';letter-spacing:0px;word-spacing:0px;fill:#00cc00;fill-opacity:1;stroke:#ff6600;stroke-width:4;stroke-miterlimit:4;stroke-dasharray:none"
       id="path13322"
       inkscape:connector-curvature="0"
       sodipodi:nodetypes="cscccsccccccccccccccccccc" />
    <path
       sodipodi:nodetypes="cscccscccccccccccccccccc"
       inkscape:connector-curvature="0"
       id="path13324"
       style="font-style:normal;font-variant:normal;font-weight:normal;font-stretch:normal;font-size:medium;line-height:1.25;font-family:'Paper Banner';-inkscape-font-specification:'Paper Banner';letter-spacing:0px;word-spacing:0px;fill:#ff9900;fill-opacity:1;stroke:#ff6600;stroke-width:4;stroke-miterlimit:4;stroke-dasharray:none"
       d="m 390.86085,177.37396 c 0.17434,0.52304 -0.39229,1.43836 -1.69988,2.74596 -1.22043,1.22043 -1.83064,2.00499 -1.83064,2.35368 -6.538,16.12705 -12.24784,28.46207 -17.12954,37.00505 -0.43588,0.17434 -0.6538,0.52304 -0.6538,1.04608 -0.43588,0.87174 -3.31259,6.14571 -8.63016,15.82195 -5.31757,9.67623 -8.54298,16.34497 -9.67623,20.00626 -1.04609,3.5741 -1.91781,6.14571 -2.6152,7.71483 -0.69737,1.6563 -1.3076,2.65879 -1.83065,3.00749 -0.43586,0.34869 -1.00248,0.39227 -1.69987,0.13076 -0.43586,-0.0872 -0.82814,-0.78456 -1.17684,-2.09216 -1.30759,-2.70237 -3.79203,-6.71235 -7.45332,-12.02992 -3.5741,-5.31757 -6.05853,-9.45829 -7.45331,-12.42218 -1.30758,-2.17934 -4.05356,-7.45331 -8.23787,-15.82195 -4.44583,-9.1532 -8.19428,-16.12706 -11.24534,-20.92159 -2.9639,-4.79453 -5.92778,-10.28644 -8.89168,-16.47574 -0.69739,-1.56912 -1.39478,-2.87672 -2.09216,-3.9228 -0.69738,-1.13326 -1.13325,-1.87422 -1.30759,-2.22292 -0.0872,-0.52304 -0.6974,-0.91533 -1.83065,-1.17684 -1.04607,-0.26152 -1.52552,-0.82815 -1.43836,-1.69988 v -1.83063 c 44.71988,0.52304 71.35132,0.56663 79.8943,0.13075 8.45581,-0.52304 13.38111,-0.74097 14.77587,-0.6538 1.48195,0 2.22292,0.43586 2.22292,1.3076 z" />
    <path
       d="m 264.85402,231.68494 c -7.09644,8.41145 -12.06042,16.27611 -14.26534,22.71684 -0.86841,2.2538 -1.76998,3.83603 -2.70473,4.74664 -0.93583,0.99451 -1.81987,1.23466 -2.65209,0.72039 -0.74835,-0.51313 -1.36211,-1.69569 -1.84128,-3.54765 -0.47587,-2.10359 -1.20339,-4.21045 -2.18254,-6.32062 -3.34483,-7.25865 -9.30586,-19.75298 -17.88309,-37.48297 -8.57724,-17.72997 -14.42175,-29.50966 -17.5336,-35.33908 -0.89856,-1.85742 -1.55753,-2.78888 -1.97694,-2.79437 -0.75491,-0.01 -0.99176,-1.1455 -0.71053,-3.40701 l 86.13867,6.89398 c 0.13602,2.43472 6.95954,-1.77619 6.28194,-1.28168 -1.28452,1.99667 -4.85435,8.7455 -10.70951,20.24647 -5.77017,11.41816 -9.21418,18.16862 -10.33202,20.25139 -2.062,5.48795 -5.27773,8.94527 -9.62894,14.59767 z"
       style="font-style:normal;font-variant:normal;font-weight:normal;font-stretch:normal;font-size:medium;line-height:1.25;font-family:'Paper Banner';-inkscape-font-specification:'Paper Banner';letter-spacing:0px;word-spacing:0px;fill:#ff6600;fill-opacity:1;stroke:#ff6600;stroke-width:4;stroke-miterlimit:4;stroke-dasharray:none"
       id="path13326"
       inkscape:connector-curvature="0"
       sodipodi:nodetypes="ccccccscccccccc" />
    <path
       sodipodi:nodetypes="ccccccsccccccccc"
       inkscape:connector-curvature="0"
       id="path13328"
       style="font-style:normal;font-variant:normal;font-weight:normal;font-stretch:normal;font-size:medium;line-height:1.25;font-family:'Paper Banner';-inkscape-font-specification:'Paper Banner';letter-spacing:0px;word-spacing:0px;fill:#ff0000;fill-opacity:1;stroke:#ff6600;stroke-width:4;stroke-miterlimit:4;stroke-dasharray:none"
       d="m 158.88231,237.69076 c -3.39464,4.3582 -7.51307,9.17093 -9.33321,13.22394 -1.0278,2.18573 -2.0405,3.69922 -3.03815,4.54044 -1.00474,0.92485 -1.90372,1.10099 -2.69692,0.52836 -0.70963,-0.56548 -1.23701,-1.789 -1.58213,-3.67055 -0.3238,-2.1323 -0.89836,-4.28592 -1.72366,-6.46086 -2.81567,-7.47982 -7.86536,-20.36947 -15.14905,-38.66892 -7.28369,-18.29942 -12.26841,-30.4679 -14.95419,-36.50547 -0.76304,-1.91708 -1.35353,-2.89339 -1.77147,-2.92894 -0.75227,-0.064 -0.90706,-1.21368 -0.46437,-3.44919 l 92.90567,7.90129 c -0.0389,2.4382 -0.41417,3.87963 -1.12548,4.32426 -1.4244,1.89943 -5.46903,8.37489 -12.13387,19.42635 -6.57413,10.97496 -10.49337,17.46107 -11.7577,19.4583 -0.7753,1.19692 -2.15081,3.01631 -4.12648,5.4582 -4.03468,5.91801 -8.60469,11.40335 -13.04899,16.82279 z" />
    <path
       d="m 65.08783,231.52047 c -2.768605,4.13454 -7.969892,10.00163 -9.69878,13.74191 -1.06804,2.27134 -2.12042,3.8441 -3.15714,4.7183 -1.04411,0.96107 -1.97829,1.14409 -2.80257,0.54905 -0.73741,-0.58764 -1.28544,-1.85909 -1.64408,-3.81433 -0.33648,-2.21582 -0.93354,-4.45379 -1.79118,-6.71391 -2.92595,-7.77282 -8.17342,-21.16732 -15.7424,-40.18351 -7.56898,-19.01617 -12.74895,-31.66128 -15.53991,-37.93531 -0.79294,-1.99218 -1.40656,-3.00673 -1.84086,-3.04367 -0.78174,-0.0665 -0.94259,-1.26122 -0.48256,-3.5843 l 96.54461,8.21078 c -0.0405,2.5337 -0.43039,4.03158 -1.16956,4.49363 -1.48019,1.97383 -5.68324,8.70291 -12.60914,20.18722 -6.83163,11.40485 -10.90438,18.145 -12.21823,20.22047 -0.80568,1.24379 -2.23505,3.13445 -4.28811,5.67197 -4.396936,6.45749 -9.222538,12.27527 -13.56009,17.4817 z"
       style="font-style:normal;font-variant:normal;font-weight:normal;font-stretch:normal;font-size:medium;line-height:1.25;font-family:'Paper Banner';-inkscape-font-specification:'Paper Banner';letter-spacing:0px;word-spacing:0px;fill:#ff3399;fill-opacity:1;stroke:#ff6600;stroke-width:4;stroke-miterlimit:4;stroke-dasharray:none"
       id="path13330"
       inkscape:connector-curvature="0"
       sodipodi:nodetypes="ccccccsccccccccc" />
    <path
       inkscape:connector-curvature="0"
       id="path13332"
       style="font-style:normal;font-variant:normal;font-weight:normal;font-stretch:normal;font-size:medium;line-height:1.25;font-family:'Paper Banner';-inkscape-font-specification:'Paper Banner';letter-spacing:0px;word-spacing:0px;fill:#ffff00;fill-opacity:1;stroke:#ffff00;stroke-width:3.92244411;stroke-miterlimit:4;stroke-dasharray:none"
       d="m 157.03359,193.45253 c -0.95535,-0.0826 -1.7504,-0.50128 -2.38515,-1.25608 -1.47754,-2.14014 -3.6032,-1.8426 -6.37701,0.89265 -3.15874,3.13948 -4.8898,6.97105 -5.19322,11.49473 -0.0183,1.2234 0.0579,2.36745 0.22841,3.43217 0.549,2.75987 1.00309,4.59282 1.36229,5.49884 0.44605,0.91354 1.34135,1.6909 2.68591,2.33207 2.17553,1.15048 4.49205,1.17564 6.94957,0.0755 2.54437,-1.0926 4.45398,-2.94005 5.72883,-5.54233 1.7123,-3.61444 2.40708,-7.09808 2.08433,-10.45091 -0.13297,-1.49895 -0.75486,-2.9089 -1.86569,-4.22987 -1.01647,-1.40031 -2.08924,-2.14924 -3.21827,-2.24682 z m 1.99751,-3.37107 c 1.21589,0.10512 2.60604,1.23145 4.17041,3.37908 1.57188,2.06078 2.41306,3.97093 2.5235,5.73044 0.11801,1.67266 -0.0922,4.10444 -0.63042,7.29537 -0.76213,5.84732 -5.16018,10.65721 -9.23654,12.7203 -3.74094,1.77668 -7.10717,1.74828 -10.09867,-0.0852 -4.2417,-2.554 -6.24355,-7.23314 -6.00557,-14.03743 0.23801,-6.80427 2.61401,-12.02384 7.12802,-15.65869 1.59651,-1.26202 3.23109,-1.95199 4.90375,-2.06995 1.75952,-0.11049 3.20594,0.36454 4.33927,1.42495 0.80846,0.76985 1.77722,1.20355 2.90625,1.30112 z"
       sodipodi:nodetypes="ccccccccccccccccccccccccc" />
    <path
       inkscape:connector-curvature="0"
       id="path13334"
       style="font-style:normal;font-variant:normal;font-weight:normal;font-stretch:normal;font-size:medium;line-height:1.25;font-family:'Paper Banner';-inkscape-font-specification:'Paper Banner';letter-spacing:0px;word-spacing:0px;fill:#ffff00;fill-opacity:1;stroke:#ffff00;stroke-width:3.92244411;stroke-miterlimit:4;stroke-dasharray:none"
       d="m 263.31795,194.73646 c 0.52294,0.01 0.87003,0.10273 1.04124,0.28011 0.25994,0.0918 0.38446,0.44279 0.37359,1.0529 -0.01,0.52297 -0.154,1.30507 -0.43413,2.34633 -0.19141,0.95565 -0.60847,2.34321 -1.25121,4.16269 -1.29321,4.07475 -2.85168,10.80398 -4.67543,20.18769 -0.28009,1.04126 -0.89875,1.50977 -1.85597,1.40552 -1.20781,-0.71902 -2.44366,-2.3104 -3.70756,-4.77415 -1.17521,-2.54936 -2.4298,-5.53607 -3.76378,-8.96014 -1.24683,-3.42251 -2.25083,-5.79447 -3.01198,-7.11582 -0.0327,1.83036 -0.74451,5.08717 -2.13578,9.7705 -1.39124,4.68332 -2.1024,7.89657 -2.13346,9.63976 -0.0156,0.87159 -0.50342,1.34243 -1.46375,1.4125 -0.87315,0.0717 -1.47626,-0.33143 -1.80938,-1.20925 -0.3331,-0.87781 0.15704,-3.92063 1.47044,-9.12846 1.40057,-5.20627 2.11792,-8.76815 2.15209,-10.68565 0.087,-4.88094 1.04561,-7.30511 2.87595,-7.27248 1.74321,0.031 4.07176,3.90874 6.98569,11.63314 1.91616,5.00381 3.04546,7.68313 3.38787,8.03799 0.0872,0.002 0.13152,-0.0412 0.13307,-0.12842 0.0888,-0.0857 0.17821,-0.21479 0.26845,-0.38756 0.17898,-0.25838 0.31439,-0.51752 0.4062,-0.77745 0.0934,-0.34709 0.18675,-0.69416 0.28012,-1.04125 0.0949,-0.43424 0.18985,-0.86848 0.28477,-1.30273 0.95233,-4.51676 2.16617,-9.02887 3.64146,-13.53631 0.55091,-1.55956 1.00458,-2.55414 1.36096,-2.98371 0.35641,-0.42959 0.88325,-0.63817 1.58053,-0.62575 z"
       sodipodi:nodetypes="cccccccccccccccscccccccccsc" />
    <path
       style="fill:none;stroke:#ff9900;stroke-width:9.80611134;stroke-linecap:round;stroke-linejoin:round;stroke-miterlimit:4;stroke-dasharray:none;stroke-opacity:1"
       d="m 9.27896,156.292 c 255.41385,29.71479 509.25177,28.11373 773.79419,0"
       id="path13336"
       inkscape:connector-curvature="0"
       sodipodi:nodetypes="cc" />
    <path
       sodipodi:nodetypes="sccccccccccccccccs"
       d="m 343.30945,194.12178 c 3.66128,0 6.53799,0.0437 8.63015,0.13076 2.09217,0.0872 3.74846,0.26152 4.96888,0.52305 1.22043,0.17433 1.9614,0.43586 2.22291,0.78455 0.3487,0.3487 0.43587,0.82815 0.26153,1.43836 0.0872,0.43586 -0.74098,0.69739 -2.48444,0.78456 -1.74346,0.0872 -4.05356,0.0872 -6.93028,0 -2.87671,-0.17434 -4.40225,-0.26152 -4.5766,-0.26152 -0.0872,2.61519 -0.0872,6.58158 0,11.89914 0.0872,5.2304 0.0435,10.33003 -0.13075,15.29891 -0.0872,4.96889 -0.39229,7.1918 -0.91532,6.66877 -0.69738,0.34869 -1.3076,0.26152 -1.83064,-0.26152 -0.34869,-1.13325 -0.87174,-12.33502 -1.56912,-33.60529 l -6.53799,0.39227 c -4.70736,0.26151 -7.10463,-0.0436 -7.19179,-0.91531 0,-0.3487 0.30511,-0.87174 0.91531,-1.56912 0.61021,-0.61022 1.6127,-0.9589 3.00747,-1.04608 1.48195,-0.17435 5.53551,-0.26152 12.16068,-0.26153 z"
       style="font-style:normal;font-variant:normal;font-weight:normal;font-stretch:normal;font-size:medium;line-height:1.25;font-family:'Paper Banner';-inkscape-font-specification:'Paper Banner';letter-spacing:0px;word-spacing:0px;fill:#ffff00;fill-opacity:1;stroke:#ffff00;stroke-width:3.92244411;stroke-miterlimit:4;stroke-dasharray:none"
       id="path13338"
       inkscape:connector-curvature="0" />
    <path
       inkscape:connector-curvature="0"
       id="path13340"
       style="font-style:normal;font-variant:normal;font-weight:normal;font-stretch:normal;font-size:medium;line-height:1.25;font-family:'Paper Banner';-inkscape-font-specification:'Paper Banner';letter-spacing:0px;word-spacing:0px;fill:#ffff00;fill-opacity:1;stroke:#ffff00;stroke-width:3.92244411;stroke-miterlimit:4;stroke-dasharray:none"
       d="m 634.22078,185.22765 c 3.65538,-0.2077 6.52993,-0.32732 8.62368,-0.35902 2.09374,-0.0316 3.75724,0.0484 4.99054,0.24033 1.22836,0.10488 1.98296,0.32389 2.26384,0.6572 0.36792,0.32834 0.48213,0.80208 0.3427,1.4212 0.1118,0.43022 -0.70022,0.73829 -2.43593,0.92423 -1.73571,0.18593 -4.04207,0.31698 -6.91912,0.39314 -2.88196,-0.0107 -4.40999,-0.0119 -4.58407,-0.002 0.0613,2.61594 0.28632,6.57591 0.67502,11.87999 0.38374,5.21702 0.62946,10.31093 0.73732,15.28169 0.19483,4.96581 0.0162,7.20246 -0.53555,6.70996 -0.67647,0.38769 -1.29066,0.33525 -1.84252,-0.15726 -0.41243,-1.11165 -1.57007,-12.26571 -3.47294,-33.46216 l -6.50521,0.76252 c -4.68494,0.52812 -7.09566,0.35954 -7.23214,-0.50587 -0.0198,-0.34814 0.25517,-0.88764 0.82484,-1.61853 0.57461,-0.64383 1.55571,-1.04883 2.94329,-1.215 1.46967,-0.25812 5.51176,-0.57511 12.12625,-0.95094 z"
       sodipodi:nodetypes="sccccccccccccccccs" />
    <path
       sodipodi:nodetypes="csccccscccccccccccccc"
       d="m 63.30246,211.16051 c -0.1749,0.6751 -0.50611,1.08458 -0.99362,1.22843 -0.48753,0.14387 -1.47045,0.11431 -2.94876,-0.0885 -4.28802,-0.48054 -8.35742,-1.80491 -12.2082,-3.97319 -3.76639,-2.14639 -6.1358,-4.47121 -7.10823,-6.97441 -1.24133,-3.20322 -0.72473,-6.76146 1.54977,-10.67476 1.09354,-1.7879 3.28717,-3.65098 6.58089,-5.58928 3.29374,-1.93829 6.561,-3.25308 9.80184,-3.94436 5.63471,-1.24178 9.59305,-0.53149 11.87502,2.13083 0.90028,1.04371 1.31457,2.05153 1.24286,3.02351 0.0345,0.90947 -0.37165,1.4346 -1.21859,1.57539 -0.65629,0.10011 -1.41272,-0.45605 -2.26928,-1.6685 -0.85656,-1.21247 -1.93961,-1.89828 -3.24913,-2.05744 -1.2033,-0.22159 -3.34097,0.0351 -6.413,0.77 -6.41913,1.48881 -10.84881,3.98832 -13.28902,7.49847 -2.35586,3.53204 -1.99425,7.00263 1.0848,10.41179 1.19412,1.29991 2.26469,2.20763 3.21176,2.72314 1.05331,0.45297 3.3943,1.14949 7.02296,2.08955 4.78821,1.33052 7.26519,2.19734 7.4309,2.60047 0.0407,0.19065 0.006,0.49693 -0.10297,0.91886 z"
       style="font-style:normal;font-variant:normal;font-weight:normal;font-stretch:normal;font-size:medium;line-height:1.25;font-family:'Paper Banner';-inkscape-font-specification:'Paper Banner';letter-spacing:0px;word-spacing:0px;fill:#ffff00;fill-opacity:1;stroke:#ffff00;stroke-width:3.92244411;stroke-miterlimit:4;stroke-dasharray:none"
       id="path13342"
       inkscape:connector-curvature="0" />
    <path
       sodipodi:nodetypes="cccccccscccccccsccscccccccs"
       d="m 439.94255,194.48964 c -1.65631,0.78456 -3.05108,2.87672 -4.18432,6.27648 -1.04609,3.39976 -1.39479,6.71235 -1.04609,9.93774 5.84061,0 9.85058,-0.3051 12.02992,-0.91531 0.17433,-2.52802 0.0436,-5.14322 -0.39228,-7.84559 -0.43587,-2.78954 -1.08967,-4.75094 -1.9614,-5.8842 -1.3076,-1.74346 -2.78955,-2.2665 -4.44583,-1.56912 z m 10.33003,15.95271 c 0,10.80948 -1.04609,15.86553 -3.13825,15.16816 -0.34869,-0.17435 -0.69737,-0.47945 -1.04607,-0.91533 -0.43588,-0.95891 -0.39229,-2.6588 0.13075,-5.09965 0.52305,-2.52802 0.69738,-4.31506 0.52305,-5.36114 h -12.16067 c 0,0.3487 0.0437,1.08967 0.13075,2.22292 0.0872,1.13325 0.13076,2.22291 0.13076,3.269 0.0872,1.04607 0.13076,2.13574 0.13076,3.26898 0,1.04609 -0.13076,1.87424 -0.39227,2.48444 -0.17435,0.52305 -0.43586,0.74099 -0.78456,0.65381 -1.13325,0.26152 -1.91781,-1.56912 -2.35369,-5.49192 -0.26151,-2.35367 -0.43586,-5.53551 -0.52304,-9.54547 -0.0872,-4.35867 -0.0437,-7.14821 0.13077,-8.36863 0.26151,-1.22043 0.87172,-2.78955 1.83063,-4.70736 2.17934,-4.18431 4.18432,-6.62517 6.01496,-7.32255 0.9589,-0.3487 2.22291,-0.30511 3.79204,0.13075 1.6563,0.3487 2.83313,0.91533 3.53051,1.69988 1.6563,2.09217 2.74596,4.27149 3.269,6.53801 0.52304,2.26649 0.78457,6.05853 0.78457,11.3761 z"
       style="font-style:normal;font-variant:normal;font-weight:normal;font-stretch:normal;font-size:medium;line-height:1.25;font-family:'Paper Banner';-inkscape-font-specification:'Paper Banner';letter-spacing:0px;word-spacing:0px;fill:#ffff00;fill-opacity:1;stroke:#ffff00;stroke-width:3.92244411;stroke-miterlimit:4;stroke-dasharray:none"
       id="path13344"
       inkscape:connector-curvature="0" />
    <path
       inkscape:connector-curvature="0"
       id="path13346"
       style="font-style:normal;font-variant:normal;font-weight:normal;font-stretch:normal;font-size:medium;line-height:1.25;font-family:'Paper Banner';-inkscape-font-specification:'Paper Banner';letter-spacing:0px;word-spacing:0px;fill:#ffff00;fill-opacity:1;stroke:#ffff00;stroke-width:3.92244411;stroke-miterlimit:4;stroke-dasharray:none"
       d="m 553.00602,219.70896 c 0.0643,0.69442 -0.10834,1.19192 -0.51828,1.49256 -0.40987,0.30062 -1.34456,0.6061 -2.80411,0.91647 -4.19695,1.00178 -8.47434,1.13555 -12.83219,0.4013 -4.27103,-0.74227 -7.28833,-2.12604 -9.05186,-4.15128 -2.25385,-2.59263 -2.97426,-6.11527 -2.16128,-10.56795 0.42258,-2.05275 1.85462,-4.54923 4.29608,-7.48944 2.44147,-2.94022 5.06946,-5.28489 7.88394,-7.03402 4.87994,-3.07866 8.84465,-3.75252 11.8941,-2.02156 1.20083,0.67662 1.93227,1.48431 2.19437,2.42302 0.34085,0.84389 0.13675,1.47563 -0.61229,1.89524 -0.58347,0.3167 -1.48366,0.0499 -2.70056,-0.80028 -1.21692,-0.85025 -2.46833,-1.12823 -3.75425,-0.83397 -1.20718,0.19951 -3.1312,1.16574 -5.77209,2.89871 -5.53414,3.57702 -8.854,7.43033 -9.95958,11.55993 -1.01878,4.12159 0.4981,7.26401 4.55064,9.42729 1.56411,0.81806 2.87905,1.30903 3.94479,1.47291 1.1445,0.0691 3.58299,-0.0694 7.31545,-0.41533 4.95572,-0.37172 7.57987,-0.39604 7.87244,-0.0729 0.10285,0.16557 0.17442,0.46535 0.21472,0.89934 z"
       sodipodi:nodetypes="csccccscccccccccccccc" />
    <path
       sodipodi:nodetypes="ccccccccccccccccccccccccc"
       d="m 737.72361,181.50676 c -0.95535,-0.0826 -1.7504,-0.50127 -2.38514,-1.25609 -1.47754,-2.14013 -3.60321,-1.84258 -6.37701,0.89266 -3.15874,3.13947 -4.88981,6.97105 -5.19322,11.49474 -0.0182,1.2234 0.0579,2.36744 0.22841,3.43216 0.54899,2.75988 1.00309,4.59283 1.36229,5.49884 0.44605,0.91355 1.34134,1.6909 2.68591,2.33208 2.17554,1.15046 4.49205,1.17564 6.94957,0.0755 2.54436,-1.09261 4.45397,-2.94005 5.72883,-5.54233 1.7123,-3.61445 2.40707,-7.09809 2.08432,-10.45091 -0.13297,-1.49895 -0.75486,-2.90892 -1.86569,-4.22988 -1.01647,-1.4003 -2.08922,-2.14924 -3.21827,-2.24681 z m 1.99753,-3.37106 c 1.21589,0.10512 2.60603,1.23143 4.17041,3.37907 1.57188,2.06079 2.41304,3.97093 2.52348,5.73045 0.11801,1.67265 -0.0921,4.10444 -0.63042,7.29535 -1.078,6.10766 -4.31802,10.29287 -9.23653,12.72032 -3.74094,1.77668 -7.10717,1.74827 -10.09868,-0.0852 -4.24169,-2.55399 -6.24354,-7.23314 -6.00556,-14.03743 0.238,-6.80427 2.61401,-12.02383 7.12801,-15.65869 1.59652,-1.26202 3.23109,-1.952 4.90375,-2.06995 1.75952,-0.11049 3.20595,0.36454 4.33928,1.42495 0.80845,0.76985 1.77721,1.20356 2.90626,1.30112 z"
       style="font-style:normal;font-variant:normal;font-weight:normal;font-stretch:normal;font-size:medium;line-height:1.25;font-family:'Paper Banner';-inkscape-font-specification:'Paper Banner';letter-spacing:0px;word-spacing:0px;fill:#ffff00;fill-opacity:1;stroke:#ffff00;stroke-width:3.92244411;stroke-miterlimit:4;stroke-dasharray:none"
       id="path13348"
       inkscape:connector-curvature="0" />
    <g
       transform="matrix(1.6221099,0.16705481,0.16705481,-1.6221099,788.87759,273.42102)"
       id="g14623"
       style="fill:#ffff00;stroke-width:1.02410674;stroke-miterlimit:4;stroke-dasharray:none">
      <path
         inkscape:connector-curvature="0"
         id="path14621"
         style="fill:#ffff00;fill-opacity:1;fill-rule:nonzero;stroke:none;stroke-width:1.02410674;stroke-miterlimit:4;stroke-dasharray:none"
         d="m -9.1090457,0.73138324 c 0.197,0.221 0.083,0.57299996 -0.207,0.63599996 l -1.8970003,0.409 c -0.106,0.023 -0.198,0.09 -0.252,0.184 l -0.976,1.677 c -0.149,0.256 -0.52,0.256 -0.669,0 l -0.976,-1.677 c -0.054,-0.094 -0.146,-0.161 -0.252,-0.184 l -1.897,-0.409 c -0.29,-0.063 -0.404,-0.41499996 -0.207,-0.63599996 l 1.294,-1.447 c 0.072,-0.081 0.107,-0.189 0.097,-0.29700004 l -0.197,-1.931 c -0.03,-0.295 0.27,-0.512 0.54,-0.392 l 1.777,0.783 c 0.099,0.044 0.213,0.044 0.311,0 l 1.777,-0.783 c 0.27,-0.12 0.57,0.097 0.54,0.392 l -0.197,1.931 c -0.01,0.10800004 0.025,0.21600004 0.097,0.29700004 z" />
    </g>
    <g
       style="fill:#ffff00;stroke-width:1.02410674;stroke-miterlimit:4;stroke-dasharray:none"
       id="g1347"
       transform="matrix(1.6089466,0.26540302,0.26540302,-1.6089466,707.55481,269.19675)">
      <path
         d="m -9.1090457,0.73138324 c 0.197,0.221 0.083,0.57299996 -0.207,0.63599996 l -1.8970003,0.409 c -0.106,0.023 -0.198,0.09 -0.252,0.184 l -0.976,1.677 c -0.149,0.256 -0.52,0.256 -0.669,0 l -0.976,-1.677 c -0.054,-0.094 -0.146,-0.161 -0.252,-0.184 l -1.897,-0.409 c -0.29,-0.063 -0.404,-0.41499996 -0.207,-0.63599996 l 1.294,-1.447 c 0.072,-0.081 0.107,-0.189 0.097,-0.29700004 l -0.197,-1.931 c -0.03,-0.295 0.27,-0.512 0.54,-0.392 l 1.777,0.783 c 0.099,0.044 0.213,0.044 0.311,0 l 1.777,-0.783 c 0.27,-0.12 0.57,0.097 0.54,0.392 l -0.197,1.931 c -0.01,0.10800004 0.025,0.21600004 0.097,0.29700004 z"
         style="fill:#ffff00;fill-opacity:1;fill-rule:nonzero;stroke:none;stroke-width:1.02410674;stroke-miterlimit:4;stroke-dasharray:none"
         id="path1345"
         inkscape:connector-curvature="0" />
    </g>
    <g
       transform="matrix(1.6011413,-0.30902154,-0.30902154,-1.6011413,620.56412,251.52107)"
       id="g1351"
       style="fill:#ffff00;stroke-width:1.02410674;stroke-miterlimit:4;stroke-dasharray:none">
      <path
         inkscape:connector-curvature="0"
         id="path1349"
         style="fill:#ffff00;fill-opacity:1;fill-rule:nonzero;stroke:none;stroke-width:1.02410674;stroke-miterlimit:4;stroke-dasharray:none"
         d="m -9.1090457,0.73138324 c 0.197,0.221 0.083,0.57299996 -0.207,0.63599996 l -1.8970003,0.409 c -0.106,0.023 -0.198,0.09 -0.252,0.184 l -0.976,1.677 c -0.149,0.256 -0.52,0.256 -0.669,0 l -0.976,-1.677 c -0.054,-0.094 -0.146,-0.161 -0.252,-0.184 l -1.897,-0.409 c -0.29,-0.063 -0.404,-0.41499996 -0.207,-0.63599996 l 1.294,-1.447 c 0.072,-0.081 0.107,-0.189 0.097,-0.29700004 l -0.197,-1.931 c -0.03,-0.295 0.27,-0.512 0.54,-0.392 l 1.777,0.783 c 0.099,0.044 0.213,0.044 0.311,0 l 1.777,-0.783 c 0.27,-0.12 0.57,0.097 0.54,0.392 l -0.197,1.931 c -0.01,0.10800004 0.025,0.21600004 0.097,0.29700004 z" />
    </g>
    <g
       style="fill:#ffff00;stroke-width:1.02410674;stroke-miterlimit:4;stroke-dasharray:none"
       id="g1355"
       transform="matrix(1.5744605,-0.42452577,-0.42452577,-1.5744605,536.12059,235.98333)">
      <path
         d="m -9.1090457,0.73138324 c 0.197,0.221 0.083,0.57299996 -0.207,0.63599996 l -1.8970003,0.409 c -0.106,0.023 -0.198,0.09 -0.252,0.184 l -0.976,1.677 c -0.149,0.256 -0.52,0.256 -0.669,0 l -0.976,-1.677 c -0.054,-0.094 -0.146,-0.161 -0.252,-0.184 l -1.897,-0.409 c -0.29,-0.063 -0.404,-0.41499996 -0.207,-0.63599996 l 1.294,-1.447 c 0.072,-0.081 0.107,-0.189 0.097,-0.29700004 l -0.197,-1.931 c -0.03,-0.295 0.27,-0.512 0.54,-0.392 l 1.777,0.783 c 0.099,0.044 0.213,0.044 0.311,0 l 1.777,-0.783 c 0.27,-0.12 0.57,0.097 0.54,0.392 l -0.197,1.931 c -0.01,0.10800004 0.025,0.21600004 0.097,0.29700004 z"
         style="fill:#ffff00;fill-opacity:1;fill-rule:nonzero;stroke:none;stroke-width:1.02410674;stroke-miterlimit:4;stroke-dasharray:none"
         id="path1353"
         inkscape:connector-curvature="0" />
    </g>
  </g>
</svg>
