<?xml version="1.0" encoding="UTF-8" standalone="no"?>
<!-- Created with Inkscape (http://www.inkscape.org/) -->

<svg
   xmlns:dc="http://purl.org/dc/elements/1.1/"
   xmlns:cc="http://creativecommons.org/ns#"
   xmlns:rdf="http://www.w3.org/1999/02/22-rdf-syntax-ns#"
   xmlns:svg="http://www.w3.org/2000/svg"
   xmlns="http://www.w3.org/2000/svg"
   xmlns:sodipodi="http://sodipodi.sourceforge.net/DTD/sodipodi-0.dtd"
   xmlns:inkscape="http://www.inkscape.org/namespaces/inkscape"
   width="486.46796mm"
   height="100mm"
   viewBox="0 0 486.46795 100"
   version="1.1"
   id="svg982"
   inkscape:version="0.92.2 2405546, 2018-03-11"
   sodipodi:docname="titleFiestas.svg">
  <defs
     id="defs976">
    <marker
       inkscape:stockid="DotS"
       orient="auto"
       refY="0.0"
       refX="0.0"
       id="marker1191"
       style="overflow:visible"
       inkscape:isstock="true">
      <path
         id="path1189"
         d="M -2.5,-1.0 C -2.5,1.7600000 -4.7400000,4.0 -7.5,4.0 C -10.260000,4.0 -12.5,1.7600000 -12.5,-1.0 C -12.5,-3.7600000 -10.260000,-6.0 -7.5,-6.0 C -4.7400000,-6.0 -2.5,-3.7600000 -2.5,-1.0 z "
         style="fill-rule:evenodd;stroke:#000000;stroke-width:1pt;stroke-opacity:1;fill:#000000;fill-opacity:1"
         transform="scale(0.2) translate(7.4, 1)" />
    </marker>
    <marker
       inkscape:stockid="StopS"
       orient="auto"
       refY="0.0"
       refX="0.0"
       id="StopS"
       style="overflow:visible"
       inkscape:isstock="true">
      <path
         id="path1024"
         d="M 0.0,5.65 L 0.0,-5.65"
         style="fill:none;fill-opacity:0.75;fill-rule:evenodd;stroke:#000000;stroke-width:1pt;stroke-opacity:1"
         transform="scale(0.2)" />
    </marker>
    <marker
       inkscape:stockid="DotS"
       orient="auto"
       refY="0.0"
       refX="0.0"
       id="DotS"
       style="overflow:visible"
       inkscape:isstock="true">
      <path
         id="path916"
         d="M -2.5,-1.0 C -2.5,1.7600000 -4.7400000,4.0 -7.5,4.0 C -10.260000,4.0 -12.5,1.7600000 -12.5,-1.0 C -12.5,-3.7600000 -10.260000,-6.0 -7.5,-6.0 C -4.7400000,-6.0 -2.5,-3.7600000 -2.5,-1.0 z "
         style="fill-rule:evenodd;stroke:#000000;stroke-width:1pt;stroke-opacity:1;fill:#000000;fill-opacity:1"
         transform="scale(0.2) translate(7.4, 1)" />
    </marker>
    <marker
       inkscape:stockid="DotL"
       orient="auto"
       refY="0.0"
       refX="0.0"
       id="DotL"
       style="overflow:visible"
       inkscape:isstock="true">
      <path
         id="path910"
         d="M -2.5,-1.0 C -2.5,1.7600000 -4.7400000,4.0 -7.5,4.0 C -10.260000,4.0 -12.5,1.7600000 -12.5,-1.0 C -12.5,-3.7600000 -10.260000,-6.0 -7.5,-6.0 C -4.7400000,-6.0 -2.5,-3.7600000 -2.5,-1.0 z "
         style="fill-rule:evenodd;stroke:#000000;stroke-width:1pt;stroke-opacity:1;fill:#000000;fill-opacity:1"
         transform="scale(0.8) translate(7.4, 1)" />
    </marker>
  </defs>
  <sodipodi:namedview
     id="base"
     pagecolor="#ffffff"
     bordercolor="#666666"
     borderopacity="1.0"
     inkscape:pageopacity="0.0"
     inkscape:pageshadow="2"
     inkscape:zoom="0.69999999"
     inkscape:cx="1024.8442"
     inkscape:cy="313.05428"
     inkscape:document-units="mm"
     inkscape:current-layer="layer1"
     showgrid="false"
     fit-margin-top="0"
     fit-margin-left="0"
     fit-margin-right="0"
     fit-margin-bottom="0"
     inkscape:showpageshadow="false"
     borderlayer="true"
     inkscape:window-width="1366"
     inkscape:window-height="768"
     inkscape:window-x="0"
     inkscape:window-y="0"
     inkscape:window-maximized="0" />
  <metadata
     id="metadata979">
    <rdf:RDF>
      <cc:Work
         rdf:about="">
        <dc:format>image/svg+xml</dc:format>
        <dc:type
           rdf:resource="http://purl.org/dc/dcmitype/StillImage" />
        <dc:title />
      </cc:Work>
    </rdf:RDF>
  </metadata>
  <g
     inkscape:label="Layer 1"
     inkscape:groupmode="layer"
     id="layer1"
     transform="translate(240.35143,-31.679608)">
    <path
       style="fill:#2ad4ff;stroke:#ff2a2a;stroke-width:3.688097;stroke-linecap:round;stroke-linejoin:round;stroke-miterlimit:4;stroke-dasharray:none;stroke-opacity:1"
       d="m -209.86148,44.730917 43.83411,12.405453 c -8.49297,14.295285 -14.83363,29.991936 -25.47892,42.88581 -5.15654,-6.157026 -5.55204,-13.827279 -10.56831,-19.425663 l -24.32309,11.588576 c 1.86029,-18.195787 11.02414,-31.636112 16.53621,-47.454176 z"
       id="path10549"
       inkscape:connector-curvature="0"
       sodipodi:nodetypes="cccccc" />
    <path
       style="fill:#ffb380;stroke:#ff6600;stroke-width:3.688097;stroke-linecap:round;stroke-linejoin:round;stroke-miterlimit:4;stroke-dasharray:none;stroke-opacity:1"
       d="m -146.22364,60.544712 c 12.3813,3.146559 23.82718,4.746218 36.47575,7.87645 -5.03517,15.252538 -14.69048,31.224601 -19.74337,47.753358 -3.18791,-4.99231 -6.57801,-11.78319 -10.17072,-20.376071 -5.18164,4.116234 -11.1121,9.140721 -17.91274,15.220651 3.58071,-15.706388 10.28702,-32.393883 11.35108,-50.474388 z"
       id="path10551"
       inkscape:connector-curvature="0"
       sodipodi:nodetypes="cccccc" />
    <path
       style="fill:#2ad4ff;stroke:#ff2a2a;stroke-width:3.688097;stroke-linecap:round;stroke-linejoin:round;stroke-miterlimit:4;stroke-dasharray:none;stroke-opacity:1"
       d="m -88.805498,71.285156 43.263679,4.909912 c -4.851743,13.115205 -9.240756,30.096982 -13.814011,45.539242 -1.585498,-4.21706 -8.713203,-6.74313 -14.300463,-13.54885 l -21.5249,10.11196 c 2.250861,-15.67075 6.63991,-31.341503 6.375695,-47.012264 z"
       id="path10553"
       inkscape:connector-curvature="0"
       sodipodi:nodetypes="cccccc" />
    <path
       style="fill:#ffdd55;stroke:#ff6600;stroke-width:3.688097;stroke-linecap:round;stroke-linejoin:round;stroke-miterlimit:4;stroke-dasharray:none;stroke-opacity:1"
       d="m -22.316065,78.159017 c -1.190968,16.202651 -1.728021,32.405303 -3.643206,48.607953 5.988341,-4.10766 11.791031,-8.30538 15.787438,-13.37945 5.5107397,5.63935 10.46926813,12.84149 16.6982574,16.44814 4.1032736,-16.36632 4.0663186,-33.469106 9.1081686,-50.203654 z"
       id="path10555"
       inkscape:connector-curvature="0"
       sodipodi:nodetypes="cccccc" />
    <path
       style="fill:#2ad4ff;stroke:#ff2a2a;stroke-width:3.688097;stroke-linecap:round;stroke-linejoin:round;stroke-miterlimit:4;stroke-dasharray:none;stroke-opacity:1"
       d="m 37.190509,79.553423 c 2.038485,16.06237 2.776112,32.475357 3.643243,48.853447 6.801411,-4.11558 11.913505,-9.59718 17.609092,-14.60694 7.035119,4.94696 13.499608,11.2781 21.252386,14.48416 3.290668,-13.16191 -0.385067,-34.03574 3.036027,-51.062887 -13.948383,2.482945 -31.507561,0.647718 -45.540748,2.33222 z"
       id="path10557"
       inkscape:connector-curvature="0"
       sodipodi:nodetypes="cccccc" />
    <path
       style="fill:#99ff55;stroke:#ff6600;stroke-width:3.688097;stroke-linecap:round;stroke-linejoin:round;stroke-miterlimit:4;stroke-dasharray:none;stroke-opacity:1"
       d="m 109.50284,74.289488 c 3.40131,16.043207 6.84904,32.990972 13.00063,48.716492 4.10682,-5.9328 6.13605,-11.8656 12.44785,-17.79839 8.14673,5.52693 16.29346,9.10566 24.44019,12.02926 -0.59854,-16.09104 -6.84495,-33.409564 -7.08264,-50.114328 -13.92731,2.730366 -28.36536,4.949979 -42.80603,7.166966 z"
       id="path10559"
       inkscape:connector-curvature="0"
       sodipodi:nodetypes="cccccc" />
    <path
       style="fill:#55ddff;stroke:#ff2a2a;stroke-width:3.688097;stroke-linecap:round;stroke-linejoin:round;stroke-miterlimit:4;stroke-dasharray:none;stroke-opacity:1"
       d="m 171.34586,62.684057 c 8.66491,15.754104 14.93577,31.597188 22.15075,47.405193 3.15118,-6.92779 4.8212,-14.391333 10.17475,-20.522521 9.29204,0.83033 17.2636,8.076526 26.92996,9.317217 -4.81138,-15.347381 -14.9495,-31.150088 -20.93276,-47.537298 z"
       id="path10561"
       inkscape:connector-curvature="0"
       sodipodi:nodetypes="cccccc" />
    <path
       style="fill:none;stroke:#ff2a2a;stroke-width:3.688097;stroke-linecap:round;stroke-linejoin:round;stroke-miterlimit:4;stroke-dasharray:none;stroke-opacity:1"
       d="M 244.24909,36.478881 C 145.55067,87.167732 -56.398544,101.06706 -238.48275,33.53291"
       id="path10563"
       inkscape:connector-curvature="0"
       sodipodi:nodetypes="cc" />
    <g
       id="g1268"
       transform="translate(-0.03257356,0.32853312)"
       style="stroke:#aa00d4">
      <path
         sodipodi:nodetypes="cc"
         inkscape:connector-curvature="0"
         id="path1259"
         d="m -203.40426,74.510708 8.7407,-19.51302"
         style="fill:none;stroke:#aa00d4;stroke-width:5;stroke-linecap:round;stroke-linejoin:round;stroke-miterlimit:4;stroke-dasharray:none;stroke-opacity:1" />
      <path
         sodipodi:nodetypes="cc"
         inkscape:connector-curvature="0"
         id="path1261"
         d="m -196.74243,56.320604 13.41816,3.779762"
         style="fill:none;stroke:#aa00d4;stroke-width:5;stroke-linecap:round;stroke-linejoin:round;stroke-miterlimit:4;stroke-dasharray:none;stroke-opacity:1" />
      <path
         sodipodi:nodetypes="cc"
         inkscape:connector-curvature="0"
         id="path1263"
         d="m -188.04897,67.707136 -12.28423,-3.49628"
         style="fill:none;stroke:#aa00d4;stroke-width:5;stroke-linecap:round;stroke-linejoin:round;stroke-miterlimit:4;stroke-dasharray:none;stroke-opacity:1" />
    </g>
    <path
       style="fill:none;stroke:#aa00d4;stroke-width:5;stroke-linecap:round;stroke-linejoin:round;stroke-miterlimit:4;stroke-dasharray:none;stroke-opacity:1"
       d="m -131.73168,71.902289 -4.99034,17.871851"
       id="path1285"
       inkscape:connector-curvature="0"
       sodipodi:nodetypes="cc" />
    <g
       id="g1317"
       transform="translate(-0.40090425,97.954283)"
       style="stroke:#aa00d4">
      <path
         sodipodi:nodetypes="cc"
         inkscape:connector-curvature="0"
         id="path1287"
         d="m -75.733668,-16.352624 14.559473,1.643453"
         style="fill:none;stroke:#aa00d4;stroke-width:5;stroke-linecap:round;stroke-linejoin:round;stroke-miterlimit:4;stroke-dasharray:none;stroke-opacity:1" />
      <path
         sodipodi:nodetypes="cc"
         inkscape:connector-curvature="0"
         id="path1289"
         d="m -78.007695,-7.4441712 12.707037,1.4873838"
         style="fill:none;stroke:#aa00d4;stroke-width:5;stroke-linecap:round;stroke-linejoin:round;stroke-miterlimit:4;stroke-dasharray:none;stroke-opacity:1" />
      <path
         inkscape:connector-curvature="0"
         id="path1291"
         d="m -79.856081,2.9893298 15.568451,1.937704"
         style="fill:none;stroke:#aa00d4;stroke-width:5;stroke-linecap:round;stroke-linejoin:round;stroke-miterlimit:4;stroke-dasharray:none;stroke-opacity:1" />
      <path
         sodipodi:nodetypes="cc"
         inkscape:connector-curvature="0"
         id="path1293"
         d="m -73.999079,-18.038575 c -0.06682,0.734991 -4.58747,21.8965308 -4.58747,21.8965308"
         style="fill:none;stroke:#aa00d4;stroke-width:5;stroke-linecap:round;stroke-linejoin:round;stroke-miterlimit:4;stroke-dasharray:none;stroke-opacity:1" />
    </g>
    <path
       style="fill:none;stroke:#aa00d4;stroke-width:5;stroke-linecap:round;stroke-linejoin:round;stroke-miterlimit:4;stroke-dasharray:none;stroke-opacity:1"
       d="m 2.2624828,89.849961 c 0.0404,-5.722152 -15.5036698,-5.867491 -15.5016338,3.073599 0.0439,4.602309 14.2688668,-0.121726 15.7013918,4.945181 1.450198,10.105539 -17.9828328,12.345829 -17.8948998,4.140589"
       id="path1295"
       inkscape:connector-curvature="0"
       sodipodi:nodetypes="cccc" />
    <g
       id="g1307"
       transform="translate(35.991531,101.73375)"
       style="stroke:#aa00d4">
      <path
         sodipodi:nodetypes="cc"
         inkscape:connector-curvature="0"
         id="path1297"
         d="M 14.428145,-13.486874 30.6485,-16.521691"
         style="fill:none;stroke:#aa00d4;stroke-width:5;stroke-linecap:round;stroke-linejoin:round;stroke-miterlimit:4;stroke-dasharray:none;stroke-opacity:1" />
      <path
         sodipodi:nodetypes="cc"
         inkscape:connector-curvature="0"
         id="path1299"
         d="m 22.056231,-16.345768 c -0.01731,-0.109306 0.07083,15.53070832 0.118054,22.4338041"
         style="fill:none;stroke:#aa00d4;stroke-width:5;stroke-linecap:round;stroke-linejoin:round;stroke-miterlimit:4;stroke-dasharray:none;stroke-opacity:1" />
    </g>
    <g
       id="g1311"
       transform="translate(69.575272,96.882225)"
       style="stroke:#aa00d4">
      <path
         sodipodi:nodetypes="ccc"
         inkscape:connector-curvature="0"
         id="path1301"
         d="M 56.887707,4.6414507 62.673789,-19.689376 76.203633,0.42737431"
         style="fill:none;stroke:#aa00d4;stroke-width:5;stroke-linecap:round;stroke-linejoin:round;stroke-miterlimit:4;stroke-dasharray:none;stroke-opacity:1" />
      <path
         sodipodi:nodetypes="cc"
         inkscape:connector-curvature="0"
         id="path1303"
         d="m 59.877618,-4.7175789 10.091114,-2.781247"
         style="fill:none;stroke:#aa00d4;stroke-width:5;stroke-linecap:round;stroke-linejoin:round;stroke-miterlimit:4;stroke-dasharray:none;stroke-opacity:1" />
    </g>
    <path
       sodipodi:nodetypes="cccc"
       inkscape:connector-curvature="0"
       id="path1323"
       d="m 204.61488,65.178205 c -1.49666,-5.5231 -16.50957,-1.491739 -14.1082,7.120839 1.27736,4.421711 13.71282,-3.946422 16.45253,0.5502 4.10891,9.345686 -14.01011,16.718808 -16.12734,8.790945"
       style="fill:none;stroke:#aa00d4;stroke-width:5;stroke-linecap:round;stroke-linejoin:round;stroke-miterlimit:4;stroke-dasharray:none;stroke-opacity:1" />
  </g>
</svg>
