<?xml version="1.0" encoding="UTF-8" standalone="no"?>
<!-- Created with Inkscape (http://www.inkscape.org/) -->

<svg
   xmlns:dc="http://purl.org/dc/elements/1.1/"
   xmlns:cc="http://creativecommons.org/ns#"
   xmlns:rdf="http://www.w3.org/1999/02/22-rdf-syntax-ns#"
   xmlns:svg="http://www.w3.org/2000/svg"
   xmlns="http://www.w3.org/2000/svg"
   xmlns:sodipodi="http://sodipodi.sourceforge.net/DTD/sodipodi-0.dtd"
   xmlns:inkscape="http://www.inkscape.org/namespaces/inkscape"
   width="548.86383mm"
   height="100mm"
   viewBox="0 0 548.86383 100"
   version="1.1"
   id="svg1634"
   inkscape:version="0.92.2 2405546, 2018-03-11"
   sodipodi:docname="titleContacto.svg">
  <defs
     id="defs1628">
    <clipPath
       clipPathUnits="userSpaceOnUse"
       id="clipPath13626">
      <path
         d="m 310.246,258.216 h 28.217 v -30.642 h -28.217 z"
         id="path13624"
         inkscape:connector-curvature="0" />
    </clipPath>
    <clipPath
       clipPathUnits="userSpaceOnUse"
       id="clipPath17870">
      <path
         d="m 310.246,258.216 h 28.217 v -30.642 h -28.217 z"
         id="path17868"
         inkscape:connector-curvature="0" />
    </clipPath>
  </defs>
  <sodipodi:namedview
     id="base"
     pagecolor="#ffffff"
     bordercolor="#666666"
     borderopacity="1.0"
     inkscape:pageopacity="0"
     inkscape:pageshadow="2"
     inkscape:zoom="0.45254834"
     inkscape:cx="1508.1729"
     inkscape:cy="89.171152"
     inkscape:document-units="mm"
     inkscape:current-layer="layer1"
     showgrid="false"
     borderlayer="true"
     inkscape:showpageshadow="false"
     inkscape:window-width="1366"
     inkscape:window-height="768"
     inkscape:window-x="0"
     inkscape:window-y="0"
     inkscape:window-maximized="0"
     fit-margin-top="0"
     fit-margin-left="0"
     fit-margin-right="0"
     fit-margin-bottom="0" />
  <metadata
     id="metadata1631">
    <rdf:RDF>
      <cc:Work
         rdf:about="">
        <dc:format>image/svg+xml</dc:format>
        <dc:type
           rdf:resource="http://purl.org/dc/dcmitype/StillImage" />
        <dc:title />
      </cc:Work>
    </rdf:RDF>
  </metadata>
  <g
     inkscape:label="Layer 1"
     inkscape:groupmode="layer"
     id="layer1"
     transform="translate(-4.3065372,-196.11799)">
    <path
       style="fill:#ff6600;fill-opacity:1;stroke:#cc00ff;stroke-width:1.02642369;stroke-linecap:round;stroke-linejoin:round;stroke-miterlimit:4;stroke-dasharray:none;stroke-opacity:1"
       d="m 366.45529,249.65596 26.99205,5.18299 c -5.04025,9.99018 -12.65381,15.08536 -18.98064,22.92583 -3.73959,-9.02964 -4.99009,-18.7557 -8.01141,-28.10882 z"
       id="path937"
       inkscape:connector-curvature="0"
       sodipodi:nodetypes="cccc" />
    <path
       style="fill:#ff3399;fill-opacity:1;stroke:#cc00ff;stroke-width:1.02642369;stroke-linecap:round;stroke-linejoin:round;stroke-miterlimit:4;stroke-dasharray:none;stroke-opacity:1"
       d="m 392.91817,254.83895 27.20644,3.90448 c -4.56361,10.21673 -11.92844,15.66524 -17.87854,23.79531 -4.1612,-8.84328 -5.86892,-18.49955 -9.3279,-27.69979 z"
       id="path935"
       inkscape:connector-curvature="0"
       sodipodi:nodetypes="cccc" />
    <path
       sodipodi:nodetypes="cccc"
       inkscape:connector-curvature="0"
       id="path925"
       d="m 497.55761,267.3402 27.46557,1.03778 c -3.47009,10.63798 -10.22473,16.82682 -15.29194,25.53458 -5.06323,-8.35959 -7.77145,-17.78431 -12.17363,-26.57236 z"
       style="fill:#3366cc;fill-opacity:1;stroke:#cc00ff;stroke-width:1.02642369;stroke-linecap:round;stroke-linejoin:round;stroke-miterlimit:4;stroke-dasharray:none;stroke-opacity:1" />
    <path
       style="fill:#00cc00;fill-opacity:1;stroke:#cc00ff;stroke-width:1.02642369;stroke-linecap:round;stroke-linejoin:round;stroke-miterlimit:4;stroke-dasharray:none;stroke-opacity:1"
       d="m 470.62665,265.18655 27.43566,1.64895 c -3.70604,10.5581 -10.59679,16.59505 -15.85661,25.18783 -4.87586,-8.47022 -7.3736,-17.95291 -11.57905,-26.83678 z"
       id="path927"
       inkscape:connector-curvature="0"
       sodipodi:nodetypes="cccc" />
    <path
       style="fill:#003399;fill-opacity:1;stroke:#cc00ff;stroke-width:1.02642369;stroke-linecap:round;stroke-linejoin:round;stroke-miterlimit:4;stroke-dasharray:none;stroke-opacity:1"
       d="m 525.02318,268.37798 27.48374,0.28072 c -3.17571,10.72955 -9.75729,17.10213 -14.58269,25.94618 -5.2916,-8.21693 -8.25844,-17.56347 -12.90105,-26.2269 z"
       id="path917"
       inkscape:connector-curvature="0"
       sodipodi:nodetypes="cccc" />
    <path
       style="fill:#ff0000;fill-opacity:1;stroke:#cc00ff;stroke-width:0.97498143;stroke-linecap:round;stroke-linejoin:round;stroke-miterlimit:4;stroke-dasharray:none;stroke-opacity:1"
       d="m 342.96051,244.61642 25.44647,5.83844 c -5.1245,9.31193 -12.5252,13.88959 -18.79785,21.11706 -3.24268,-8.69883 -4.09882,-17.97405 -6.64862,-26.9555 z"
       id="path939"
       inkscape:connector-curvature="0"
       sodipodi:nodetypes="cccc" />
    <path
       sodipodi:nodetypes="cccc"
       inkscape:connector-curvature="0"
       id="path933"
       d="m 319.07835,238.81938 23.65192,5.07036 c -4.62359,8.69498 -11.41888,13.03429 -17.13388,19.81344 -3.1198,-8.01566 -4.03634,-16.59707 -6.51804,-24.8838 z"
       style="fill:#8800aa;fill-opacity:1;stroke:#cc00ff;stroke-width:0.9033404;stroke-linecap:round;stroke-linejoin:round;stroke-miterlimit:4;stroke-dasharray:none;stroke-opacity:1" />
    <path
       sodipodi:nodetypes="cccc"
       inkscape:connector-curvature="0"
       id="path929"
       d="m 443.92497,262.38111 27.36517,2.56548 c -4.05704,10.42826 -11.1458,16.2314 -16.69002,24.64351 -4.5899,-8.62856 -6.76914,-18.18945 -10.67515,-27.20899 z"
       style="fill:#9ade00;fill-opacity:1;stroke:#cc00ff;stroke-width:1.02642369;stroke-linecap:round;stroke-linejoin:round;stroke-miterlimit:4;stroke-dasharray:none;stroke-opacity:1" />
    <path
       style="fill:#ff9900;fill-opacity:1;stroke:#cc00ff;stroke-width:1.02642369;stroke-linecap:round;stroke-linejoin:round;stroke-miterlimit:4;stroke-dasharray:none;stroke-opacity:1"
       d="m 419.64437,259.2726 27.30883,3.10851 c -4.26337,10.34561 -11.466,16.00683 -17.1762,24.30714 -4.41761,-8.71801 -6.40652,-18.32031 -10.13263,-27.41565 z"
       id="path931"
       inkscape:connector-curvature="0"
       sodipodi:nodetypes="cccc" />
    <path
       sodipodi:nodetypes="cc"
       inkscape:connector-curvature="0"
       id="path13312"
       d="m 318.98599,237.94901 c 72.98495,18.55402 155.85414,29.53498 233.11671,30.62421"
       style="fill:none;stroke:#cc00ff;stroke-width:2.05005789;stroke-linecap:round;stroke-linejoin:round;stroke-miterlimit:4;stroke-dasharray:none;stroke-opacity:1" />
    <path
       sodipodi:nodetypes="cccc"
       inkscape:connector-curvature="0"
       id="path915"
       d="m 475.68809,205.53189 66.67274,-6.02047 c -5.08005,26.77632 -19.47622,43.82433 -29.01387,66.43357 -14.82706,-18.62286 -24.29571,-40.54998 -37.65887,-60.4131 z"
       style="fill:#6699ff;fill-opacity:1;stroke:#ff6600;stroke-width:2.5;stroke-linecap:round;stroke-linejoin:round;stroke-miterlimit:4;stroke-dasharray:none;stroke-opacity:1" />
    <path
       style="fill:#3366cc;fill-opacity:1;stroke:#ff6600;stroke-width:2.5;stroke-linecap:round;stroke-linejoin:round;stroke-miterlimit:4;stroke-dasharray:none;stroke-opacity:1"
       d="m 408.49994,209.42608 66.76219,-4.93061 c -5.51675,26.68977 -20.18947,43.50035 -30.09515,65.95079 -14.5209,-18.86258 -23.63011,-40.94143 -36.66704,-61.02018 z"
       id="path913"
       inkscape:connector-curvature="0"
       sodipodi:nodetypes="cccc" />
    <path
       sodipodi:nodetypes="cccc"
       inkscape:connector-curvature="0"
       id="path911"
       d="m 341.62839,212.53994 66.87155,-3.11386 c -6.24027,26.52993 -21.36456,42.93543 -31.87689,65.10828 -14.00275,-19.25035 -22.50839,-41.56868 -34.99466,-61.99442 z"
       style="fill:#003399;fill-opacity:1;stroke:#ff6600;stroke-width:2.5;stroke-linecap:round;stroke-linejoin:round;stroke-miterlimit:4;stroke-dasharray:none;stroke-opacity:1" />
    <path
       style="fill:#00cc00;fill-opacity:1;stroke:#ff6600;stroke-width:2.5;stroke-linecap:round;stroke-linejoin:round;stroke-miterlimit:4;stroke-dasharray:none;stroke-opacity:1"
       d="m 274.70159,214.05785 66.9268,-1.51791 c -6.87131,26.37354 -22.38261,42.41361 -33.42084,64.3294 -13.53959,-19.57887 -21.51045,-42.09373 -33.50596,-62.81149 z"
       id="path909"
       inkscape:connector-curvature="0"
       sodipodi:nodetypes="cccc" />
    <path
       sodipodi:nodetypes="cccc"
       inkscape:connector-curvature="0"
       id="path907"
       d="m 207.75761,213.98685 66.94398,0.071 c -7.49532,26.20302 -23.38295,41.87043 -34.93822,63.51807 -13.07109,-19.89471 -20.50534,-42.59241 -32.00576,-63.58903 z"
       style="fill:#ff9900;fill-opacity:1;stroke:#ff6600;stroke-width:2.5;stroke-linecap:round;stroke-linejoin:round;stroke-miterlimit:4;stroke-dasharray:none;stroke-opacity:1" />
    <path
       style="fill:#ff6600;fill-opacity:1;stroke:#ff6600;stroke-width:2.5;stroke-linecap:round;stroke-linejoin:round;stroke-miterlimit:4;stroke-dasharray:none;stroke-opacity:1"
       d="m 140.86769,211.29616 66.88992,2.69069 c -8.51501,25.88963 -25.0036,40.92329 -37.39717,62.10214 -12.28252,-20.39099 -18.82282,-43.36223 -29.49275,-64.79283 z"
       id="path905"
       inkscape:connector-curvature="0"
       sodipodi:nodetypes="cccc" />
    <path
       sodipodi:nodetypes="cccc"
       inkscape:connector-curvature="0"
       id="path903"
       d="m 74.08701,206.62278 66.78068,4.67338 c -9.27912,25.62569 -26.20634,40.16371 -39.22259,60.96567 C 89.972763,251.51552 84.116633,228.36041 74.08701,206.62278 Z"
       style="fill:#ff0000;fill-opacity:1;stroke:#ff6600;stroke-width:2.5;stroke-linecap:round;stroke-linejoin:round;stroke-miterlimit:4;stroke-dasharray:none;stroke-opacity:1" />
    <path
       style="fill:#ff3399;fill-opacity:1;stroke:#ff6600;stroke-width:2.5;stroke-linecap:round;stroke-linejoin:round;stroke-miterlimit:4;stroke-dasharray:none;stroke-opacity:1"
       d="m 7.7420125,199.51142 66.7032205,5.67287 C 64.783424,230.66816 47.640402,244.95107 34.314108,265.55578 22.953732,244.63701 17.444998,221.3968 7.7420125,199.51142 Z"
       id="path853"
       inkscape:connector-curvature="0"
       sodipodi:nodetypes="cccc" />
    <path
       sodipodi:nodetypes="cc"
       inkscape:connector-curvature="0"
       id="path13298"
       d="m 320.19508,240.8938 c 72.98495,18.55402 146.72978,27.9566 224.61246,30.07935"
       style="fill:none;stroke:none;stroke-width:2.87187123;stroke-linecap:round;stroke-linejoin:round;stroke-miterlimit:4;stroke-dasharray:none;stroke-opacity:1" />
    <path
       style="fill:none;stroke:#ff9900;stroke-width:6.77509832;stroke-linecap:round;stroke-linejoin:round;stroke-miterlimit:4;stroke-dasharray:none;stroke-opacity:1"
       d="m 7.7420125,199.51142 c 176.4668875,20.53012 351.8449475,19.42393 534.6188175,0"
       id="path13336"
       inkscape:connector-curvature="0"
       sodipodi:nodetypes="cc" />
    <g
       style="fill:#ffff00;stroke-width:1.02410674;stroke-miterlimit:4;stroke-dasharray:none"
       id="g1355"
       transform="matrix(1.0375126,-0.27974716,-0.27974716,-1.0375126,366.36449,252.20264)">
      <path
         d="m -9.1090457,0.73138324 c 0.197,0.221 0.083,0.57299996 -0.207,0.63599996 l -1.8970003,0.409 c -0.106,0.023 -0.198,0.09 -0.252,0.184 l -0.976,1.677 c -0.149,0.256 -0.52,0.256 -0.669,0 l -0.976,-1.677 c -0.054,-0.094 -0.146,-0.161 -0.252,-0.184 l -1.897,-0.409 c -0.29,-0.063 -0.404,-0.41499996 -0.207,-0.63599996 l 1.294,-1.447 c 0.072,-0.081 0.107,-0.189 0.097,-0.29700004 l -0.197,-1.931 c -0.03,-0.295 0.27,-0.512 0.54,-0.392 l 1.777,0.783 c 0.099,0.044 0.213,0.044 0.311,0 l 1.777,-0.783 c 0.27,-0.12 0.57,0.097 0.54,0.392 l -0.197,1.931 c -0.01,0.10800004 0.025,0.21600004 0.097,0.29700004 z"
         style="fill:#ffff00;fill-opacity:1;fill-rule:nonzero;stroke:none;stroke-width:1.02410674;stroke-miterlimit:4;stroke-dasharray:none"
         id="path1353"
         inkscape:connector-curvature="0" />
    </g>
    <path
       style="fill:none;stroke:#000000;stroke-width:5;stroke-linecap:round;stroke-linejoin:round;stroke-miterlimit:4;stroke-dasharray:none;stroke-opacity:1"
       d="m 46.80136,222.30567 c -1.834601,-8.23312 -18.898741,-2.00734 -18.245484,4.85803 -0.07114,2.79307 2.944134,9.75549 13.454964,9.47008"
       id="path871"
       inkscape:connector-curvature="0"
       sodipodi:nodetypes="ccc" />
    <path
       style="fill:none;stroke:#000000;stroke-width:5;stroke-linecap:round;stroke-linejoin:round;stroke-miterlimit:4;stroke-dasharray:none;stroke-opacity:1"
       d="m 108.57838,225.16561 c -3.2236,-9.28945 -17.93533,12.98782 -4.40525,18.16644 11.68967,2.93092 14.16025,-21.6828 4.40525,-18.16644 z"
       id="path873"
       inkscape:connector-curvature="0"
       sodipodi:nodetypes="ccc" />
    <path
       style="fill:none;stroke:#000000;stroke-width:5;stroke-linecap:round;stroke-linejoin:round;stroke-miterlimit:4;stroke-dasharray:none;stroke-opacity:1"
       d="m 165.48469,244.04254 c 1.50507,-7.30054 3.91884,-9.68101 4.72792,-16.26826 2.73953,4.75358 4.46127,10.59225 6.66232,15.91992 1.10531,-5.69409 3.56951,-10.97831 5.69478,-16.36476"
       id="path875"
       inkscape:connector-curvature="0"
       sodipodi:nodetypes="cccc" />
    <g
       id="g883"
       transform="translate(-13.70638,207.46223)">
      <path
         sodipodi:nodetypes="cc"
         inkscape:connector-curvature="0"
         id="path877"
         d="m 244.25999,21.601808 c 7.78311,-1.157456 15.16412,-0.387769 20.44161,-0.192799"
         style="fill:none;stroke:#000000;stroke-width:5;stroke-linecap:round;stroke-linejoin:round;stroke-miterlimit:4;stroke-dasharray:none;stroke-opacity:1" />
      <path
         sodipodi:nodetypes="cc"
         inkscape:connector-curvature="0"
         id="path879"
         d="m 254.29215,21.095056 0.27803,22.998853"
         style="fill:none;stroke:#000000;stroke-width:5;stroke-linecap:round;stroke-linejoin:round;stroke-miterlimit:4;stroke-dasharray:none;stroke-opacity:1" />
    </g>
    <g
       id="g891"
       transform="translate(-12.899187,208.32876)">
      <path
         sodipodi:nodetypes="cc"
         inkscape:connector-curvature="0"
         id="path885"
         d="M 316.49762,40.753712 C 311.72005,3.8159024 333.83643,16.64672 326.52292,40.113457"
         style="fill:none;stroke:#000000;stroke-width:5;stroke-linecap:round;stroke-linejoin:round;stroke-miterlimit:4;stroke-dasharray:none;stroke-opacity:1" />
      <path
         sodipodi:nodetypes="cc"
         inkscape:connector-curvature="0"
         id="path887"
         d="m 315.9973,35.683948 c 0.29234,-5.334952 11.07691,-5.03934 11.49059,0.09843"
         style="fill:none;stroke:#000000;stroke-width:5;stroke-linecap:round;stroke-linejoin:round;stroke-miterlimit:4;stroke-dasharray:none;stroke-opacity:1" />
    </g>
    <path
       sodipodi:nodetypes="ccc"
       inkscape:connector-curvature="0"
       id="path893"
       d="m 384.8417,228.67429 c -3.75082,-7.55522 -18.83023,2.57181 -16.55363,9.08159 0.59911,2.72898 5.19231,8.76797 15.3297,5.97649"
       style="fill:none;stroke:#000000;stroke-width:5;stroke-linecap:round;stroke-linejoin:round;stroke-miterlimit:4;stroke-dasharray:none;stroke-opacity:1" />
    <g
       transform="rotate(-5.2480101,2537.046,-1923.8465)"
       id="g899">
      <path
         style="fill:none;stroke:#000000;stroke-width:5;stroke-linecap:round;stroke-linejoin:round;stroke-miterlimit:4;stroke-dasharray:none;stroke-opacity:1"
         d="m 244.25999,21.601808 c 7.78311,-1.157456 15.16412,-0.387769 20.44161,-0.192799"
         id="path895"
         inkscape:connector-curvature="0"
         sodipodi:nodetypes="cc" />
      <path
         style="fill:none;stroke:#000000;stroke-width:5;stroke-linecap:round;stroke-linejoin:round;stroke-miterlimit:4;stroke-dasharray:none;stroke-opacity:1"
         d="m 254.29215,21.095056 0.27803,22.998853"
         id="path897"
         inkscape:connector-curvature="0"
         sodipodi:nodetypes="cc" />
    </g>
    <path
       sodipodi:nodetypes="ccc"
       inkscape:connector-curvature="0"
       id="path901"
       d="m 511.87479,217.32087 c -6.17232,-7.65427 -12.49316,18.28333 1.99094,18.5866 11.99255,-1.19052 6.0026,-25.19176 -1.99094,-18.5866 z"
       style="fill:none;stroke:#000000;stroke-width:5;stroke-linecap:round;stroke-linejoin:round;stroke-miterlimit:4;stroke-dasharray:none;stroke-opacity:1" />
    <g
       transform="matrix(1.120725,0.11541912,0.11541912,-1.120725,525.94275,279.39753)"
       id="g14623"
       style="fill:#ffff00;stroke-width:1.02410674;stroke-miterlimit:4;stroke-dasharray:none">
      <path
         inkscape:connector-curvature="0"
         id="path14621"
         style="fill:#ffff00;fill-opacity:1;fill-rule:nonzero;stroke:none;stroke-width:1.02410674;stroke-miterlimit:4;stroke-dasharray:none"
         d="m -9.1090457,0.73138324 c 0.197,0.221 0.083,0.57299996 -0.207,0.63599996 l -1.8970003,0.409 c -0.106,0.023 -0.198,0.09 -0.252,0.184 l -0.976,1.677 c -0.149,0.256 -0.52,0.256 -0.669,0 l -0.976,-1.677 c -0.054,-0.094 -0.146,-0.161 -0.252,-0.184 l -1.897,-0.409 c -0.29,-0.063 -0.404,-0.41499996 -0.207,-0.63599996 l 1.294,-1.447 c 0.072,-0.081 0.107,-0.189 0.097,-0.29700004 l -0.197,-1.931 c -0.03,-0.295 0.27,-0.512 0.54,-0.392 l 1.777,0.783 c 0.099,0.044 0.213,0.044 0.311,0 l 1.777,-0.783 c 0.27,-0.12 0.57,0.097 0.54,0.392 l -0.197,1.931 c -0.01,0.10800004 0.025,0.21600004 0.097,0.29700004 z" />
    </g>
    <g
       style="fill:#ffff00;stroke-width:1.02410674;stroke-miterlimit:4;stroke-dasharray:none"
       id="g1347"
       transform="matrix(1.1116304,0.18336846,0.18336846,-1.1116304,470.92568,276.47895)">
      <path
         d="m -9.1090457,0.73138324 c 0.197,0.221 0.083,0.57299996 -0.207,0.63599996 l -1.8970003,0.409 c -0.106,0.023 -0.198,0.09 -0.252,0.184 l -0.976,1.677 c -0.149,0.256 -0.52,0.256 -0.669,0 l -0.976,-1.677 c -0.054,-0.094 -0.146,-0.161 -0.252,-0.184 l -1.897,-0.409 c -0.29,-0.063 -0.404,-0.41499996 -0.207,-0.63599996 l 1.294,-1.447 c 0.072,-0.081 0.107,-0.189 0.097,-0.29700004 l -0.197,-1.931 c -0.03,-0.295 0.27,-0.512 0.54,-0.392 l 1.777,0.783 c 0.099,0.044 0.213,0.044 0.311,0 l 1.777,-0.783 c 0.27,-0.12 0.57,0.097 0.54,0.392 l -0.197,1.931 c -0.01,0.10800004 0.025,0.21600004 0.097,0.29700004 z"
         style="fill:#ffff00;fill-opacity:1;fill-rule:nonzero;stroke:none;stroke-width:1.02410674;stroke-miterlimit:4;stroke-dasharray:none"
         id="path1345"
         inkscape:connector-curvature="0" />
    </g>
    <g
       transform="matrix(1.074284,0.02459328,0.02459328,-1.074284,419.64564,266.41623)"
       id="g1351"
       style="fill:#ffff00;stroke-width:1.02410674;stroke-miterlimit:4;stroke-dasharray:none">
      <path
         inkscape:connector-curvature="0"
         id="path1349"
         style="fill:#ffff00;fill-opacity:1;fill-rule:nonzero;stroke:none;stroke-width:1.02410674;stroke-miterlimit:4;stroke-dasharray:none"
         d="m -9.1090457,0.73138324 c 0.197,0.221 0.083,0.57299996 -0.207,0.63599996 l -1.8970003,0.409 c -0.106,0.023 -0.198,0.09 -0.252,0.184 l -0.976,1.677 c -0.149,0.256 -0.52,0.256 -0.669,0 l -0.976,-1.677 c -0.054,-0.094 -0.146,-0.161 -0.252,-0.184 l -1.897,-0.409 c -0.29,-0.063 -0.404,-0.41499996 -0.207,-0.63599996 l 1.294,-1.447 c 0.072,-0.081 0.107,-0.189 0.097,-0.29700004 l -0.197,-1.931 c -0.03,-0.295 0.27,-0.512 0.54,-0.392 l 1.777,0.783 c 0.099,0.044 0.213,0.044 0.311,0 l 1.777,-0.783 c 0.27,-0.12 0.57,0.097 0.54,0.392 l -0.197,1.931 c -0.01,0.10800004 0.025,0.21600004 0.097,0.29700004 z" />
    </g>
  </g>
</svg>
