<?xml version="1.0" encoding="UTF-8" standalone="no"?>
<!-- Created with Inkscape (http://www.inkscape.org/) -->

<svg
   xmlns:dc="http://purl.org/dc/elements/1.1/"
   xmlns:cc="http://creativecommons.org/ns#"
   xmlns:rdf="http://www.w3.org/1999/02/22-rdf-syntax-ns#"
   xmlns:svg="http://www.w3.org/2000/svg"
   xmlns="http://www.w3.org/2000/svg"
   xmlns:sodipodi="http://sodipodi.sourceforge.net/DTD/sodipodi-0.dtd"
   xmlns:inkscape="http://www.inkscape.org/namespaces/inkscape"
   width="546.27063mm"
   height="100mm"
   viewBox="0 0 546.27063 100"
   version="1.1"
   id="svg2297"
   inkscape:version="0.92.2 2405546, 2018-03-11"
   sodipodi:docname="titleUbicacion.svg">
  <defs
     id="defs2291" />
  <sodipodi:namedview
     id="base"
     pagecolor="#ffffff"
     bordercolor="#666666"
     borderopacity="1.0"
     inkscape:pageopacity="0.0"
     inkscape:pageshadow="2"
     inkscape:zoom="0.35000001"
     inkscape:cx="1049.2456"
     inkscape:cy="284.16925"
     inkscape:document-units="mm"
     inkscape:current-layer="layer1"
     showgrid="false"
     borderlayer="false"
     inkscape:showpageshadow="true"
     inkscape:window-width="1366"
     inkscape:window-height="768"
     inkscape:window-x="0"
     inkscape:window-y="0"
     inkscape:window-maximized="0"
     fit-margin-top="0"
     fit-margin-left="0"
     fit-margin-right="0"
     fit-margin-bottom="0"
     inkscape:lockguides="false" />
  <metadata
     id="metadata2294">
    <rdf:RDF>
      <cc:Work
         rdf:about="">
        <dc:format>image/svg+xml</dc:format>
        <dc:type
           rdf:resource="http://purl.org/dc/dcmitype/StillImage" />
        <dc:title />
      </cc:Work>
    </rdf:RDF>
  </metadata>
  <g
     inkscape:label="Layer 1"
     inkscape:groupmode="layer"
     id="layer1"
     transform="translate(150.0724,-338.04067)">
    <path
       transform="matrix(0.56882946,3.2552671,-3.2552671,0.56882946,314.87815,-454.07324)"
       inkscape:transform-center-y="-2.9104256"
       inkscape:transform-center-x="-1.5923989"
       d="m 233.20816,180.47833 c -1.4216,1.06621 -4.95577,-2.30655 -6.73257,-2.27958 -1.77681,0.027 -5.20695,3.50549 -6.66027,2.48294 -1.45332,-1.02256 0.66225,-5.42599 0.0875,-7.10749 -0.57472,-1.68151 -4.94295,-3.86885 -4.41955,-5.56703 0.52341,-1.69817 5.36507,-1.04689 6.78667,-2.11309 1.42161,-1.0662 2.15204,-5.89656 3.92884,-5.92354 1.77681,-0.027 2.65355,4.77898 4.10687,5.80153 1.45332,1.02255 6.27298,0.22457 6.8477,1.90607 0.57472,1.6815 -3.72508,4.00046 -4.24849,5.69863 -0.5234,1.69818 1.72488,6.03536 0.30327,7.10156 z"
       inkscape:randomized="0"
       inkscape:rounded="0.25"
       inkscape:flatsided="false"
       sodipodi:arg2="1.5556137"
       sodipodi:arg1="0.92729522"
       sodipodi:r2="6.8363681"
       sodipodi:r1="11.393947"
       sodipodi:cy="171.36317"
       sodipodi:cx="226.3718"
       sodipodi:sides="5"
       id="path11274"
       style="opacity:1;fill:#3366cc;fill-opacity:1;fill-rule:nonzero;stroke:#ff00ff;stroke-width:0.91238213;stroke-linecap:round;stroke-linejoin:round;stroke-miterlimit:4;stroke-dasharray:none;stroke-dashoffset:0;stroke-opacity:1"
       sodipodi:type="star" />
    <path
       sodipodi:type="star"
       style="opacity:1;fill:#a3e93e;fill-opacity:1;fill-rule:nonzero;stroke:#ff00ff;stroke-width:0.91238213;stroke-linecap:round;stroke-linejoin:round;stroke-miterlimit:4;stroke-dasharray:none;stroke-dashoffset:0;stroke-opacity:1"
       id="path11276"
       sodipodi:sides="5"
       sodipodi:cx="226.3718"
       sodipodi:cy="171.36317"
       sodipodi:r1="11.393947"
       sodipodi:r2="6.8363681"
       sodipodi:arg1="0.92729522"
       sodipodi:arg2="1.5556137"
       inkscape:flatsided="false"
       inkscape:rounded="0.25"
       inkscape:randomized="0"
       d="m 233.20816,180.47833 c -1.4216,1.06621 -4.95577,-2.30655 -6.73257,-2.27958 -1.77681,0.027 -5.20695,3.50549 -6.66027,2.48294 -1.45332,-1.02256 0.66225,-5.42599 0.0875,-7.10749 -0.57472,-1.68151 -4.94295,-3.86885 -4.41955,-5.56703 0.52341,-1.69817 5.36507,-1.04689 6.78667,-2.11309 1.42161,-1.0662 2.15204,-5.89656 3.92884,-5.92354 1.77681,-0.027 2.65355,4.77898 4.10687,5.80153 1.45332,1.02255 6.27298,0.22457 6.8477,1.90607 0.57472,1.6815 -3.72508,4.00046 -4.24849,5.69863 -0.5234,1.69818 1.72488,6.03536 0.30327,7.10156 z"
       inkscape:transform-center-x="-0.12842977"
       inkscape:transform-center-y="-3.9293848"
       transform="matrix(0.80217168,2.9234806,-2.9234806,0.80217168,387.4542,-404.36559)" />
    <path
       transform="matrix(0.55297868,2.9806766,-2.9806766,0.55297868,392.43349,-392.05324)"
       inkscape:transform-center-y="-2.810411"
       inkscape:transform-center-x="-1.3146503"
       d="m 233.20816,180.47833 c -1.4216,1.06621 -4.95577,-2.30655 -6.73257,-2.27958 -1.77681,0.027 -5.20695,3.50549 -6.66027,2.48294 -1.45332,-1.02256 0.66225,-5.42599 0.0875,-7.10749 -0.57472,-1.68151 -4.94295,-3.86885 -4.41955,-5.56703 0.52341,-1.69817 5.36507,-1.04689 6.78667,-2.11309 1.42161,-1.0662 2.15204,-5.89656 3.92884,-5.92354 1.77681,-0.027 2.65355,4.77898 4.10687,5.80153 1.45332,1.02255 6.27298,0.22457 6.8477,1.90607 0.57472,1.6815 -3.72508,4.00046 -4.24849,5.69863 -0.5234,1.69818 1.72488,6.03536 0.30327,7.10156 z"
       inkscape:randomized="0"
       inkscape:rounded="0.25"
       inkscape:flatsided="false"
       sodipodi:arg2="1.5556137"
       sodipodi:arg1="0.92729522"
       sodipodi:r2="6.8363681"
       sodipodi:r1="11.393947"
       sodipodi:cy="171.36317"
       sodipodi:cx="226.3718"
       sodipodi:sides="5"
       id="path11278"
       style="opacity:1;fill:#2ee365;fill-opacity:1;fill-rule:nonzero;stroke:#ff00ff;stroke-width:0.91238213;stroke-linecap:round;stroke-linejoin:round;stroke-miterlimit:4;stroke-dasharray:none;stroke-dashoffset:0;stroke-opacity:1"
       sodipodi:type="star" />
    <path
       sodipodi:type="star"
       style="opacity:1;fill:#ffcc00;fill-opacity:1;fill-rule:nonzero;stroke:#ff00ff;stroke-width:0.91238213;stroke-linecap:round;stroke-linejoin:round;stroke-miterlimit:4;stroke-dasharray:none;stroke-dashoffset:0;stroke-opacity:1"
       id="path11280"
       sodipodi:sides="5"
       sodipodi:cx="226.3718"
       sodipodi:cy="171.36317"
       sodipodi:r1="11.393947"
       sodipodi:r2="6.8363681"
       sodipodi:arg1="0.92729522"
       sodipodi:arg2="1.5556137"
       inkscape:flatsided="false"
       inkscape:rounded="0.25"
       inkscape:randomized="0"
       d="m 233.20816,180.47833 c -1.4216,1.06621 -4.95577,-2.30655 -6.73257,-2.27958 -1.77681,0.027 -5.20695,3.50549 -6.66027,2.48294 -1.45332,-1.02256 0.66225,-5.42599 0.0875,-7.10749 -0.57472,-1.68151 -4.94295,-3.86885 -4.41955,-5.56703 0.52341,-1.69817 5.36507,-1.04689 6.78667,-2.11309 1.42161,-1.0662 2.15204,-5.89656 3.92884,-5.92354 1.77681,-0.027 2.65355,4.77898 4.10687,5.80153 1.45332,1.02255 6.27298,0.22457 6.8477,1.90607 0.57472,1.6815 -3.72508,4.00046 -4.24849,5.69863 -0.5234,1.69818 1.72488,6.03536 0.30327,7.10156 z"
       inkscape:transform-center-x="3.0079322"
       inkscape:transform-center-y="1.8060127"
       transform="matrix(2.026804,2.2543921,-2.2543921,2.026804,56.319089,-455.05101)" />
    <path
       transform="matrix(0.41174348,3.0034456,-3.0034456,0.41174348,606.12969,-371.50092)"
       inkscape:transform-center-y="-2.1726759"
       inkscape:transform-center-x="-1.9736194"
       d="m 233.20816,180.47833 c -1.4216,1.06621 -4.95577,-2.30655 -6.73257,-2.27958 -1.77681,0.027 -5.20695,3.50549 -6.66027,2.48294 -1.45332,-1.02256 0.66225,-5.42599 0.0875,-7.10749 -0.57472,-1.68151 -4.94295,-3.86885 -4.41955,-5.56703 0.52341,-1.69817 5.36507,-1.04689 6.78667,-2.11309 1.42161,-1.0662 2.15204,-5.89656 3.92884,-5.92354 1.77681,-0.027 2.65355,4.77898 4.10687,5.80153 1.45332,1.02255 6.27298,0.22457 6.8477,1.90607 0.57472,1.6815 -3.72508,4.00046 -4.24849,5.69863 -0.5234,1.69818 1.72488,6.03536 0.30327,7.10156 z"
       inkscape:randomized="0"
       inkscape:rounded="0.25"
       inkscape:flatsided="false"
       sodipodi:arg2="1.5556137"
       sodipodi:arg1="0.92729522"
       sodipodi:r2="6.8363681"
       sodipodi:r1="11.393947"
       sodipodi:cy="171.36317"
       sodipodi:cx="226.3718"
       sodipodi:sides="5"
       id="path11282"
       style="opacity:1;fill:#ff6600;fill-opacity:1;fill-rule:nonzero;stroke:#ff00ff;stroke-width:0.91238213;stroke-linecap:round;stroke-linejoin:round;stroke-miterlimit:4;stroke-dasharray:none;stroke-dashoffset:0;stroke-opacity:1"
       sodipodi:type="star" />
    <path
       sodipodi:type="star"
       style="opacity:1;fill:#ff0000;fill-opacity:1;fill-rule:nonzero;stroke:#ff00ff;stroke-width:0.91238213;stroke-linecap:round;stroke-linejoin:round;stroke-miterlimit:4;stroke-dasharray:none;stroke-dashoffset:0;stroke-opacity:1"
       id="path11284"
       sodipodi:sides="5"
       sodipodi:cx="226.3718"
       sodipodi:cy="171.36317"
       sodipodi:r1="11.393947"
       sodipodi:r2="6.8363681"
       sodipodi:arg1="0.92729522"
       sodipodi:arg2="1.5556137"
       inkscape:flatsided="false"
       inkscape:rounded="0.25"
       inkscape:randomized="0"
       d="m 233.20816,180.47833 c -1.4216,1.06621 -4.95577,-2.30655 -6.73257,-2.27958 -1.77681,0.027 -5.20695,3.50549 -6.66027,2.48294 -1.45332,-1.02256 0.66225,-5.42599 0.0875,-7.10749 -0.57472,-1.68151 -4.94295,-3.86885 -4.41955,-5.56703 0.52341,-1.69817 5.36507,-1.04689 6.78667,-2.11309 1.42161,-1.0662 2.15204,-5.89656 3.92884,-5.92354 1.77681,-0.027 2.65355,4.77898 4.10687,5.80153 1.45332,1.02255 6.27298,0.22457 6.8477,1.90607 0.57472,1.6815 -3.72508,4.00046 -4.24849,5.69863 -0.5234,1.69818 1.72488,6.03536 0.30327,7.10156 z"
       inkscape:transform-center-x="3.0079322"
       inkscape:transform-center-y="1.8060127"
       transform="matrix(2.026804,2.2543921,-2.2543921,2.026804,171.10565,-459.82098)" />
    <path
       transform="matrix(0.8237655,2.9174696,-2.9174696,0.8237655,675.06465,-402.55848)"
       inkscape:transform-center-y="-4.0259015"
       inkscape:transform-center-x="-0.02418347"
       d="m 233.20816,180.47833 c -1.4216,1.06621 -4.95577,-2.30655 -6.73257,-2.27958 -1.77681,0.027 -5.20695,3.50549 -6.66027,2.48294 -1.45332,-1.02256 0.66225,-5.42599 0.0875,-7.10749 -0.57472,-1.68151 -4.94295,-3.86885 -4.41955,-5.56703 0.52341,-1.69817 5.36507,-1.04689 6.78667,-2.11309 1.42161,-1.0662 2.15204,-5.89656 3.92884,-5.92354 1.77681,-0.027 2.65355,4.77898 4.10687,5.80153 1.45332,1.02255 6.27298,0.22457 6.8477,1.90607 0.57472,1.6815 -3.72508,4.00046 -4.24849,5.69863 -0.5234,1.69818 1.72488,6.03536 0.30327,7.10156 z"
       inkscape:randomized="0"
       inkscape:rounded="0.25"
       inkscape:flatsided="false"
       sodipodi:arg2="1.5556137"
       sodipodi:arg1="0.92729522"
       sodipodi:r2="6.8363681"
       sodipodi:r1="11.393947"
       sodipodi:cy="171.36317"
       sodipodi:cx="226.3718"
       sodipodi:sides="5"
       id="path11286"
       style="opacity:1;fill:#8800aa;fill-opacity:1;fill-rule:nonzero;stroke:#ff00ff;stroke-width:0.91238213;stroke-linecap:round;stroke-linejoin:round;stroke-miterlimit:4;stroke-dasharray:none;stroke-dashoffset:0;stroke-opacity:1"
       sodipodi:type="star" />
    <path
       sodipodi:type="star"
       style="opacity:1;fill:#00ccff;fill-opacity:1;fill-rule:nonzero;stroke:#ff00ff;stroke-width:0.82636839;stroke-linecap:round;stroke-linejoin:round;stroke-miterlimit:4;stroke-dasharray:none;stroke-dashoffset:0;stroke-opacity:1"
       id="path10948"
       sodipodi:sides="5"
       sodipodi:cx="226.3718"
       sodipodi:cy="171.36317"
       sodipodi:r1="11.393947"
       sodipodi:r2="6.8363681"
       sodipodi:arg1="0.92729522"
       sodipodi:arg2="1.5556137"
       inkscape:flatsided="false"
       inkscape:rounded="0.25"
       inkscape:randomized="0"
       d="m 233.20816,180.47833 c -1.4216,1.06621 -4.95577,-2.30655 -6.73257,-2.27958 -1.77681,0.027 -5.20695,3.50549 -6.66027,2.48294 -1.45332,-1.02256 0.66225,-5.42599 0.0875,-7.10749 -0.57472,-1.68151 -4.94295,-3.86885 -4.41955,-5.56703 0.52341,-1.69817 5.36507,-1.04689 6.78667,-2.11309 1.42161,-1.0662 2.15204,-5.89656 3.92884,-5.92354 1.77681,-0.027 2.65355,4.77898 4.10687,5.80153 1.45332,1.02255 6.27298,0.22457 6.8477,1.90607 0.57472,1.6815 -3.72508,4.00046 -4.24849,5.69863 -0.5234,1.69818 1.72488,6.03536 0.30327,7.10156 z"
       inkscape:transform-center-x="-2.5035469"
       inkscape:transform-center-y="1.3689699"
       transform="matrix(-0.42093743,2.97821,-2.97821,-0.42093743,553.58825,-198.96551)" />
    <path
       sodipodi:type="star"
       style="opacity:1;fill:#ff2a7f;fill-opacity:1;fill-rule:nonzero;stroke:#ff00ff;stroke-width:0.91238213;stroke-linecap:round;stroke-linejoin:round;stroke-miterlimit:4;stroke-dasharray:none;stroke-dashoffset:0;stroke-opacity:1"
       id="path11288"
       sodipodi:sides="5"
       sodipodi:cx="226.3718"
       sodipodi:cy="171.36317"
       sodipodi:r1="11.393947"
       sodipodi:r2="6.8363681"
       sodipodi:arg1="0.92729522"
       sodipodi:arg2="1.5556137"
       inkscape:flatsided="false"
       inkscape:rounded="0.25"
       inkscape:randomized="0"
       d="m 233.20816,180.47833 c -1.4216,1.06621 -4.95577,-2.30655 -6.73257,-2.27958 -1.77681,0.027 -5.20695,3.50549 -6.66027,2.48294 -1.45332,-1.02256 0.66225,-5.42599 0.0875,-7.10749 -0.57472,-1.68151 -4.94295,-3.86885 -4.41955,-5.56703 0.52341,-1.69817 5.36507,-1.04689 6.78667,-2.11309 1.42161,-1.0662 2.15204,-5.89656 3.92884,-5.92354 1.77681,-0.027 2.65355,4.77898 4.10687,5.80153 1.45332,1.02255 6.27298,0.22457 6.8477,1.90607 0.57472,1.6815 -3.72508,4.00046 -4.24849,5.69863 -0.5234,1.69818 1.72488,6.03536 0.30327,7.10156 z"
       inkscape:transform-center-x="-1.9736194"
       inkscape:transform-center-y="-2.1726759"
       transform="matrix(0.41174348,3.0034456,-3.0034456,0.41174348,722.58011,-371.10007)" />
    <path
       style="fill:none;stroke:#800080;stroke-width:1.3829602;stroke-linecap:butt;stroke-linejoin:miter;stroke-miterlimit:4;stroke-dasharray:none;stroke-opacity:1"
       d="m -55.46811,381.48796 -0.279985,-41.38874"
       id="path4434"
       inkscape:connector-curvature="0" />
    <path
       style="fill:none;stroke:#800080;stroke-width:1.08839166;stroke-linecap:round;stroke-linejoin:round;stroke-miterlimit:4;stroke-dasharray:none;stroke-opacity:1"
       d="m -55.73876,381.48832 c -19.643999,-9.29879 -3.275238,-7.02711 0,0 6.208094,-10.10503 19.852139,-10.96847 0,0 z"
       id="path4436"
       inkscape:connector-curvature="0"
       sodipodi:nodetypes="cccc" />
    <path
       inkscape:connector-curvature="0"
       id="path4438"
       d="m 134.09805,380.74872 0.0896,-42.68243"
       style="fill:none;stroke:#800080;stroke-width:1.3829602;stroke-linecap:butt;stroke-linejoin:miter;stroke-miterlimit:4;stroke-dasharray:none;stroke-opacity:1"
       sodipodi:nodetypes="cc" />
    <path
       sodipodi:nodetypes="cccc"
       inkscape:connector-curvature="0"
       id="path4440"
       d="m 133.80488,381.62887 c -18.20602,-11.86993 -2.29484,-7.40548 0,0 7.51761,-9.17265 21.15308,-8.183 0,0 z"
       style="fill:none;stroke:#800080;stroke-width:1.08839166;stroke-linecap:round;stroke-linejoin:round;stroke-miterlimit:4;stroke-dasharray:none;stroke-opacity:1" />
    <path
       style="fill:none;stroke:#800080;stroke-width:1.3829602;stroke-linecap:butt;stroke-linejoin:miter;stroke-miterlimit:4;stroke-dasharray:none;stroke-opacity:1"
       d="m 69.211831,360.36691 0.366851,-22.26074"
       id="path4442"
       inkscape:connector-curvature="0"
       sodipodi:nodetypes="cc" />
    <path
       style="fill:none;stroke:#800080;stroke-width:1.08839166;stroke-linecap:round;stroke-linejoin:round;stroke-miterlimit:4;stroke-dasharray:none;stroke-opacity:1"
       d="m 70.06742,360.36691 c 19.643995,-9.2988 3.275237,-7.02711 0,0 -6.208095,-10.10503 -19.852138,-10.96847 0,0 z"
       id="path4444"
       inkscape:connector-curvature="0"
       sodipodi:nodetypes="cccc" />
    <path
       inkscape:connector-curvature="0"
       id="path4446"
       d="m 189.32288,344.68512 -0.003,-6.64417"
       style="fill:none;stroke:#800080;stroke-width:1.3829602;stroke-linecap:butt;stroke-linejoin:miter;stroke-miterlimit:4;stroke-dasharray:none;stroke-opacity:1"
       sodipodi:nodetypes="cc" />
    <path
       sodipodi:nodetypes="cccc"
       inkscape:connector-curvature="0"
       id="path4448"
       d="m 189.16664,344.68548 c -14.45187,-6.84102 -2.40956,-5.16976 0,0 4.56723,-7.43416 14.605,-8.06938 0,0 z"
       style="fill:none;stroke:#800080;stroke-width:0.80071789;stroke-linecap:round;stroke-linejoin:round;stroke-miterlimit:4;stroke-dasharray:none;stroke-opacity:1" />
    <path
       style="fill:none;stroke:#800080;stroke-width:1.3829602;stroke-linecap:butt;stroke-linejoin:miter;stroke-miterlimit:4;stroke-dasharray:none;stroke-opacity:1"
       d="m 249.02859,377.61722 -0.0186,-39.16715"
       id="path4450"
       inkscape:connector-curvature="0"
       sodipodi:nodetypes="cc" />
    <path
       style="fill:none;stroke:#800080;stroke-width:1.08839166;stroke-linecap:round;stroke-linejoin:round;stroke-miterlimit:4;stroke-dasharray:none;stroke-opacity:1"
       d="m 249.88418,377.61722 c 19.644,-9.29879 3.27524,-7.02711 0,0 -6.20809,-10.10503 -19.85214,-10.96847 0,0 z"
       id="path4452"
       inkscape:connector-curvature="0"
       sodipodi:nodetypes="cccc" />
    <path
       inkscape:connector-curvature="0"
       id="path4454"
       d="m 362.2212,365.32547 -0.27999,-27.14446"
       style="fill:none;stroke:#800080;stroke-width:1.3829602;stroke-linecap:butt;stroke-linejoin:miter;stroke-miterlimit:4;stroke-dasharray:none;stroke-opacity:1"
       sodipodi:nodetypes="cc" />
    <path
       sodipodi:nodetypes="cccc"
       inkscape:connector-curvature="0"
       id="path4456"
       d="m 362.2212,365.32547 c -19.64399,-9.2988 -3.27524,-7.02711 0,0 6.2081,-10.10504 19.85214,-10.96848 0,0 z"
       style="fill:none;stroke:#800080;stroke-width:1.08839166;stroke-linecap:round;stroke-linejoin:round;stroke-miterlimit:4;stroke-dasharray:none;stroke-opacity:1" />
    <path
       style="fill:none;stroke:#800080;stroke-width:1.3829602;stroke-linecap:butt;stroke-linejoin:miter;stroke-miterlimit:4;stroke-dasharray:none;stroke-opacity:1"
       d="m 306.71444,345.92659 -0.084,-7.86893"
       id="path4458"
       inkscape:connector-curvature="0"
       sodipodi:nodetypes="cc" />
    <path
       style="fill:none;stroke:#800080;stroke-width:0.72473913;stroke-linecap:round;stroke-linejoin:round;stroke-miterlimit:4;stroke-dasharray:none;stroke-opacity:1"
       d="m 306.71444,345.92659 c -13.08056,-6.19189 -2.18092,-4.67921 0,0 4.13385,-6.72875 13.21915,-7.30369 0,0 z"
       id="path4460"
       inkscape:connector-curvature="0"
       sodipodi:nodetypes="cccc" />
    <path
       inkscape:connector-curvature="0"
       id="path4482"
       d="m 10.553385,343.50955 -0.04897,-5.35048"
       style="fill:none;stroke:#800080;stroke-width:1.3829602;stroke-linecap:butt;stroke-linejoin:miter;stroke-miterlimit:4;stroke-dasharray:none;stroke-opacity:1"
       sodipodi:nodetypes="cc" />
    <path
       sodipodi:nodetypes="cccc"
       inkscape:connector-curvature="0"
       id="path4484"
       d="m 10.553385,343.50955 c -12.4189107,-5.87868 -2.0706021,-4.44253 0,0 3.92475,-6.38839 12.550499,-6.93425 0,0 z"
       style="fill:none;stroke:#800080;stroke-width:0.68807977;stroke-linecap:round;stroke-linejoin:round;stroke-miterlimit:4;stroke-dasharray:none;stroke-opacity:1" />
    <path
       sodipodi:nodetypes="cc"
       inkscape:connector-curvature="0"
       id="path4486"
       d="m -109.7365,343.59357 0.10549,-5.46816"
       style="fill:none;stroke:#800080;stroke-width:1.3829602;stroke-linecap:butt;stroke-linejoin:miter;stroke-miterlimit:4;stroke-dasharray:none;stroke-opacity:1" />
    <path
       sodipodi:nodetypes="cccc"
       inkscape:connector-curvature="0"
       id="path4488"
       d="m -110.10241,343.59357 c -10.71825,-8.4271 -1.02326,-4.75483 0,0 5.20639,-5.31486 13.672056,-3.94015 0,0 z"
       style="fill:none;stroke:#800080;stroke-width:0.68279034;stroke-linecap:round;stroke-linejoin:round;stroke-miterlimit:4;stroke-dasharray:none;stroke-opacity:1" />
    <path
       style="fill:none;fill-opacity:1;stroke:#440055;stroke-width:5.14294338;stroke-linecap:round;stroke-linejoin:round;stroke-miterlimit:4;stroke-dasharray:none;stroke-opacity:1"
       d="m -122.00995,363.99476 1.49798,1.64293 -2.85352,23.29322 c -1.17942,9.89867 12.70094,12.97631 14.51498,1.39884 l 2.73285,-23.08184 -1.84355,-2.00059"
       id="path889"
       inkscape:connector-curvature="0"
       sodipodi:nodetypes="cccccc" />
    <g
       id="g897"
       transform="rotate(-7.2809205,-819.6449,412.7968)"
       style="fill:none;fill-opacity:1;stroke:#8800aa">
      <path
         inkscape:connector-curvature="0"
         id="path891"
         d="m -62.87572,515.61564 3.274052,-29.73373 -1.603618,-1.9377"
         style="fill:none;fill-opacity:1;stroke:#8800aa;stroke-width:5;stroke-linecap:round;stroke-linejoin:round;stroke-miterlimit:4;stroke-dasharray:none;stroke-opacity:1" />
      <path
         sodipodi:nodetypes="ccccc"
         inkscape:connector-curvature="0"
         id="path893"
         d="m -59.60167,485.88191 c 5.729428,-2.05619 12.144305,0.22077 11.893497,5.47903 -0.788176,7.23793 -8.242091,6.49434 -11.377136,6.90986 4.963101,0.96383 12.103855,2.02826 11.109864,10.79674 -1.582284,7.85474 -9.252154,6.58149 -14.900275,6.5481"
         style="fill:none;fill-opacity:1;stroke:#8800aa;stroke-width:5;stroke-linecap:round;stroke-linejoin:round;stroke-miterlimit:4;stroke-dasharray:none;stroke-opacity:1" />
    </g>
    <g
       id="g908"
       transform="rotate(4.4170694,1262.8379,496.13864)"
       style="fill:none;fill-opacity:1;stroke:#aa00d4">
      <path
         sodipodi:nodetypes="ccc"
         inkscape:connector-curvature="0"
         id="path899"
         d="m -5.2602784,488.64223 c 4.2294955,-0.071 8.3899336,0.16465 12.024367,0.21261 l -0.2362331,-0.8032"
         style="fill:none;fill-opacity:1;stroke:#aa00d4;stroke-width:5;stroke-linecap:round;stroke-linejoin:round;stroke-miterlimit:4;stroke-dasharray:none;stroke-opacity:1" />
      <path
         sodipodi:nodetypes="ccc"
         inkscape:connector-curvature="0"
         id="path901"
         d="m -4.5792497,461.71004 11.9291784,0.0496 -0.5956234,-0.99555"
         style="fill:none;fill-opacity:1;stroke:#aa00d4;stroke-width:5;stroke-linecap:round;stroke-linejoin:round;stroke-miterlimit:4;stroke-dasharray:none;stroke-opacity:1" />
      <path
         sodipodi:nodetypes="cc"
         inkscape:connector-curvature="0"
         id="path903"
         d="M 0.59835362,488.26425 1.3070578,461.85317"
         style="fill:none;fill-opacity:1;stroke:#aa00d4;stroke-width:5;stroke-linecap:round;stroke-linejoin:round;stroke-miterlimit:4;stroke-dasharray:none;stroke-opacity:1" />
    </g>
    <path
       style="fill:none;fill-opacity:1;stroke:#cc00ff;stroke-width:5;stroke-linecap:round;stroke-linejoin:round;stroke-miterlimit:4;stroke-dasharray:none;stroke-opacity:1"
       d="m 75.128783,402.29296 c -3.547411,9.216 -15.288226,10.96202 -14.035542,-9.44905 0.301052,-12.89584 12.006937,-16.24976 11.814731,-6.29299"
       id="path910"
       inkscape:connector-curvature="0"
       sodipodi:nodetypes="ccc" />
    <g
       id="g918"
       transform="rotate(-3.8474599,-1316.8872,365.41519)"
       style="fill:none;fill-opacity:1;stroke:#d42aff">
      <path
         sodipodi:nodetypes="ccc"
         inkscape:connector-curvature="0"
         id="path912"
         d="m 115.73934,513.7304 c 3.20182,-8.85643 5.40587,-18.21175 7.55954,-27.59226 2.56841,8.89421 5.1044,17.88567 7.84299,26.26934"
         style="fill:none;fill-opacity:1;stroke:#d42aff;stroke-width:5;stroke-linecap:round;stroke-linejoin:round;stroke-miterlimit:4;stroke-dasharray:none;stroke-opacity:1" />
      <path
         sodipodi:nodetypes="cc"
         inkscape:connector-curvature="0"
         id="path914"
         d="m 118.66867,504.56448 c 3.22343,-1.1765 6.17396,-0.49293 9.17164,-0.76643"
         style="fill:none;fill-opacity:1;stroke:#d42aff;stroke-width:5;stroke-linecap:round;stroke-linejoin:round;stroke-miterlimit:4;stroke-dasharray:none;stroke-opacity:1" />
    </g>
    <path
       sodipodi:nodetypes="ccc"
       inkscape:connector-curvature="0"
       id="path920"
       d="m 191.11106,386.49954 c -3.82553,9.10408 -15.61393,10.4929 -13.74224,-9.87074 0.69237,-12.88076 12.49467,-15.8778 12.00032,-5.93146"
       style="fill:none;fill-opacity:0;stroke:#ffdd55;stroke-width:5;stroke-linecap:round;stroke-linejoin:round;stroke-miterlimit:4;stroke-dasharray:none;stroke-opacity:1" />
    <g
       style="fill:none;fill-opacity:1;stroke:#ffd42a;stroke-opacity:1"
       transform="rotate(-8.9500908,-370.03371,-1112.5388)"
       id="g928">
      <path
         style="fill:none;fill-opacity:1;stroke:#ffd42a;stroke-width:5;stroke-linecap:round;stroke-linejoin:round;stroke-miterlimit:4;stroke-dasharray:none;stroke-opacity:1"
         d="m -5.2602784,488.64223 c 4.2294955,-0.071 8.3899336,0.16465 12.024367,0.21261 l -0.2362331,-0.8032"
         id="path922"
         inkscape:connector-curvature="0"
         sodipodi:nodetypes="ccc" />
      <path
         style="fill:none;fill-opacity:1;stroke:#ffd42a;stroke-width:5;stroke-linecap:round;stroke-linejoin:round;stroke-miterlimit:4;stroke-dasharray:none;stroke-opacity:1"
         d="m -4.5792497,461.71004 11.9291784,0.0496 -0.5956234,-0.99555"
         id="path924"
         inkscape:connector-curvature="0"
         sodipodi:nodetypes="ccc" />
      <path
         style="fill:none;fill-opacity:1;stroke:#ffd42a;stroke-width:5;stroke-linecap:round;stroke-linejoin:round;stroke-miterlimit:4;stroke-dasharray:none;stroke-opacity:1"
         d="M 0.59835362,488.26425 1.3070578,461.85317"
         id="path926"
         inkscape:connector-curvature="0"
         sodipodi:nodetypes="cc" />
    </g>
    <g
       id="g936"
       transform="rotate(5.0602428,1444.342,396.39127)">
      <path
         sodipodi:nodetypes="ccc"
         inkscape:connector-curvature="0"
         id="path930"
         d="m 300.23086,494.84422 c 9.31931,1.61424 12.86677,-24.6567 4.6302,-25.89137 -8.15867,-1.89011 -14.012,23.67704 -4.6302,25.89137 z"
         style="fill:none;fill-opacity:1;stroke:#ffff00;stroke-width:5;stroke-linecap:round;stroke-linejoin:round;stroke-miterlimit:4;stroke-dasharray:none;stroke-opacity:1" />
      <path
         inkscape:connector-curvature="0"
         id="path932"
         d="m 316.64698,470.31347 4.27633,-3.80859"
         style="fill:none;fill-opacity:1;stroke:#ffff00;stroke-width:5;stroke-linecap:round;stroke-linejoin:round;stroke-miterlimit:4;stroke-dasharray:none;stroke-opacity:1" />
    </g>
    <g
       id="g944"
       transform="translate(0.75595273,-98.179313)"
       style="fill:none;fill-opacity:1;stroke:#ffcc00">
      <path
         sodipodi:nodetypes="ccc"
         inkscape:connector-curvature="0"
         id="path938"
         d="m 354.36541,509.96958 1.50338,2.03793 0.20045,-26.62673"
         style="fill:none;fill-opacity:1;stroke:#ffcc00;stroke-width:5;stroke-linecap:round;stroke-linejoin:round;stroke-miterlimit:4;stroke-dasharray:none;stroke-opacity:1" />
      <path
         sodipodi:nodetypes="cccc"
         inkscape:connector-curvature="0"
         id="path940"
         d="m 355.00087,483.81868 c 1.91111,-0.17301 8.70606,18.57118 12.71081,27.58747 0.16617,-8.4159 0.12712,-17.03703 0.75793,-24.9883 l -1.57595,-2.3066"
         style="fill:none;fill-opacity:1;stroke:#ffcc00;stroke-width:5;stroke-linecap:round;stroke-linejoin:round;stroke-miterlimit:4;stroke-dasharray:none;stroke-opacity:1" />
    </g>
  </g>
</svg>
