<?xml version="1.0" encoding="UTF-8" standalone="no"?>
<!-- Created with Inkscape (http://www.inkscape.org/) -->

<svg
   xmlns:dc="http://purl.org/dc/elements/1.1/"
   xmlns:cc="http://creativecommons.org/ns#"
   xmlns:rdf="http://www.w3.org/1999/02/22-rdf-syntax-ns#"
   xmlns:svg="http://www.w3.org/2000/svg"
   xmlns="http://www.w3.org/2000/svg"
   xmlns:sodipodi="http://sodipodi.sourceforge.net/DTD/sodipodi-0.dtd"
   xmlns:inkscape="http://www.inkscape.org/namespaces/inkscape"
   width="125mm"
   height="130mm"
   viewBox="0 0 125 130"
   version="1.1"
   id="svg855"
   inkscape:export-filename="/home/kona/bitmap.png"
   inkscape:export-xdpi="200"
   inkscape:export-ydpi="200"
   inkscape:version="0.92.2 2405546, 2018-03-11"
   sodipodi:docname="topNavbar.svg">
  <defs
     id="defs849" />
  <sodipodi:namedview
     id="base"
     pagecolor="#ffffff"
     bordercolor="#666666"
     borderopacity="1.0"
     inkscape:pageopacity="0.0"
     inkscape:pageshadow="2"
     inkscape:zoom="0.7"
     inkscape:cx="132.021"
     inkscape:cy="279.39854"
     inkscape:document-units="mm"
     inkscape:current-layer="layer1"
     showgrid="false"
     showborder="true"
     inkscape:showpageshadow="false"
     borderlayer="true"
     inkscape:window-width="1362"
     inkscape:window-height="724"
     inkscape:window-x="0"
     inkscape:window-y="20"
     inkscape:window-maximized="0" />
  <metadata
     id="metadata852">
    <rdf:RDF>
      <cc:Work
         rdf:about="">
        <dc:format>image/svg+xml</dc:format>
        <dc:type
           rdf:resource="http://purl.org/dc/dcmitype/StillImage" />
        <dc:title />
      </cc:Work>
    </rdf:RDF>
  </metadata>
  <g
     inkscape:label="Layer 1"
     inkscape:groupmode="layer"
     id="layer1"
     transform="translate(0,-167)">
    <path
       inkscape:connector-curvature="0"
       id="path7417-5"
       style="fill:#cc00ff;fill-rule:evenodd;stroke-width:2.5;stroke:#ffff00;stroke-miterlimit:4;stroke-dasharray:none;fill-opacity:1"
       d="m 44.831503,174.26564 c 1.060671,-6.52567 5.637905,-7.92754 10.171182,-3.1162 L 71.8334,189.01105 c 4.533629,4.8105 13.587882,7.92079 20.120319,6.9108 l 24.237621,-3.7494 c 6.53213,-1.0101 9.2801,2.9071 6.10329,8.70466 l -11.77928,21.5064 c -3.17571,5.7963 -3.33781,15.37047 -0.36265,21.27188 l 11.05657,21.91709 c 2.97602,5.9014 0.10012,9.72748 -6.39881,8.49912 l -24.106832,-4.55526 c -6.496709,-1.22737 -15.651365,1.57775 -20.344238,6.23297 l -17.417726,17.27716 c -4.693612,4.65636 -9.21959,3.10015 -10.060139,-3.45566 L 39.76058,265.2221 C 38.92045,258.66548 33.4224,250.82651 27.54449,247.8037 L 5.73889,236.58636 c -5.87677,-3.02394 -5.797,-7.80664 0.18061,-10.62938 l 22.17983,-10.47232 c 5.9768,-2.82305 11.73576,-10.47086 12.795419,-16.99589 z" />
    <path
       d="m 60.278973,177.2998 c 8.282203,0 14.052068,7.91621 17.309425,23.74851 l 5.769866,30.40207 c 0.883717,7.54998 2.87858,20.41533 5.997037,38.62117 l 1.552933,13.76173 c 0,0.49238 -1.035318,1.19938 -3.118453,2.13371 -2.070637,0.94697 -3.143771,0.97219 -3.206899,0.10106 -0.07568,-0.88386 -0.113589,-1.8434 -0.113589,-2.90383 l -4.21693,-27.73811 c 0,-1.33831 -1.628736,-2.00742 -4.886005,-2.00742 -3.2827,0 -9.191379,-1.11104 -17.75147,-3.32053 h -0.227171 c -0.290443,0 -0.441931,0.51764 -0.441931,1.55295 l -3.989615,11.75421 7.3228,2.66396 2.222037,1.33832 c 1.868492,3.03011 1.502391,4.73452 -1.111006,5.10076 -7.348027,-3.25739 -12.00686,-4.88612 -13.989052,-4.88612 h -0.656547 -2.853354 -3.370973 l -2.663968,0.89639 h -0.4419 c -0.3409,0 -0.56806,-0.37869 -0.65644,-1.11103 0,-2.51245 3.10576,-3.92649 9.317534,-4.21691 1.477132,-3.52244 2.222064,-6.0476 2.222064,-7.54996 1.123676,-2.82812 1.944266,-5.4921 2.436768,-7.99191 -1.502478,-0.59342 -3.282612,-0.88383 -5.327935,-0.88383 h -2.222152 c -2.954268,0.56819 -4.431509,1.6792 -4.431509,3.33317 l 0.44189,0.44191 h 0.21462 l 2.891282,-0.44191 c 1.085774,0 1.679192,0.73225 1.780106,2.20949 0.58086,0.25243 0.883861,0.77013 0.883861,1.5655 0,1.76758 -1.552963,2.65129 -4.658837,2.65129 -3.940462,-0.99381 -6.122922,-1.51461 -6.211652,-4.87333 0.98475,-4.59571 2.62244,-5.60519 4.21691,-6.88086 1.14704,-0.72409 2.716034,-1.54581 5.984362,-1.55294 l 7.550085,0.88372 c 1.035206,-2.22203 4.810206,-19.7461 11.312388,-52.59751 l 1.111032,-8.64847 c 0,-0.69433 -0.883831,-1.28774 -2.663966,-1.78013 h -0.656546 c -2.222036,1.57818 -3.333185,3.13113 -3.333185,4.65872 v 0.66922 l 0.214731,1.55296 -1.767551,0.6691 c -2.045322,-1.03536 -3.080668,-2.00741 -3.105897,-2.89128 1.691777,-5.61824 4.141103,-8.43381 7.3228,-8.43381 z m -1.780249,66.80119 10.213968,1.99486 c 4.115873,1.18684 7.512157,1.78022 10.201353,1.78022 v -0.22728 c -1.62862,-11.09777 -4.797646,-27.73809 -9.532166,-49.93354 0,-0.59343 -0.151485,-0.88385 -0.454572,-0.88385 -0.542845,0 -1.792807,5.92133 -3.762329,17.75137 z"
       style="fill:#ffff00;fill-rule:evenodd;stroke:#9c27b0;stroke-width:1.45766389;stroke-miterlimit:4;stroke-dasharray:none;stroke-opacity:1"
       id="path7509-8"
       inkscape:connector-curvature="0"
       sodipodi:nodetypes="cccccccccscscccccsccccsccccsccccccscccccccccscccccccccccscc" />
    <path
       d="m -119.80653,172.12748 c 1.06068,-6.52567 5.63791,-7.92754 10.17119,-3.1162 l 16.830711,17.86161 c 4.533629,4.8105 13.587882,7.92079 20.120319,6.9108 l 24.237621,-3.7494 c 6.53213,-1.0101 9.2801,2.9071 6.10329,8.70466 l -11.77928,21.5064 c -3.17571,5.7963 -3.33781,15.37047 -0.36265,21.27188 l 11.05657,21.91709 c 2.97602,5.9014 0.10012,9.72748 -6.39881,8.49912 l -24.106832,-4.55526 c -6.496709,-1.22737 -15.651365,1.57775 -20.344238,6.23297 l -17.417721,17.27716 c -4.69362,4.65636 -9.21959,3.10015 -10.06014,-3.45566 l -3.12095,-24.34871 c -0.84013,-6.55662 -6.33818,-14.39559 -12.21609,-17.4184 l -21.8056,-11.21734 c -5.87677,-3.02394 -5.797,-7.80664 0.18061,-10.62938 l 22.17983,-10.47232 c 5.9768,-2.82305 11.73576,-10.47086 12.79542,-16.99589 z"
       style="fill:#cc00ff;fill-opacity:1;fill-rule:evenodd;stroke:#ffcc00;stroke-width:2.5;stroke-miterlimit:4;stroke-dasharray:none"
       id="path1740"
       inkscape:connector-curvature="0" />
    <path
       d="m -48.158139,256.40987 c 0.43934,0.35619 0.34877,0.75553 -0.20112,0.88749 l -2.04148,0.48991 c -0.54982,0.13192 -1.16572,0.67181 -1.36845,1.19961 l -0.75227,1.95858 c -0.20272,0.5278 -0.61035,0.56526 -0.90556,0.083 l -1.09562,-1.78885 c -0.29528,-0.48219 -0.999,-0.90126 -1.56374,-0.93122 l -2.09695,-0.11121 c -0.56468,-0.03 -0.72624,-0.40648 -0.35874,-0.83634 l 1.36313,-1.59582 c 0.36734,-0.43002 0.54835,-1.22882 0.40231,-1.77515 l -0.54194,-2.02749 c -0.14599,-0.54632 0.16189,-0.81617 0.68426,-0.59981 l 1.94005,0.80363 c 0.52241,0.21642 1.33815,0.14157 1.81239,-0.16631 l 1.75983,-1.14159 c 0.47441,-0.30766 0.82601,-0.0983 0.78133,0.46536 l -0.16571,2.09162 c -0.0444,0.56373 0.27814,1.31634 0.7175,1.67247 z"
       style="fill:#55ffdd;fill-rule:evenodd;stroke-width:0.28729409"
       id="path1742"
       inkscape:connector-curvature="0" />
    <path
       d="m -147.90951,224.83514 c 0.18662,0.15122 0.14801,0.32071 -0.0857,0.37676 l -0.86666,0.20789 c -0.23341,0.0561 -0.49488,0.28522 -0.58093,0.5093 l -0.3194,0.83146 c -0.0857,0.224 -0.25913,0.23997 -0.3844,0.035 l -0.46506,-0.75938 c -0.12548,-0.2047 -0.42411,-0.38265 -0.66378,-0.39534 l -0.89028,-0.0475 c -0.23967,-0.0121 -0.30824,-0.17254 -0.15243,-0.35502 l 0.57876,-0.67742 c 0.15585,-0.18259 0.23281,-0.52169 0.17073,-0.75357 l -0.23004,-0.86074 c -0.0619,-0.23197 0.0686,-0.34651 0.29047,-0.25461 l 0.82357,0.34118 c 0.22183,0.0917 0.56804,0.0597 0.76946,-0.0708 l 0.747,-0.48467 c 0.20134,-0.13071 0.35066,-0.0416 0.33163,0.19748 l -0.0708,0.88801 c -0.0181,0.2393 0.11804,0.55877 0.30468,0.70997 z"
       style="fill:#ffff00;fill-rule:evenodd;stroke-width:0.28729409"
       id="path1744"
       inkscape:connector-curvature="0" />
    <path
       d="m -48.439769,200.47946 c 0.43926,0.35621 0.34869,0.75561 -0.20119,0.88751 l -2.04149,0.48991 c -0.54982,0.13192 -1.16572,0.67181 -1.36845,1.19961 l -0.75227,1.95855 c -0.20286,0.52782 -0.61037,0.56527 -0.9057,0.0831 l -1.09548,-1.78877 c -0.29527,-0.48219 -0.99906,-0.90136 -1.56374,-0.9313 l -2.09695,-0.11121 c -0.56454,-0.0298 -0.72624,-0.4064 -0.3589,-0.83635 l 1.36321,-1.59579 c 0.36734,-0.43003 0.54843,-1.22883 0.40239,-1.77515 l -0.54194,-2.02743 c -0.14599,-0.54638 0.16189,-0.81623 0.68426,-0.59987 l 1.94005,0.80362 c 0.52241,0.21643 1.33815,0.14158 1.8124,-0.1661 l 1.75982,-1.14167 c 0.47441,-0.30766 0.82601,-0.0983 0.78133,0.46536 l -0.16571,2.09161 c -0.0444,0.56374 0.27814,1.31641 0.71748,1.67253 z"
       style="fill:#ffff00;fill-rule:evenodd;stroke-width:0.28729409"
       id="path1746"
       inkscape:connector-curvature="0" />
    <path
       d="m -56.363939,211.65266 c 0.14801,0.27196 0.0189,0.45522 -0.28733,0.40717 l -1.13567,-0.17779 c -0.30606,-0.0478 -0.73042,0.0969 -0.94309,0.32192 l -0.7895,0.83463 c -0.21228,0.22503 -0.42683,0.1588 -0.47568,-0.14722 l -0.18147,-1.13421 c -0.0488,-0.30567 -0.31775,-0.66475 -0.59738,-0.79763 l -1.03837,-0.49415 c -0.27981,-0.13217 -0.28281,-0.35725 -0.007,-0.4982 l 1.02303,-0.5236 c 0.27559,-0.14119 0.53393,-0.50772 0.57416,-0.81472 l 0.14848,-1.13952 c 0.0402,-0.30704 0.2521,-0.37955 0.47152,-0.16092 l 0.8146,0.81152 c 0.21946,0.21863 0.64818,0.35035 0.95234,0.29387 l 1.12913,-0.2109 c 0.30418,-0.0567 0.43845,0.12291 0.29845,0.39875 l -0.52076,1.02416 c -0.13916,0.27643 -0.13356,0.7245 0.0144,0.99643 z"
       style="fill:#ff0000;fill-rule:evenodd;stroke-width:0.37057126"
       id="path1748"
       inkscape:connector-curvature="0" />
    <path
       d="m -118.31383,197.97336 c 0.18661,0.15123 0.148,0.32077 -0.0857,0.37674 l -0.86667,0.20798 c -0.2334,0.0561 -0.49478,0.28521 -0.58094,0.5093 l -0.31932,0.83145 c -0.0857,0.22409 -0.25905,0.23997 -0.38446,0.035 l -0.46506,-0.75939 c -0.12528,-0.2047 -0.42411,-0.38265 -0.66378,-0.39532 l -0.8902,-0.0475 c -0.23975,-0.0121 -0.30824,-0.17254 -0.15223,-0.35502 l 0.5786,-0.67749 c 0.15605,-0.1826 0.23283,-0.52169 0.17073,-0.75356 l -0.23006,-0.86068 c -0.0619,-0.23194 0.0686,-0.34651 0.29055,-0.25469 l 0.8236,0.34119 c 0.22173,0.0919 0.56802,0.0597 0.76936,-0.0706 l 0.74701,-0.48467 c 0.2014,-0.13051 0.35072,-0.0414 0.33178,0.19748 l -0.0708,0.88793 c -0.0181,0.23931 0.11804,0.55885 0.3046,0.71006 z"
       style="fill:#00ffcc;fill-rule:evenodd;stroke-width:0.28729409"
       id="path1750"
       inkscape:connector-curvature="0" />
    <path
       d="m -116.87428,191.71434 c 0.18642,0.15122 0.14801,0.32077 -0.0859,0.37673 l -0.86673,0.20798 c -0.23334,0.0561 -0.4948,0.28522 -0.58093,0.5093 l -0.31933,0.8314 c -0.0859,0.22406 -0.25905,0.23995 -0.38446,0.035 l -0.46507,-0.75939 c -0.12529,-0.20477 -0.42404,-0.38265 -0.66379,-0.3954 l -0.89026,-0.0475 c -0.23967,-0.0121 -0.30832,-0.17254 -0.15223,-0.35501 l 0.5786,-0.67742 c 0.15585,-0.1826 0.23281,-0.52169 0.17073,-0.75356 l -0.23005,-0.86076 c -0.0619,-0.23194 0.0686,-0.34643 0.29052,-0.25461 l 0.8236,0.34119 c 0.22175,0.0917 0.56804,0.0605 0.7693,-0.0706 l 0.74708,-0.48467 c 0.20142,-0.13071 0.35073,-0.0416 0.33171,0.19748 l -0.0708,0.88795 c -0.0181,0.2393 0.11804,0.55885 0.30452,0.70997 z"
       style="fill:#ff0000;fill-rule:evenodd;stroke-width:0.28729409"
       id="path1752"
       inkscape:connector-curvature="0" />
    <path
       d="m -152.41834,230.192 c 0.18662,0.15123 0.14801,0.32071 -0.0859,0.37674 l -0.86673,0.20797 c -0.23349,0.0561 -0.4948,0.28516 -0.58093,0.50922 l -0.31932,0.83146 c -0.0859,0.22409 -0.25914,0.23997 -0.38454,0.035 l -0.46508,-0.75932 c -0.12528,-0.20476 -0.4241,-0.38271 -0.66378,-0.3954 l -0.89012,-0.0475 c -0.23975,-0.0141 -0.30825,-0.17254 -0.15244,-0.35504 l 0.57868,-0.6774 c 0.15585,-0.18259 0.23281,-0.52168 0.17073,-0.75365 l -0.23013,-0.86068 c -0.0619,-0.23195 0.0686,-0.34649 0.29061,-0.25461 l 0.82359,0.34112 c 0.22175,0.0919 0.56804,0.0597 0.7693,-0.0706 l 0.74708,-0.48461 c 0.20142,-0.13071 0.35059,-0.0414 0.33171,0.19748 l -0.0708,0.88793 c -0.0181,0.23924 0.11825,0.55879 0.30461,0.70999 z"
       style="fill:#ff0066;fill-rule:evenodd;stroke-width:0.28729409"
       id="path1754"
       inkscape:connector-curvature="0" />
    <path
       d="m -147.4661,235.10136 c 0.0997,0.21836 -0.0101,0.35305 -0.24433,0.2993 l -0.86874,-0.19922 c -0.23398,-0.0536 -0.57003,0.0353 -0.74685,0.19765 l -0.65573,0.60268 c -0.17643,0.16258 -0.33889,0.0996 -0.3599,-0.13966 l -0.0787,-0.887 c -0.0213,-0.23915 -0.20968,-0.53128 -0.41873,-0.64934 l -0.77616,-0.4385 c -0.20928,-0.11744 -0.19933,-0.29164 0.0214,-0.38579 l 0.8196,-0.34932 c 0.22098,-0.0941 0.44056,-0.36368 0.48831,-0.59895 l 0.17678,-0.87318 c 0.0477,-0.23526 0.21555,-0.27981 0.37343,-0.0989 l 0.58588,0.67191 c 0.15771,0.18093 0.48219,0.30612 0.72054,0.27901 l 0.88458,-0.10174 c 0.23847,-0.0275 0.33247,0.11889 0.20932,0.32445 l -0.45837,0.76377 c -0.12265,0.20628 -0.14285,0.55303 -0.043,0.77144 z"
       style="fill:#66ff00;fill-rule:evenodd;stroke-width:0.28729409"
       id="path1756"
       inkscape:connector-curvature="0" />
    <path
       d="m -55.735849,264.93301 c 0.18642,0.15122 0.14801,0.32071 -0.0859,0.37673 l -0.86657,0.20798 c -0.23347,0.0561 -0.4948,0.28522 -0.58093,0.50922 l -0.31932,0.83148 c -0.0857,0.22406 -0.2592,0.23995 -0.38448,0.035 l -0.46506,-0.75933 c -0.12529,-0.20469 -0.42418,-0.38265 -0.66379,-0.39531 l -0.89026,-0.0475 c -0.23969,-0.0121 -0.30832,-0.17255 -0.15243,-0.35502 l 0.57874,-0.67748 c 0.15605,-0.1826 0.23283,-0.52163 0.17073,-0.75357 l -0.23005,-0.86068 c -0.0619,-0.23195 0.0686,-0.34651 0.29052,-0.25461 l 0.82354,0.3411 c 0.22181,0.0919 0.5681,0.0597 0.76936,-0.0706 l 0.74708,-0.48458 c 0.20142,-0.13072 0.35065,-0.0416 0.33171,0.19748 l -0.0706,0.88792 c -0.0181,0.23925 0.11805,0.55879 0.30455,0.71 z"
       style="fill:#2aff2a;fill-rule:evenodd;stroke-width:0.28729409"
       id="path1758"
       inkscape:connector-curvature="0" />
    <path
       sodipodi:nodetypes="cccccccccscscccccsccccsccccsccccccscccccccccscccccccccccscc"
       inkscape:connector-curvature="0"
       id="path1760"
       style="fill:#ffcc00;fill-rule:evenodd;stroke:#9c27b0;stroke-width:1.45766389;stroke-miterlimit:4;stroke-dasharray:none;stroke-opacity:1"
       d="m -103.83057,171.75274 c 8.282199,0 14.052064,7.91621 17.309421,23.74851 l 5.769866,30.40207 c 0.883717,7.54998 2.87858,20.41533 5.997037,38.62117 l 1.552933,13.76173 c 0,0.49238 -1.035318,1.19938 -3.118453,2.13371 -2.070637,0.94697 -3.143771,0.97219 -3.206899,0.10106 -0.07568,-0.88386 -0.113589,-1.8434 -0.113589,-2.90383 l -4.21693,-27.73811 c 0,-1.33831 -1.628736,-2.00742 -4.886005,-2.00742 -3.2827,0 -9.191379,-1.11104 -17.751471,-3.32053 h -0.22717 c -0.29044,0 -0.44193,0.51764 -0.44193,1.55295 l -3.98962,11.75421 7.3228,2.66396 2.22204,1.33832 c 1.868493,3.03011 1.50239,4.73452 -1.111,5.10076 -7.34803,-3.25739 -12.00686,-4.88612 -13.98906,-4.88612 h -0.65654 -2.85336 -3.37097 l -2.66397,0.89639 h -0.4419 c -0.3409,0 -0.56806,-0.37869 -0.65644,-1.11103 0,-2.51245 3.10576,-3.92649 9.31754,-4.21691 1.47713,-3.52244 2.22206,-6.0476 2.22206,-7.54996 1.12368,-2.82812 1.94427,-5.4921 2.43677,-7.99191 -1.50248,-0.59342 -3.28261,-0.88383 -5.32794,-0.88383 h -2.22215 c -2.95427,0.56819 -4.43151,1.6792 -4.43151,3.33317 l 0.44189,0.44191 h 0.21462 l 2.89128,-0.44191 c 1.08578,0 1.6792,0.73225 1.78011,2.20949 0.58086,0.25243 0.88386,0.77013 0.88386,1.5655 0,1.76758 -1.55296,2.65129 -4.65884,2.65129 -3.94046,-0.99381 -6.12292,-1.51461 -6.21165,-4.87333 0.98475,-4.59571 2.62244,-5.60519 4.21691,-6.88086 1.14704,-0.72409 2.71604,-1.54581 5.98436,-1.55294 l 7.55009,0.88372 c 1.0352,-2.22203 4.8102,-19.7461 11.31239,-52.59751 l 1.111028,-8.64847 c 0,-0.69433 -0.883828,-1.28774 -2.663968,-1.78013 h -0.65654 c -2.22204,1.57818 -3.33319,3.13113 -3.33319,4.65872 v 0.66922 l 0.21473,1.55296 -1.76755,0.6691 c -2.04532,-1.03536 -3.08067,-2.00741 -3.1059,-2.89128 1.69178,-5.61824 4.14111,-8.43381 7.3228,-8.43381 z m -1.78025,66.80119 10.213965,1.99486 c 4.115873,1.18684 7.512157,1.78022 10.201353,1.78022 v -0.22728 c -1.62862,-11.09777 -4.797646,-27.73809 -9.532166,-49.93354 0,-0.59343 -0.151485,-0.88385 -0.454572,-0.88385 -0.542845,0 -1.792807,5.92133 -3.762329,17.75137 z" />
    <path
       sodipodi:type="star"
       style="opacity:1;fill:#ffff00;fill-opacity:1;fill-rule:nonzero;stroke:none;stroke-width:3.27811861;stroke-linecap:round;stroke-linejoin:round;stroke-miterlimit:4;stroke-dasharray:none;stroke-dashoffset:0;stroke-opacity:1"
       id="path1764"
       sodipodi:sides="5"
       sodipodi:cx="102.92748"
       sodipodi:cy="258.21848"
       sodipodi:r1="8.2678204"
       sodipodi:r2="4.9606924"
       sodipodi:arg1="1.0098142"
       sodipodi:arg2="1.6381327"
       inkscape:flatsided="false"
       inkscape:rounded="0.25"
       inkscape:randomized="0"
       d="m 107.32611,265.21911 c -1.09182,0.68601 -3.44588,-1.96442 -4.73241,-2.05118 -1.28653,-0.0868 -3.975138,2.2236 -4.964967,1.39721 -0.989829,-0.8264 0.803443,-3.88427 0.488398,-5.13465 -0.315045,-1.25037 -3.343161,-3.09344 -2.863085,-4.2902 0.480075,-1.19675 3.942435,-0.43618 5.034254,-1.1222 1.09183,-0.68601 1.90895,-4.13546 3.19549,-4.0487 1.28653,0.0868 1.63311,3.61469 2.62294,4.44109 0.98983,0.82639 4.52296,0.53759 4.838,1.78797 0.31505,1.25037 -2.93311,2.67018 -3.41318,3.86694 -0.48008,1.19675 0.88639,4.46771 -0.20544,5.15372 z"
       inkscape:transform-center-x="-0.14841253"
       inkscape:transform-center-y="-0.54269473" />
    <path
       sodipodi:type="star"
       style="opacity:1;fill:#ffff00;fill-opacity:1;fill-rule:nonzero;stroke:none;stroke-width:2.5;stroke-linecap:round;stroke-linejoin:round;stroke-miterlimit:4;stroke-dasharray:none;stroke-dashoffset:0;stroke-opacity:1"
       id="path1766"
       sodipodi:sides="5"
       sodipodi:cx="114.12408"
       sodipodi:cy="266.79854"
       sodipodi:r1="3.4017859"
       sodipodi:r2="2.0410714"
       sodipodi:arg1="0.78539816"
       sodipodi:arg2="1.4137167"
       inkscape:flatsided="false"
       inkscape:rounded="0.25"
       inkscape:randomized="0"
       d="m 116.5295,269.20398 c -0.37515,0.37515 -1.56212,-0.47248 -2.08613,-0.38948 -0.52401,0.083 -1.39095,1.25593 -1.86367,1.01507 -0.47272,-0.24087 -0.0334,-1.63167 -0.27423,-2.10439 -0.24086,-0.47272 -1.62429,-0.93477 -1.5413,-1.45878 0.083,-0.52402 1.5415,-0.53595 1.91665,-0.9111 0.37515,-0.37515 0.38709,-1.83366 0.9111,-1.91665 0.52401,-0.083 0.98607,1.30043 1.45878,1.5413 0.47272,0.24086 1.86353,-0.19849 2.10439,0.27422 0.24086,0.47272 -0.93208,1.33966 -1.01507,1.86368 -0.083,0.52401 0.76463,1.71098 0.38948,2.08613 z"
       inkscape:transform-center-x="0.14997373"
       inkscape:transform-center-y="-0.14997378" />
    <path
       inkscape:transform-center-y="-0.14997378"
       inkscape:transform-center-x="0.14997373"
       d="m 17.639778,233.65712 c -0.375152,0.37515 -1.562119,-0.47248 -2.086132,-0.38948 -0.524013,0.083 -1.390954,1.25593 -1.863672,1.01507 -0.472719,-0.24087 -0.03337,-1.63167 -0.27423,-2.10439 -0.240862,-0.47272 -1.624292,-0.93477 -1.541296,-1.45878 0.083,-0.52402 1.541497,-0.53595 1.916649,-0.9111 0.375151,-0.37515 0.387086,-1.83366 0.911099,-1.91665 0.524012,-0.083 0.986064,1.30043 1.458783,1.5413 0.472719,0.24086 1.863524,-0.19849 2.104386,0.27423 0.240863,0.47271 -0.932075,1.33965 -1.01507,1.86367 -0.083,0.52401 0.764635,1.71098 0.389483,2.08613 z"
       inkscape:randomized="0"
       inkscape:rounded="0.25"
       inkscape:flatsided="false"
       sodipodi:arg2="1.4137167"
       sodipodi:arg1="0.78539816"
       sodipodi:r2="2.0410714"
       sodipodi:r1="3.4017859"
       sodipodi:cy="231.2517"
       sodipodi:cx="15.234352"
       sodipodi:sides="5"
       id="path1768"
       style="opacity:1;fill:#ffff00;fill-opacity:1;fill-rule:nonzero;stroke:none;stroke-width:2.5;stroke-linecap:round;stroke-linejoin:round;stroke-miterlimit:4;stroke-dasharray:none;stroke-dashoffset:0;stroke-opacity:1"
       sodipodi:type="star" />
    <path
       sodipodi:type="star"
       style="opacity:1;fill:#ffff00;fill-opacity:1;fill-rule:nonzero;stroke:none;stroke-width:2.5;stroke-linecap:round;stroke-linejoin:round;stroke-miterlimit:4;stroke-dasharray:none;stroke-dashoffset:0;stroke-opacity:1"
       id="path1770"
       sodipodi:sides="5"
       sodipodi:cx="25.657864"
       sodipodi:cy="237.13164"
       sodipodi:r1="3.4017859"
       sodipodi:r2="2.0410714"
       sodipodi:arg1="0.78539816"
       sodipodi:arg2="1.4137167"
       inkscape:flatsided="false"
       inkscape:rounded="0.25"
       inkscape:randomized="0"
       d="m 28.063289,239.53706 c -0.375151,0.37516 -1.562119,-0.47248 -2.086131,-0.38948 -0.524013,0.083 -1.390954,1.25593 -1.863673,1.01507 -0.472719,-0.24086 -0.03337,-1.63167 -0.274229,-2.10439 -0.240863,-0.47271 -1.624292,-0.93477 -1.541297,-1.45878 0.083,-0.52401 1.541497,-0.53595 1.916649,-0.9111 0.375152,-0.37515 0.387086,-1.83365 0.911099,-1.91665 0.524013,-0.083 0.986065,1.30044 1.458784,1.5413 0.472718,0.24086 1.863524,-0.19849 2.104386,0.27423 0.240862,0.47272 -0.932075,1.33966 -1.015071,1.86367 -0.083,0.52401 0.764635,1.71098 0.389483,2.08613 z"
       inkscape:transform-center-x="0.14997373"
       inkscape:transform-center-y="-0.14997378" />
    <path
       inkscape:transform-center-y="-0.23729605"
       inkscape:transform-center-x="0.23728643"
       d="m 34.896417,229.26492 c -0.593563,0.59357 -2.471574,-0.74755 -3.300664,-0.61623 -0.829089,0.13131 -2.200757,1.98712 -2.948689,1.60603 -0.747933,-0.38109 -0.05279,-2.58161 -0.433884,-3.32954 -0.381091,-0.74793 -2.569943,-1.47899 -2.438628,-2.30808 0.131314,-0.82909 2.438945,-0.84797 3.032508,-1.44153 0.593562,-0.59357 0.612445,-2.9012 1.441534,-3.03251 0.82909,-0.13132 1.560145,2.05754 2.308077,2.43863 0.747933,0.38109 2.948455,-0.31405 3.329546,0.43388 0.38109,0.74793 -1.474724,2.1196 -1.606038,2.94869 -0.131315,0.82909 1.2098,2.7071 0.616238,3.30066 z"
       inkscape:randomized="0"
       inkscape:rounded="0.25"
       inkscape:flatsided="false"
       sodipodi:arg2="1.4137167"
       sodipodi:arg1="0.78539816"
       sodipodi:r2="3.2293689"
       sodipodi:r1="5.3822818"
       sodipodi:cy="225.45908"
       sodipodi:cx="31.090569"
       sodipodi:sides="5"
       id="path1772"
       style="opacity:1;fill:#ffff00;fill-opacity:1;fill-rule:nonzero;stroke:none;stroke-width:3.95548248;stroke-linecap:round;stroke-linejoin:round;stroke-miterlimit:4;stroke-dasharray:none;stroke-dashoffset:0;stroke-opacity:1"
       sodipodi:type="star" />
    <path
       sodipodi:type="star"
       style="opacity:1;fill:#ffff00;fill-opacity:1;fill-rule:nonzero;stroke:none;stroke-width:5.09907579;stroke-linecap:round;stroke-linejoin:round;stroke-miterlimit:4;stroke-dasharray:none;stroke-dashoffset:0;stroke-opacity:1"
       id="path1774"
       sodipodi:sides="5"
       sodipodi:cx="103.72286"
       sodipodi:cy="205.34881"
       sodipodi:r1="6.9383855"
       sodipodi:r2="4.1630311"
       sodipodi:arg1="0.78539816"
       sodipodi:arg2="1.4137167"
       inkscape:flatsided="false"
       inkscape:rounded="0.25"
       inkscape:randomized="0"
       d="m 108.62904,210.255 c -0.76517,0.76517 -3.18614,-0.96369 -4.25494,-0.79441 -1.06879,0.16928 -2.83703,2.56164 -3.8012,2.07037 -0.96417,-0.49127 -0.0681,-3.328 -0.55933,-4.29217 -0.491266,-0.96417 -3.31295,-1.90658 -3.14367,-2.97538 0.16928,-1.06879 3.14408,-1.09313 3.90925,-1.8583 0.76518,-0.76517 0.78952,-3.73998 1.85831,-3.90926 1.06879,-0.16928 2.01121,2.65241 2.97538,3.14368 0.96417,0.49127 3.8009,-0.40485 4.29217,0.55932 0.49127,0.96418 -1.90109,2.73241 -2.07037,3.80121 -0.16928,1.06879 1.55957,3.48976 0.7944,4.25494 z"
       inkscape:transform-center-x="0.30588558"
       inkscape:transform-center-y="-0.30591323" />
    <path
       inkscape:transform-center-y="-0.14997378"
       inkscape:transform-center-x="0.14997373"
       d="m 97.286102,220.02638 c -0.375152,0.37515 -1.562119,-0.47248 -2.086132,-0.38948 -0.524013,0.083 -1.390953,1.25593 -1.863672,1.01507 -0.472719,-0.24086 -0.03337,-1.63167 -0.27423,-2.10439 -0.240862,-0.47272 -1.624291,-0.93477 -1.541296,-1.45878 0.083,-0.52401 1.541497,-0.53595 1.916649,-0.9111 0.375152,-0.37515 0.387086,-1.83365 0.911099,-1.91665 0.524013,-0.083 0.986064,1.30044 1.458783,1.5413 0.472719,0.24086 1.863524,-0.19849 2.104387,0.27423 0.240862,0.47272 -0.932076,1.33966 -1.015071,1.86367 -0.083,0.52401 0.764635,1.71098 0.389483,2.08613 z"
       inkscape:randomized="0"
       inkscape:rounded="0.25"
       inkscape:flatsided="false"
       sodipodi:arg2="1.4137167"
       sodipodi:arg1="0.78539816"
       sodipodi:r2="2.0410714"
       sodipodi:r1="3.4017859"
       sodipodi:cy="217.62096"
       sodipodi:cx="94.880675"
       sodipodi:sides="5"
       id="path1776"
       style="opacity:1;fill:#ffff00;fill-opacity:1;fill-rule:nonzero;stroke:none;stroke-width:2.5;stroke-linecap:round;stroke-linejoin:round;stroke-miterlimit:4;stroke-dasharray:none;stroke-dashoffset:0;stroke-opacity:1"
       sodipodi:type="star" />
  </g>
</svg>
