<?xml version="1.0" encoding="UTF-8" standalone="no"?>
<!-- Created with Inkscape (http://www.inkscape.org/) -->

<svg
   xmlns:dc="http://purl.org/dc/elements/1.1/"
   xmlns:cc="http://creativecommons.org/ns#"
   xmlns:rdf="http://www.w3.org/1999/02/22-rdf-syntax-ns#"
   xmlns:svg="http://www.w3.org/2000/svg"
   xmlns="http://www.w3.org/2000/svg"
   xmlns:sodipodi="http://sodipodi.sourceforge.net/DTD/sodipodi-0.dtd"
   xmlns:inkscape="http://www.inkscape.org/namespaces/inkscape"
   width="125mm"
   height="130mm"
   viewBox="0 0 125 130"
   version="1.1"
   id="svg855"
   inkscape:export-filename="/home/kona/bitmap.png"
   inkscape:export-xdpi="200"
   inkscape:export-ydpi="200"
   inkscape:version="0.92.2 2405546, 2018-03-11"
   sodipodi:docname="topNavbar.svg">
  <defs
     id="defs849" />
  <sodipodi:namedview
     id="base"
     pagecolor="#ffffff"
     bordercolor="#666666"
     borderopacity="1.0"
     inkscape:pageopacity="0.0"
     inkscape:pageshadow="2"
     inkscape:zoom="0.7"
     inkscape:cx="305.63568"
     inkscape:cy="289.64457"
     inkscape:document-units="mm"
     inkscape:current-layer="layer1"
     showgrid="false"
     showborder="true"
     inkscape:showpageshadow="false"
     borderlayer="true"
     inkscape:window-width="1362"
     inkscape:window-height="724"
     inkscape:window-x="0"
     inkscape:window-y="20"
     inkscape:window-maximized="0" />
  <metadata
     id="metadata852">
    <rdf:RDF>
      <cc:Work
         rdf:about="">
        <dc:format>image/svg+xml</dc:format>
        <dc:type
           rdf:resource="http://purl.org/dc/dcmitype/StillImage" />
        <dc:title />
      </cc:Work>
    </rdf:RDF>
  </metadata>
  <g
     inkscape:label="Layer 1"
     inkscape:groupmode="layer"
     id="layer1"
     transform="translate(0,-167)">
    <path
       inkscape:connector-curvature="0"
       id="path7417-5"
       style="fill:#d42aff;fill-rule:evenodd;stroke-width:1.44587147;stroke:#660080"
       d="m 44.831503,174.26564 c 1.060671,-6.52567 5.637905,-7.92754 10.171182,-3.1162 L 71.8334,189.01105 c 4.533629,4.8105 13.587882,7.92079 20.120319,6.9108 l 24.237621,-3.7494 c 6.53213,-1.0101 9.2801,2.9071 6.10329,8.70466 l -11.77928,21.5064 c -3.17571,5.7963 -3.33781,15.37047 -0.36265,21.27188 l 11.05657,21.91709 c 2.97602,5.9014 0.10012,9.72748 -6.39881,8.49912 l -24.106832,-4.55526 c -6.496709,-1.22737 -15.651365,1.57775 -20.344238,6.23297 l -17.417726,17.27716 c -4.693612,4.65636 -9.21959,3.10015 -10.060139,-3.45566 L 39.76058,265.2221 C 38.92045,258.66548 33.4224,250.82651 27.54449,247.8037 L 5.73889,236.58636 c -5.87677,-3.02394 -5.797,-7.80664 0.18061,-10.62938 l 22.17983,-10.47232 c 5.9768,-2.82305 11.73576,-10.47086 12.795419,-16.99589 z" />
    <path
       inkscape:connector-curvature="0"
       id="path7423-8"
       style="fill:#55ffdd;fill-rule:evenodd;stroke-width:0.28729409"
       d="m 116.47989,258.54803 c 0.43934,0.35619 0.34877,0.75553 -0.20112,0.88749 l -2.04148,0.48991 c -0.54982,0.13192 -1.16572,0.67181 -1.36845,1.19961 l -0.75227,1.95858 c -0.20272,0.5278 -0.61035,0.56526 -0.90556,0.083 l -1.09562,-1.78885 c -0.29528,-0.48219 -0.999,-0.90126 -1.56374,-0.93122 l -2.09695,-0.11121 c -0.56468,-0.03 -0.72624,-0.40648 -0.35874,-0.83634 l 1.36313,-1.59582 c 0.36734,-0.43002 0.54835,-1.22882 0.40231,-1.77515 l -0.54194,-2.02749 c -0.14599,-0.54632 0.16189,-0.81617 0.68426,-0.59981 l 1.94005,0.80363 c 0.52241,0.21642 1.33815,0.14157 1.81239,-0.16631 l 1.75983,-1.14159 c 0.47441,-0.30766 0.82601,-0.0983 0.78133,0.46536 l -0.16571,2.09162 c -0.0444,0.56373 0.27814,1.31634 0.7175,1.67247 z" />
    <path
       inkscape:connector-curvature="0"
       id="path7481-7"
       style="fill:#ffff00;fill-rule:evenodd;stroke-width:0.28729409"
       d="m 16.72852,226.9733 c 0.18662,0.15122 0.14801,0.32071 -0.0857,0.37676 l -0.86666,0.20789 c -0.23341,0.0561 -0.49488,0.28522 -0.58093,0.5093 l -0.3194,0.83146 c -0.0857,0.224 -0.25913,0.23997 -0.3844,0.035 l -0.46506,-0.75938 c -0.12548,-0.2047 -0.42411,-0.38265 -0.66378,-0.39534 l -0.89028,-0.0475 c -0.23967,-0.0121 -0.30824,-0.17254 -0.15243,-0.35502 l 0.57876,-0.67742 c 0.15585,-0.18259 0.23281,-0.52169 0.17073,-0.75357 l -0.23004,-0.86074 c -0.0619,-0.23197 0.0686,-0.34651 0.29047,-0.25461 l 0.82357,0.34118 c 0.22183,0.0917 0.56804,0.0597 0.76946,-0.0708 l 0.747,-0.48467 c 0.20134,-0.13071 0.35066,-0.0416 0.33163,0.19748 l -0.0708,0.88801 c -0.0181,0.2393 0.11804,0.55877 0.30468,0.70997 z" />
    <path
       inkscape:connector-curvature="0"
       id="path7483-3"
       style="fill:#ffff00;fill-rule:evenodd;stroke-width:0.28729409"
       d="m 116.19826,202.61762 c 0.43926,0.35621 0.34869,0.75561 -0.20119,0.88751 l -2.04149,0.48991 c -0.54982,0.13192 -1.16572,0.67181 -1.36845,1.19961 l -0.75227,1.95855 c -0.20286,0.52782 -0.61037,0.56527 -0.9057,0.0831 l -1.09548,-1.78877 c -0.29527,-0.48219 -0.99906,-0.90136 -1.56374,-0.9313 l -2.09695,-0.11121 c -0.56454,-0.0298 -0.72624,-0.4064 -0.3589,-0.83635 l 1.36321,-1.59579 c 0.36734,-0.43003 0.54843,-1.22883 0.40239,-1.77515 l -0.54194,-2.02743 c -0.14599,-0.54638 0.16189,-0.81623 0.68426,-0.59987 l 1.94005,0.80362 c 0.52241,0.21643 1.33815,0.14158 1.8124,-0.1661 l 1.75982,-1.14167 c 0.47441,-0.30766 0.82601,-0.0983 0.78133,0.46536 l -0.16571,2.09161 c -0.0444,0.56374 0.27814,1.31641 0.71748,1.67253 z" />
    <path
       inkscape:connector-curvature="0"
       id="path7487-5"
       style="fill:#ff0000;fill-rule:evenodd;stroke-width:0.37057126"
       d="m 108.27409,213.79082 c 0.14801,0.27196 0.0189,0.45522 -0.28733,0.40717 l -1.13567,-0.17779 c -0.30606,-0.0478 -0.73042,0.0969 -0.94309,0.32192 l -0.7895,0.83463 c -0.21228,0.22503 -0.42683,0.1588 -0.47568,-0.14722 l -0.18147,-1.13421 c -0.0488,-0.30567 -0.31775,-0.66475 -0.59738,-0.79763 l -1.03837,-0.49415 c -0.27981,-0.13217 -0.28281,-0.35725 -0.007,-0.4982 l 1.02303,-0.5236 c 0.27559,-0.14119 0.53393,-0.50772 0.57416,-0.81472 l 0.14848,-1.13952 c 0.0402,-0.30704 0.2521,-0.37955 0.47152,-0.16092 l 0.8146,0.81152 c 0.21946,0.21863 0.64818,0.35035 0.95234,0.29387 l 1.12913,-0.2109 c 0.30418,-0.0567 0.43845,0.12291 0.29845,0.39875 l -0.52076,1.02416 c -0.13916,0.27643 -0.13356,0.7245 0.0144,0.99643 z" />
    <path
       inkscape:connector-curvature="0"
       id="path7495-4"
       style="fill:#00ffcc;fill-rule:evenodd;stroke-width:0.28729409"
       d="m 46.3242,200.11152 c 0.18661,0.15123 0.148,0.32077 -0.0857,0.37674 l -0.86667,0.20798 c -0.2334,0.0561 -0.49478,0.28521 -0.58094,0.5093 l -0.31932,0.83145 c -0.0857,0.22409 -0.25905,0.23997 -0.38446,0.035 l -0.46506,-0.75939 c -0.12528,-0.2047 -0.42411,-0.38265 -0.66378,-0.39532 l -0.8902,-0.0475 c -0.23975,-0.0121 -0.30824,-0.17254 -0.15223,-0.35502 l 0.5786,-0.67749 c 0.15605,-0.1826 0.23283,-0.52169 0.17073,-0.75356 l -0.23006,-0.86068 c -0.0619,-0.23194 0.0686,-0.34651 0.29055,-0.25469 l 0.8236,0.34119 c 0.22173,0.0919 0.56802,0.0597 0.76936,-0.0706 l 0.74701,-0.48467 c 0.2014,-0.13051 0.35072,-0.0414 0.33178,0.19748 l -0.0708,0.88793 c -0.0181,0.23931 0.11804,0.55885 0.3046,0.71006 z" />
    <path
       inkscape:connector-curvature="0"
       id="path7497-8"
       style="fill:#ff0000;fill-rule:evenodd;stroke-width:0.28729409"
       d="m 47.763752,193.8525 c 0.18642,0.15122 0.14801,0.32077 -0.0859,0.37673 l -0.86673,0.20798 c -0.23334,0.0561 -0.4948,0.28522 -0.58093,0.5093 l -0.31933,0.8314 c -0.0859,0.22406 -0.25905,0.23995 -0.38446,0.035 l -0.46507,-0.75939 c -0.12529,-0.20477 -0.42404,-0.38265 -0.66379,-0.3954 l -0.89026,-0.0475 c -0.23967,-0.0121 -0.30832,-0.17254 -0.15223,-0.35501 l 0.5786,-0.67742 c 0.15585,-0.1826 0.23281,-0.52169 0.17073,-0.75356 l -0.23005,-0.86076 c -0.0619,-0.23194 0.0686,-0.34643 0.29052,-0.25461 l 0.8236,0.34119 c 0.22175,0.0917 0.56804,0.0605 0.7693,-0.0706 l 0.74708,-0.48467 c 0.20142,-0.13071 0.35073,-0.0416 0.33171,0.19748 l -0.0708,0.88795 c -0.0181,0.2393 0.11804,0.55885 0.30452,0.70997 z" />
    <path
       inkscape:connector-curvature="0"
       id="path7501-2"
       style="fill:#ff0066;fill-rule:evenodd;stroke-width:0.28729409"
       d="m 12.21969,232.33016 c 0.18662,0.15123 0.14801,0.32071 -0.0859,0.37674 l -0.86673,0.20797 c -0.23349,0.0561 -0.4948,0.28516 -0.58093,0.50922 l -0.31932,0.83146 c -0.0859,0.22409 -0.25914,0.23997 -0.38454,0.035 l -0.46508,-0.75932 c -0.12528,-0.20476 -0.4241,-0.38271 -0.66378,-0.3954 l -0.89012,-0.0475 c -0.23975,-0.0141 -0.30825,-0.17254 -0.15244,-0.35504 l 0.57868,-0.6774 c 0.15585,-0.18259 0.23281,-0.52168 0.17073,-0.75365 l -0.23013,-0.86068 c -0.0619,-0.23195 0.0686,-0.34649 0.29061,-0.25461 l 0.82359,0.34112 c 0.22175,0.0919 0.56804,0.0597 0.7693,-0.0706 l 0.74708,-0.48461 c 0.20142,-0.13071 0.35059,-0.0414 0.33171,0.19748 l -0.0708,0.88793 c -0.0181,0.23924 0.11825,0.55879 0.30461,0.70999 z" />
    <path
       inkscape:connector-curvature="0"
       id="path7505-3"
       style="fill:#66ff00;fill-rule:evenodd;stroke-width:0.28729409"
       d="m 17.17193,237.23952 c 0.0997,0.21836 -0.0101,0.35305 -0.24433,0.2993 l -0.86874,-0.19922 c -0.23398,-0.0536 -0.57003,0.0353 -0.74685,0.19765 l -0.65573,0.60268 c -0.17643,0.16258 -0.33889,0.0996 -0.3599,-0.13966 l -0.0787,-0.887 c -0.0213,-0.23915 -0.20968,-0.53128 -0.41873,-0.64934 l -0.77616,-0.4385 c -0.20928,-0.11744 -0.19933,-0.29164 0.0214,-0.38579 l 0.8196,-0.34932 c 0.22098,-0.0941 0.44056,-0.36368 0.48831,-0.59895 l 0.17678,-0.87318 c 0.0477,-0.23526 0.21555,-0.27981 0.37343,-0.0989 l 0.58588,0.67191 c 0.15771,0.18093 0.48219,0.30612 0.72054,0.27901 l 0.88458,-0.10174 c 0.23847,-0.0275 0.33247,0.11889 0.20932,0.32445 l -0.45837,0.76377 c -0.12265,0.20628 -0.14285,0.55303 -0.043,0.77144 z" />
    <path
       inkscape:connector-curvature="0"
       id="path7507-9"
       style="fill:#2aff2a;fill-rule:evenodd;stroke-width:0.28729409"
       d="m 108.90218,267.07117 c 0.18642,0.15122 0.14801,0.32071 -0.0859,0.37673 l -0.86657,0.20798 c -0.23347,0.0561 -0.4948,0.28522 -0.58093,0.50922 l -0.31932,0.83148 c -0.0857,0.22406 -0.2592,0.23995 -0.38448,0.035 l -0.46506,-0.75933 c -0.12529,-0.20469 -0.42418,-0.38265 -0.66379,-0.39531 l -0.89026,-0.0475 c -0.23969,-0.0121 -0.30832,-0.17255 -0.15243,-0.35502 l 0.57874,-0.67748 c 0.15605,-0.1826 0.23283,-0.52163 0.17073,-0.75357 l -0.23005,-0.86068 c -0.0619,-0.23195 0.0686,-0.34651 0.29052,-0.25461 l 0.82354,0.3411 c 0.22181,0.0919 0.5681,0.0597 0.76936,-0.0706 l 0.74708,-0.48458 c 0.20142,-0.13072 0.35065,-0.0416 0.33171,0.19748 l -0.0706,0.88792 c -0.0181,0.23925 0.11805,0.55879 0.30455,0.71 z" />
    <path
       d="m 60.807455,173.8909 c 8.282203,0 14.052068,7.91621 17.309425,23.74851 l 5.769866,30.40207 c 0.883717,7.54998 2.87858,20.41533 5.997037,38.62117 l 1.552933,13.76173 c 0,0.49238 -1.035318,1.19938 -3.118453,2.13371 -2.070637,0.94697 -3.143771,0.97219 -3.206899,0.10106 -0.07568,-0.88386 -0.113589,-1.8434 -0.113589,-2.90383 l -4.21693,-27.73811 c 0,-1.33831 -1.628736,-2.00742 -4.886005,-2.00742 -3.2827,0 -9.191379,-1.11104 -17.75147,-3.32053 h -0.227171 c -0.290443,0 -0.441931,0.51764 -0.441931,1.55295 l -3.989615,11.75421 7.3228,2.66396 2.222037,1.33832 c 1.868492,3.03011 1.502391,4.73452 -1.111006,5.10076 -7.348027,-3.25739 -12.00686,-4.88612 -13.989052,-4.88612 h -0.656547 -2.853354 -3.370973 l -2.663968,0.89639 h -0.4419 c -0.3409,0 -0.56806,-0.37869 -0.65644,-1.11103 0,-2.51245 3.10576,-3.92649 9.317534,-4.21691 1.477132,-3.52244 2.222064,-6.0476 2.222064,-7.54996 1.123676,-2.82812 1.944266,-5.4921 2.436768,-7.99191 -1.502478,-0.59342 -3.282612,-0.88383 -5.327935,-0.88383 h -2.222152 c -2.954268,0.56819 -4.431509,1.6792 -4.431509,3.33317 l 0.44189,0.44191 h 0.21462 l 2.891282,-0.44191 c 1.085774,0 1.679192,0.73225 1.780106,2.20949 0.58086,0.25243 0.883861,0.77013 0.883861,1.5655 0,1.76758 -1.552963,2.65129 -4.658837,2.65129 -3.940462,-0.99381 -6.122922,-1.51461 -6.211652,-4.87333 0.98475,-4.59571 2.62244,-5.60519 4.21691,-6.88086 1.14704,-0.72409 2.716034,-1.54581 5.984362,-1.55294 l 7.550085,0.88372 c 1.035206,-2.22203 4.810206,-19.7461 11.312388,-52.59751 l 1.111032,-8.64847 c 0,-0.69433 -0.883831,-1.28774 -2.663966,-1.78013 h -0.656546 c -2.222036,1.57818 -3.333185,3.13113 -3.333185,4.65872 v 0.66922 l 0.214731,1.55296 -1.767551,0.6691 c -2.045322,-1.03536 -3.080668,-2.00741 -3.105897,-2.89128 1.691777,-5.61824 4.141103,-8.43381 7.3228,-8.43381 z m -1.780249,66.80119 10.213968,1.99486 c 4.115873,1.18684 7.512157,1.78022 10.201353,1.78022 v -0.22728 c -1.62862,-11.09777 -4.797646,-27.73809 -9.532166,-49.93354 0,-0.59343 -0.151485,-0.88385 -0.454572,-0.88385 -0.542845,0 -1.792807,5.92133 -3.762329,17.75137 z"
       style="fill:#ffcc00;fill-rule:evenodd;stroke:#660080;stroke-width:1.45766389;stroke-miterlimit:4;stroke-dasharray:none"
       id="path7509-8"
       inkscape:connector-curvature="0"
       sodipodi:nodetypes="cccccccccscscccccsccccsccccsccccccscccccccccscccccccccccscc" />
  </g>
</svg>
