<?xml version="1.0" encoding="UTF-8" standalone="no"?>
<!-- Created with Inkscape (http://www.inkscape.org/) -->

<svg
   xmlns:dc="http://purl.org/dc/elements/1.1/"
   xmlns:cc="http://creativecommons.org/ns#"
   xmlns:rdf="http://www.w3.org/1999/02/22-rdf-syntax-ns#"
   xmlns:svg="http://www.w3.org/2000/svg"
   xmlns="http://www.w3.org/2000/svg"
   xmlns:sodipodi="http://sodipodi.sourceforge.net/DTD/sodipodi-0.dtd"
   xmlns:inkscape="http://www.inkscape.org/namespaces/inkscape"
   width="125mm"
   height="130mm"
   viewBox="0 0 125 130"
   version="1.1"
   id="svg855"
   inkscape:export-filename="/home/kona/bitmap.png"
   inkscape:export-xdpi="200"
   inkscape:export-ydpi="200"
   inkscape:version="0.92.2 2405546, 2018-03-11"
   sodipodi:docname="topNavbar.svg">
  <defs
     id="defs849" />
  <sodipodi:namedview
     id="base"
     pagecolor="#ffffff"
     bordercolor="#666666"
     borderopacity="1.0"
     inkscape:pageopacity="0.0"
     inkscape:pageshadow="2"
     inkscape:zoom="0.7"
     inkscape:cx="-129.46659"
     inkscape:cy="279.39854"
     inkscape:document-units="mm"
     inkscape:current-layer="layer1"
     showgrid="false"
     showborder="true"
     inkscape:showpageshadow="false"
     borderlayer="true"
     inkscape:window-width="1366"
     inkscape:window-height="768"
     inkscape:window-x="0"
     inkscape:window-y="0"
     inkscape:window-maximized="0" />
  <metadata
     id="metadata852">
    <rdf:RDF>
      <cc:Work
         rdf:about="">
        <dc:format>image/svg+xml</dc:format>
        <dc:type
           rdf:resource="http://purl.org/dc/dcmitype/StillImage" />
        <dc:title />
      </cc:Work>
    </rdf:RDF>
  </metadata>
  <g
     inkscape:label="Layer 1"
     inkscape:groupmode="layer"
     id="layer1"
     transform="translate(0,-167)">
    <path
       inkscape:connector-curvature="0"
       id="path7417-5"
       style="fill:#cc00ff;fill-rule:evenodd;stroke-width:2.5;stroke:#ffff00;stroke-miterlimit:4;stroke-dasharray:none;fill-opacity:1"
       d="m 44.831503,174.26564 c 1.060671,-6.52567 5.637905,-7.92754 10.171182,-3.1162 L 71.8334,189.01105 c 4.533629,4.8105 13.587882,7.92079 20.120319,6.9108 l 24.237621,-3.7494 c 6.53213,-1.0101 9.2801,2.9071 6.10329,8.70466 l -11.77928,21.5064 c -3.17571,5.7963 -3.33781,15.37047 -0.36265,21.27188 l 11.05657,21.91709 c 2.97602,5.9014 0.10012,9.72748 -6.39881,8.49912 l -24.106832,-4.55526 c -6.496709,-1.22737 -15.651365,1.57775 -20.344238,6.23297 l -17.417726,17.27716 c -4.693612,4.65636 -9.21959,3.10015 -10.060139,-3.45566 L 39.76058,265.2221 C 38.92045,258.66548 33.4224,250.82651 27.54449,247.8037 L 5.73889,236.58636 c -5.87677,-3.02394 -5.797,-7.80664 0.18061,-10.62938 l 22.17983,-10.47232 c 5.9768,-2.82305 11.73576,-10.47086 12.795419,-16.99589 z" />
    <path
       d="m 60.278973,177.2998 c 8.282203,0 14.052068,7.91621 17.309425,23.74851 l 5.769866,30.40207 c 0.883717,7.54998 2.87858,20.41533 5.997037,38.62117 l 1.552933,13.76173 c 0,0.49238 -1.035318,1.19938 -3.118453,2.13371 -2.070637,0.94697 -3.143771,0.97219 -3.206899,0.10106 -0.07568,-0.88386 -0.113589,-1.8434 -0.113589,-2.90383 l -4.21693,-27.73811 c 0,-1.33831 -1.628736,-2.00742 -4.886005,-2.00742 -3.2827,0 -9.191379,-1.11104 -17.75147,-3.32053 h -0.227171 c -0.290443,0 -0.441931,0.51764 -0.441931,1.55295 l -3.989615,11.75421 7.3228,2.66396 2.222037,1.33832 c 1.868492,3.03011 1.502391,4.73452 -1.111006,5.10076 -7.348027,-3.25739 -12.00686,-4.88612 -13.989052,-4.88612 h -0.656547 -2.853354 -3.370973 l -2.663968,0.89639 h -0.4419 c -0.3409,0 -0.56806,-0.37869 -0.65644,-1.11103 0,-2.51245 3.10576,-3.92649 9.317534,-4.21691 1.477132,-3.52244 2.222064,-6.0476 2.222064,-7.54996 1.123676,-2.82812 1.944266,-5.4921 2.436768,-7.99191 -1.502478,-0.59342 -3.282612,-0.88383 -5.327935,-0.88383 h -2.222152 c -2.954268,0.56819 -4.431509,1.6792 -4.431509,3.33317 l 0.44189,0.44191 h 0.21462 l 2.891282,-0.44191 c 1.085774,0 1.679192,0.73225 1.780106,2.20949 0.58086,0.25243 0.883861,0.77013 0.883861,1.5655 0,1.76758 -1.552963,2.65129 -4.658837,2.65129 -3.940462,-0.99381 -6.122922,-1.51461 -6.211652,-4.87333 0.98475,-4.59571 2.62244,-5.60519 4.21691,-6.88086 1.14704,-0.72409 2.716034,-1.54581 5.984362,-1.55294 l 7.550085,0.88372 c 1.035206,-2.22203 4.810206,-19.7461 11.312388,-52.59751 l 1.111032,-8.64847 c 0,-0.69433 -0.883831,-1.28774 -2.663966,-1.78013 h -0.656546 c -2.222036,1.57818 -3.333185,3.13113 -3.333185,4.65872 v 0.66922 l 0.214731,1.55296 -1.767551,0.6691 c -2.045322,-1.03536 -3.080668,-2.00741 -3.105897,-2.89128 1.691777,-5.61824 4.141103,-8.43381 7.3228,-8.43381 z m -1.780249,66.80119 10.213968,1.99486 c 4.115873,1.18684 7.512157,1.78022 10.201353,1.78022 v -0.22728 c -1.62862,-11.09777 -4.797646,-27.73809 -9.532166,-49.93354 0,-0.59343 -0.151485,-0.88385 -0.454572,-0.88385 -0.542845,0 -1.792807,5.92133 -3.762329,17.75137 z"
       style="fill:#ffff00;fill-rule:evenodd;stroke:#9c27b0;stroke-width:1.45766389;stroke-miterlimit:4;stroke-dasharray:none;stroke-opacity:1"
       id="path7509-8"
       inkscape:connector-curvature="0"
       sodipodi:nodetypes="cccccccccscscccccsccccsccccsccccccscccccccccscccccccccccscc" />
    <path
       sodipodi:type="star"
       style="opacity:1;fill:#ffff00;fill-opacity:1;fill-rule:nonzero;stroke:none;stroke-width:3.27811861;stroke-linecap:round;stroke-linejoin:round;stroke-miterlimit:4;stroke-dasharray:none;stroke-dashoffset:0;stroke-opacity:1"
       id="path1764"
       sodipodi:sides="5"
       sodipodi:cx="102.92748"
       sodipodi:cy="258.21848"
       sodipodi:r1="8.2678204"
       sodipodi:r2="4.9606924"
       sodipodi:arg1="1.0098142"
       sodipodi:arg2="1.6381327"
       inkscape:flatsided="false"
       inkscape:rounded="0.25"
       inkscape:randomized="0"
       d="m 107.32611,265.21911 c -1.09182,0.68601 -3.44588,-1.96442 -4.73241,-2.05118 -1.28653,-0.0868 -3.975138,2.2236 -4.964967,1.39721 -0.989829,-0.8264 0.803443,-3.88427 0.488398,-5.13465 -0.315045,-1.25037 -3.343161,-3.09344 -2.863085,-4.2902 0.480075,-1.19675 3.942435,-0.43618 5.034254,-1.1222 1.09183,-0.68601 1.90895,-4.13546 3.19549,-4.0487 1.28653,0.0868 1.63311,3.61469 2.62294,4.44109 0.98983,0.82639 4.52296,0.53759 4.838,1.78797 0.31505,1.25037 -2.93311,2.67018 -3.41318,3.86694 -0.48008,1.19675 0.88639,4.46771 -0.20544,5.15372 z"
       inkscape:transform-center-x="-0.14841253"
       inkscape:transform-center-y="-0.54269473" />
    <path
       sodipodi:type="star"
       style="opacity:1;fill:#ffff00;fill-opacity:1;fill-rule:nonzero;stroke:none;stroke-width:2.5;stroke-linecap:round;stroke-linejoin:round;stroke-miterlimit:4;stroke-dasharray:none;stroke-dashoffset:0;stroke-opacity:1"
       id="path1766"
       sodipodi:sides="5"
       sodipodi:cx="114.12408"
       sodipodi:cy="266.79854"
       sodipodi:r1="3.4017859"
       sodipodi:r2="2.0410714"
       sodipodi:arg1="0.78539816"
       sodipodi:arg2="1.4137167"
       inkscape:flatsided="false"
       inkscape:rounded="0.25"
       inkscape:randomized="0"
       d="m 116.5295,269.20398 c -0.37515,0.37515 -1.56212,-0.47248 -2.08613,-0.38948 -0.52401,0.083 -1.39095,1.25593 -1.86367,1.01507 -0.47272,-0.24087 -0.0334,-1.63167 -0.27423,-2.10439 -0.24086,-0.47272 -1.62429,-0.93477 -1.5413,-1.45878 0.083,-0.52402 1.5415,-0.53595 1.91665,-0.9111 0.37515,-0.37515 0.38709,-1.83366 0.9111,-1.91665 0.52401,-0.083 0.98607,1.30043 1.45878,1.5413 0.47272,0.24086 1.86353,-0.19849 2.10439,0.27422 0.24086,0.47272 -0.93208,1.33966 -1.01507,1.86368 -0.083,0.52401 0.76463,1.71098 0.38948,2.08613 z"
       inkscape:transform-center-x="0.14997373"
       inkscape:transform-center-y="-0.14997378" />
    <path
       inkscape:transform-center-y="-0.14997378"
       inkscape:transform-center-x="0.14997373"
       d="m 17.639778,233.65712 c -0.375152,0.37515 -1.562119,-0.47248 -2.086132,-0.38948 -0.524013,0.083 -1.390954,1.25593 -1.863672,1.01507 -0.472719,-0.24087 -0.03337,-1.63167 -0.27423,-2.10439 -0.240862,-0.47272 -1.624292,-0.93477 -1.541296,-1.45878 0.083,-0.52402 1.541497,-0.53595 1.916649,-0.9111 0.375151,-0.37515 0.387086,-1.83366 0.911099,-1.91665 0.524012,-0.083 0.986064,1.30043 1.458783,1.5413 0.472719,0.24086 1.863524,-0.19849 2.104386,0.27423 0.240863,0.47271 -0.932075,1.33965 -1.01507,1.86367 -0.083,0.52401 0.764635,1.71098 0.389483,2.08613 z"
       inkscape:randomized="0"
       inkscape:rounded="0.25"
       inkscape:flatsided="false"
       sodipodi:arg2="1.4137167"
       sodipodi:arg1="0.78539816"
       sodipodi:r2="2.0410714"
       sodipodi:r1="3.4017859"
       sodipodi:cy="231.2517"
       sodipodi:cx="15.234352"
       sodipodi:sides="5"
       id="path1768"
       style="opacity:1;fill:#ffff00;fill-opacity:1;fill-rule:nonzero;stroke:none;stroke-width:2.5;stroke-linecap:round;stroke-linejoin:round;stroke-miterlimit:4;stroke-dasharray:none;stroke-dashoffset:0;stroke-opacity:1"
       sodipodi:type="star" />
    <path
       sodipodi:type="star"
       style="opacity:1;fill:#ffff00;fill-opacity:1;fill-rule:nonzero;stroke:none;stroke-width:2.5;stroke-linecap:round;stroke-linejoin:round;stroke-miterlimit:4;stroke-dasharray:none;stroke-dashoffset:0;stroke-opacity:1"
       id="path1770"
       sodipodi:sides="5"
       sodipodi:cx="25.657864"
       sodipodi:cy="237.13164"
       sodipodi:r1="3.4017859"
       sodipodi:r2="2.0410714"
       sodipodi:arg1="0.78539816"
       sodipodi:arg2="1.4137167"
       inkscape:flatsided="false"
       inkscape:rounded="0.25"
       inkscape:randomized="0"
       d="m 28.063289,239.53706 c -0.375151,0.37516 -1.562119,-0.47248 -2.086131,-0.38948 -0.524013,0.083 -1.390954,1.25593 -1.863673,1.01507 -0.472719,-0.24086 -0.03337,-1.63167 -0.274229,-2.10439 -0.240863,-0.47271 -1.624292,-0.93477 -1.541297,-1.45878 0.083,-0.52401 1.541497,-0.53595 1.916649,-0.9111 0.375152,-0.37515 0.387086,-1.83365 0.911099,-1.91665 0.524013,-0.083 0.986065,1.30044 1.458784,1.5413 0.472718,0.24086 1.863524,-0.19849 2.104386,0.27423 0.240862,0.47272 -0.932075,1.33966 -1.015071,1.86367 -0.083,0.52401 0.764635,1.71098 0.389483,2.08613 z"
       inkscape:transform-center-x="0.14997373"
       inkscape:transform-center-y="-0.14997378" />
    <path
       inkscape:transform-center-y="-0.23729605"
       inkscape:transform-center-x="0.23728643"
       d="m 34.896417,229.26492 c -0.593563,0.59357 -2.471574,-0.74755 -3.300664,-0.61623 -0.829089,0.13131 -2.200757,1.98712 -2.948689,1.60603 -0.747933,-0.38109 -0.05279,-2.58161 -0.433884,-3.32954 -0.381091,-0.74793 -2.569943,-1.47899 -2.438628,-2.30808 0.131314,-0.82909 2.438945,-0.84797 3.032508,-1.44153 0.593562,-0.59357 0.612445,-2.9012 1.441534,-3.03251 0.82909,-0.13132 1.560145,2.05754 2.308077,2.43863 0.747933,0.38109 2.948455,-0.31405 3.329546,0.43388 0.38109,0.74793 -1.474724,2.1196 -1.606038,2.94869 -0.131315,0.82909 1.2098,2.7071 0.616238,3.30066 z"
       inkscape:randomized="0"
       inkscape:rounded="0.25"
       inkscape:flatsided="false"
       sodipodi:arg2="1.4137167"
       sodipodi:arg1="0.78539816"
       sodipodi:r2="3.2293689"
       sodipodi:r1="5.3822818"
       sodipodi:cy="225.45908"
       sodipodi:cx="31.090569"
       sodipodi:sides="5"
       id="path1772"
       style="opacity:1;fill:#ffff00;fill-opacity:1;fill-rule:nonzero;stroke:none;stroke-width:3.95548248;stroke-linecap:round;stroke-linejoin:round;stroke-miterlimit:4;stroke-dasharray:none;stroke-dashoffset:0;stroke-opacity:1"
       sodipodi:type="star" />
    <path
       sodipodi:type="star"
       style="opacity:1;fill:#ffff00;fill-opacity:1;fill-rule:nonzero;stroke:none;stroke-width:5.09907579;stroke-linecap:round;stroke-linejoin:round;stroke-miterlimit:4;stroke-dasharray:none;stroke-dashoffset:0;stroke-opacity:1"
       id="path1774"
       sodipodi:sides="5"
       sodipodi:cx="103.72286"
       sodipodi:cy="205.34881"
       sodipodi:r1="6.9383855"
       sodipodi:r2="4.1630311"
       sodipodi:arg1="0.78539816"
       sodipodi:arg2="1.4137167"
       inkscape:flatsided="false"
       inkscape:rounded="0.25"
       inkscape:randomized="0"
       d="m 108.62904,210.255 c -0.76517,0.76517 -3.18614,-0.96369 -4.25494,-0.79441 -1.06879,0.16928 -2.83703,2.56164 -3.8012,2.07037 -0.96417,-0.49127 -0.0681,-3.328 -0.55933,-4.29217 -0.491266,-0.96417 -3.31295,-1.90658 -3.14367,-2.97538 0.16928,-1.06879 3.14408,-1.09313 3.90925,-1.8583 0.76518,-0.76517 0.78952,-3.73998 1.85831,-3.90926 1.06879,-0.16928 2.01121,2.65241 2.97538,3.14368 0.96417,0.49127 3.8009,-0.40485 4.29217,0.55932 0.49127,0.96418 -1.90109,2.73241 -2.07037,3.80121 -0.16928,1.06879 1.55957,3.48976 0.7944,4.25494 z"
       inkscape:transform-center-x="0.30588558"
       inkscape:transform-center-y="-0.30591323" />
    <path
       inkscape:transform-center-y="-0.14997378"
       inkscape:transform-center-x="0.14997373"
       d="m 97.286102,220.02638 c -0.375152,0.37515 -1.562119,-0.47248 -2.086132,-0.38948 -0.524013,0.083 -1.390953,1.25593 -1.863672,1.01507 -0.472719,-0.24086 -0.03337,-1.63167 -0.27423,-2.10439 -0.240862,-0.47272 -1.624291,-0.93477 -1.541296,-1.45878 0.083,-0.52401 1.541497,-0.53595 1.916649,-0.9111 0.375152,-0.37515 0.387086,-1.83365 0.911099,-1.91665 0.524013,-0.083 0.986064,1.30044 1.458783,1.5413 0.472719,0.24086 1.863524,-0.19849 2.104387,0.27423 0.240862,0.47272 -0.932076,1.33966 -1.015071,1.86367 -0.083,0.52401 0.764635,1.71098 0.389483,2.08613 z"
       inkscape:randomized="0"
       inkscape:rounded="0.25"
       inkscape:flatsided="false"
       sodipodi:arg2="1.4137167"
       sodipodi:arg1="0.78539816"
       sodipodi:r2="2.0410714"
       sodipodi:r1="3.4017859"
       sodipodi:cy="217.62096"
       sodipodi:cx="94.880675"
       sodipodi:sides="5"
       id="path1776"
       style="opacity:1;fill:#ffff00;fill-opacity:1;fill-rule:nonzero;stroke:none;stroke-width:2.5;stroke-linecap:round;stroke-linejoin:round;stroke-miterlimit:4;stroke-dasharray:none;stroke-dashoffset:0;stroke-opacity:1"
       sodipodi:type="star" />
  </g>
</svg>
