<?xml version="1.0" encoding="UTF-8" standalone="no"?>
<!-- Created with Inkscape (http://www.inkscape.org/) -->

<svg
   xmlns:dc="http://purl.org/dc/elements/1.1/"
   xmlns:cc="http://creativecommons.org/ns#"
   xmlns:rdf="http://www.w3.org/1999/02/22-rdf-syntax-ns#"
   xmlns:svg="http://www.w3.org/2000/svg"
   xmlns="http://www.w3.org/2000/svg"
   xmlns:sodipodi="http://sodipodi.sourceforge.net/DTD/sodipodi-0.dtd"
   xmlns:inkscape="http://www.inkscape.org/namespaces/inkscape"
   width="400mm"
   height="115mm"
   viewBox="0 0 400 115"
   version="1.1"
   id="svg2297"
   inkscape:version="0.92.2 2405546, 2018-03-11"
   sodipodi:docname="ubicacionTitle.svg">
  <defs
     id="defs2291" />
  <sodipodi:namedview
     id="base"
     pagecolor="#ffffff"
     bordercolor="#666666"
     borderopacity="1.0"
     inkscape:pageopacity="0.0"
     inkscape:pageshadow="2"
     inkscape:zoom="0.24748737"
     inkscape:cx="303.6995"
     inkscape:cy="156.38897"
     inkscape:document-units="mm"
     inkscape:current-layer="layer1"
     showgrid="false"
     borderlayer="true"
     inkscape:showpageshadow="false"
     inkscape:window-width="1362"
     inkscape:window-height="724"
     inkscape:window-x="0"
     inkscape:window-y="20"
     inkscape:window-maximized="0" />
  <metadata
     id="metadata2294">
    <rdf:RDF>
      <cc:Work
         rdf:about="">
        <dc:format>image/svg+xml</dc:format>
        <dc:type
           rdf:resource="http://purl.org/dc/dcmitype/StillImage" />
        <dc:title></dc:title>
      </cc:Work>
    </rdf:RDF>
  </metadata>
  <g
     inkscape:label="Layer 1"
     inkscape:groupmode="layer"
     id="layer1"
     transform="translate(0,-182)">
    <g
       transform="matrix(3.3755391,-1.0448602,-1.0448602,-3.3755391,40.073604,197.80369)"
       id="g2844"
       style="fill:#ffff00;stroke:#660080">
      <path
         inkscape:connector-curvature="0"
         id="path2842"
         style="fill:#ffff00;fill-opacity:1;fill-rule:nonzero;stroke:#660080"
         d="m 0,0 c 0.198,0.221 0.084,0.573 -0.206,0.636 l -1.898,0.409 c -0.105,0.023 -0.197,0.09 -0.251,0.184 L -3.332,2.906 C -3.48,3.162 -3.851,3.162 -4,2.906 L -4.976,1.229 C -5.03,1.135 -5.122,1.068 -5.229,1.045 L -7.126,0.636 C -7.415,0.573 -7.529,0.221 -7.332,0 l 1.294,-1.446 c 0.072,-0.081 0.107,-0.19 0.097,-0.297 l -0.198,-1.932 c -0.029,-0.295 0.27,-0.512 0.541,-0.392 l 1.776,0.783 c 0.099,0.044 0.213,0.044 0.312,0 l 1.776,-0.783 c 0.271,-0.12 0.571,0.097 0.541,0.392 l -0.197,1.932 c -0.01,0.107 0.024,0.216 0.097,0.297 z" />
    </g>
    <g
       style="fill:#ffff00;stroke:#660080;stroke-width:1.00012648;stroke-miterlimit:4;stroke-dasharray:none"
       id="g2848"
       transform="matrix(3.3938313,0.98382304,0.98382304,-3.3938313,382.70783,281.41579)">
      <path
         d="m 0,0 c 0.198,0.221 0.084,0.573 -0.206,0.636 l -1.898,0.409 c -0.105,0.023 -0.197,0.09 -0.251,0.184 L -3.332,2.906 C -3.48,3.162 -3.851,3.162 -4,2.906 L -4.976,1.229 C -5.03,1.135 -5.122,1.068 -5.229,1.045 L -7.126,0.636 C -7.415,0.573 -7.529,0.221 -7.332,0 l 1.294,-1.446 c 0.072,-0.081 0.107,-0.19 0.097,-0.297 l -0.198,-1.932 c -0.029,-0.295 0.27,-0.512 0.541,-0.392 l 1.776,0.783 c 0.099,0.044 0.213,0.044 0.312,0 l 1.776,-0.783 c 0.271,-0.12 0.571,0.097 0.541,0.392 l -0.197,1.932 c -0.01,0.107 0.024,0.216 0.097,0.297 z"
         style="fill:#ffff00;fill-opacity:1;fill-rule:nonzero;stroke:#660080;stroke-width:1.00012648;stroke-miterlimit:4;stroke-dasharray:none"
         id="path2846"
         inkscape:connector-curvature="0" />
    </g>
    <g
       aria-label="UBICACIÓN"
       style="font-style:normal;font-variant:normal;font-weight:normal;font-stretch:normal;font-size:16.93333244px;line-height:1.25;font-family:'Microsoft Sans Serif';-inkscape-font-specification:'Microsoft Sans Serif';letter-spacing:0px;word-spacing:0px;fill:#440055;fill-opacity:1;stroke:none;stroke-width:0.26458332"
       id="text2921"
       transform="matrix(5.3722082,0,0,5.3722082,10.156333,-138.6736)">
      <path
         d="m 0.00604754,66.739328 q 0,-0.186267 0.15239999,-0.3556 0.1524,-0.186267 0.38946665,-0.186267 0.23706665,0 0.37253331,0.169333 0.13546671,0.169334 0.13546671,0.389467 v 6.5024 q 0,0.5588 0.2031999,1.049866 0.2201334,0.491067 0.5757333,0.8636 0.3725334,0.3556 0.8636,0.575733 0.508,0.220134 1.0667999,0.220134 0.5588,0 1.0498667,-0.220134 0.4910666,-0.220133 0.8635999,-0.575733 0.3725333,-0.372533 0.5926666,-0.8636 0.2201334,-0.491066 0.2201334,-1.049866 v -6.519333 q 0,-0.186267 0.1524,-0.3556 0.1524,-0.186267 0.3894666,-0.186267 0.2370667,0 0.3725333,0.186267 0.1354667,0.186266 0.1354667,0.372533 v 6.5024 q 0,0.778933 -0.3048,1.4732 -0.3048,0.677333 -0.8128,1.185333 -0.5079999,0.508 -1.2022666,0.8128 -0.6773333,0.287866 -1.4562666,0.287866 -0.7789332,0 -1.4731999,-0.287866 -0.6773333,-0.3048 -1.1853332,-0.8128 -0.50800002,-0.508 -0.81280001,-1.185333 -0.28786665,-0.694267 -0.28786665,-1.4732 z"
         style="font-style:normal;font-variant:normal;font-weight:normal;font-stretch:normal;font-family:Antipasto;-inkscape-font-specification:Antipasto;fill:#440055;fill-opacity:1;stroke-width:0.26458332"
         id="path2923"
         inkscape:connector-curvature="0" />
      <path
         d="m 9.0341592,66.722394 q 0,-0.220133 0.1524,-0.372533 0.1524,-0.1524 0.3725333,-0.1524 h 3.0141335 q 0.541866,0 1.016,0.2032 0.474133,0.2032 0.829733,0.5588 0.3556,0.3556 0.5588,0.846667 0.220133,0.474133 0.220133,1.016 0,0.609599 -0.270933,1.134533 -0.270933,0.524933 -0.7112,0.897466 0.745067,0.423334 1.185333,1.185334 0.4572,0.745066 0.4572,1.6764 0,0.677333 -0.254,1.286933 -0.254,0.592666 -0.7112,1.049866 -0.440266,0.440267 -1.049866,0.7112 -0.592667,0.254 -1.27,0.254 H 9.5590925 q -0.2201333,0 -0.3725333,-0.1524 -0.1524,-0.1524 -0.1524,-0.372533 z m 1.0498668,4.741333 v 4.504267 h 2.4892 q 0.4572,0 0.8636,-0.186267 0.4064,-0.186267 0.7112,-0.491066 0.3048,-0.3048 0.474133,-0.7112 0.186267,-0.4064 0.186267,-0.8636 0,-0.4572 -0.186267,-0.8636 -0.169333,-0.423334 -0.474133,-0.728134 -0.3048,-0.3048 -0.7112,-0.474133 -0.4064,-0.186267 -0.8636,-0.186267 z m 0,-4.216399 v 3.166533 h 2.4892 q 0.321733,0 0.6096,-0.135467 0.287866,-0.135467 0.491066,-0.3556 0.220134,-0.220133 0.338667,-0.508 0.118533,-0.287867 0.118533,-0.592666 0,-0.321734 -0.118533,-0.592667 -0.118533,-0.287867 -0.338667,-0.508 -0.2032,-0.220133 -0.491066,-0.338667 -0.287867,-0.135466 -0.6096,-0.135466 z"
         style="font-style:normal;font-variant:normal;font-weight:normal;font-stretch:normal;font-family:Antipasto;-inkscape-font-specification:Antipasto;fill:#440055;fill-opacity:1;stroke-width:0.26458332"
         id="path2925"
         inkscape:connector-curvature="0" />
      <path
         d="m 17.403989,66.722394 q 0,-0.220133 0.1524,-0.372533 0.1524,-0.1524 0.372533,-0.1524 0.220133,0 0.372533,0.1524 0.1524,0.1524 0.1524,0.372533 v 9.770533 q 0,0.220133 -0.1524,0.372533 -0.1524,0.1524 -0.372533,0.1524 -0.220133,0 -0.372533,-0.1524 -0.1524,-0.1524 -0.1524,-0.372533 z"
         style="font-style:normal;font-variant:normal;font-weight:normal;font-stretch:normal;font-family:Antipasto;-inkscape-font-specification:Antipasto;fill:#440055;fill-opacity:1;stroke-width:0.26458332"
         id="path2927"
         inkscape:connector-curvature="0" />
      <path
         d="m 28.101092,68.652794 q -0.6096,-0.524933 -1.4224,-0.948266 -0.8128,-0.423334 -1.744133,-0.423334 -0.897467,0 -1.693334,0.338667 -0.795866,0.338667 -1.388533,0.931333 -0.575733,0.592667 -0.9144,1.388533 -0.338666,0.795867 -0.338666,1.693334 0,0.897466 0.338666,1.693333 0.338667,0.795867 0.9144,1.388533 0.592667,0.575734 1.388533,0.9144 0.795867,0.338667 1.693334,0.338667 0.948266,0 1.761066,-0.3556 0.829733,-0.372533 1.4224,-1.016 0.08467,-0.1016 0.2032,-0.1524 0.135467,-0.0508 0.270933,-0.0508 0.220134,0 0.321734,0.1524 0.118533,0.1524 0.118533,0.338667 0,0.270933 -0.1524,0.423333 -0.745067,0.8128 -1.761066,1.27 -1.016,0.440266 -2.1844,0.440266 -1.1176,0 -2.099734,-0.423333 -0.982133,-0.423333 -1.710266,-1.151467 -0.728133,-0.728133 -1.151467,-1.710266 -0.423333,-0.982133 -0.423333,-2.099733 0,-1.1176 0.423333,-2.099734 0.423334,-0.982133 1.151467,-1.710266 0.728133,-0.745067 1.710266,-1.1684 0.982134,-0.423333 2.099734,-0.423333 1.134533,0 2.116666,0.440266 0.999067,0.440267 1.744133,1.202267 0.08467,0.08467 0.1524,0.220133 0.06773,0.135467 0.06773,0.270934 0,0.220133 -0.1524,0.338666 -0.1524,0.118534 -0.3556,0.118534 -0.254,0 -0.4064,-0.169334 z"
         style="font-style:normal;font-variant:normal;font-weight:normal;font-stretch:normal;font-family:Antipasto;-inkscape-font-specification:Antipasto;fill:#440055;fill-opacity:1;stroke-width:0.26458332"
         id="path2929"
         inkscape:connector-curvature="0" />
      <path
         d="m 32.992708,66.586928 q 0.0508,-0.135467 0.186267,-0.254 0.135466,-0.135467 0.3048,-0.135467 0.169333,0 0.3048,0.118533 0.135466,0.118534 0.2032,0.270934 l 4.182533,9.702799 q 0.03387,0.06773 0.03387,0.2032 0,0.2032 -0.135466,0.3556 -0.135467,0.1524 -0.372534,0.1524 -0.3556,0 -0.491066,-0.321733 l -1.354667,-3.0988 h -4.758266 l -1.354667,3.0988 q -0.06773,0.1524 -0.2032,0.237066 -0.135466,0.08467 -0.287866,0.08467 -0.237067,0 -0.389467,-0.1524 -0.135467,-0.1524 -0.135467,-0.3556 0,-0.1016 0.0508,-0.2032 z m 0.491067,1.5748 -1.9304,4.368799 h 3.843866 z"
         style="font-style:normal;font-variant:normal;font-weight:normal;font-stretch:normal;font-family:Antipasto;-inkscape-font-specification:Antipasto;fill:#440055;fill-opacity:1;stroke-width:0.26458332"
         id="path2931"
         inkscape:connector-curvature="0" />
      <path
         d="m 46.423485,68.652794 q -0.6096,-0.524933 -1.4224,-0.948266 -0.8128,-0.423334 -1.744133,-0.423334 -0.897467,0 -1.693333,0.338667 -0.795867,0.338667 -1.388533,0.931333 -0.575734,0.592667 -0.9144,1.388533 -0.338667,0.795867 -0.338667,1.693334 0,0.897466 0.338667,1.693333 0.338666,0.795867 0.9144,1.388533 0.592666,0.575734 1.388533,0.9144 0.795866,0.338667 1.693333,0.338667 0.948267,0 1.761067,-0.3556 0.829733,-0.372533 1.4224,-1.016 0.08467,-0.1016 0.2032,-0.1524 0.135466,-0.0508 0.270933,-0.0508 0.220133,0 0.321733,0.1524 0.118533,0.1524 0.118533,0.338667 0,0.270933 -0.1524,0.423333 -0.745066,0.8128 -1.761066,1.27 -1.016,0.440266 -2.1844,0.440266 -1.1176,0 -2.099733,-0.423333 -0.982133,-0.423333 -1.710267,-1.151467 -0.728133,-0.728133 -1.151466,-1.710266 -0.423334,-0.982133 -0.423334,-2.099733 0,-1.1176 0.423334,-2.099734 0.423333,-0.982133 1.151466,-1.710266 0.728134,-0.745067 1.710267,-1.1684 0.982133,-0.423333 2.099733,-0.423333 1.134533,0 2.116667,0.440266 0.999066,0.440267 1.744133,1.202267 0.08467,0.08467 0.1524,0.220133 0.06773,0.135467 0.06773,0.270934 0,0.220133 -0.1524,0.338666 -0.1524,0.118534 -0.3556,0.118534 -0.254,0 -0.4064,-0.169334 z"
         style="font-style:normal;font-variant:normal;font-weight:normal;font-stretch:normal;font-family:Antipasto;-inkscape-font-specification:Antipasto;fill:#440055;fill-opacity:1;stroke-width:0.26458332"
         id="path2933"
         inkscape:connector-curvature="0" />
      <path
         d="m 48.393308,66.722394 q 0,-0.220133 0.1524,-0.372533 0.1524,-0.1524 0.372533,-0.1524 0.220133,0 0.372533,0.1524 0.1524,0.1524 0.1524,0.372533 v 9.770533 q 0,0.220133 -0.1524,0.372533 -0.1524,0.1524 -0.372533,0.1524 -0.220133,0 -0.372533,-0.1524 -0.1524,-0.1524 -0.1524,-0.372533 z"
         style="font-style:normal;font-variant:normal;font-weight:normal;font-stretch:normal;font-family:Antipasto;-inkscape-font-specification:Antipasto;fill:#440055;fill-opacity:1;stroke-width:0.26458332"
         id="path2935"
         inkscape:connector-curvature="0" />
      <path
         d="m 55.923879,66.231328 q 1.1176,0 2.099734,0.423333 0.982133,0.423333 1.710266,1.1684 0.745067,0.728133 1.1684,1.710266 0.423333,0.982134 0.423333,2.099734 0,1.1176 -0.423333,2.099733 -0.423333,0.982133 -1.1684,1.710266 -0.728133,0.728134 -1.710266,1.151467 -0.982134,0.423333 -2.099734,0.423333 -1.1176,0 -2.099733,-0.423333 -0.982133,-0.423333 -1.710266,-1.151467 -0.728134,-0.728133 -1.151467,-1.710266 -0.423333,-0.982133 -0.423333,-2.099733 0,-1.1176 0.423333,-2.099734 0.423333,-0.982133 1.151467,-1.710266 0.728133,-0.745067 1.710266,-1.1684 0.982133,-0.423333 2.099733,-0.423333 z m 0,1.049866 q -0.897466,0 -1.693333,0.338667 -0.795866,0.338667 -1.388533,0.931333 -0.575733,0.592667 -0.9144,1.388533 -0.338667,0.795867 -0.338667,1.693334 0,0.897466 0.338667,1.693333 0.338667,0.795867 0.9144,1.388533 0.592667,0.575734 1.388533,0.9144 0.795867,0.338667 1.693333,0.338667 0.897467,0 1.693334,-0.338667 0.795866,-0.338666 1.388533,-0.9144 0.592667,-0.592666 0.931333,-1.388533 0.338667,-0.795867 0.338667,-1.693333 0,-0.897467 -0.338667,-1.693334 -0.338666,-0.795866 -0.931333,-1.388533 -0.592667,-0.592666 -1.388533,-0.931333 -0.795867,-0.338667 -1.693334,-0.338667 z m 0.982134,-5.029199 q 0.135466,-0.254 0.440266,-0.254 0.237067,0 0.372534,0.169333 0.1524,0.169333 0.1524,0.372533 0,0.135467 -0.0508,0.237067 l -1.405467,2.421466 q -0.06773,0.135467 -0.186267,0.2032 -0.118533,0.06773 -0.254,0.06773 -0.237066,0 -0.389466,-0.186267 -0.135467,-0.186267 -0.135467,-0.372533 0,-0.118534 0.0508,-0.220134 z"
         style="font-style:normal;font-variant:normal;font-weight:normal;font-stretch:normal;font-family:Antipasto;-inkscape-font-specification:Antipasto;fill:#440055;fill-opacity:1;stroke-width:0.26458332"
         id="path2937"
         inkscape:connector-curvature="0" />
      <path
         d="m 62.796166,66.722394 q 0,-0.220133 0.1524,-0.372533 0.1524,-0.1524 0.372534,-0.1524 0.186266,0 0.270933,0.08467 0.1016,0.06773 0.2032,0.2032 l 5.825066,8.246533 v -8.009467 q 0,-0.220133 0.1524,-0.372533 0.1524,-0.1524 0.372534,-0.1524 0.220133,0 0.372533,0.1524 0.1524,0.1524 0.1524,0.372533 v 9.770533 q 0,0.220133 -0.1524,0.372533 -0.1524,0.1524 -0.372533,0.1524 -0.186267,0 -0.3048,-0.1016 -0.118534,-0.118533 -0.2032,-0.254 l -5.7912,-8.195732 v 8.026399 q 0,0.220133 -0.1524,0.372533 -0.1524,0.1524 -0.372533,0.1524 -0.220134,0 -0.372534,-0.1524 -0.1524,-0.1524 -0.1524,-0.372533 z"
         style="font-style:normal;font-variant:normal;font-weight:normal;font-stretch:normal;font-family:Antipasto;-inkscape-font-specification:Antipasto;fill:#440055;fill-opacity:1;stroke-width:0.26458332"
         id="path2939"
         inkscape:connector-curvature="0" />
    </g>
  </g>
</svg>
